<?xml version="1.0" encoding="utf-8"?>
<!-- Generator: Adobe Illustrator 24.2.1, SVG Export Plug-In . SVG Version: 6.00 Build 0)  -->
<svg version="1.1" xmlns="http://www.w3.org/2000/svg" xmlns:xlink="http://www.w3.org/1999/xlink" x="0px" y="0px"
	 viewBox="0 0 100 100" style="enable-background:new 0 0 100 100;" xml:space="preserve">
<style type="text/css">
	.st0{stroke:#000000;stroke-width:10;stroke-linejoin:round;}
	.st1{fill:#999999;}
	.st2{fill:#DDDDDD;}
	.st3{fill:#B2B2B2;}
	.st4{fill:#FFDD15;stroke:#000000;stroke-width:8;stroke-linejoin:round;}
	.st5{fill:url(#SVGID_1_);}
	.st6{fill:#0062BF;}
	.st7{fill:#FFFFFF;filter:url(#Adobe_OpacityMaskFilter);}
	.st8{mask:url(#lightning_37_51_1_1_4_1_);}
	.st9{fill:#FFFFFF;filter:url(#Adobe_OpacityMaskFilter_1_);}
	.st10{mask:url(#lightning_37_51_1_1_4_4_);}
	.st11{fill:#FFFFFF;filter:url(#Adobe_OpacityMaskFilter_2_);}
	.st12{mask:url(#lightning_37_51_1_1_4_5_);}
	.st13{fill:#FFFFFF;filter:url(#Adobe_OpacityMaskFilter_3_);}
	.st14{mask:url(#lightning_37_51_1_1_4_6_);}
	.st15{fill:#FFFFFF;filter:url(#Adobe_OpacityMaskFilter_4_);}
	.st16{mask:url(#lightning_37_51_1_1_4_7_);}
	.st17{fill:#47C0E3;}
	.st18{fill:url(#SVGID_80_);}
	.st19{fill:#FFD348;}
	.st20{fill:url(#SVGID_81_);}
	.st21{fill:#FFFFFF;filter:url(#Adobe_OpacityMaskFilter_5_);}
	.st22{mask:url(#sunWinterMask_1_);}
	.st23{fill:#333333;}
	.st24{display:none;}
	.st25{display:inline;}
	.st26{display:inline;fill:#FFFFFF;}
</style>
<symbol  id="cloud" viewBox="-47.5 -29 95 58.1">
	<path class="st0" d="M8.2-24c-9,0-17.2,5-21.3,13c-5.1-2-10.8,0.5-12.8,5.6c-0.6-0.1-1.1-0.1-1.7-0.1c-4,0-7.9,1.6-10.7,4.5
		c-2.7,2.7-4.2,6.4-4.2,10.2v0.2c0.1,8.2,6.7,14.7,14.9,14.7h55.7c7.9,0,14.3-6.3,14.4-14.2c0-6.5-4.4-12.3-10.7-13.9
		C29.8-15.6,19.9-24,8.2-24z"/>
	
		<image style="overflow:visible;enable-background:new    ;" width="86" height="36" xlink:href="92B646A5A3A0E8B5.png"  transform="matrix(0.9884 0 0 0.9884 -42.4814 -11.3208)">
	</image>
</symbol>
<symbol  id="cloud_10" viewBox="-47.5 -29 95 58.1">
	<path class="st0" d="M8.2-24c-9,0-17.2,5-21.3,13c-5.1-2-10.8,0.5-12.8,5.6c-0.6-0.1-1.1-0.1-1.7-0.1c-4,0-7.9,1.6-10.7,4.5
		c-2.7,2.7-4.2,6.4-4.2,10.2v0.2c0.1,8.2,6.7,14.7,14.9,14.7h55.7c7.9,0,14.3-6.3,14.4-14.2c0-6.5-4.4-12.3-10.7-13.9
		C29.8-15.6,19.9-24,8.2-24z"/>
	
		<image style="overflow:visible;enable-background:new    ;" width="86" height="36" xlink:href="92B646A5A3A0E8B7.png"  transform="matrix(0.9884 0 0 0.9884 -42.4814 -11.3208)">
	</image>
</symbol>
<symbol  id="cloud_11" viewBox="-47.5 -29 95 58.1">
	<path class="st0" d="M8.2-24c-9,0-17.2,5-21.3,13c-5.1-2-10.8,0.5-12.8,5.6c-0.6-0.1-1.1-0.1-1.7-0.1c-4,0-7.9,1.6-10.7,4.5
		c-2.7,2.7-4.2,6.4-4.2,10.2v0.2c0.1,8.2,6.7,14.7,14.9,14.7h55.7c7.9,0,14.3-6.3,14.4-14.2c0-6.5-4.4-12.3-10.7-13.9
		C29.8-15.6,19.9-24,8.2-24z"/>
	
		<image style="overflow:visible;enable-background:new    ;" width="86" height="36" xlink:href="92B646A5A3A0E8B2.png"  transform="matrix(0.9884 0 0 0.9884 -42.4814 -11.3208)">
	</image>
</symbol>
<symbol  id="cloud_12" viewBox="-42.5 -24.1 85 48.3">
	<path class="st1" d="M8.2-24.1c-9,0-17.2,5-21.3,13c-5.1-2-10.8,0.5-12.8,5.6c-0.6-0.1-1.1-0.1-1.7-0.1c-4,0-7.9,1.6-10.7,4.5
		C-41,1.6-42.5,5.2-42.5,9v0.2c0.1,8.2,6.7,14.7,14.9,14.7h55.7c7.9,0,14.3-6.3,14.4-14.2c0-6.5-4.4-12.3-10.7-13.9
		C29.8-15.7,19.9-24.1,8.2-24.1z"/>
	
		<image style="overflow:visible;enable-background:new    ;" width="86" height="36" xlink:href="92B646A5A3A0E8B3.png"  transform="matrix(0.9884 0 0 0.9884 -42.5 -11.436)">
	</image>
</symbol>
<symbol  id="cloud_13" viewBox="-42.5 -24.1 85 48.3">
	<path class="st1" d="M8.2-24.1c-9,0-17.2,5-21.3,13c-5.1-2-10.8,0.5-12.8,5.6c-0.6-0.1-1.1-0.1-1.7-0.1c-4,0-7.9,1.6-10.7,4.5
		C-41,1.6-42.5,5.2-42.5,9v0.2c0.1,8.2,6.7,14.7,14.9,14.7h55.7c7.9,0,14.3-6.3,14.4-14.2c0-6.5-4.4-12.3-10.7-13.9
		C29.8-15.7,19.9-24.1,8.2-24.1z"/>
	
		<image style="overflow:visible;enable-background:new    ;" width="86" height="36" xlink:href="92B646A5A3A0E8BD.png"  transform="matrix(0.9884 0 0 0.9884 -42.5 -11.436)">
	</image>
</symbol>
<symbol  id="cloud_14" viewBox="-42.5 -24.1 85 48.3">
	<path class="st2" d="M8.2-24.1c-9,0-17.2,5-21.3,13c-5.1-2-10.8,0.5-12.8,5.6c-0.6-0.1-1.1-0.1-1.7-0.1c-4,0-7.9,1.6-10.7,4.5
		C-41,1.6-42.5,5.2-42.5,9v0.2c0.1,8.2,6.7,14.7,14.9,14.7h55.7c7.9,0,14.3-6.3,14.4-14.2c0-6.5-4.4-12.3-10.7-13.9
		C29.8-15.7,19.9-24.1,8.2-24.1z"/>
	
		<image style="overflow:visible;enable-background:new    ;" width="86" height="36" xlink:href="92B646A5A3A0E8BF.png"  transform="matrix(0.9884 0 0 0.9884 -42.5 -11.436)">
	</image>
</symbol>
<symbol  id="cloud_15" viewBox="-42.5 -24.1 85 48.3">
	<path class="st3" d="M8.2-24.1c-9,0-17.2,5-21.3,13c-5.1-2-10.8,0.5-12.8,5.6c-0.6-0.1-1.1-0.1-1.7-0.1c-4,0-7.9,1.6-10.7,4.5
		C-41,1.6-42.5,5.2-42.5,9v0.2c0.1,8.2,6.7,14.7,14.9,14.7h55.7c7.9,0,14.3-6.3,14.4-14.2c0-6.5-4.4-12.3-10.7-13.9
		C29.8-15.7,19.9-24.1,8.2-24.1z"/>
	
		<image style="overflow:visible;enable-background:new    ;" width="86" height="36" xlink:href="92B646A5A3A0E8B0.png"  transform="matrix(0.9884 0 0 0.9884 -42.5 -11.436)">
	</image>
</symbol>
<symbol  id="cloud_16" viewBox="-42.5 -24.1 85 48.3">
	<path class="st2" d="M8.2-24.1c-9,0-17.2,5-21.3,13c-5.1-2-10.8,0.5-12.8,5.6c-0.6-0.1-1.1-0.1-1.7-0.1c-4,0-7.9,1.6-10.7,4.5
		C-41,1.6-42.5,5.2-42.5,9v0.2c0.1,8.2,6.7,14.7,14.9,14.7h55.7c7.9,0,14.3-6.3,14.4-14.2c0-6.5-4.4-12.3-10.7-13.9
		C29.8-15.7,19.9-24.1,8.2-24.1z"/>
	
		<image style="overflow:visible;enable-background:new    ;" width="86" height="36" xlink:href="92B646A5A3A0E8B1.png"  transform="matrix(0.9884 0 0 0.9884 -42.5 -11.436)">
	</image>
</symbol>
<symbol  id="cloud_17" viewBox="-47.5 -29 95 58.1">
	<path class="st0" d="M8.2-24c-9,0-17.2,5-21.3,13c-5.1-2-10.8,0.5-12.8,5.6c-0.6-0.1-1.1-0.1-1.7-0.1c-4,0-7.9,1.6-10.7,4.5
		c-2.7,2.7-4.2,6.4-4.2,10.2v0.2c0.1,8.2,6.7,14.7,14.9,14.7h55.7c7.9,0,14.3-6.3,14.4-14.2c0-6.5-4.4-12.3-10.7-13.9
		C29.8-15.6,19.9-24,8.2-24z"/>
	
		<image style="overflow:visible;enable-background:new    ;" width="86" height="36" xlink:href="92B646A5A3A0E8B6.png"  transform="matrix(0.9884 0 0 0.9884 -42.4814 -11.3208)">
	</image>
</symbol>
<symbol  id="cloud_18" viewBox="-47.5 -29 95 58.1">
	<path class="st0" d="M8.2-24c-9,0-17.2,5-21.3,13c-5.1-2-10.8,0.5-12.8,5.6c-0.6-0.1-1.1-0.1-1.7-0.1c-4,0-7.9,1.6-10.7,4.5
		c-2.7,2.7-4.2,6.4-4.2,10.2v0.2c0.1,8.2,6.7,14.7,14.9,14.7h55.7c7.9,0,14.3-6.3,14.4-14.2c0-6.5-4.4-12.3-10.7-13.9
		C29.8-15.6,19.9-24,8.2-24z"/>
	
		<image style="overflow:visible;enable-background:new    ;" width="86" height="36" xlink:href="345835F0A641A23E.png"  transform="matrix(0.9884 0 0 0.9884 -42.4814 -11.3208)">
	</image>
</symbol>
<symbol  id="cloud_19" viewBox="-47.5 -29 95 58.1">
	<path class="st0" d="M8.2-24c-9,0-17.2,5-21.3,13c-5.1-2-10.8,0.5-12.8,5.6c-0.6-0.1-1.1-0.1-1.7-0.1c-4,0-7.9,1.6-10.7,4.5
		c-2.7,2.7-4.2,6.4-4.2,10.2v0.2c0.1,8.2,6.7,14.7,14.9,14.7h55.7c7.9,0,14.3-6.3,14.4-14.2c0-6.5-4.4-12.3-10.7-13.9
		C29.8-15.6,19.9-24,8.2-24z"/>
	
		<image style="overflow:visible;enable-background:new    ;" width="86" height="36" xlink:href="345835F0A641A239.png"  transform="matrix(0.9884 0 0 0.9884 -42.4814 -11.3208)">
	</image>
</symbol>
<symbol  id="cloud_2" viewBox="-47.5 -29 95 58.1">
	<path class="st0" d="M8.2-24c-9,0-17.2,5-21.3,13c-5.1-2-10.8,0.5-12.8,5.6c-0.6-0.1-1.1-0.1-1.7-0.1c-4,0-7.9,1.6-10.7,4.5
		c-2.7,2.7-4.2,6.4-4.2,10.2v0.2c0.1,8.2,6.7,14.7,14.9,14.7h55.7c7.9,0,14.3-6.3,14.4-14.2c0-6.5-4.4-12.3-10.7-13.9
		C29.8-15.6,19.9-24,8.2-24z"/>
	
		<image style="overflow:visible;enable-background:new    ;" width="86" height="36" xlink:href="345835F0A641A23A.png"  transform="matrix(0.9884 0 0 0.9884 -42.4814 -11.3208)">
	</image>
</symbol>
<symbol  id="cloud_20" viewBox="-47.5 -29 95 58.1">
	<path class="st0" d="M8.2-24c-9,0-17.2,5-21.3,13c-5.1-2-10.8,0.5-12.8,5.6c-0.6-0.1-1.1-0.1-1.7-0.1c-4,0-7.9,1.6-10.7,4.5
		c-2.7,2.7-4.2,6.4-4.2,10.2v0.2c0.1,8.2,6.7,14.7,14.9,14.7h55.7c7.9,0,14.3-6.3,14.4-14.2c0-6.5-4.4-12.3-10.7-13.9
		C29.8-15.6,19.9-24,8.2-24z"/>
	
		<image style="overflow:visible;enable-background:new    ;" width="86" height="36" xlink:href="345835F0A641A238.png"  transform="matrix(0.9884 0 0 0.9884 -42.4814 -11.3208)">
	</image>
</symbol>
<symbol  id="cloud_21" viewBox="-47.5 -29 95 58.1">
	<path class="st0" d="M8.2-24c-9,0-17.2,5-21.3,13c-5.1-2-10.8,0.5-12.8,5.6c-0.6-0.1-1.1-0.1-1.7-0.1c-4,0-7.9,1.6-10.7,4.5
		c-2.7,2.7-4.2,6.4-4.2,10.2v0.2c0.1,8.2,6.7,14.7,14.9,14.7h55.7c7.9,0,14.3-6.3,14.4-14.2c0-6.5-4.4-12.3-10.7-13.9
		C29.8-15.6,19.9-24,8.2-24z"/>
	
		<image style="overflow:visible;enable-background:new    ;" width="86" height="36" xlink:href="345835F0A641A236.png"  transform="matrix(0.9884 0 0 0.9884 -42.4814 -11.3208)">
	</image>
</symbol>
<symbol  id="cloud_22" viewBox="-47.5 -29 95 58.1">
	<path class="st0" d="M8.2-24c-9,0-17.2,5-21.3,13c-5.1-2-10.8,0.5-12.8,5.6c-0.6-0.1-1.1-0.1-1.7-0.1c-4,0-7.9,1.6-10.7,4.5
		c-2.7,2.7-4.2,6.4-4.2,10.2v0.2c0.1,8.2,6.7,14.7,14.9,14.7h55.7c7.9,0,14.3-6.3,14.4-14.2c0-6.5-4.4-12.3-10.7-13.9
		C29.8-15.6,19.9-24,8.2-24z"/>
	
		<image style="overflow:visible;enable-background:new    ;" width="86" height="36" xlink:href="345835F0A641A229.png"  transform="matrix(0.9884 0 0 0.9884 -42.4814 -11.3208)">
	</image>
</symbol>
<symbol  id="cloud_23" viewBox="-47.5 -29 95 58.1">
	<path class="st0" d="M8.2-24c-9,0-17.2,5-21.3,13c-5.1-2-10.8,0.5-12.8,5.6c-0.6-0.1-1.1-0.1-1.7-0.1c-4,0-7.9,1.6-10.7,4.5
		c-2.7,2.7-4.2,6.4-4.2,10.2v0.2c0.1,8.2,6.7,14.7,14.9,14.7h55.7c7.9,0,14.3-6.3,14.4-14.2c0-6.5-4.4-12.3-10.7-13.9
		C29.8-15.6,19.9-24,8.2-24z"/>
	
		<image style="overflow:visible;enable-background:new    ;" width="86" height="36" xlink:href="345835F0A641A22A.png"  transform="matrix(0.9884 0 0 0.9884 -42.4814 -11.3208)">
	</image>
</symbol>
<symbol  id="cloud_24" viewBox="-47.5 -29 95 58.1">
	<path class="st0" d="M8.2-24c-9,0-17.2,5-21.3,13c-5.1-2-10.8,0.5-12.8,5.6c-0.6-0.1-1.1-0.1-1.7-0.1c-4,0-7.9,1.6-10.7,4.5
		c-2.7,2.7-4.2,6.4-4.2,10.2v0.2c0.1,8.2,6.7,14.7,14.9,14.7h55.7c7.9,0,14.3-6.3,14.4-14.2c0-6.5-4.4-12.3-10.7-13.9
		C29.8-15.6,19.9-24,8.2-24z"/>
	
		<image style="overflow:visible;enable-background:new    ;" width="86" height="36" xlink:href="345835F0A641A228.png"  transform="matrix(0.9884 0 0 0.9884 -42.4814 -11.3208)">
	</image>
</symbol>
<symbol  id="cloud_25" viewBox="-47.5 -29 95 58.1">
	<path class="st0" d="M8.2-24c-9,0-17.2,5-21.3,13c-5.1-2-10.8,0.5-12.8,5.6c-0.6-0.1-1.1-0.1-1.7-0.1c-4,0-7.9,1.6-10.7,4.5
		c-2.7,2.7-4.2,6.4-4.2,10.2v0.2c0.1,8.2,6.7,14.7,14.9,14.7h55.7c7.9,0,14.3-6.3,14.4-14.2c0-6.5-4.4-12.3-10.7-13.9
		C29.8-15.6,19.9-24,8.2-24z"/>
	
		<image style="overflow:visible;enable-background:new    ;" width="86" height="36" xlink:href="345835F0A641A22E.png"  transform="matrix(0.9884 0 0 0.9884 -42.4814 -11.3208)">
	</image>
</symbol>
<symbol  id="cloud_26" viewBox="-47.5 -29 95 58.1">
	<path class="st0" d="M8.2-24c-9,0-17.2,5-21.3,13c-5.1-2-10.8,0.5-12.8,5.6c-0.6-0.1-1.1-0.1-1.7-0.1c-4,0-7.9,1.6-10.7,4.5
		c-2.7,2.7-4.2,6.4-4.2,10.2v0.2c0.1,8.2,6.7,14.7,14.9,14.7h55.7c7.9,0,14.3-6.3,14.4-14.2c0-6.5-4.4-12.3-10.7-13.9
		C29.8-15.6,19.9-24,8.2-24z"/>
	
		<image style="overflow:visible;enable-background:new    ;" width="86" height="36" xlink:href="345835F0A641A22B.png"  transform="matrix(0.9884 0 0 0.9884 -42.4814 -11.3208)">
	</image>
</symbol>
<symbol  id="cloud_3" viewBox="-47.5 -29 95 58.1">
	<path class="st0" d="M8.2-24c-9,0-17.2,5-21.3,13c-5.1-2-10.8,0.5-12.8,5.6c-0.6-0.1-1.1-0.1-1.7-0.1c-4,0-7.9,1.6-10.7,4.5
		c-2.7,2.7-4.2,6.4-4.2,10.2v0.2c0.1,8.2,6.7,14.7,14.9,14.7h55.7c7.9,0,14.3-6.3,14.4-14.2c0-6.5-4.4-12.3-10.7-13.9
		C29.8-15.6,19.9-24,8.2-24z"/>
	
		<image style="overflow:visible;enable-background:new    ;" width="86" height="36" xlink:href="345835F0A641A24D.png"  transform="matrix(0.9884 0 0 0.9884 -42.4814 -11.3208)">
	</image>
</symbol>
<symbol  id="cloud_4" viewBox="-47.5 -29 95 58.1">
	<path class="st0" d="M8.2-24c-9,0-17.2,5-21.3,13c-5.1-2-10.8,0.5-12.8,5.6c-0.6-0.1-1.1-0.1-1.7-0.1c-4,0-7.9,1.6-10.7,4.5
		c-2.7,2.7-4.2,6.4-4.2,10.2v0.2c0.1,8.2,6.7,14.7,14.9,14.7h55.7c7.9,0,14.3-6.3,14.4-14.2c0-6.5-4.4-12.3-10.7-13.9
		C29.8-15.6,19.9-24,8.2-24z"/>
	
		<image style="overflow:visible;enable-background:new    ;" width="86" height="36" xlink:href="345835F0A641A24F.png"  transform="matrix(0.9884 0 0 0.9884 -42.4814 -11.3208)">
	</image>
</symbol>
<symbol  id="cloud_5" viewBox="-47.5 -29 95 58.1">
	<path class="st0" d="M8.2-24c-9,0-17.2,5-21.3,13c-5.1-2-10.8,0.5-12.8,5.6c-0.6-0.1-1.1-0.1-1.7-0.1c-4,0-7.9,1.6-10.7,4.5
		c-2.7,2.7-4.2,6.4-4.2,10.2v0.2c0.1,8.2,6.7,14.7,14.9,14.7h55.7c7.9,0,14.3-6.3,14.4-14.2c0-6.5-4.4-12.3-10.7-13.9
		C29.8-15.6,19.9-24,8.2-24z"/>
	
		<image style="overflow:visible;enable-background:new    ;" width="86" height="36" xlink:href="345835F0A641A24C.png"  transform="matrix(0.9884 0 0 0.9884 -42.4814 -11.3208)">
	</image>
</symbol>
<symbol  id="cloud_6" viewBox="-47.5 -29 95 58.1">
	<path class="st0" d="M8.2-24c-9,0-17.2,5-21.3,13c-5.1-2-10.8,0.5-12.8,5.6c-0.6-0.1-1.1-0.1-1.7-0.1c-4,0-7.9,1.6-10.7,4.5
		c-2.7,2.7-4.2,6.4-4.2,10.2v0.2c0.1,8.2,6.7,14.7,14.9,14.7h55.7c7.9,0,14.3-6.3,14.4-14.2c0-6.5-4.4-12.3-10.7-13.9
		C29.8-15.6,19.9-24,8.2-24z"/>
	
		<image style="overflow:visible;enable-background:new    ;" width="86" height="36" xlink:href="345835F0A641A24B.png"  transform="matrix(0.9884 0 0 0.9884 -42.4814 -11.3208)">
	</image>
</symbol>
<symbol  id="cloud_7" viewBox="-42.5 -24.1 85 48.3">
	<path class="st2" d="M8.2-24.1c-9,0-17.2,5-21.3,13c-5.1-2-10.8,0.5-12.8,5.6c-0.6-0.1-1.1-0.1-1.7-0.1c-4,0-7.9,1.6-10.7,4.5
		C-41,1.6-42.5,5.2-42.5,9v0.2c0.1,8.2,6.7,14.7,14.9,14.7h55.7c7.9,0,14.3-6.3,14.4-14.2c0-6.5-4.4-12.3-10.7-13.9
		C29.8-15.7,19.9-24.1,8.2-24.1z"/>
	
		<image style="overflow:visible;enable-background:new    ;" width="86" height="36" xlink:href="345835F0A641A245.png"  transform="matrix(0.9884 0 0 0.9884 -42.5 -11.436)">
	</image>
</symbol>
<symbol  id="cloud_8" viewBox="-47.5 -29 95 58.1">
	<path class="st0" d="M8.2-24c-9,0-17.2,5-21.3,13c-5.1-2-10.8,0.5-12.8,5.6c-0.6-0.1-1.1-0.1-1.7-0.1c-4,0-7.9,1.6-10.7,4.5
		c-2.7,2.7-4.2,6.4-4.2,10.2v0.2c0.1,8.2,6.7,14.7,14.9,14.7h55.7c7.9,0,14.3-6.3,14.4-14.2c0-6.5-4.4-12.3-10.7-13.9
		C29.8-15.6,19.9-24,8.2-24z"/>
	
		<image style="overflow:visible;enable-background:new    ;" width="86" height="36" xlink:href="345835F0A641A247.png"  transform="matrix(0.9884 0 0 0.9884 -42.4814 -11.3208)">
	</image>
</symbol>
<symbol  id="cloud_9" viewBox="-47.5 -29 95 58.1">
	<path class="st0" d="M8.2-24c-9,0-17.2,5-21.3,13c-5.1-2-10.8,0.5-12.8,5.6c-0.6-0.1-1.1-0.1-1.7-0.1c-4,0-7.9,1.6-10.7,4.5
		c-2.7,2.7-4.2,6.4-4.2,10.2v0.2c0.1,8.2,6.7,14.7,14.9,14.7h55.7c7.9,0,14.3-6.3,14.4-14.2c0-6.5-4.4-12.3-10.7-13.9
		C29.8-15.6,19.9-24,8.2-24z"/>
	
		<image style="overflow:visible;enable-background:new    ;" width="86" height="36" xlink:href="345835F0A641A244.png"  transform="matrix(0.9884 0 0 0.9884 -42.4814 -11.3208)">
	</image>
</symbol>
<symbol  id="fog" viewBox="-45 -9.5 90 19">
	<g>
		<path class="st1" d="M43.7-6.5h-74.4C-31.4-6.5-32-7.2-32-8s0.6-1.5,1.3-1.5h74.4C44.4-9.5,45-8.8,45-8S44.4-6.5,43.7-6.5z"/>
		<path class="st1" d="M30.7,1.5h-74.4C-44.4,1.5-45,0.8-45,0s0.6-1.5,1.3-1.5h74.4C31.4-1.5,32-0.8,32,0S31.4,1.5,30.7,1.5z"/>
		<path class="st1" d="M41.7,9.5h-74.4C-33.4,9.5-34,8.8-34,8s0.6-1.5,1.3-1.5h74.4C42.4,6.5,43,7.2,43,8S42.4,9.5,41.7,9.5z"/>
	</g>
</symbol>
<symbol  id="lightning" viewBox="-11.3 -24 22.6 48">
	<polygon class="st4" points="7.3,-1.6 0.4,-4.6 3.2,-20 -7.3,-0.5 -0.2,2.5 -4.8,20 	"/>
</symbol>
<symbol  id="moon" viewBox="-26.7 -28.5 53.3 56.9">
	
		<linearGradient id="SVGID_1_" gradientUnits="userSpaceOnUse" x1="7508.1753" y1="-8578.4385" x2="7509.1753" y2="-8578.9385" gradientTransform="matrix(53.3472 0 0 56.9472 -400560.75 488531.3438)">
		<stop  offset="0" style="stop-color:#686E73"/>
		<stop  offset="1" style="stop-color:#6A7075"/>
	</linearGradient>
	<path class="st5" d="M1.8-28.5c2.5,4.3,3.9,9.3,3.9,14.3C5.6,1.6-7.2,14.5-23,14.5c-1.2,0-2.5-0.1-3.7-0.3
		c7.9,13.7,25.4,18.3,39.1,10.4S30.7-0.8,22.8-14.4C18.4-22.1,10.6-27.3,1.8-28.5z"/>
</symbol>
<symbol  id="raindrop" viewBox="-4.2 -6.4 8.5 12.8">
	<path class="st6" d="M-1.7,6.4c-1.4,0-2.5-1.1-2.5-2.5c0-0.3,0.1-0.7,0.2-1l3.5-8c0.6-1.2,2.1-1.7,3.4-1.1C4-5.6,4.5-4.2,4.1-3.1
		l-3.6,8C0.1,5.8-0.8,6.4-1.7,6.4z"/>
</symbol>
<symbol  id="s04_1_" viewBox="-50 -50 100 100">
	<g>
		<defs>
			<rect id="SVGID_2_" x="-50" y="-50" width="100" height="100"/>
		</defs>
		<clipPath id="SVGID_3_">
			<use xlink:href="#SVGID_2_"  style="overflow:visible;"/>
		</clipPath>
		<g style="clip-path:url(#SVGID_3_);">
			
				<use xlink:href="#cloud_4"  width="95" height="58.1" x="-47.5" y="-29" transform="matrix(1 0 0 1 -2.5186 -20.9699)" style="overflow:visible;"/>
		</g>
	</g>
</symbol>
<symbol  id="s04_2" viewBox="-50 -50 100 100">
	<g>
		<defs>
			<rect id="SVGID_4_" x="-50" y="-50" width="100" height="100"/>
		</defs>
		<clipPath id="SVGID_5_">
			<use xlink:href="#SVGID_4_"  style="overflow:visible;"/>
		</clipPath>
		<g style="clip-path:url(#SVGID_5_);">
			
				<use xlink:href="#cloud_5"  width="95" height="58.1" x="-47.5" y="-29" transform="matrix(1 0 0 1 -2.5186 -20.9699)" style="overflow:visible;"/>
		</g>
	</g>
</symbol>
<symbol  id="s04_3" viewBox="-50 -50 100 100">
	<g>
		<defs>
			<rect id="SVGID_6_" x="-50" y="-50" width="100" height="100"/>
		</defs>
		<clipPath id="SVGID_7_">
			<use xlink:href="#SVGID_6_"  style="overflow:visible;"/>
		</clipPath>
		<g style="clip-path:url(#SVGID_7_);">
			
				<use xlink:href="#cloud_6"  width="95" height="58.1" x="-47.5" y="-29" transform="matrix(1 0 0 1 -2.5186 -20.9699)" style="overflow:visible;"/>
		</g>
	</g>
</symbol>
<symbol  id="s09" viewBox="-50 -50 100 100">
	<g>
		<defs>
			<rect id="SVGID_8_" x="-50" y="-50" width="100" height="100"/>
		</defs>
		<clipPath id="SVGID_9_">
			<use xlink:href="#SVGID_8_"  style="overflow:visible;"/>
		</clipPath>
		<g style="clip-path:url(#SVGID_9_);">
			
				<use xlink:href="#cloud_8"  width="95" height="58.1" x="-47.5" y="-29" transform="matrix(1 0 0 1 -2.5186 -20.9699)" style="overflow:visible;"/>
		</g>
	</g>
	
		<use xlink:href="#raindrop"  width="8.5" height="12.8" x="-4.2" y="-6.4" transform="matrix(1 0 0 1 -16.7616 16.2279)" style="overflow:visible;"/>
	
		<use xlink:href="#raindrop"  width="8.5" height="12.8" x="-4.2" y="-6.4" transform="matrix(1 0 0 1 -3.7616 25.2279)" style="overflow:visible;"/>
	
		<use xlink:href="#raindrop"  width="8.5" height="12.8" x="-4.2" y="-6.4" transform="matrix(1 0 0 1 11.2384 16.2279)" style="overflow:visible;"/>
</symbol>
<symbol  id="s10_2" viewBox="-50 -50 100 100">
	<g>
		<defs>
			<rect id="SVGID_10_" x="-50" y="-50" width="100" height="100"/>
		</defs>
		<clipPath id="SVGID_11_">
			<use xlink:href="#SVGID_10_"  style="overflow:visible;"/>
		</clipPath>
		<g style="clip-path:url(#SVGID_11_);">
			
				<use xlink:href="#cloud_22"  width="95" height="58.1" x="-47.5" y="-29" transform="matrix(1 0 0 1 -2.5186 -20.9699)" style="overflow:visible;"/>
		</g>
	</g>
	
		<use xlink:href="#raindrop"  width="8.5" height="12.8" x="-4.2" y="-6.4" transform="matrix(1 0 0 1 -30.7616 16.2279)" style="overflow:visible;"/>
	
		<use xlink:href="#raindrop"  width="8.5" height="12.8" x="-4.2" y="-6.4" transform="matrix(1 0 0 1 -16.7616 25.2279)" style="overflow:visible;"/>
	
		<use xlink:href="#raindrop"  width="8.5" height="12.8" x="-4.2" y="-6.4" transform="matrix(1 0 0 1 -1.7616 17.2279)" style="overflow:visible;"/>
	
		<use xlink:href="#raindrop"  width="8.5" height="12.8" x="-4.2" y="-6.4" transform="matrix(1 0 0 1 11.2384 16.2279)" style="overflow:visible;"/>
	
		<use xlink:href="#raindrop"  width="8.5" height="12.8" x="-4.2" y="-6.4" transform="matrix(1 0 0 1 25.2384 25.2279)" style="overflow:visible;"/>
</symbol>
<symbol  id="s12" viewBox="-63.5 -80.5 127 161">
	<g>
		<defs>
			<rect id="SVGID_12_" x="-63.5" y="-80.5" width="100" height="100"/>
		</defs>
		<clipPath id="SVGID_13_">
			<use xlink:href="#SVGID_12_"  style="overflow:visible;"/>
		</clipPath>
		<g style="clip-path:url(#SVGID_13_);">
			
				<use xlink:href="#cloud_10"  width="95" height="58.1" x="-47.5" y="-29" transform="matrix(1 0 0 1 -16.0186 -51.4699)" style="overflow:visible;"/>
		</g>
	</g>
	<g>
		<defs>
			<rect id="SVGID_14_" x="-36.5" y="-19.5" width="100" height="100"/>
		</defs>
		<clipPath id="SVGID_15_">
			<use xlink:href="#SVGID_14_"  style="overflow:visible;"/>
		</clipPath>
		<g style="clip-path:url(#SVGID_15_);">
			
				<use xlink:href="#snowflake"  width="13" height="11.8" x="-6.5" y="-5.9" transform="matrix(1 0 0 1 -29.9847 -13.9016)" style="overflow:visible;"/>
		</g>
	</g>
	
		<use xlink:href="#raindrop"  width="8.5" height="12.8" x="-4.2" y="-6.4" transform="matrix(1 0 0 1 -16.2616 -6.2721)" style="overflow:visible;"/>
	
		<use xlink:href="#raindrop"  width="8.5" height="12.8" x="-4.2" y="-6.4" transform="matrix(1 0 0 1 -2.2616 -12.2721)" style="overflow:visible;"/>
</symbol>
<symbol  id="s13" viewBox="-77.5 -85 155 170">
	<g>
		<defs>
			<rect id="SVGID_16_" x="-77.5" y="-85" width="100" height="100"/>
		</defs>
		<clipPath id="SVGID_17_">
			<use xlink:href="#SVGID_16_"  style="overflow:visible;"/>
		</clipPath>
		<g style="clip-path:url(#SVGID_17_);">
			
				<use xlink:href="#cloud_11"  width="95" height="58.1" x="-47.5" y="-29" transform="matrix(1 0 0 1 -30.0186 -55.9699)" style="overflow:visible;"/>
		</g>
	</g>
	<g>
		<defs>
			<rect id="SVGID_18_" x="-50.5" y="-24" width="100" height="100"/>
		</defs>
		<clipPath id="SVGID_19_">
			<use xlink:href="#SVGID_18_"  style="overflow:visible;"/>
		</clipPath>
		<g style="clip-path:url(#SVGID_19_);">
			
				<use xlink:href="#snowflake"  width="13" height="11.8" x="-6.5" y="-5.9" transform="matrix(1 0 0 1 -43.9847 -18.4016)" style="overflow:visible;"/>
		</g>
	</g>
	<g>
		<defs>
			<rect id="SVGID_20_" x="-36.5" y="-15" width="100" height="100"/>
		</defs>
		<clipPath id="SVGID_21_">
			<use xlink:href="#SVGID_20_"  style="overflow:visible;"/>
		</clipPath>
		<g style="clip-path:url(#SVGID_21_);">
			
				<use xlink:href="#snowflake"  width="13" height="11.8" x="-6.5" y="-5.9" transform="matrix(1 0 0 1 -29.9847 -9.4016)" style="overflow:visible;"/>
		</g>
	</g>
	<g>
		<defs>
			<rect id="SVGID_22_" x="-22.5" y="-24" width="100" height="100"/>
		</defs>
		<clipPath id="SVGID_23_">
			<use xlink:href="#SVGID_22_"  style="overflow:visible;"/>
		</clipPath>
		<g style="clip-path:url(#SVGID_23_);">
			
				<use xlink:href="#snowflake"  width="13" height="11.8" x="-6.5" y="-5.9" transform="matrix(1 0 0 1 -15.9847 -18.4016)" style="overflow:visible;"/>
		</g>
	</g>
</symbol>
<symbol  id="s22" viewBox="-50 -50 100 100">
	<defs>
		<filter id="Adobe_OpacityMaskFilter" filterUnits="userSpaceOnUse" x="-50" y="-50" width="100" height="100">
			<feColorMatrix  type="matrix" values="1 0 0 0 0  0 1 0 0 0  0 0 1 0 0  0 0 0 1 0"/>
		</filter>
	</defs>
	<mask maskUnits="userSpaceOnUse" x="-50" y="-50" width="100" height="100" id="lightning_37_51_1_1_4_1_">
		<rect x="-53" y="912" class="st7" width="100" height="100"/>
		
			<use xlink:href="#lightning"  width="22.6" height="48" x="-11.3" y="-24" transform="matrix(1 0 0 -1 -3.7 936)" style="overflow:visible;"/>
	</mask>
	<g class="st8">
		<g>
			<defs>
				<rect id="SVGID_24_" x="-50" y="-50" width="100" height="100"/>
			</defs>
			<clipPath id="SVGID_25_">
				<use xlink:href="#SVGID_24_"  style="overflow:visible;"/>
			</clipPath>
			<g style="clip-path:url(#SVGID_25_);">
				
					<use xlink:href="#cloud_9"  width="95" height="58.1" x="-47.5" y="-29" transform="matrix(1 0 0 1 -2.5186 -20.9699)" style="overflow:visible;"/>
			</g>
		</g>
	</g>
	
		<use xlink:href="#lightning"  width="22.6" height="48" x="-11.3" y="-24" transform="matrix(1 0 0 1 -3.7 8)" style="overflow:visible;"/>
	
		<use xlink:href="#raindrop"  width="8.5" height="12.8" x="-4.2" y="-6.4" transform="matrix(1 0 0 1 -19.7616 16.2279)" style="overflow:visible;"/>
	
		<use xlink:href="#raindrop"  width="8.5" height="12.8" x="-4.2" y="-6.4" transform="matrix(1 0 0 1 1.2384 25.2279)" style="overflow:visible;"/>
	
		<use xlink:href="#raindrop"  width="8.5" height="12.8" x="-4.2" y="-6.4" transform="matrix(1 0 0 1 16.2384 16.2279)" style="overflow:visible;"/>
</symbol>
<symbol  id="s30" viewBox="-50 -50 100 100">
	<defs>
		<filter id="Adobe_OpacityMaskFilter_1_" filterUnits="userSpaceOnUse" x="-50" y="-50" width="100" height="100">
			<feColorMatrix  type="matrix" values="1 0 0 0 0  0 1 0 0 0  0 0 1 0 0  0 0 0 1 0"/>
		</filter>
	</defs>
	<mask maskUnits="userSpaceOnUse" x="-50" y="-50" width="100" height="100" id="lightning_37_51_1_1_4_4_">
		<rect x="-53" y="912" class="st9" width="100" height="100"/>
		
			<use xlink:href="#lightning"  width="22.6" height="48" x="-11.3" y="-24" transform="matrix(1 0 0 -1 -3.7 936)" style="overflow:visible;"/>
	</mask>
	<g class="st10">
		<g>
			<defs>
				<rect id="SVGID_26_" x="-50" y="-50" width="100" height="100"/>
			</defs>
			<clipPath id="SVGID_27_">
				<use xlink:href="#SVGID_26_"  style="overflow:visible;"/>
			</clipPath>
			<g style="clip-path:url(#SVGID_27_);">
				
					<use xlink:href="#cloud_17"  width="95" height="58.1" x="-47.5" y="-29" transform="matrix(1 0 0 1 -2.5186 -20.9699)" style="overflow:visible;"/>
			</g>
		</g>
	</g>
	
		<use xlink:href="#lightning"  width="22.6" height="48" x="-11.3" y="-24" transform="matrix(1 0 0 1 -3.7 8)" style="overflow:visible;"/>
	
		<use xlink:href="#raindrop"  width="8.5" height="12.8" x="-4.2" y="-6.4" transform="matrix(1 0 0 1 -20.7616 25.2279)" style="overflow:visible;"/>
	
		<use xlink:href="#raindrop"  width="8.5" height="12.8" x="-4.2" y="-6.4" transform="matrix(1 0 0 1 9.2384 16.2279)" style="overflow:visible;"/>
</symbol>
<symbol  id="s31" viewBox="-61.5 -85 123 170">
	<defs>
		<filter id="Adobe_OpacityMaskFilter_2_" filterUnits="userSpaceOnUse" x="-61.5" y="-15" width="100" height="100">
			<feColorMatrix  type="matrix" values="1 0 0 0 0  0 1 0 0 0  0 0 1 0 0  0 0 0 1 0"/>
		</filter>
	</defs>
	<mask maskUnits="userSpaceOnUse" x="-61.5" y="-15" width="100" height="100" id="lightning_37_51_1_1_4_5_">
		<rect x="-64.5" y="877" class="st11" width="100" height="100"/>
		
			<use xlink:href="#lightning"  width="22.6" height="48" x="-11.3" y="-24" transform="matrix(1 0 0 -1 -15.2 901)" style="overflow:visible;"/>
	</mask>
	<g class="st12">
		<g>
			<defs>
				<rect id="SVGID_28_" x="-61.5" y="-85" width="100" height="100"/>
			</defs>
			<clipPath id="SVGID_29_">
				<use xlink:href="#SVGID_28_"  style="overflow:visible;"/>
			</clipPath>
			<g style="clip-path:url(#SVGID_29_);">
				
					<use xlink:href="#cloud_18"  width="95" height="58.1" x="-47.5" y="-29" transform="matrix(1 0 0 1 -14.0186 -55.9699)" style="overflow:visible;"/>
			</g>
		</g>
	</g>
	
		<use xlink:href="#lightning"  width="22.6" height="48" x="-11.3" y="-24" transform="matrix(1 0 0 1 -15.2 -27)" style="overflow:visible;"/>
	<g>
		<defs>
			<rect id="SVGID_30_" x="-38.5" y="-15" width="100" height="100"/>
		</defs>
		<clipPath id="SVGID_31_">
			<use xlink:href="#SVGID_30_"  style="overflow:visible;"/>
		</clipPath>
		<g style="clip-path:url(#SVGID_31_);">
			
				<use xlink:href="#snowflake"  width="13" height="11.8" x="-6.5" y="-5.9" transform="matrix(1 0 0 1 -31.9847 -9.4016)" style="overflow:visible;"/>
		</g>
	</g>
	
		<use xlink:href="#raindrop"  width="8.5" height="12.8" x="-4.2" y="-6.4" transform="matrix(1 0 0 1 -2.2616 -17.7721)" style="overflow:visible;"/>
</symbol>
<symbol  id="s32" viewBox="-81.5 -85 163 170">
	<defs>
		<filter id="Adobe_OpacityMaskFilter_3_" filterUnits="userSpaceOnUse" x="-81.5" y="-15" width="100" height="100">
			<feColorMatrix  type="matrix" values="1 0 0 0 0  0 1 0 0 0  0 0 1 0 0  0 0 0 1 0"/>
		</filter>
	</defs>
	<mask maskUnits="userSpaceOnUse" x="-81.5" y="-15" width="100" height="100" id="lightning_37_51_1_1_4_6_">
		<rect x="-84.5" y="877" class="st13" width="100" height="100"/>
		
			<use xlink:href="#lightning"  width="22.6" height="48" x="-11.3" y="-24" transform="matrix(1 0 0 -1 -35.2 901)" style="overflow:visible;"/>
	</mask>
	<g class="st14">
		<g>
			<defs>
				<rect id="SVGID_32_" x="-81.5" y="-85" width="100" height="100"/>
			</defs>
			<clipPath id="SVGID_33_">
				<use xlink:href="#SVGID_32_"  style="overflow:visible;"/>
			</clipPath>
			<g style="clip-path:url(#SVGID_33_);">
				
					<use xlink:href="#cloud_19"  width="95" height="58.1" x="-47.5" y="-29" transform="matrix(1 0 0 1 -34.0186 -55.9699)" style="overflow:visible;"/>
			</g>
		</g>
	</g>
	
		<use xlink:href="#lightning"  width="22.6" height="48" x="-11.3" y="-24" transform="matrix(1 0 0 1 -35.2 -27)" style="overflow:visible;"/>
	<g>
		<defs>
			<rect id="SVGID_34_" x="-69.5" y="-24" width="100" height="100"/>
		</defs>
		<clipPath id="SVGID_35_">
			<use xlink:href="#SVGID_34_"  style="overflow:visible;"/>
		</clipPath>
		<g style="clip-path:url(#SVGID_35_);">
			
				<use xlink:href="#snowflake"  width="13" height="11.8" x="-6.5" y="-5.9" transform="matrix(1 0 0 1 -62.9847 -18.4016)" style="overflow:visible;"/>
		</g>
	</g>
	
		<use xlink:href="#raindrop"  width="8.5" height="12.8" x="-4.2" y="-6.4" transform="matrix(1 0 0 1 -50.2616 -10.7721)" style="overflow:visible;"/>
	
		<use xlink:href="#raindrop"  width="8.5" height="12.8" x="-4.2" y="-6.4" transform="matrix(1 0 0 1 -25.2616 -16.7721)" style="overflow:visible;"/>
	<g>
		<defs>
			<rect id="SVGID_36_" x="-18.5" y="-15" width="100" height="100"/>
		</defs>
		<clipPath id="SVGID_37_">
			<use xlink:href="#SVGID_36_"  style="overflow:visible;"/>
		</clipPath>
		<g style="clip-path:url(#SVGID_37_);">
			
				<use xlink:href="#snowflake"  width="13" height="11.8" x="-6.5" y="-5.9" transform="matrix(1 0 0 1 -11.9847 -9.4016)" style="overflow:visible;"/>
		</g>
	</g>
	
		<use xlink:href="#raindrop"  width="8.5" height="12.8" x="-4.2" y="-6.4" transform="matrix(1 0 0 1 1.7384 -16.7721)" style="overflow:visible;"/>
</symbol>
<symbol  id="s34" viewBox="-90 -85 180 170">
	<defs>
		<filter id="Adobe_OpacityMaskFilter_4_" filterUnits="userSpaceOnUse" x="-90" y="-15" width="100" height="100">
			<feColorMatrix  type="matrix" values="1 0 0 0 0  0 1 0 0 0  0 0 1 0 0  0 0 0 1 0"/>
		</filter>
	</defs>
	<mask maskUnits="userSpaceOnUse" x="-90" y="-15" width="100" height="100" id="lightning_37_51_1_1_4_7_">
		<rect x="-93" y="877" class="st15" width="100" height="100"/>
		
			<use xlink:href="#lightning"  width="22.6" height="48" x="-11.3" y="-24" transform="matrix(1 0 0 -1 -43.7 901)" style="overflow:visible;"/>
	</mask>
	<g class="st16">
		<g>
			<defs>
				<rect id="SVGID_38_" x="-90" y="-85" width="100" height="100"/>
			</defs>
			<clipPath id="SVGID_39_">
				<use xlink:href="#SVGID_38_"  style="overflow:visible;"/>
			</clipPath>
			<g style="clip-path:url(#SVGID_39_);">
				
					<use xlink:href="#cloud_20"  width="95" height="58.1" x="-47.5" y="-29" transform="matrix(1 0 0 1 -42.5186 -55.9699)" style="overflow:visible;"/>
			</g>
		</g>
	</g>
	
		<use xlink:href="#lightning"  width="22.6" height="48" x="-11.3" y="-24" transform="matrix(1 0 0 1 -43.7 -27)" style="overflow:visible;"/>
	<g>
		<defs>
			<rect id="SVGID_40_" x="-80" y="-24" width="100" height="100"/>
		</defs>
		<clipPath id="SVGID_41_">
			<use xlink:href="#SVGID_40_"  style="overflow:visible;"/>
		</clipPath>
		<g style="clip-path:url(#SVGID_41_);">
			
				<use xlink:href="#snowflake"  width="13" height="11.8" x="-6.5" y="-5.9" transform="matrix(1 0 0 1 -73.4847 -18.4016)" style="overflow:visible;"/>
		</g>
	</g>
	<g>
		<defs>
			<rect id="SVGID_42_" x="-66" y="-15" width="100" height="100"/>
		</defs>
		<clipPath id="SVGID_43_">
			<use xlink:href="#SVGID_42_"  style="overflow:visible;"/>
		</clipPath>
		<g style="clip-path:url(#SVGID_43_);">
			
				<use xlink:href="#snowflake"  width="13" height="11.8" x="-6.5" y="-5.9" transform="matrix(1 0 0 1 -59.4847 -9.4016)" style="overflow:visible;"/>
		</g>
	</g>
	<g>
		<defs>
			<rect id="SVGID_44_" x="-38" y="-24" width="100" height="100"/>
		</defs>
		<clipPath id="SVGID_45_">
			<use xlink:href="#SVGID_44_"  style="overflow:visible;"/>
		</clipPath>
		<g style="clip-path:url(#SVGID_45_);">
			
				<use xlink:href="#snowflake"  width="13" height="11.8" x="-6.5" y="-5.9" transform="matrix(1 0 0 1 -31.4847 -18.4016)" style="overflow:visible;"/>
		</g>
	</g>
	<g>
		<defs>
			<rect id="SVGID_46_" x="-24" y="-15" width="100" height="100"/>
		</defs>
		<clipPath id="SVGID_47_">
			<use xlink:href="#SVGID_46_"  style="overflow:visible;"/>
		</clipPath>
		<g style="clip-path:url(#SVGID_47_);">
			
				<use xlink:href="#snowflake"  width="13" height="11.8" x="-6.5" y="-5.9" transform="matrix(1 0 0 1 -17.4847 -9.4016)" style="overflow:visible;"/>
		</g>
	</g>
	<g>
		<defs>
			<rect id="SVGID_48_" x="-10" y="-24" width="100" height="100"/>
		</defs>
		<clipPath id="SVGID_49_">
			<use xlink:href="#SVGID_48_"  style="overflow:visible;"/>
		</clipPath>
		<g style="clip-path:url(#SVGID_49_);">
			
				<use xlink:href="#snowflake"  width="13" height="11.8" x="-6.5" y="-5.9" transform="matrix(1 0 0 1 -3.4847 -18.4016)" style="overflow:visible;"/>
		</g>
	</g>
</symbol>
<symbol  id="s46" viewBox="-50 -50 100 100">
	<g>
		<defs>
			<rect id="SVGID_50_" x="-50" y="-50" width="100" height="100"/>
		</defs>
		<clipPath id="SVGID_51_">
			<use xlink:href="#SVGID_50_"  style="overflow:visible;"/>
		</clipPath>
		<g style="clip-path:url(#SVGID_51_);">
			
				<use xlink:href="#cloud_21"  width="95" height="58.1" x="-47.5" y="-29" transform="matrix(1 0 0 1 -2.5186 -20.9699)" style="overflow:visible;"/>
		</g>
	</g>
	
		<use xlink:href="#raindrop"  width="8.5" height="12.8" x="-4.2" y="-6.4" transform="matrix(1 0 0 1 -16.7616 25.2279)" style="overflow:visible;"/>
	
		<use xlink:href="#raindrop"  width="8.5" height="12.8" x="-4.2" y="-6.4" transform="matrix(1 0 0 1 7.2384 16.2279)" style="overflow:visible;"/>
</symbol>
<symbol  id="s47" viewBox="-63 -85 126 170">
	<g>
		<defs>
			<rect id="SVGID_52_" x="-63" y="-85" width="100" height="100"/>
		</defs>
		<clipPath id="SVGID_53_">
			<use xlink:href="#SVGID_52_"  style="overflow:visible;"/>
		</clipPath>
		<g style="clip-path:url(#SVGID_53_);">
			
				<use xlink:href="#cloud_23"  width="95" height="58.1" x="-47.5" y="-29" transform="matrix(1 0 0 1 -15.5186 -55.9699)" style="overflow:visible;"/>
		</g>
	</g>
	<g>
		<defs>
			<rect id="SVGID_54_" x="-37" y="-15" width="100" height="100"/>
		</defs>
		<clipPath id="SVGID_55_">
			<use xlink:href="#SVGID_54_"  style="overflow:visible;"/>
		</clipPath>
		<g style="clip-path:url(#SVGID_55_);">
			
				<use xlink:href="#snowflake"  width="13" height="11.8" x="-6.5" y="-5.9" transform="matrix(1 0 0 1 -30.4847 -9.4016)" style="overflow:visible;"/>
		</g>
	</g>
	
		<use xlink:href="#raindrop"  width="8.5" height="12.8" x="-4.2" y="-6.4" transform="matrix(1 0 0 1 -1.7616 -17.7721)" style="overflow:visible;"/>
</symbol>
<symbol  id="s48" viewBox="-77.5 -85 155 170">
	<g>
		<defs>
			<rect id="SVGID_56_" x="-77.5" y="-85" width="100" height="100"/>
		</defs>
		<clipPath id="SVGID_57_">
			<use xlink:href="#SVGID_56_"  style="overflow:visible;"/>
		</clipPath>
		<g style="clip-path:url(#SVGID_57_);">
			
				<use xlink:href="#cloud_24"  width="95" height="58.1" x="-47.5" y="-29" transform="matrix(1 0 0 1 -30.0186 -55.9699)" style="overflow:visible;"/>
		</g>
	</g>
	<g>
		<defs>
			<rect id="SVGID_58_" x="-65.5" y="-24" width="100" height="100"/>
		</defs>
		<clipPath id="SVGID_59_">
			<use xlink:href="#SVGID_58_"  style="overflow:visible;"/>
		</clipPath>
		<g style="clip-path:url(#SVGID_59_);">
			
				<use xlink:href="#snowflake"  width="13" height="11.8" x="-6.5" y="-5.9" transform="matrix(1 0 0 1 -58.9847 -18.4016)" style="overflow:visible;"/>
		</g>
	</g>
	
		<use xlink:href="#raindrop"  width="8.5" height="12.8" x="-4.2" y="-6.4" transform="matrix(1 0 0 1 -44.2616 -10.7721)" style="overflow:visible;"/>
	
		<use xlink:href="#raindrop"  width="8.5" height="12.8" x="-4.2" y="-6.4" transform="matrix(1 0 0 1 -29.2616 -16.7721)" style="overflow:visible;"/>
	<g>
		<defs>
			<rect id="SVGID_60_" x="-22.5" y="-15" width="100" height="100"/>
		</defs>
		<clipPath id="SVGID_61_">
			<use xlink:href="#SVGID_60_"  style="overflow:visible;"/>
		</clipPath>
		<g style="clip-path:url(#SVGID_61_);">
			
				<use xlink:href="#snowflake"  width="13" height="11.8" x="-6.5" y="-5.9" transform="matrix(1 0 0 1 -15.9847 -9.4016)" style="overflow:visible;"/>
		</g>
	</g>
	
		<use xlink:href="#raindrop"  width="8.5" height="12.8" x="-4.2" y="-6.4" transform="matrix(1 0 0 1 -2.2616 -16.7721)" style="overflow:visible;"/>
</symbol>
<symbol  id="s49" viewBox="-77.5 -85 155 170">
	<g>
		<defs>
			<rect id="SVGID_62_" x="-77.5" y="-85" width="100" height="100"/>
		</defs>
		<clipPath id="SVGID_63_">
			<use xlink:href="#SVGID_62_"  style="overflow:visible;"/>
		</clipPath>
		<g style="clip-path:url(#SVGID_63_);">
			
				<use xlink:href="#cloud_25"  width="95" height="58.1" x="-47.5" y="-29" transform="matrix(1 0 0 1 -30.0186 -55.9699)" style="overflow:visible;"/>
		</g>
	</g>
	<g>
		<defs>
			<rect id="SVGID_64_" x="-51.5" y="-15" width="100" height="100"/>
		</defs>
		<clipPath id="SVGID_65_">
			<use xlink:href="#SVGID_64_"  style="overflow:visible;"/>
		</clipPath>
		<g style="clip-path:url(#SVGID_65_);">
			
				<use xlink:href="#snowflake"  width="13" height="11.8" x="-6.5" y="-5.9" transform="matrix(1 0 0 1 -44.9847 -9.4016)" style="overflow:visible;"/>
		</g>
	</g>
	<g>
		<defs>
			<rect id="SVGID_66_" x="-22.5" y="-24" width="100" height="100"/>
		</defs>
		<clipPath id="SVGID_67_">
			<use xlink:href="#SVGID_66_"  style="overflow:visible;"/>
		</clipPath>
		<g style="clip-path:url(#SVGID_67_);">
			
				<use xlink:href="#snowflake"  width="13" height="11.8" x="-6.5" y="-5.9" transform="matrix(1 0 0 1 -15.9847 -18.4016)" style="overflow:visible;"/>
		</g>
	</g>
</symbol>
<symbol  id="s50" viewBox="-84.5 -85 169 170">
	<g>
		<defs>
			<rect id="SVGID_68_" x="-84.5" y="-85" width="100" height="100"/>
		</defs>
		<clipPath id="SVGID_69_">
			<use xlink:href="#SVGID_68_"  style="overflow:visible;"/>
		</clipPath>
		<g style="clip-path:url(#SVGID_69_);">
			
				<use xlink:href="#cloud_26"  width="95" height="58.1" x="-47.5" y="-29" transform="matrix(1 0 0 1 -37.0186 -55.9699)" style="overflow:visible;"/>
		</g>
	</g>
	<g>
		<defs>
			<rect id="SVGID_70_" x="-72.5" y="-24" width="100" height="100"/>
		</defs>
		<clipPath id="SVGID_71_">
			<use xlink:href="#SVGID_70_"  style="overflow:visible;"/>
		</clipPath>
		<g style="clip-path:url(#SVGID_71_);">
			
				<use xlink:href="#snowflake"  width="13" height="11.8" x="-6.5" y="-5.9" transform="matrix(1 0 0 1 -65.9847 -18.4016)" style="overflow:visible;"/>
		</g>
	</g>
	<g>
		<defs>
			<rect id="SVGID_72_" x="-58.5" y="-15" width="100" height="100"/>
		</defs>
		<clipPath id="SVGID_73_">
			<use xlink:href="#SVGID_72_"  style="overflow:visible;"/>
		</clipPath>
		<g style="clip-path:url(#SVGID_73_);">
			
				<use xlink:href="#snowflake"  width="13" height="11.8" x="-6.5" y="-5.9" transform="matrix(1 0 0 1 -51.9847 -9.4016)" style="overflow:visible;"/>
		</g>
	</g>
	<g>
		<defs>
			<rect id="SVGID_74_" x="-43.5" y="-24" width="100" height="100"/>
		</defs>
		<clipPath id="SVGID_75_">
			<use xlink:href="#SVGID_74_"  style="overflow:visible;"/>
		</clipPath>
		<g style="clip-path:url(#SVGID_75_);">
			
				<use xlink:href="#snowflake"  width="13" height="11.8" x="-6.5" y="-5.9" transform="matrix(1 0 0 1 -36.9847 -18.4016)" style="overflow:visible;"/>
		</g>
	</g>
	<g>
		<defs>
			<rect id="SVGID_76_" x="-29.5" y="-15" width="100" height="100"/>
		</defs>
		<clipPath id="SVGID_77_">
			<use xlink:href="#SVGID_76_"  style="overflow:visible;"/>
		</clipPath>
		<g style="clip-path:url(#SVGID_77_);">
			
				<use xlink:href="#snowflake"  width="13" height="11.8" x="-6.5" y="-5.9" transform="matrix(1 0 0 1 -22.9847 -9.4016)" style="overflow:visible;"/>
		</g>
	</g>
	<g>
		<defs>
			<rect id="SVGID_78_" x="-15.5" y="-24" width="100" height="100"/>
		</defs>
		<clipPath id="SVGID_79_">
			<use xlink:href="#SVGID_78_"  style="overflow:visible;"/>
		</clipPath>
		<g style="clip-path:url(#SVGID_79_);">
			
				<use xlink:href="#snowflake"  width="13" height="11.8" x="-6.5" y="-5.9" transform="matrix(1 0 0 1 -8.9847 -18.4016)" style="overflow:visible;"/>
		</g>
	</g>
</symbol>
<symbol  id="snowflake" viewBox="-6.5 -5.9 13 11.8">
	<path class="st17" d="M5.2-1.3H2.3l1.4-2.5C4.2-4.4,4-5.2,3.4-5.7C2.8-6.1,1.9-5.9,1.5-5.3c0,0.1-0.1,0.1-0.1,0.2L0-2.7l-1.4-2.5
		C-1.8-5.8-2.6-6-3.3-5.6c-0.6,0.4-0.9,1.2-0.5,1.8l1.4,2.5h-2.8c-0.7,0-1.3,0.6-1.3,1.3s0.6,1.4,1.3,1.4h2.8l-1.4,2.4
		c-0.4,0.6-0.2,1.5,0.5,1.8C-2.6,6-1.8,5.8-1.4,5.2L0,2.7l1.4,2.5c0.4,0.6,1.2,0.9,1.8,0.5c0.6-0.4,0.9-1.2,0.5-1.8l0,0L2.3,1.4h2.8
		c0.7,0,1.4-0.6,1.4-1.3S5.9-1.3,5.2-1.3C5.2-1.3,5.2-1.3,5.2-1.3z"/>
</symbol>
<symbol  id="sun" viewBox="-41 -41 82 82">
	<radialGradient id="SVGID_80_" cx="0" cy="0" r="41" gradientUnits="userSpaceOnUse">
		<stop  offset="0.54" style="stop-color:#D6B849"/>
		<stop  offset="0.67" style="stop-color:#FFCE47"/>
		<stop  offset="1" style="stop-color:#FFDB73"/>
	</radialGradient>
	<path class="st18" d="M25.6,6.9L41,0L25.6-6.9l9.8-13.7l-16.7,1.8l1.7-16.7L6.9-25.6L0-41l-6.9,15.4l-13.7-9.8l1.8,16.7l-16.7-1.7
		l9.9,13.6L-41,0l15.4,6.8l-9.8,13.7l16.7-1.8l-1.7,16.7l13.6-9.9L0,41l6.8-15.4l13.7,9.8l-1.7-16.7l16.8,1.7L25.6,6.9z"/>
	<path class="st19" d="M-21.7,12.5c6.9,12,22.2,16,34.2,9.1s16-22.2,9.1-34.2c-6.9-12-22.2-16-34.1-9.1
		C-24.5-14.8-28.6,0.5-21.7,12.5C-21.7,12.5-21.7,12.5-21.7,12.5z"/>
	
		<linearGradient id="SVGID_81_" gradientUnits="userSpaceOnUse" x1="7468.8638" y1="-8525.1064" x2="7469.8638" y2="-8524.1064" gradientTransform="matrix(42.007 0 0 42.007 -313765.75 358093.2188)">
		<stop  offset="0" style="stop-color:#FFAF22"/>
		<stop  offset="1" style="stop-color:#F09900"/>
	</linearGradient>
	<path class="st20" d="M-18.3,10.5c5.8,10,18.6,13.5,28.7,7.7s13.5-18.6,7.7-28.7c-5.8-10-18.6-13.5-28.7-7.7
		C-20.6-12.4-24.1,0.4-18.3,10.5C-18.3,10.5-18.3,10.5-18.3,10.5z"/>
</symbol>
<symbol  id="sunWinter" viewBox="-45 -41 90 82">
	<defs>
		<filter id="Adobe_OpacityMaskFilter_5_" filterUnits="userSpaceOnUse" x="-41" y="-41" width="82" height="82">
			<feColorMatrix  type="matrix" values="1 0 0 0 0  0 1 0 0 0  0 0 1 0 0  0 0 0 1 0"/>
		</filter>
	</defs>
	<mask maskUnits="userSpaceOnUse" x="-41" y="-41" width="82" height="82" id="sunWinterMask_1_">
		<rect x="-45" y="979" class="st21" width="100" height="100"/>
	</mask>
	<g class="st22">
		<use xlink:href="#sun"  width="82" height="82" x="-41" y="-41" style="overflow:visible;"/>
	</g>
	<path class="st23" d="M43.3,1.7h-86.6c-0.8,0.1-1.6-0.5-1.7-1.4c0.1-0.8,0.9-1.4,1.7-1.4h86.6c0.8-0.1,1.6,0.5,1.7,1.4
		C44.9,1.2,44.1,1.8,43.3,1.7z"/>
</symbol>
<g id="s04" class="st24">
	<path class="st25" d="M84.7,41.5c-2.1-11.6-12.2-20-24-20c0,0,0,0,0,0c-9.1,0-17.3,4.9-21.6,12.9c-5.1-1.7-10.7,0.7-12.9,5.6
		c-0.5,0-1-0.1-1.4-0.1c-4.1,0-8.1,1.7-11,4.6c-2.8,2.8-4.3,6.6-4.3,10.5v0.2c0.1,8.4,7,15.2,15.4,15.2h55.7c0,0,0.1,0,0.1,0
		c3.9,0,7.6-1.5,10.4-4.3c2.8-2.8,4.4-6.5,4.4-10.4C95.5,49.2,91.1,43.3,84.7,41.5z"/>
</g>
<g id="s50__x28__x2B_04_x29_" class="st24">
	<path class="st25" d="M28.7,79.8h-2l1-1.7c0.3-0.4,0.4-0.9,0.3-1.4c-0.1-0.5-0.4-0.9-0.8-1.2c-0.8-0.6-2-0.4-2.6,0.5
		c-0.1,0.1-0.1,0.2-0.1,0.2l-1,1.7l-1-1.7c-0.5-0.9-1.6-1.2-2.5-0.7c-0.9,0.5-1.2,1.6-0.7,2.5l1,1.7h-2c-1,0-1.9,0.8-1.9,1.9
		c0,1,0.8,1.8,1.9,1.8h2l-1,1.7c-0.5,0.9-0.2,2,0.7,2.5c0.9,0.5,2,0.2,2.5-0.6l1-1.7l1,1.7c0.2,0.4,0.6,0.7,1.1,0.9
		c0.2,0,0.3,0.1,0.5,0.1c0.3,0,0.6-0.1,0.9-0.2c0.4-0.2,0.7-0.6,0.9-1.1c0.1-0.5,0.1-1-0.2-1.4l-1-1.7h2c1,0,1.9-0.8,1.9-1.8
		C30.5,80.6,29.7,79.8,28.7,79.8z"/>
	<path class="st25" d="M42.7,88.8h-2l1-1.7c0.3-0.4,0.4-0.9,0.3-1.4c-0.1-0.5-0.4-0.9-0.8-1.2c-0.8-0.6-2-0.4-2.6,0.5
		c-0.1,0.1-0.1,0.2-0.1,0.2l-1,1.7l-1-1.7c-0.5-0.9-1.6-1.2-2.5-0.7c-0.9,0.5-1.2,1.6-0.7,2.5l1,1.7h-2c-1,0-1.9,0.8-1.9,1.9
		c0,1,0.8,1.8,1.9,1.8h2l-1,1.7c-0.5,0.9-0.2,2,0.7,2.5c0.9,0.5,2,0.2,2.5-0.6l1-1.7l1,1.7c0.2,0.4,0.6,0.7,1.1,0.9
		c0.2,0,0.3,0.1,0.5,0.1c0.3,0,0.6-0.1,0.9-0.2c0.4-0.2,0.7-0.6,0.9-1.1c0.1-0.5,0.1-1-0.2-1.4l-1-1.7h2c1,0,1.9-0.8,1.9-1.8
		C44.5,89.6,43.7,88.8,42.7,88.8z"/>
	<path class="st25" d="M59,80.3c-0.3-0.3-0.8-0.5-1.3-0.5h-2l1-1.7c0.3-0.4,0.4-0.9,0.3-1.4c-0.1-0.5-0.4-0.9-0.8-1.2
		c-0.8-0.6-2-0.4-2.6,0.5c-0.1,0.1-0.1,0.2-0.1,0.2l-1,1.7l-1-1.7c-0.5-0.9-1.6-1.2-2.5-0.7c-0.9,0.5-1.2,1.6-0.7,2.5l1,1.7h-2
		c-1,0-1.9,0.8-1.9,1.9c0,1,0.8,1.8,1.9,1.8h2l-1,1.7c-0.5,0.9-0.2,2,0.7,2.5c0.9,0.5,2,0.2,2.5-0.6l1-1.7l1,1.7
		c0.3,0.6,1,0.9,1.6,0.9c0.3,0,0.6-0.1,0.9-0.2c0.4-0.2,0.7-0.6,0.9-1.1s0.1-1-0.2-1.4l-1-1.7h2c1,0,1.9-0.8,1.9-1.8
		C59.5,81.1,59.3,80.7,59,80.3z"/>
	<path class="st25" d="M71.7,88.8h-2l1-1.7c0.3-0.4,0.4-0.9,0.3-1.4c-0.1-0.5-0.4-0.9-0.8-1.2c-0.8-0.6-2-0.4-2.6,0.5
		c-0.1,0.1-0.1,0.2-0.1,0.2l-1,1.7l-1-1.7c-0.5-0.9-1.6-1.2-2.5-0.7c-0.9,0.5-1.2,1.6-0.7,2.5l1,1.7h-2c-1,0-1.8,0.8-1.8,1.9
		c0,1,0.8,1.8,1.8,1.8h2l-1,1.7c-0.5,0.9-0.2,2,0.7,2.5c0.9,0.5,2,0.2,2.5-0.6l1-1.7l1,1.7c0.3,0.6,1,0.9,1.6,0.9
		c0.3,0,0.6-0.1,0.9-0.2c0.4-0.2,0.7-0.6,0.9-1.1s0.1-1-0.2-1.4l-1-1.7h2c1,0,1.9-0.8,1.9-1.8c0-0.5-0.2-1-0.5-1.3
		C72.6,89,72.2,88.8,71.7,88.8z"/>
	<path class="st25" d="M87,80.3c-0.3-0.3-0.8-0.5-1.3-0.5h-2l1-1.7c0.3-0.4,0.4-0.9,0.3-1.4c-0.1-0.5-0.4-0.9-0.8-1.2
		c-0.8-0.6-2-0.4-2.6,0.5c-0.1,0.1-0.1,0.2-0.1,0.2l-1,1.7l-1-1.7c-0.5-0.9-1.6-1.2-2.5-0.7c-0.9,0.5-1.2,1.6-0.7,2.5l1,1.7h-2
		c-1,0-1.8,0.8-1.8,1.9c0,1,0.8,1.8,1.8,1.8h2l-1,1.7c-0.5,0.9-0.2,2,0.7,2.5c0.9,0.5,2,0.2,2.5-0.6l1-1.7l1,1.7
		c0.3,0.6,1,0.9,1.6,0.9c0.3,0,0.6-0.1,0.9-0.2c0.4-0.2,0.7-0.6,0.9-1.1s0.1-1-0.2-1.4l-1-1.7h2c1,0,1.9-0.8,1.9-1.8
		C87.5,81.1,87.3,80.7,87,80.3z"/>
</g>
<g id="s49__x28__x2B_04_x29_" class="st24">
	<path class="st25" d="M73,80.3c-0.3-0.3-0.8-0.5-1.3-0.5h-2l1-1.7c0.3-0.4,0.4-0.9,0.3-1.4c-0.1-0.5-0.4-0.9-0.8-1.2
		c-0.8-0.6-2-0.4-2.6,0.5c-0.1,0.1-0.1,0.2-0.1,0.2l-1,1.7l-1-1.7c-0.5-0.9-1.6-1.2-2.5-0.7c-0.9,0.5-1.2,1.6-0.7,2.5l1,1.7h-2
		c-1,0-1.8,0.8-1.8,1.9c0,1,0.8,1.8,1.8,1.8h2l-1,1.7c-0.5,0.9-0.2,2,0.7,2.5c0.9,0.5,2,0.2,2.5-0.6l1-1.7l1,1.7
		c0.3,0.6,1,0.9,1.6,0.9c0.3,0,0.6-0.1,0.9-0.2c0.4-0.2,0.7-0.6,0.9-1.1s0.1-1-0.2-1.4l-1-1.7h2c1,0,1.9-0.8,1.9-1.8
		C73.5,81.1,73.3,80.7,73,80.3z"/>
	<path class="st25" d="M42.7,88.8h-2l1-1.7c0.3-0.4,0.4-0.9,0.3-1.4c-0.1-0.5-0.4-0.9-0.8-1.2c-0.8-0.6-2-0.4-2.6,0.5
		c-0.1,0.1-0.1,0.2-0.1,0.2l-1,1.7l-1-1.7c-0.5-0.9-1.6-1.2-2.5-0.7c-0.9,0.5-1.2,1.6-0.7,2.5l1,1.7h-2c-1,0-1.9,0.8-1.9,1.9
		c0,1,0.8,1.8,1.9,1.8h2l-1,1.7c-0.5,0.9-0.2,2,0.7,2.5c0.9,0.5,2,0.2,2.5-0.6l1-1.7l1,1.7c0.2,0.4,0.6,0.7,1.1,0.9
		c0.2,0,0.3,0.1,0.5,0.1c0.3,0,0.6-0.1,0.9-0.2c0.4-0.2,0.7-0.6,0.9-1.1c0.1-0.5,0.1-1-0.2-1.4l-1-1.7h2c1,0,1.9-0.8,1.9-1.8
		C44.5,89.6,43.7,88.8,42.7,88.8z"/>
</g>
<g id="s48__x28__x2B_04_x29_" class="st24">
	<path class="st25" d="M28.7,79.8h-2l1-1.7c0.3-0.4,0.4-0.9,0.3-1.4c-0.1-0.5-0.4-0.9-0.8-1.2c-0.8-0.6-2-0.4-2.6,0.5
		c-0.1,0.1-0.1,0.2-0.1,0.2l-1,1.7l-1-1.7c-0.5-0.9-1.6-1.2-2.5-0.7c-0.9,0.5-1.2,1.6-0.7,2.5l1,1.7h-2c-1,0-1.9,0.8-1.9,1.9
		c0,1,0.8,1.8,1.9,1.8h2l-1,1.7c-0.5,0.9-0.2,2,0.7,2.5c0.9,0.5,2,0.2,2.5-0.6l1-1.7l1,1.7c0.2,0.4,0.6,0.7,1.1,0.9
		c0.2,0,0.3,0.1,0.5,0.1c0.3,0,0.6-0.1,0.9-0.2c0.4-0.2,0.7-0.6,0.9-1.1c0.1-0.5,0.1-1-0.2-1.4l-1-1.7h2c1,0,1.9-0.8,1.9-1.8
		C30.5,80.6,29.7,79.8,28.7,79.8z"/>
	<path class="st25" d="M41.4,82.7c-1.5-0.8-3.3-0.2-4.1,1.3l-3.6,8c-0.2,0.4-0.2,0.8-0.2,1.2c0,1.7,1.3,3,3,3c1.2,0,2.3-0.7,2.7-1.8
		l3.6-8C43.3,84.9,42.7,83.3,41.4,82.7z"/>
	<path class="st25" d="M56.4,76.7c-0.7-0.4-1.5-0.4-2.3-0.2c-0.8,0.2-1.4,0.8-1.8,1.5l-3.6,8c-0.2,0.4-0.2,0.8-0.2,1.2
		c0,1.7,1.3,3,3,3c1.2,0,2.3-0.7,2.7-1.8l3.6-8C58.3,78.9,57.7,77.3,56.4,76.7z"/>
	<path class="st25" d="M71.7,88.8h-2l1-1.7c0.3-0.4,0.4-0.9,0.3-1.4c-0.1-0.5-0.4-0.9-0.8-1.2c-0.8-0.6-2-0.4-2.6,0.5
		c-0.1,0.1-0.1,0.2-0.1,0.2l-1,1.7l-1-1.7c-0.5-0.9-1.6-1.2-2.5-0.7c-0.9,0.5-1.2,1.6-0.7,2.5l1,1.7h-2c-1,0-1.8,0.8-1.8,1.9
		c0,1,0.8,1.8,1.8,1.8h2l-1,1.7c-0.5,0.9-0.2,2,0.7,2.5c0.9,0.5,2,0.2,2.5-0.6l1-1.7l1,1.7c0.3,0.6,1,0.9,1.6,0.9
		c0.3,0,0.6-0.1,0.9-0.2c0.4-0.2,0.7-0.6,0.9-1.1s0.1-1-0.2-1.4l-1-1.7h2c1,0,1.9-0.8,1.9-1.8c0-0.5-0.2-1-0.5-1.3
		C72.6,89,72.2,88.8,71.7,88.8z"/>
	<path class="st25" d="M83.4,76.7c-0.7-0.4-1.5-0.4-2.3-0.2c-0.8,0.2-1.4,0.8-1.8,1.5l-3.6,8c-0.2,0.4-0.2,0.8-0.2,1.2
		c0,0.8,0.3,1.6,0.9,2.1c0.6,0.6,1.3,0.9,2.1,0.9c1.2,0,2.3-0.7,2.7-1.8l3.6-8C85.3,78.9,84.7,77.3,83.4,76.7z"/>
</g>
<g id="s47__x28__x2B_04_x29_" class="st24">
	<path class="st25" d="M42.7,88.8h-2l1-1.7c0.3-0.4,0.4-0.9,0.3-1.4c-0.1-0.5-0.4-0.9-0.8-1.2c-0.8-0.6-2-0.4-2.6,0.5
		c-0.1,0.1-0.1,0.2-0.1,0.2l-1,1.7l-1-1.7c-0.5-0.9-1.6-1.2-2.5-0.7c-0.9,0.5-1.2,1.6-0.7,2.5l1,1.7h-2c-1,0-1.9,0.8-1.9,1.9
		c0,1,0.8,1.8,1.9,1.8h2l-1,1.7c-0.5,0.9-0.2,2,0.7,2.5c0.9,0.5,2,0.2,2.5-0.6l1-1.7l1,1.7c0.2,0.4,0.6,0.7,1.1,0.9
		c0.2,0,0.3,0.1,0.5,0.1c0.3,0,0.6-0.1,0.9-0.2c0.4-0.2,0.7-0.6,0.9-1.1c0.1-0.5,0.1-1-0.2-1.4l-1-1.7h2c1,0,1.9-0.8,1.9-1.8
		C44.5,89.6,43.7,88.8,42.7,88.8z"/>
	<path class="st25" d="M69.4,75.7c-0.7-0.4-1.5-0.4-2.3-0.2c-0.8,0.2-1.4,0.8-1.8,1.5l-3.6,8c-0.2,0.4-0.2,0.8-0.2,1.2
		c0,0.8,0.3,1.6,0.9,2.1c0.6,0.6,1.3,0.9,2.1,0.9c1.2,0,2.3-0.7,2.7-1.8l3.6-8C71.3,77.9,70.7,76.3,69.4,75.7z"/>
</g>
<g id="s46__x28__x2B_04_x29_" class="st24">
	<path class="st25" d="M41.4,83.7c-1.5-0.8-3.3-0.2-4.1,1.3l-3.6,8c-0.2,0.4-0.2,0.8-0.2,1.2c0,1.7,1.3,3,3,3c1.2,0,2.3-0.7,2.7-1.8
		l3.6-8C43.3,85.9,42.7,84.3,41.4,83.7z"/>
	<path class="st25" d="M65.4,74.7c-0.7-0.4-1.5-0.4-2.3-0.2c-0.8,0.2-1.4,0.8-1.8,1.5l-3.6,8c-0.2,0.4-0.2,0.8-0.2,1.2
		c0,0.8,0.3,1.6,0.9,2.1c0.6,0.6,1.3,0.9,2.1,0.9c1.2,0,2.3-0.7,2.7-1.8l3.6-8C67.3,76.9,66.7,75.3,65.4,74.7z"/>
</g>
<g id="s34__x28__x2B_04_x29_" class="st24">
	<path class="st26" d="M42.5,97c-0.5,0-1-0.1-1.5-0.3c-1.9-0.8-2.9-2.8-2.4-4.7l3.7-14.1l-3.9-1.7c-1-0.4-1.8-1.3-2.2-2.4
		c-0.4-1.1-0.3-2.2,0.3-3.2L47,51.1c0.9-1.7,3-2.5,4.8-1.9c1.9,0.7,3,2.6,2.6,4.5L52.2,66l4,1.8c1,0.5,1.8,1.3,2.2,2.4
		s0.2,2.2-0.3,3.2L46,95C45.3,96.3,43.9,97,42.5,97z"/>
	<polygon class="st25" points="55.3,71.2 48.3,68.1 51.6,50 39.3,72.7 46.5,75.8 41,96.6 	"/>
	<path class="st25" d="M22.7,79.8h-2l1-1.7c0.3-0.4,0.4-0.9,0.3-1.4c-0.1-0.5-0.4-0.9-0.8-1.2c-0.8-0.6-2-0.4-2.6,0.5
		c-0.1,0.1-0.1,0.2-0.1,0.2l-1,1.7l-1-1.7c-0.5-0.9-1.6-1.2-2.5-0.7c-0.9,0.5-1.2,1.6-0.7,2.5l1,1.7h-2c-1,0-1.9,0.8-1.9,1.9
		c0,1,0.8,1.8,1.9,1.8h2l-1,1.7c-0.5,0.9-0.2,2,0.7,2.5c0.9,0.5,2,0.2,2.5-0.6l1-1.7l1,1.7c0.2,0.4,0.6,0.7,1.1,0.9
		c0.2,0,0.3,0.1,0.5,0.1c0.3,0,0.6-0.1,0.9-0.2c0.4-0.2,0.7-0.6,0.9-1.1c0.1-0.5,0.1-1-0.2-1.4l-1-1.7h2c1,0,1.9-0.8,1.9-1.8
		C24.5,80.6,23.7,79.8,22.7,79.8z"/>
	<path class="st25" d="M66,80.3c-0.3-0.3-0.8-0.5-1.3-0.5h-2l1-1.7c0.3-0.4,0.4-0.9,0.3-1.4c-0.1-0.5-0.4-0.9-0.8-1.2
		c-0.8-0.6-2-0.4-2.6,0.5c-0.1,0.1-0.1,0.2-0.1,0.2l-1,1.7l-1-1.7c-0.5-0.9-1.6-1.2-2.5-0.7c-0.9,0.5-1.2,1.6-0.7,2.5l1,1.7h-2
		c-1,0-1.8,0.8-1.8,1.9c0,1,0.8,1.8,1.8,1.8h2l-1,1.7c-0.5,0.9-0.2,2,0.7,2.5c0.9,0.5,2,0.2,2.5-0.6l1-1.7l1,1.7
		c0.3,0.6,1,0.9,1.6,0.9c0.3,0,0.6-0.1,0.9-0.2c0.4-0.2,0.7-0.6,0.9-1.1s0.1-1-0.2-1.4l-1-1.7h2c1,0,1.9-0.8,1.9-1.8
		C66.5,81.1,66.3,80.7,66,80.3z"/>
	<path class="st25" d="M78.7,88.8h-2l1-1.7c0.3-0.4,0.4-0.9,0.3-1.4c-0.1-0.5-0.4-0.9-0.8-1.2c-0.8-0.6-2-0.4-2.6,0.5
		c-0.1,0.1-0.1,0.2-0.1,0.2l-1,1.7l-1-1.7c-0.5-0.9-1.6-1.2-2.5-0.7c-0.9,0.5-1.2,1.6-0.7,2.5l1,1.7h-2c-1,0-1.8,0.8-1.8,1.9
		c0,1,0.8,1.8,1.8,1.8h2l-1,1.7c-0.5,0.9-0.2,2,0.7,2.5c0.9,0.5,2,0.2,2.5-0.6l1-1.7l1,1.7c0.3,0.6,1,0.9,1.6,0.9
		c0.3,0,0.6-0.1,0.9-0.2c0.4-0.2,0.7-0.6,0.9-1.1s0.1-1-0.2-1.4l-1-1.7h2c1,0,1.9-0.8,1.9-1.8c0-0.5-0.2-1-0.5-1.3
		C79.6,89,79.2,88.8,78.7,88.8z"/>
	<path class="st25" d="M94,80.3c-0.3-0.3-0.8-0.5-1.3-0.5h-2l1-1.7c0.3-0.4,0.4-0.9,0.3-1.4c-0.1-0.5-0.4-0.9-0.8-1.2
		c-0.8-0.6-2-0.4-2.6,0.5c-0.1,0.1-0.1,0.2-0.1,0.2l-1,1.7l-1-1.7c-0.5-0.9-1.6-1.2-2.5-0.7c-0.9,0.5-1.2,1.6-0.7,2.5l1,1.7h-2
		c-1,0-1.8,0.8-1.8,1.9c0,1,0.8,1.8,1.8,1.8h2l-1,1.7c-0.5,0.9-0.2,2,0.7,2.5c0.9,0.5,2,0.2,2.5-0.6l1-1.7l1,1.7
		c0.3,0.6,1,0.9,1.6,0.9c0.3,0,0.6-0.1,0.9-0.2c0.4-0.2,0.7-0.6,0.9-1.1s0.1-1-0.2-1.4l-1-1.7h2c1,0,1.9-0.8,1.9-1.8
		C94.5,81.1,94.3,80.7,94,80.3z"/>
	<path class="st25" d="M36.7,88.8h-2l1-1.7c0.3-0.4,0.4-0.9,0.3-1.4c-0.1-0.5-0.4-0.9-0.8-1.2c-0.8-0.6-2-0.4-2.6,0.5
		c-0.1,0.1-0.1,0.2-0.1,0.2l-1,1.7l-1-1.7c-0.5-0.9-1.6-1.2-2.5-0.7c-0.9,0.5-1.2,1.6-0.7,2.5l1,1.7h-2c-1,0-1.9,0.8-1.9,1.9
		c0,1,0.8,1.8,1.9,1.8h2l-1,1.7c-0.5,0.9-0.2,2,0.7,2.5c0.9,0.5,2,0.2,2.5-0.6l1-1.7l1,1.7c0.2,0.4,0.6,0.7,1.1,0.9
		c0.2,0,0.3,0.1,0.5,0.1c0.3,0,0.6-0.1,0.9-0.2c0.4-0.2,0.7-0.6,0.9-1.1c0.1-0.5,0.1-1-0.2-1.4l-1-1.7h2c1,0,1.9-0.8,1.9-1.8
		C38.5,89.6,37.7,88.8,36.7,88.8z"/>
</g>
<g id="s33__x28__x2B_04_x29_" class="st24">
	<path class="st26" d="M46.5,97c-0.5,0-1-0.1-1.5-0.3c-1.9-0.8-2.9-2.8-2.4-4.7l3.7-14.1l-3.9-1.7c-1-0.4-1.8-1.3-2.2-2.4
		c-0.4-1.1-0.3-2.2,0.3-3.2L51,51.1c0.9-1.7,3-2.5,4.8-1.9c1.9,0.7,3,2.6,2.6,4.5L56.2,66l4,1.8c1,0.5,1.8,1.3,2.2,2.4
		s0.2,2.2-0.3,3.2L50,95C49.3,96.3,47.9,97,46.5,97z"/>
	<polygon class="st25" points="59.3,71.2 52.3,68.1 55.6,50 43.3,72.7 50.5,75.8 45,96.6 	"/>
	<path class="st25" d="M39.7,88.8h-2l1-1.7c0.3-0.4,0.4-0.9,0.3-1.4c-0.1-0.5-0.4-0.9-0.8-1.2c-0.8-0.6-2-0.4-2.6,0.5
		c-0.1,0.1-0.1,0.2-0.1,0.2l-1,1.7l-1-1.7c-0.5-0.9-1.6-1.2-2.5-0.7c-0.9,0.5-1.2,1.6-0.7,2.5l1,1.7h-2c-1,0-1.9,0.8-1.9,1.9
		c0,1,0.8,1.8,1.9,1.8h2l-1,1.7c-0.5,0.9-0.2,2,0.7,2.5c0.9,0.5,2,0.2,2.5-0.6l1-1.7l1,1.7c0.2,0.4,0.6,0.7,1.1,0.9
		c0.2,0,0.3,0.1,0.5,0.1c0.3,0,0.6-0.1,0.9-0.2c0.4-0.2,0.7-0.6,0.9-1.1c0.1-0.5,0.1-1-0.2-1.4l-1-1.7h2c1,0,1.9-0.8,1.9-1.8
		C41.5,89.6,40.7,88.8,39.7,88.8z"/>
	<path class="st25" d="M70.4,79.5h-2l1-1.7c0.6-0.8,0.4-2-0.5-2.6c-0.4-0.3-0.9-0.4-1.4-0.3c-0.5,0.1-0.9,0.4-1.2,0.8
		c-0.1,0.1-0.1,0.2-0.1,0.2l-1,1.7l-1-1.7c-0.5-0.9-1.6-1.2-2.5-0.7c-0.9,0.5-1.2,1.6-0.7,2.5l1,1.7h-2c-1,0-1.9,0.8-1.9,1.9
		c0,1,0.8,1.8,1.9,1.8h2l-1,1.7c-0.5,0.9-0.2,2,0.7,2.5c0.9,0.5,2,0.2,2.5-0.6l1-1.7l1,1.7c0.2,0.4,0.6,0.7,1.1,0.9
		c0.2,0,0.3,0.1,0.5,0.1c0.3,0,0.6-0.1,0.9-0.2c0.4-0.2,0.7-0.6,0.9-1.1c0.1-0.5,0.1-1-0.2-1.4l-1-1.7h2c0,0,0,0,0,0
		c0.5,0,1-0.2,1.3-0.5c0.3-0.3,0.5-0.8,0.5-1.3C72.3,80.3,71.4,79.5,70.4,79.5z"/>
</g>
<g id="s32__x28__x2B_04_x29_" class="st24">
	<path class="st26" d="M46.5,97c-0.5,0-1-0.1-1.5-0.3c-1.9-0.8-2.9-2.8-2.4-4.7l3.7-14.1l-3.9-1.7c-1-0.4-1.8-1.3-2.2-2.4
		c-0.4-1.1-0.3-2.2,0.3-3.2L51,51.1c0.9-1.7,3-2.5,4.8-1.9c1.9,0.7,3,2.6,2.6,4.5L56.2,66l4,1.8c1,0.5,1.8,1.3,2.2,2.4
		s0.2,2.2-0.3,3.2L50,95C49.3,96.3,47.9,97,46.5,97z"/>
	<polygon class="st25" points="59.3,71.2 52.3,68.1 55.6,50 43.3,72.7 50.5,75.8 45,96.6 	"/>
	<path class="st25" d="M64.4,76.7c-0.7-0.4-1.5-0.4-2.3-0.2c-0.8,0.2-1.4,0.8-1.8,1.5l-3.6,8c-0.2,0.4-0.2,0.8-0.2,1.2
		c0,0.8,0.3,1.6,0.9,2.1c0.6,0.6,1.3,0.9,2.1,0.9c1.2,0,2.3-0.7,2.7-1.8l3.6-8C66.3,78.9,65.7,77.3,64.4,76.7z"/>
	<path class="st25" d="M91.4,76.7c-0.7-0.4-1.5-0.4-2.3-0.2c-0.8,0.2-1.4,0.8-1.8,1.5l-3.6,8c-0.2,0.4-0.2,0.8-0.2,1.2
		c0,0.8,0.3,1.6,0.9,2.1c0.6,0.6,1.3,0.9,2.1,0.9c1.2,0,2.3-0.7,2.7-1.8l3.6-8C93.3,78.9,92.7,77.3,91.4,76.7z"/>
	<path class="st25" d="M39.4,82.7c-1.5-0.8-3.3-0.2-4.1,1.3l-3.6,8c-0.2,0.4-0.2,0.8-0.2,1.2c0,1.7,1.3,3,3,3c1.2,0,2.3-0.7,2.7-1.8
		l3.6-8C41.3,84.9,40.7,83.3,39.4,82.7z"/>
	<path class="st25" d="M79.7,88.8h-2l1-1.7c0.3-0.4,0.4-0.9,0.3-1.4c-0.1-0.5-0.4-0.9-0.8-1.2c-0.8-0.6-2-0.4-2.6,0.5
		c-0.1,0.1-0.1,0.2-0.1,0.2l-1,1.7l-1-1.7c-0.5-0.9-1.6-1.2-2.5-0.7c-0.9,0.5-1.2,1.6-0.7,2.5l1,1.7h-2c-1,0-1.8,0.8-1.8,1.9
		c0,1,0.8,1.8,1.8,1.8h2l-1,1.7c-0.5,0.9-0.2,2,0.7,2.5c0.9,0.5,2,0.2,2.5-0.6l1-1.7l1,1.7c0.3,0.6,1,0.9,1.6,0.9
		c0.3,0,0.6-0.1,0.9-0.2c0.4-0.2,0.7-0.6,0.9-1.1s0.1-1-0.2-1.4l-1-1.7h2c1,0,1.9-0.8,1.9-1.8c0-0.5-0.2-1-0.5-1.3
		C80.6,89,80.2,88.8,79.7,88.8z"/>
	<path class="st25" d="M28.7,79.8h-2l1-1.7c0.3-0.4,0.4-0.9,0.3-1.4c-0.1-0.5-0.4-0.9-0.8-1.2c-0.8-0.6-2-0.4-2.6,0.5
		c-0.1,0.1-0.1,0.2-0.1,0.2l-1,1.7l-1-1.7c-0.5-0.9-1.6-1.2-2.5-0.7c-0.9,0.5-1.2,1.6-0.7,2.5l1,1.7h-2c-1,0-1.9,0.8-1.9,1.9
		c0,1,0.8,1.8,1.9,1.8h2l-1,1.7c-0.5,0.9-0.2,2,0.7,2.5c0.9,0.5,2,0.2,2.5-0.6l1-1.7l1,1.7c0.2,0.4,0.6,0.7,1.1,0.9
		c0.2,0,0.3,0.1,0.5,0.1c0.3,0,0.6-0.1,0.9-0.2c0.4-0.2,0.7-0.6,0.9-1.1c0.1-0.5,0.1-1-0.2-1.4l-1-1.7h2c1,0,1.9-0.8,1.9-1.8
		C30.5,80.6,29.7,79.8,28.7,79.8z"/>
</g>
<g id="s31__x28__x2B_04_x29_" class="st24">
	<path class="st26" d="M46.5,97c-0.5,0-1-0.1-1.5-0.3c-1.9-0.8-2.9-2.8-2.4-4.7l3.7-14.1l-3.9-1.7c-1-0.4-1.8-1.3-2.2-2.4
		c-0.4-1.1-0.3-2.2,0.3-3.2L51,51.1c0.9-1.7,3-2.5,4.8-1.9c1.9,0.7,3,2.6,2.6,4.5L56.2,66l4,1.8c1,0.5,1.8,1.3,2.2,2.4
		s0.2,2.2-0.3,3.2L50,95C49.3,96.3,47.9,97,46.5,97z"/>
	<polygon class="st25" points="55.6,50 43.3,72.7 50.5,75.8 45,96.6 59.3,71.2 52.3,68.1 	"/>
	<path class="st25" d="M67.4,74.7c-0.7-0.4-1.5-0.4-2.3-0.2c-0.8,0.2-1.4,0.8-1.8,1.5l-3.6,8c-0.2,0.4-0.2,0.8-0.2,1.2
		c0,0.8,0.3,1.6,0.9,2.1c0.6,0.6,1.3,0.9,2.1,0.9c1.2,0,2.3-0.7,2.7-1.8l3.6-8C69.3,76.9,68.7,75.3,67.4,74.7z"/>
	<path class="st25" d="M39.7,88.8h-2l1-1.7c0.3-0.4,0.4-0.9,0.3-1.4c-0.1-0.5-0.4-0.9-0.8-1.2c-0.8-0.6-2-0.4-2.6,0.5
		c-0.1,0.1-0.1,0.2-0.1,0.2l-1,1.7l-1-1.7c-0.5-0.9-1.6-1.2-2.5-0.7c-0.9,0.5-1.2,1.6-0.7,2.5l1,1.7h-2c-1,0-1.9,0.8-1.9,1.9
		c0,1,0.8,1.8,1.9,1.8h2l-1,1.7c-0.5,0.9-0.2,2,0.7,2.5c0.9,0.5,2,0.2,2.5-0.6l1-1.7l1,1.7c0.2,0.4,0.6,0.7,1.1,0.9
		c0.2,0,0.3,0.1,0.5,0.1c0.3,0,0.6-0.1,0.9-0.2c0.4-0.2,0.7-0.6,0.9-1.1c0.1-0.5,0.1-1-0.2-1.4l-1-1.7h2c1,0,1.9-0.8,1.9-1.8
		C41.5,89.6,40.7,88.8,39.7,88.8z"/>
</g>
<g id="s30__x28__x2B_04_x29_" class="st24">
	<path class="st26" d="M46.5,97c-0.5,0-1-0.1-1.5-0.3c-1.9-0.8-2.9-2.8-2.4-4.7l3.7-14.1l-3.9-1.7c-1-0.4-1.8-1.3-2.2-2.4
		c-0.4-1.1-0.3-2.2,0.3-3.2L51,51.1c0.9-1.7,3-2.5,4.8-1.9c1.9,0.7,3,2.6,2.6,4.5L56.2,66l4,1.8c1,0.5,1.8,1.3,2.2,2.4
		s0.2,2.2-0.3,3.2L50,95C49.3,96.3,47.9,97,46.5,97z"/>
	<polygon class="st25" points="55.6,50 43.3,72.7 50.5,75.8 45,96.6 59.3,71.2 52.3,68.1 	"/>
	<path class="st25" d="M37.4,83.7c-1.5-0.8-3.3-0.2-4.1,1.3l-3.6,8c-0.2,0.4-0.2,0.8-0.2,1.2c0,1.7,1.3,3,3,3c1.2,0,2.3-0.7,2.7-1.8
		l3.6-8C39.3,85.9,38.7,84.3,37.4,83.7z"/>
	<path class="st25" d="M67.4,74.7c-0.7-0.4-1.5-0.4-2.3-0.2c-0.8,0.2-1.4,0.8-1.8,1.5l-3.6,8c-0.2,0.4-0.2,0.8-0.2,1.2
		c0,0.8,0.3,1.6,0.9,2.1c0.6,0.6,1.3,0.9,2.1,0.9c1.2,0,2.3-0.7,2.7-1.8l3.6-8C69.3,76.9,68.7,75.3,67.4,74.7z"/>
</g>
<g id="s23__x28__x2B_04_x29_" class="st24">
	<path class="st26" d="M42.5,97c-0.5,0-1-0.1-1.5-0.3c-1.9-0.8-2.9-2.8-2.4-4.7l3.7-14.1l-3.9-1.7c-1-0.4-1.8-1.3-2.2-2.4
		c-0.4-1.1-0.3-2.2,0.3-3.2L47,51.1c0.9-1.7,3-2.5,4.8-1.9c1.9,0.7,3,2.6,2.6,4.5L52.2,66l4,1.8c1,0.5,1.8,1.3,2.2,2.4
		s0.2,2.2-0.3,3.2L46,95C45.3,96.3,43.9,97,42.5,97z"/>
	<polygon class="st25" points="55.3,71.2 48.3,68.1 51.6,50 39.3,72.7 46.5,75.8 41,96.7 	"/>
	<path class="st25" d="M35.7,79.8h-2l1-1.7c0.3-0.4,0.4-0.9,0.3-1.4c-0.1-0.5-0.4-0.9-0.8-1.2c-0.8-0.6-2-0.4-2.6,0.5
		c-0.1,0.1-0.1,0.2-0.1,0.2l-1,1.7l-1-1.7c-0.5-0.9-1.6-1.2-2.5-0.7c-0.9,0.5-1.2,1.6-0.7,2.5l1,1.7h-2c-1,0-1.9,0.8-1.9,1.9
		c0,1,0.8,1.8,1.9,1.8h2l-1,1.7c-0.5,0.9-0.2,2,0.7,2.5c0.9,0.5,2,0.2,2.5-0.6l1-1.7l1,1.7c0.3,0.6,1,0.9,1.6,0.9
		c0.3,0,0.6-0.1,0.9-0.2c0.9-0.5,1.2-1.6,0.7-2.5l-1-1.7h2c1,0,1.9-0.8,1.9-1.8C37.5,80.6,36.7,79.8,35.7,79.8z"/>
	<path class="st25" d="M73.4,76.8c-0.7-0.4-1.5-0.4-2.3-0.2c-0.8,0.2-1.4,0.8-1.8,1.5l-3.6,8c-0.2,0.4-0.2,0.8-0.2,1.2
		c0,1.7,1.3,3,3,3c1.2,0,2.3-0.7,2.7-1.8l3.6-8C75.3,79,74.7,77.5,73.4,76.8z"/>
	<path class="st25" d="M59.4,82.8c-0.7-0.4-1.5-0.4-2.3-0.2c-0.8,0.2-1.4,0.8-1.8,1.5l-3.6,8c-0.2,0.4-0.2,0.8-0.2,1.2
		c0,1.7,1.3,3,3,3c1.2,0,2.3-0.7,2.7-1.8l3.6-8C61.3,85,60.7,83.5,59.4,82.8z"/>
</g>
<g id="s22__x28__x2B_04_x29_" class="st24">
	<path class="st26" d="M42.7,96.7c-0.5,0-1-0.1-1.5-0.3c-1.9-0.8-2.9-2.8-2.4-4.7l3.7-14.2l-3.9-1.7c-1-0.4-1.8-1.3-2.2-2.4
		c-0.4-1.1-0.3-2.2,0.3-3.2l10.5-19.5c0.9-1.7,3-2.5,4.8-1.9c1.9,0.7,3,2.6,2.6,4.5l-2.2,12.3l4,1.8c1,0.5,1.8,1.3,2.2,2.4
		s0.2,2.2-0.3,3.2L46.2,94.6C45.4,95.9,44.1,96.7,42.7,96.7z"/>
	<polygon class="st25" points="55.5,70.9 48.5,67.8 51.8,49.7 39.5,72.4 46.7,75.5 41.2,96.3 	"/>
	<path class="st25" d="M34.5,74.3c-1.5-0.8-3.3-0.2-4.1,1.3l-3.6,8c-0.2,0.4-0.2,0.8-0.2,1.2c0,0.8,0.3,1.6,0.9,2.1
		c0.6,0.6,1.3,0.9,2.1,0.9c1.2,0,2.3-0.7,2.7-1.8l3.6-8C36.5,76.6,35.9,75,34.5,74.3z"/>
	<path class="st25" d="M59.5,83.3c-1.5-0.8-3.3-0.2-4.1,1.3l-3.6,8c-0.2,0.4-0.2,0.8-0.2,1.2c0,0.8,0.3,1.6,0.9,2.1
		c0.6,0.6,1.3,0.9,2.1,0.9c1.2,0,2.3-0.7,2.7-1.8l3.6-8C61.5,85.6,60.9,84,59.5,83.3z"/>
	<path class="st25" d="M74.5,74.3c-1.5-0.8-3.3-0.2-4.1,1.3l-3.6,8c-0.2,0.4-0.2,0.8-0.2,1.2c0,0.8,0.3,1.6,0.9,2.1
		c0.6,0.6,1.3,0.9,2.1,0.9c1.2,0,2.3-0.7,2.7-1.8l3.6-8C76.5,76.6,75.9,75,74.5,74.3z"/>
</g>
<g id="s15__x28__x2B_04_x29_" class="st24">
	<path class="st25" d="M90,91H13c-0.8,0-1.5,0.7-1.5,1.5S12.2,94,13,94h77c0.8,0,1.5-0.7,1.5-1.5S90.8,91,90,91z"/>
	<path class="st25" d="M83.5,84.5c0-0.8-0.7-1.5-1.5-1.5H5c-0.8,0-1.5,0.7-1.5,1.5S4.2,86,5,86h77C82.8,86,83.5,85.3,83.5,84.5z"/>
	<path class="st25" d="M92,75H15c-0.8,0-1.5,0.7-1.5,1.5S14.2,78,15,78h77c0.8,0,1.5-0.7,1.5-1.5S92.8,75,92,75z"/>
</g>
<g id="s14__x28__x2B_04_x29_" class="st24">
	<path class="st26" d="M42.5,97c-0.5,0-1-0.1-1.5-0.3c-1.9-0.8-2.9-2.8-2.4-4.7l3.7-14.1l-3.9-1.7c-1-0.4-1.8-1.3-2.2-2.4
		c-0.4-1.1-0.3-2.2,0.3-3.2L47,51.1c0.9-1.7,3-2.5,4.8-1.9c1.9,0.7,3,2.6,2.6,4.5L52.2,66l4,1.8c1,0.5,1.8,1.3,2.2,2.4
		s0.2,2.2-0.3,3.2L46,95C45.3,96.3,43.9,97,42.5,97z"/>
	<polygon class="st25" points="55.3,71.2 48.3,68.1 51.6,50 39.3,72.7 46.5,75.8 41,96.7 	"/>
	<path class="st25" d="M61.7,88.8h-2l1-1.7c0.3-0.4,0.4-0.9,0.3-1.4c-0.1-0.5-0.4-0.9-0.8-1.2c-0.8-0.6-2-0.4-2.6,0.5
		c-0.1,0.1-0.1,0.2-0.1,0.2l-1,1.7l-1-1.7c-0.5-0.9-1.6-1.2-2.5-0.7c-0.9,0.5-1.2,1.6-0.7,2.5l1,1.7h-2c-1,0-1.8,0.8-1.8,1.9
		c0,1,0.8,1.8,1.8,1.8h2l-1,1.7c-0.5,0.9-0.2,2,0.7,2.5c0.9,0.5,2,0.2,2.5-0.6l1-1.7l1,1.7c0.3,0.6,1,0.9,1.6,0.9
		c0.3,0,0.6-0.1,0.9-0.2c0.9-0.5,1.2-1.6,0.7-2.5l-1-1.7h2c1,0,1.9-0.8,1.9-1.8c0-0.5-0.2-1-0.5-1.3C62.6,89,62.2,88.8,61.7,88.8z"
		/>
	<path class="st25" d="M35.7,79.8h-2l1-1.7c0.3-0.4,0.4-0.9,0.3-1.4c-0.1-0.5-0.4-0.9-0.8-1.2c-0.8-0.6-2-0.4-2.6,0.5
		c-0.1,0.1-0.1,0.2-0.1,0.2l-1,1.7l-1-1.7c-0.5-0.9-1.6-1.2-2.5-0.7c-0.9,0.5-1.2,1.6-0.7,2.5l1,1.7h-2c-1,0-1.9,0.8-1.9,1.9
		c0,1,0.8,1.8,1.9,1.8h2l-1,1.7c-0.5,0.9-0.2,2,0.7,2.5c0.9,0.5,2,0.2,2.5-0.6l1-1.7l1,1.7c0.3,0.6,1,0.9,1.6,0.9
		c0.3,0,0.6-0.1,0.9-0.2c0.9-0.5,1.2-1.6,0.7-2.5l-1-1.7h2c1,0,1.9-0.8,1.9-1.8C37.5,80.6,36.7,79.8,35.7,79.8z"/>
	<path class="st25" d="M77,80.3c-0.3-0.3-0.8-0.5-1.3-0.5h-2l1-1.7c0.3-0.4,0.4-0.9,0.3-1.4c-0.1-0.5-0.4-0.9-0.8-1.2
		c-0.8-0.6-2-0.4-2.6,0.5c-0.1,0.1-0.1,0.2-0.1,0.2l-1,1.7l-1-1.7c-0.5-0.9-1.6-1.2-2.5-0.7c-0.9,0.5-1.2,1.6-0.7,2.5l1,1.7h-2
		c-1,0-1.8,0.8-1.8,1.9c0,1,0.8,1.8,1.8,1.8h2l-1,1.7c-0.5,0.9-0.2,2,0.7,2.5c0.9,0.5,2,0.2,2.5-0.6l1-1.7l1,1.7
		c0.3,0.6,1,0.9,1.6,0.9c0.3,0,0.6-0.1,0.9-0.2c0.9-0.5,1.2-1.6,0.7-2.5l-1-1.7h2c1,0,1.9-0.8,1.9-1.8C77.5,81.1,77.3,80.7,77,80.3z
		"/>
</g>
<g id="s13__x28__x2B_04_x29_" class="st24">
	<path class="st25" d="M40,80.4c-0.3-0.3-0.8-0.5-1.3-0.5h-2l1-1.7c0.3-0.4,0.4-0.9,0.3-1.4c-0.1-0.5-0.4-0.9-0.8-1.2
		c-0.4-0.3-0.9-0.4-1.4-0.3c-0.5,0.1-0.9,0.4-1.2,0.8c-0.1,0.1-0.1,0.2-0.1,0.2l-1,1.7l-1-1.7c-0.5-0.9-1.6-1.2-2.5-0.7
		c-0.9,0.5-1.2,1.6-0.7,2.5l1,1.7h-2c-1,0-1.9,0.8-1.9,1.8c0,1,0.8,1.9,1.9,1.9h2l-1,1.7c-0.5,0.9-0.2,2,0.7,2.5
		c0.9,0.5,2,0.2,2.5-0.6l1-1.7l1,1.7c0.3,0.6,1,0.9,1.6,0.9c0.3,0,0.6-0.1,0.9-0.2c0.4-0.2,0.7-0.6,0.9-1.1s0.1-1-0.2-1.4l-1-1.7h2
		c1,0,1.9-0.8,1.9-1.8C40.6,81.3,40.4,80.8,40,80.4z"/>
	<path class="st25" d="M52.7,88.9h-2l1-1.7c0.6-0.8,0.4-2-0.5-2.6c-0.4-0.3-0.9-0.4-1.4-0.3c-0.5,0.1-0.9,0.4-1.2,0.8
		c-0.1,0.1-0.1,0.2-0.1,0.2l-1,1.7l-1-1.7c-0.5-0.9-1.6-1.2-2.5-0.7c-0.9,0.5-1.2,1.6-0.7,2.5l1,1.7h-2c-1,0-1.9,0.8-1.9,1.8
		c0,1,0.8,1.9,1.9,1.9h2l-1,1.7c-0.5,0.9-0.2,2,0.7,2.5c0.9,0.5,2,0.2,2.5-0.6l1-1.7l1,1.7c0.3,0.6,1,0.9,1.6,0.9
		c0.3,0,0.6-0.1,0.9-0.2c0.9-0.5,1.2-1.6,0.7-2.5l-1-1.7h2c1,0,1.9-0.8,1.9-1.8c0-0.5-0.2-1-0.5-1.3C53.7,89.1,53.2,88.9,52.7,88.9z
		"/>
	<path class="st25" d="M68,80.4c-0.3-0.3-0.8-0.5-1.3-0.5h-2l1-1.7c0.3-0.4,0.4-0.9,0.3-1.4c-0.1-0.5-0.4-0.9-0.8-1.2
		c-0.8-0.6-2-0.4-2.6,0.5c-0.1,0.1-0.1,0.2-0.1,0.2l-1,1.7l-1-1.7c-0.5-0.9-1.6-1.2-2.5-0.7c-0.9,0.5-1.2,1.6-0.7,2.5l1,1.7h-2
		c-1,0-1.8,0.8-1.8,1.8c0,1,0.8,1.9,1.8,1.9h2l-1,1.7c-0.5,0.9-0.2,2,0.7,2.5c0.9,0.5,2,0.2,2.5-0.6l1-1.7l1,1.7
		c0.3,0.6,1,0.9,1.6,0.9c0.3,0,0.6-0.1,0.9-0.2c0.9-0.5,1.2-1.6,0.7-2.5l-1-1.7h2c1,0,1.9-0.8,1.9-1.8C68.6,81.3,68.4,80.8,68,80.4z
		"/>
</g>
<g id="s12__x28__x2B_04_x29_" class="st24">
	<path class="st25" d="M64.4,76.8c-0.7-0.4-1.5-0.4-2.3-0.2c-0.8,0.2-1.4,0.8-1.8,1.5l-3.6,8c-0.2,0.4-0.2,0.8-0.2,1.2
		c0,1.7,1.3,3,3,3c1.2,0,2.3-0.7,2.7-1.8l3.6-8C66.3,79,65.7,77.5,64.4,76.8z"/>
	<path class="st25" d="M50.4,82.8c-0.7-0.4-1.5-0.4-2.3-0.2c-0.8,0.2-1.4,0.8-1.8,1.5l-3.6,8c-0.2,0.4-0.2,0.8-0.2,1.2
		c0,1.7,1.3,3,3,3c1.2,0,2.3-0.7,2.7-1.8l3.6-8C52.3,85,51.7,83.5,50.4,82.8z"/>
	<path class="st25" d="M38.7,79.9h-2l1-1.7c0.3-0.4,0.4-0.9,0.3-1.4c-0.1-0.5-0.4-0.9-0.8-1.2c-0.4-0.3-0.9-0.4-1.4-0.3
		c-0.5,0.1-0.9,0.4-1.2,0.8c-0.1,0.1-0.1,0.2-0.1,0.2l-1,1.7l-1-1.7c-0.5-0.9-1.6-1.2-2.5-0.7c-0.9,0.5-1.2,1.6-0.7,2.5l1,1.7h-2
		c-1,0-1.9,0.8-1.9,1.8c0,1,0.8,1.9,1.9,1.9h2l-1,1.7c-0.5,0.9-0.2,2,0.7,2.5c0.9,0.5,2,0.2,2.5-0.6l1-1.7l1,1.7
		c0.3,0.6,1,0.9,1.6,0.9c0.3,0,0.6-0.1,0.9-0.2c0.4-0.2,0.7-0.6,0.9-1.1s0.1-1-0.2-1.4l-1-1.7h2c1,0,1.9-0.8,1.9-1.8
		c0-0.5-0.2-1-0.5-1.3C39.7,80.1,39.2,79.9,38.7,79.9z"/>
</g>
<g id="s11__x28__x2B_04_x29_" class="st24">
	<path class="st26" d="M41.5,97c-0.5,0-1-0.1-1.5-0.3c-1.9-0.8-2.9-2.8-2.4-4.7l3.7-14.1l-3.9-1.7c-1-0.4-1.8-1.3-2.2-2.4
		c-0.4-1.1-0.3-2.2,0.3-3.2L46,51.1c0.9-1.7,3-2.5,4.8-1.9c1.9,0.7,3,2.6,2.6,4.5L51.2,66l4,1.8c1,0.5,1.8,1.3,2.2,2.4
		s0.2,2.2-0.3,3.2L45,95C44.3,96.3,42.9,97,41.5,97z"/>
	<polygon class="st25" points="54.3,71.2 47.3,68.1 50.6,50 38.3,72.7 45.5,75.8 40,96.7 	"/>
	<path class="st25" d="M22.4,74.7c-1.5-0.8-3.3-0.2-4.1,1.3l-3.6,8c-0.2,0.4-0.2,0.8-0.2,1.2c0,1.7,1.3,3,3,3c1.2,0,2.3-0.7,2.7-1.8
		l3.6-8C24.3,76.9,23.7,75.3,22.4,74.7z"/>
	<path class="st25" d="M33.4,83.7c-1.5-0.8-3.3-0.2-4.1,1.3l-3.6,8c-0.2,0.4-0.2,0.8-0.2,1.2c0,1.7,1.3,3,3,3c1.2,0,2.3-0.7,2.7-1.8
		l3.6-8C35.3,85.9,34.7,84.3,33.4,83.7z"/>
	<path class="st25" d="M59.4,75.7c-0.7-0.4-1.5-0.4-2.3-0.2c-0.8,0.2-1.4,0.8-1.8,1.5l-3.6,8c-0.2,0.4-0.2,0.8-0.2,1.2
		c0,0.8,0.3,1.6,0.9,2.1c0.6,0.6,1.3,0.9,2.1,0.9c1.2,0,2.3-0.7,2.7-1.8l3.6-8C61.3,77.9,60.7,76.3,59.4,75.7z"/>
	<path class="st25" d="M72.4,74.7c-0.7-0.4-1.5-0.4-2.3-0.2c-0.8,0.2-1.4,0.8-1.8,1.5l-3.6,8c-0.2,0.4-0.2,0.8-0.2,1.2
		c0,0.8,0.3,1.6,0.9,2.1c0.6,0.6,1.3,0.9,2.1,0.9c1.2,0,2.3-0.7,2.7-1.8l3.6-8C74.3,76.9,73.7,75.3,72.4,74.7z"/>
	<path class="st25" d="M86.4,83.7c-0.7-0.4-1.5-0.4-2.3-0.2c-0.8,0.2-1.4,0.8-1.8,1.5l-3.6,8c-0.2,0.4-0.2,0.8-0.2,1.2
		c0,0.8,0.3,1.6,0.9,2.1c0.6,0.6,1.3,0.9,2.1,0.9c1.2,0,2.3-0.7,2.7-1.8l3.6-8C88.3,85.9,87.7,84.3,86.4,83.7z"/>
</g>
<g id="s10__x28__x2B_04_x29_" class="st24">
	<path class="st25" d="M22.4,74.7c-1.5-0.8-3.3-0.2-4.1,1.3l-3.6,8c-0.2,0.4-0.2,0.8-0.2,1.2c0,1.7,1.3,3,3,3c1.2,0,2.3-0.7,2.7-1.8
		l3.6-8C24.3,76.9,23.7,75.3,22.4,74.7z"/>
	<path class="st25" d="M36.4,83.7c-1.5-0.8-3.3-0.2-4.1,1.3l-3.6,8c-0.2,0.4-0.2,0.8-0.2,1.2c0,1.7,1.3,3,3,3c1.2,0,2.3-0.7,2.7-1.8
		l3.6-8C38.3,85.9,37.7,84.3,36.4,83.7z"/>
	<path class="st25" d="M51.4,75.7c-1.5-0.8-3.3-0.2-4.1,1.3l-3.6,8c-0.2,0.4-0.2,0.8-0.2,1.2c0,1.7,1.3,3,3,3c1.2,0,2.3-0.7,2.7-1.8
		l3.6-8C53.3,77.9,52.7,76.3,51.4,75.7z"/>
	<path class="st25" d="M64.4,74.7c-0.7-0.4-1.5-0.4-2.3-0.2c-0.8,0.2-1.4,0.8-1.8,1.5l-3.6,8c-0.2,0.4-0.2,0.8-0.2,1.2
		c0,0.8,0.3,1.6,0.9,2.1c0.6,0.6,1.3,0.9,2.1,0.9c1.2,0,2.3-0.7,2.7-1.8l3.6-8C66.3,76.9,65.7,75.3,64.4,74.7z"/>
	<path class="st25" d="M78.4,83.7c-0.7-0.4-1.5-0.4-2.3-0.2c-0.8,0.2-1.4,0.8-1.8,1.5l-3.6,8c-0.2,0.4-0.2,0.8-0.2,1.2
		c0,0.8,0.3,1.6,0.9,2.1c0.6,0.6,1.3,0.9,2.1,0.9c1.2,0,2.3-0.7,2.7-1.8l3.6-8C80.3,85.9,79.7,84.3,78.4,83.7z"/>
</g>
<g id="s09__x28__x2B_04_x29_" class="st24">
	<path class="st25" d="M36.4,74.8c-0.7-0.4-1.5-0.4-2.3-0.2c-0.8,0.2-1.4,0.8-1.8,1.5l-3.6,8c-0.2,0.4-0.2,0.8-0.2,1.2
		c0,1.7,1.3,3,3,3c1.2,0,2.3-0.7,2.7-1.8l3.6-8C38.3,77,37.7,75.4,36.4,74.8z"/>
	<path class="st25" d="M49.4,83.8c-0.7-0.4-1.5-0.4-2.3-0.2c-0.8,0.2-1.4,0.8-1.8,1.5l-3.6,8c-0.2,0.4-0.2,0.8-0.2,1.2
		c0,1.7,1.3,3,3,3c1.2,0,2.3-0.7,2.7-1.8l3.6-8C51.3,86,50.7,84.4,49.4,83.8z"/>
	<path class="st25" d="M64.4,74.8c-0.7-0.4-1.5-0.4-2.3-0.2c-0.8,0.2-1.4,0.8-1.8,1.5l-3.6,8c-0.2,0.4-0.2,0.8-0.2,1.2
		c0,1.7,1.3,3,3,3c1.2,0,2.3-0.7,2.7-1.8l3.6-8C66.3,77,65.7,75.5,64.4,74.8z"/>
</g>
<g id="s03n" class="st24">
	<path class="st25" d="M9.8,42.5c0.3-0.3,0.6-0.7,0.9-1c3.4-3.5,8.2-5.7,13.1-6c3-4.2,8.1-6.5,13.2-6.1c1.6-2.4,3.6-4.4,5.8-6.2
		c-0.3-3-1.2-5.8-2.7-8.5c-3.3-5.6-9-9.5-15.5-10.3l-1-0.1L24,5.2c1.8,3,2.7,6.5,2.7,10c0,11-9,20-20,20c-0.9,0-1.7-0.1-2.6-0.2
		l-1-0.1l0.5,0.9C5.2,38.5,7.3,40.8,9.8,42.5z"/>
	<path class="st25" d="M84.7,41.5c-2.1-11.6-12.2-20-24-20c0,0,0,0,0,0c-9.1,0-17.3,4.9-21.6,12.9c-5.1-1.7-10.7,0.7-12.9,5.6
		c-0.5,0-1-0.1-1.4-0.1c-4.1,0-8.1,1.7-11,4.6c-2.8,2.8-4.3,6.6-4.3,10.5v0.2c0.1,8.4,7,15.2,15.4,15.2h55.7c0,0,0.1,0,0.1,0
		c3.9,0,7.6-1.5,10.4-4.3c2.8-2.8,4.4-6.5,4.4-10.4C95.5,49.2,91.1,43.3,84.7,41.5z"/>
</g>
<g id="s03m" class="st24">
	<path class="st25" d="M15.7,21.3l-7.2,10L20.7,30l-0.6,6.1c1.2-0.3,2.4-0.5,3.6-0.6c1.9-2.6,4.5-4.4,7.5-5.4
		c-3.7-0.9-7-3.2-9.1-6.7c-1.1-1.9-1.7-4-1.9-6.1h28.4c-0.1,0.9-0.2,1.7-0.4,2.5C52,18,56.3,17,60.7,17c0,0,0,0,0,0
		c1.4,0,2.7,0.1,4,0.3h3.4v-2H0.7v2h6L15.7,21.3z"/>
	<path class="st25" d="M84.7,41.5c-2.1-11.6-12.2-20-24-20c0,0,0,0,0,0c-9.1,0-17.3,4.9-21.6,12.9c-5.1-1.7-10.7,0.7-12.9,5.6
		c-0.5,0-1-0.1-1.4-0.1c-4.1,0-8.1,1.7-11,4.6c-2.8,2.8-4.3,6.6-4.3,10.5v0.2c0.1,8.4,7,15.2,15.4,15.2h55.7c0,0,0.1,0,0.1,0
		c3.9,0,7.6-1.5,10.4-4.3c2.8-2.8,4.4-6.5,4.4-10.4C95.5,49.2,91.1,43.3,84.7,41.5z"/>
</g>
<g id="s03d" class="st24">
	<path class="st25" d="M13,35.9l-7.2,10l1.7-0.2c0.8-1.5,1.9-2.9,3.1-4.2c2.2-2.3,5-4,8.1-5c-2.8-6.5-0.4-14.3,5.9-18
		c6.4-3.7,14.6-1.8,18.8,4.2c3.8-2.9,8.4-4.8,13.2-5.4l1-1.5l-12.2,1.3l1.2-12.2l-9.9,7.2l-5-11.2l-5,11.2l-10-7.2L18,17.1L5.8,15.9
		l7.2,9.9l-11.2,5L13,35.9z"/>
	<path class="st25" d="M84.7,41.5c-2.1-11.6-12.2-20-24-20c0,0,0,0,0,0c-9.1,0-17.3,4.9-21.6,12.9c-5.1-1.7-10.7,0.7-12.9,5.6
		c-0.5,0-1-0.1-1.4-0.1c-4.1,0-8.1,1.7-11,4.6c-2.8,2.8-4.3,6.6-4.3,10.5v0.2c0.1,8.4,7,15.2,15.4,15.2h55.7c0,0,0.1,0,0.1,0
		c3.9,0,7.6-1.5,10.4-4.3c2.8-2.8,4.4-6.5,4.4-10.4C95.5,49.2,91.1,43.3,84.7,41.5z"/>
</g>
<g id="s45__x28__x2B_03_x29_" class="st24">
	<path class="st25" d="M28.7,79.8h-2l1-1.7c0.3-0.4,0.4-0.9,0.3-1.4c-0.1-0.5-0.4-0.9-0.8-1.2c-0.8-0.6-2-0.4-2.6,0.5
		c-0.1,0.1-0.1,0.2-0.1,0.2l-1,1.7l-1-1.7c-0.5-0.9-1.6-1.2-2.5-0.7c-0.9,0.5-1.2,1.6-0.7,2.5l1,1.7h-2c-1,0-1.9,0.8-1.9,1.9
		c0,1,0.8,1.8,1.9,1.8h2l-1,1.7c-0.5,0.9-0.2,2,0.7,2.5c0.9,0.5,2,0.2,2.5-0.6l1-1.7l1,1.7c0.2,0.4,0.6,0.7,1.1,0.9
		c0.2,0,0.3,0.1,0.5,0.1c0.3,0,0.6-0.1,0.9-0.2c0.4-0.2,0.7-0.6,0.9-1.1c0.1-0.5,0.1-1-0.2-1.4l-1-1.7h2c1,0,1.9-0.8,1.9-1.8
		C30.5,80.6,29.7,79.8,28.7,79.8z"/>
	<path class="st25" d="M42.7,88.8h-2l1-1.7c0.3-0.4,0.4-0.9,0.3-1.4c-0.1-0.5-0.4-0.9-0.8-1.2c-0.8-0.6-2-0.4-2.6,0.5
		c-0.1,0.1-0.1,0.2-0.1,0.2l-1,1.7l-1-1.7c-0.5-0.9-1.6-1.2-2.5-0.7c-0.9,0.5-1.2,1.6-0.7,2.5l1,1.7h-2c-1,0-1.9,0.8-1.9,1.9
		c0,1,0.8,1.8,1.9,1.8h2l-1,1.7c-0.5,0.9-0.2,2,0.7,2.5c0.9,0.5,2,0.2,2.5-0.6l1-1.7l1,1.7c0.2,0.4,0.6,0.7,1.1,0.9
		c0.2,0,0.3,0.1,0.5,0.1c0.3,0,0.6-0.1,0.9-0.2c0.4-0.2,0.7-0.6,0.9-1.1c0.1-0.5,0.1-1-0.2-1.4l-1-1.7h2c1,0,1.9-0.8,1.9-1.8
		C44.5,89.6,43.7,88.8,42.7,88.8z"/>
	<path class="st25" d="M59,80.3c-0.3-0.3-0.8-0.5-1.3-0.5h-2l1-1.7c0.3-0.4,0.4-0.9,0.3-1.4c-0.1-0.5-0.4-0.9-0.8-1.2
		c-0.8-0.6-2-0.4-2.6,0.5c-0.1,0.1-0.1,0.2-0.1,0.2l-1,1.7l-1-1.7c-0.5-0.9-1.6-1.2-2.5-0.7c-0.9,0.5-1.2,1.6-0.7,2.5l1,1.7h-2
		c-1,0-1.9,0.8-1.9,1.9c0,1,0.8,1.8,1.9,1.8h2l-1,1.7c-0.5,0.9-0.2,2,0.7,2.5c0.9,0.5,2,0.2,2.5-0.6l1-1.7l1,1.7
		c0.3,0.6,1,0.9,1.6,0.9c0.3,0,0.6-0.1,0.9-0.2c0.4-0.2,0.7-0.6,0.9-1.1s0.1-1-0.2-1.4l-1-1.7h2c1,0,1.9-0.8,1.9-1.8
		C59.5,81.1,59.3,80.7,59,80.3z"/>
	<path class="st25" d="M71.7,88.8h-2l1-1.7c0.3-0.4,0.4-0.9,0.3-1.4c-0.1-0.5-0.4-0.9-0.8-1.2c-0.8-0.6-2-0.4-2.6,0.5
		c-0.1,0.1-0.1,0.2-0.1,0.2l-1,1.7l-1-1.7c-0.5-0.9-1.6-1.2-2.5-0.7c-0.9,0.5-1.2,1.6-0.7,2.5l1,1.7h-2c-1,0-1.8,0.8-1.8,1.9
		c0,1,0.8,1.8,1.8,1.8h2l-1,1.7c-0.5,0.9-0.2,2,0.7,2.5c0.9,0.5,2,0.2,2.5-0.6l1-1.7l1,1.7c0.3,0.6,1,0.9,1.6,0.9
		c0.3,0,0.6-0.1,0.9-0.2c0.4-0.2,0.7-0.6,0.9-1.1s0.1-1-0.2-1.4l-1-1.7h2c1,0,1.9-0.8,1.9-1.8c0-0.5-0.2-1-0.5-1.3
		C72.6,89,72.2,88.8,71.7,88.8z"/>
	<path class="st25" d="M87,80.3c-0.3-0.3-0.8-0.5-1.3-0.5h-2l1-1.7c0.3-0.4,0.4-0.9,0.3-1.4c-0.1-0.5-0.4-0.9-0.8-1.2
		c-0.8-0.6-2-0.4-2.6,0.5c-0.1,0.1-0.1,0.2-0.1,0.2l-1,1.7l-1-1.7c-0.5-0.9-1.6-1.2-2.5-0.7c-0.9,0.5-1.2,1.6-0.7,2.5l1,1.7h-2
		c-1,0-1.8,0.8-1.8,1.9c0,1,0.8,1.8,1.8,1.8h2l-1,1.7c-0.5,0.9-0.2,2,0.7,2.5c0.9,0.5,2,0.2,2.5-0.6l1-1.7l1,1.7
		c0.3,0.6,1,0.9,1.6,0.9c0.3,0,0.6-0.1,0.9-0.2c0.4-0.2,0.7-0.6,0.9-1.1s0.1-1-0.2-1.4l-1-1.7h2c1,0,1.9-0.8,1.9-1.8
		C87.5,81.1,87.3,80.7,87,80.3z"/>
</g>
<g id="s44__x28__x2B_03_x29_" class="st24">
	<path class="st25" d="M73,80.3c-0.3-0.3-0.8-0.5-1.3-0.5h-2l1-1.7c0.3-0.4,0.4-0.9,0.3-1.4c-0.1-0.5-0.4-0.9-0.8-1.2
		c-0.8-0.6-2-0.4-2.6,0.5c-0.1,0.1-0.1,0.2-0.1,0.2l-1,1.7l-1-1.7c-0.5-0.9-1.6-1.2-2.5-0.7c-0.9,0.5-1.2,1.6-0.7,2.5l1,1.7h-2
		c-1,0-1.8,0.8-1.8,1.9c0,1,0.8,1.8,1.8,1.8h2l-1,1.7c-0.5,0.9-0.2,2,0.7,2.5c0.9,0.5,2,0.2,2.5-0.6l1-1.7l1,1.7
		c0.3,0.6,1,0.9,1.6,0.9c0.3,0,0.6-0.1,0.9-0.2c0.4-0.2,0.7-0.6,0.9-1.1s0.1-1-0.2-1.4l-1-1.7h2c1,0,1.9-0.8,1.9-1.8
		C73.5,81.1,73.3,80.7,73,80.3z"/>
	<path class="st25" d="M42.7,88.8h-2l1-1.7c0.3-0.4,0.4-0.9,0.3-1.4c-0.1-0.5-0.4-0.9-0.8-1.2c-0.8-0.6-2-0.4-2.6,0.5
		c-0.1,0.1-0.1,0.2-0.1,0.2l-1,1.7l-1-1.7c-0.5-0.9-1.6-1.2-2.5-0.7c-0.9,0.5-1.2,1.6-0.7,2.5l1,1.7h-2c-1,0-1.9,0.8-1.9,1.9
		c0,1,0.8,1.8,1.9,1.8h2l-1,1.7c-0.5,0.9-0.2,2,0.7,2.5c0.9,0.5,2,0.2,2.5-0.6l1-1.7l1,1.7c0.2,0.4,0.6,0.7,1.1,0.9
		c0.2,0,0.3,0.1,0.5,0.1c0.3,0,0.6-0.1,0.9-0.2c0.4-0.2,0.7-0.6,0.9-1.1c0.1-0.5,0.1-1-0.2-1.4l-1-1.7h2c1,0,1.9-0.8,1.9-1.8
		C44.5,89.6,43.7,88.8,42.7,88.8z"/>
</g>
<g id="s43__x28__x2B_03_x29_" class="st24">
	<path class="st25" d="M28.7,79.8h-2l1-1.7c0.3-0.4,0.4-0.9,0.3-1.4c-0.1-0.5-0.4-0.9-0.8-1.2c-0.8-0.6-2-0.4-2.6,0.5
		c-0.1,0.1-0.1,0.2-0.1,0.2l-1,1.7l-1-1.7c-0.5-0.9-1.6-1.2-2.5-0.7c-0.9,0.5-1.2,1.6-0.7,2.5l1,1.7h-2c-1,0-1.9,0.8-1.9,1.9
		c0,1,0.8,1.8,1.9,1.8h2l-1,1.7c-0.5,0.9-0.2,2,0.7,2.5c0.9,0.5,2,0.2,2.5-0.6l1-1.7l1,1.7c0.2,0.4,0.6,0.7,1.1,0.9
		c0.2,0,0.3,0.1,0.5,0.1c0.3,0,0.6-0.1,0.9-0.2c0.4-0.2,0.7-0.6,0.9-1.1c0.1-0.5,0.1-1-0.2-1.4l-1-1.7h2c1,0,1.9-0.8,1.9-1.8
		C30.5,80.6,29.7,79.8,28.7,79.8z"/>
	<path class="st25" d="M41.4,82.7c-1.5-0.8-3.3-0.2-4.1,1.3l-3.6,8c-0.2,0.4-0.2,0.8-0.2,1.2c0,1.7,1.3,3,3,3c1.2,0,2.3-0.7,2.7-1.8
		l3.6-8C43.3,84.9,42.7,83.3,41.4,82.7z"/>
	<path class="st25" d="M56.4,76.7c-0.7-0.4-1.5-0.4-2.3-0.2c-0.8,0.2-1.4,0.8-1.8,1.5l-3.6,8c-0.2,0.4-0.2,0.8-0.2,1.2
		c0,1.7,1.3,3,3,3c1.2,0,2.3-0.7,2.7-1.8l3.6-8C58.3,78.9,57.7,77.3,56.4,76.7z"/>
	<path class="st25" d="M71.7,88.8h-2l1-1.7c0.3-0.4,0.4-0.9,0.3-1.4c-0.1-0.5-0.4-0.9-0.8-1.2c-0.8-0.6-2-0.4-2.6,0.5
		c-0.1,0.1-0.1,0.2-0.1,0.2l-1,1.7l-1-1.7c-0.5-0.9-1.6-1.2-2.5-0.7c-0.9,0.5-1.2,1.6-0.7,2.5l1,1.7h-2c-1,0-1.8,0.8-1.8,1.9
		c0,1,0.8,1.8,1.8,1.8h2l-1,1.7c-0.5,0.9-0.2,2,0.7,2.5c0.9,0.5,2,0.2,2.5-0.6l1-1.7l1,1.7c0.3,0.6,1,0.9,1.6,0.9
		c0.3,0,0.6-0.1,0.9-0.2c0.4-0.2,0.7-0.6,0.9-1.1s0.1-1-0.2-1.4l-1-1.7h2c1,0,1.9-0.8,1.9-1.8c0-0.5-0.2-1-0.5-1.3
		C72.6,89,72.2,88.8,71.7,88.8z"/>
	<path class="st25" d="M83.4,76.7c-0.7-0.4-1.5-0.4-2.3-0.2c-0.8,0.2-1.4,0.8-1.8,1.5l-3.6,8c-0.2,0.4-0.2,0.8-0.2,1.2
		c0,0.8,0.3,1.6,0.9,2.1c0.6,0.6,1.3,0.9,2.1,0.9c1.2,0,2.3-0.7,2.7-1.8l3.6-8C85.3,78.9,84.7,77.3,83.4,76.7z"/>
</g>
<g id="s42__x28__x2B_03_x29_" class="st24">
	<path class="st25" d="M42.7,88.8h-2l1-1.7c0.3-0.4,0.4-0.9,0.3-1.4c-0.1-0.5-0.4-0.9-0.8-1.2c-0.8-0.6-2-0.4-2.6,0.5
		c-0.1,0.1-0.1,0.2-0.1,0.2l-1,1.7l-1-1.7c-0.5-0.9-1.6-1.2-2.5-0.7c-0.9,0.5-1.2,1.6-0.7,2.5l1,1.7h-2c-1,0-1.9,0.8-1.9,1.9
		c0,1,0.8,1.8,1.9,1.8h2l-1,1.7c-0.5,0.9-0.2,2,0.7,2.5c0.9,0.5,2,0.2,2.5-0.6l1-1.7l1,1.7c0.2,0.4,0.6,0.7,1.1,0.9
		c0.2,0,0.3,0.1,0.5,0.1c0.3,0,0.6-0.1,0.9-0.2c0.4-0.2,0.7-0.6,0.9-1.1c0.1-0.5,0.1-1-0.2-1.4l-1-1.7h2c1,0,1.9-0.8,1.9-1.8
		C44.5,89.6,43.7,88.8,42.7,88.8z"/>
	<path class="st25" d="M69.4,75.7c-0.7-0.4-1.5-0.4-2.3-0.2c-0.8,0.2-1.4,0.8-1.8,1.5l-3.6,8c-0.2,0.4-0.2,0.8-0.2,1.2
		c0,0.8,0.3,1.6,0.9,2.1c0.6,0.6,1.3,0.9,2.1,0.9c1.2,0,2.3-0.7,2.7-1.8l3.6-8C71.3,77.9,70.7,76.3,69.4,75.7z"/>
</g>
<g id="s41__x28__x2B_03_x29_" class="st24">
	<path class="st25" d="M27.4,74.7c-1.5-0.8-3.3-0.2-4.1,1.3l-3.6,8c-0.2,0.4-0.2,0.8-0.2,1.2c0,1.7,1.3,3,3,3c1.2,0,2.3-0.7,2.7-1.8
		l3.6-8C29.3,76.9,28.7,75.3,27.4,74.7z"/>
	<path class="st25" d="M41.4,83.7c-1.5-0.8-3.3-0.2-4.1,1.3l-3.6,8c-0.2,0.4-0.2,0.8-0.2,1.2c0,1.7,1.3,3,3,3c1.2,0,2.3-0.7,2.7-1.8
		l3.6-8C43.3,85.9,42.7,84.3,41.4,83.7z"/>
	<path class="st25" d="M56.4,75.7c-0.7-0.4-1.5-0.4-2.3-0.2c-0.8,0.2-1.4,0.8-1.8,1.5l-3.6,8c-0.2,0.4-0.2,0.8-0.2,1.2
		c0,1.7,1.3,3,3,3c1.2,0,2.3-0.7,2.7-1.8l3.6-8C58.3,77.9,57.7,76.3,56.4,75.7z"/>
	<path class="st25" d="M69.4,74.7c-0.7-0.4-1.5-0.4-2.3-0.2c-0.8,0.2-1.4,0.8-1.8,1.5l-3.6,8c-0.2,0.4-0.2,0.8-0.2,1.2
		c0,0.8,0.3,1.6,0.9,2.1c0.6,0.6,1.3,0.9,2.1,0.9c1.2,0,2.3-0.7,2.7-1.8l3.6-8C71.3,76.9,70.7,75.3,69.4,74.7z"/>
	<path class="st25" d="M83.4,83.7c-0.7-0.4-1.5-0.4-2.3-0.2c-0.8,0.2-1.4,0.8-1.8,1.5l-3.6,8c-0.2,0.4-0.2,0.8-0.2,1.2
		c0,0.8,0.3,1.6,0.9,2.1c0.6,0.6,1.3,0.9,2.1,0.9c1.2,0,2.3-0.7,2.7-1.8l3.6-8C85.3,85.9,84.7,84.3,83.4,83.7z"/>
</g>
<g id="s40__x28__x2B_03_x29_" class="st24">
	<path class="st25" d="M41.4,83.7c-1.5-0.8-3.3-0.2-4.1,1.3l-3.6,8c-0.2,0.4-0.2,0.8-0.2,1.2c0,1.7,1.3,3,3,3c1.2,0,2.3-0.7,2.7-1.8
		l3.6-8C43.3,85.9,42.7,84.3,41.4,83.7z"/>
	<path class="st25" d="M65.4,74.7c-0.7-0.4-1.5-0.4-2.3-0.2c-0.8,0.2-1.4,0.8-1.8,1.5l-3.6,8c-0.2,0.4-0.2,0.8-0.2,1.2
		c0,0.8,0.3,1.6,0.9,2.1c0.6,0.6,1.3,0.9,2.1,0.9c1.2,0,2.3-0.7,2.7-1.8l3.6-8C67.3,76.9,66.7,75.3,65.4,74.7z"/>
</g>
<g id="s29__x28__x2B_03_x29_" class="st24">
	<path class="st26" d="M42.5,97c-0.5,0-1-0.1-1.5-0.3c-1.9-0.8-2.9-2.8-2.4-4.7l3.7-14.1l-3.9-1.7c-1-0.4-1.8-1.3-2.2-2.4
		c-0.4-1.1-0.3-2.2,0.3-3.2L47,51.1c0.9-1.7,3-2.5,4.8-1.9c1.9,0.7,3,2.6,2.6,4.5L52.2,66l4,1.8c1,0.5,1.8,1.3,2.2,2.4
		s0.2,2.2-0.3,3.2L46,95C45.3,96.3,43.9,97,42.5,97z"/>
	<polygon class="st25" points="55.3,71.2 48.3,68.1 51.6,50 39.3,72.7 46.5,75.8 41,96.6 	"/>
	<path class="st25" d="M22.7,79.8h-2l1-1.7c0.3-0.4,0.4-0.9,0.3-1.4c-0.1-0.5-0.4-0.9-0.8-1.2c-0.8-0.6-2-0.4-2.6,0.5
		c-0.1,0.1-0.1,0.2-0.1,0.2l-1,1.7l-1-1.7c-0.5-0.9-1.6-1.2-2.5-0.7c-0.9,0.5-1.2,1.6-0.7,2.5l1,1.7h-2c-1,0-1.9,0.8-1.9,1.9
		c0,1,0.8,1.8,1.9,1.8h2l-1,1.7c-0.5,0.9-0.2,2,0.7,2.5c0.9,0.5,2,0.2,2.5-0.6l1-1.7l1,1.7c0.2,0.4,0.6,0.7,1.1,0.9
		c0.2,0,0.3,0.1,0.5,0.1c0.3,0,0.6-0.1,0.9-0.2c0.4-0.2,0.7-0.6,0.9-1.1c0.1-0.5,0.1-1-0.2-1.4l-1-1.7h2c1,0,1.9-0.8,1.9-1.8
		C24.5,80.6,23.7,79.8,22.7,79.8z"/>
	<path class="st25" d="M66,80.3c-0.3-0.3-0.8-0.5-1.3-0.5h-2l1-1.7c0.3-0.4,0.4-0.9,0.3-1.4c-0.1-0.5-0.4-0.9-0.8-1.2
		c-0.8-0.6-2-0.4-2.6,0.5c-0.1,0.1-0.1,0.2-0.1,0.2l-1,1.7l-1-1.7c-0.5-0.9-1.6-1.2-2.5-0.7c-0.9,0.5-1.2,1.6-0.7,2.5l1,1.7h-2
		c-1,0-1.8,0.8-1.8,1.9c0,1,0.8,1.8,1.8,1.8h2l-1,1.7c-0.5,0.9-0.2,2,0.7,2.5c0.9,0.5,2,0.2,2.5-0.6l1-1.7l1,1.7
		c0.3,0.6,1,0.9,1.6,0.9c0.3,0,0.6-0.1,0.9-0.2c0.4-0.2,0.7-0.6,0.9-1.1s0.1-1-0.2-1.4l-1-1.7h2c1,0,1.9-0.8,1.9-1.8
		C66.5,81.1,66.3,80.7,66,80.3z"/>
	<path class="st25" d="M78.7,88.8h-2l1-1.7c0.3-0.4,0.4-0.9,0.3-1.4c-0.1-0.5-0.4-0.9-0.8-1.2c-0.8-0.6-2-0.4-2.6,0.5
		c-0.1,0.1-0.1,0.2-0.1,0.2l-1,1.7l-1-1.7c-0.5-0.9-1.6-1.2-2.5-0.7c-0.9,0.5-1.2,1.6-0.7,2.5l1,1.7h-2c-1,0-1.8,0.8-1.8,1.9
		c0,1,0.8,1.8,1.8,1.8h2l-1,1.7c-0.5,0.9-0.2,2,0.7,2.5c0.9,0.5,2,0.2,2.5-0.6l1-1.7l1,1.7c0.3,0.6,1,0.9,1.6,0.9
		c0.3,0,0.6-0.1,0.9-0.2c0.4-0.2,0.7-0.6,0.9-1.1s0.1-1-0.2-1.4l-1-1.7h2c1,0,1.9-0.8,1.9-1.8c0-0.5-0.2-1-0.5-1.3
		C79.6,89,79.2,88.8,78.7,88.8z"/>
	<path class="st25" d="M94,80.3c-0.3-0.3-0.8-0.5-1.3-0.5h-2l1-1.7c0.3-0.4,0.4-0.9,0.3-1.4c-0.1-0.5-0.4-0.9-0.8-1.2
		c-0.8-0.6-2-0.4-2.6,0.5c-0.1,0.1-0.1,0.2-0.1,0.2l-1,1.7l-1-1.7c-0.5-0.9-1.6-1.2-2.5-0.7c-0.9,0.5-1.2,1.6-0.7,2.5l1,1.7h-2
		c-1,0-1.8,0.8-1.8,1.9c0,1,0.8,1.8,1.8,1.8h2l-1,1.7c-0.5,0.9-0.2,2,0.7,2.5c0.9,0.5,2,0.2,2.5-0.6l1-1.7l1,1.7
		c0.3,0.6,1,0.9,1.6,0.9c0.3,0,0.6-0.1,0.9-0.2c0.4-0.2,0.7-0.6,0.9-1.1s0.1-1-0.2-1.4l-1-1.7h2c1,0,1.9-0.8,1.9-1.8
		C94.5,81.1,94.3,80.7,94,80.3z"/>
	<path class="st25" d="M36.7,88.8h-2l1-1.7c0.3-0.4,0.4-0.9,0.3-1.4c-0.1-0.5-0.4-0.9-0.8-1.2c-0.8-0.6-2-0.4-2.6,0.5
		c-0.1,0.1-0.1,0.2-0.1,0.2l-1,1.7l-1-1.7c-0.5-0.9-1.6-1.2-2.5-0.7c-0.9,0.5-1.2,1.6-0.7,2.5l1,1.7h-2c-1,0-1.9,0.8-1.9,1.9
		c0,1,0.8,1.8,1.9,1.8h2l-1,1.7c-0.5,0.9-0.2,2,0.7,2.5c0.9,0.5,2,0.2,2.5-0.6l1-1.7l1,1.7c0.2,0.4,0.6,0.7,1.1,0.9
		c0.2,0,0.3,0.1,0.5,0.1c0.3,0,0.6-0.1,0.9-0.2c0.4-0.2,0.7-0.6,0.9-1.1c0.1-0.5,0.1-1-0.2-1.4l-1-1.7h2c1,0,1.9-0.8,1.9-1.8
		C38.5,89.6,37.7,88.8,36.7,88.8z"/>
</g>
<g id="s28__x28__x2B_03_x29_" class="st24">
	<path class="st26" d="M46.5,97c-0.5,0-1-0.1-1.5-0.3c-1.9-0.8-2.9-2.8-2.4-4.7l3.7-14.1l-3.9-1.7c-1-0.4-1.8-1.3-2.2-2.4
		c-0.4-1.1-0.3-2.2,0.3-3.2L51,51.1c0.9-1.7,3-2.5,4.8-1.9c1.9,0.7,3,2.6,2.6,4.5L56.2,66l4,1.8c1,0.5,1.8,1.3,2.2,2.4
		s0.2,2.2-0.3,3.2L50,95C49.3,96.3,47.9,97,46.5,97z"/>
	<polygon class="st25" points="59.3,71.2 52.3,68.1 55.6,50 43.3,72.7 50.5,75.8 45,96.6 	"/>
	<path class="st25" d="M39.7,88.8h-2l1-1.7c0.3-0.4,0.4-0.9,0.3-1.4c-0.1-0.5-0.4-0.9-0.8-1.2c-0.8-0.6-2-0.4-2.6,0.5
		c-0.1,0.1-0.1,0.2-0.1,0.2l-1,1.7l-1-1.7c-0.5-0.9-1.6-1.2-2.5-0.7c-0.9,0.5-1.2,1.6-0.7,2.5l1,1.7h-2c-1,0-1.9,0.8-1.9,1.9
		c0,1,0.8,1.8,1.9,1.8h2l-1,1.7c-0.5,0.9-0.2,2,0.7,2.5c0.9,0.5,2,0.2,2.5-0.6l1-1.7l1,1.7c0.2,0.4,0.6,0.7,1.1,0.9
		c0.2,0,0.3,0.1,0.5,0.1c0.3,0,0.6-0.1,0.9-0.2c0.4-0.2,0.7-0.6,0.9-1.1c0.1-0.5,0.1-1-0.2-1.4l-1-1.7h2c1,0,1.9-0.8,1.9-1.8
		C41.5,89.6,40.7,88.8,39.7,88.8z"/>
	<path class="st25" d="M70.4,79.5h-2l1-1.7c0.6-0.8,0.4-2-0.5-2.6c-0.4-0.3-0.9-0.4-1.4-0.3c-0.5,0.1-0.9,0.4-1.2,0.8
		c-0.1,0.1-0.1,0.2-0.1,0.2l-1,1.7l-1-1.7c-0.5-0.9-1.6-1.2-2.5-0.7c-0.9,0.5-1.2,1.6-0.7,2.5l1,1.7h-2c-1,0-1.9,0.8-1.9,1.9
		c0,1,0.8,1.8,1.9,1.8h2l-1,1.7c-0.5,0.9-0.2,2,0.7,2.5c0.9,0.5,2,0.2,2.5-0.6l1-1.7l1,1.7c0.2,0.4,0.6,0.7,1.1,0.9
		c0.2,0,0.3,0.1,0.5,0.1c0.3,0,0.6-0.1,0.9-0.2c0.4-0.2,0.7-0.6,0.9-1.1c0.1-0.5,0.1-1-0.2-1.4l-1-1.7h2c0,0,0,0,0,0
		c0.5,0,1-0.2,1.3-0.5c0.3-0.3,0.5-0.8,0.5-1.3C72.3,80.3,71.4,79.5,70.4,79.5z"/>
</g>
<g id="s27__x28__x2B_03_x29_" class="st24">
	<path class="st26" d="M46.5,97c-0.5,0-1-0.1-1.5-0.3c-1.9-0.8-2.9-2.8-2.4-4.7l3.7-14.1l-3.9-1.7c-1-0.4-1.8-1.3-2.2-2.4
		c-0.4-1.1-0.3-2.2,0.3-3.2L51,51.1c0.9-1.7,3-2.5,4.8-1.9c1.9,0.7,3,2.6,2.6,4.5L56.2,66l4,1.8c1,0.5,1.8,1.3,2.2,2.4
		s0.2,2.2-0.3,3.2L50,95C49.3,96.3,47.9,97,46.5,97z"/>
	<polygon class="st25" points="59.3,71.2 52.3,68.1 55.6,50 43.3,72.7 50.5,75.8 45,96.6 	"/>
	<path class="st25" d="M64.4,76.7c-0.7-0.4-1.5-0.4-2.3-0.2c-0.8,0.2-1.4,0.8-1.8,1.5l-3.6,8c-0.2,0.4-0.2,0.8-0.2,1.2
		c0,0.8,0.3,1.6,0.9,2.1c0.6,0.6,1.3,0.9,2.1,0.9c1.2,0,2.3-0.7,2.7-1.8l3.6-8C66.3,78.9,65.7,77.3,64.4,76.7z"/>
	<path class="st25" d="M91.4,76.7c-0.7-0.4-1.5-0.4-2.3-0.2c-0.8,0.2-1.4,0.8-1.8,1.5l-3.6,8c-0.2,0.4-0.2,0.8-0.2,1.2
		c0,0.8,0.3,1.6,0.9,2.1c0.6,0.6,1.3,0.9,2.1,0.9c1.2,0,2.3-0.7,2.7-1.8l3.6-8C93.3,78.9,92.7,77.3,91.4,76.7z"/>
	<path class="st25" d="M39.4,82.7c-1.5-0.8-3.3-0.2-4.1,1.3l-3.6,8c-0.2,0.4-0.2,0.8-0.2,1.2c0,1.7,1.3,3,3,3c1.2,0,2.3-0.7,2.7-1.8
		l3.6-8C41.3,84.9,40.7,83.3,39.4,82.7z"/>
	<path class="st25" d="M79.7,88.8h-2l1-1.7c0.3-0.4,0.4-0.9,0.3-1.4c-0.1-0.5-0.4-0.9-0.8-1.2c-0.8-0.6-2-0.4-2.6,0.5
		c-0.1,0.1-0.1,0.2-0.1,0.2l-1,1.7l-1-1.7c-0.5-0.9-1.6-1.2-2.5-0.7c-0.9,0.5-1.2,1.6-0.7,2.5l1,1.7h-2c-1,0-1.8,0.8-1.8,1.9
		c0,1,0.8,1.8,1.8,1.8h2l-1,1.7c-0.5,0.9-0.2,2,0.7,2.5c0.9,0.5,2,0.2,2.5-0.6l1-1.7l1,1.7c0.3,0.6,1,0.9,1.6,0.9
		c0.3,0,0.6-0.1,0.9-0.2c0.4-0.2,0.7-0.6,0.9-1.1s0.1-1-0.2-1.4l-1-1.7h2c1,0,1.9-0.8,1.9-1.8c0-0.5-0.2-1-0.5-1.3
		C80.6,89,80.2,88.8,79.7,88.8z"/>
	<path class="st25" d="M28.7,79.8h-2l1-1.7c0.3-0.4,0.4-0.9,0.3-1.4c-0.1-0.5-0.4-0.9-0.8-1.2c-0.8-0.6-2-0.4-2.6,0.5
		c-0.1,0.1-0.1,0.2-0.1,0.2l-1,1.7l-1-1.7c-0.5-0.9-1.6-1.2-2.5-0.7c-0.9,0.5-1.2,1.6-0.7,2.5l1,1.7h-2c-1,0-1.9,0.8-1.9,1.9
		c0,1,0.8,1.8,1.9,1.8h2l-1,1.7c-0.5,0.9-0.2,2,0.7,2.5c0.9,0.5,2,0.2,2.5-0.6l1-1.7l1,1.7c0.2,0.4,0.6,0.7,1.1,0.9
		c0.2,0,0.3,0.1,0.5,0.1c0.3,0,0.6-0.1,0.9-0.2c0.4-0.2,0.7-0.6,0.9-1.1c0.1-0.5,0.1-1-0.2-1.4l-1-1.7h2c1,0,1.9-0.8,1.9-1.8
		C30.5,80.6,29.7,79.8,28.7,79.8z"/>
</g>
<g id="s26__x28__x2B_03_x29_" class="st24">
	<path class="st26" d="M46.5,97c-0.5,0-1-0.1-1.5-0.3c-1.9-0.8-2.9-2.8-2.4-4.7l3.7-14.1l-3.9-1.7c-1-0.4-1.8-1.3-2.2-2.4
		c-0.4-1.1-0.3-2.2,0.3-3.2L51,51.1c0.9-1.7,3-2.5,4.8-1.9c1.9,0.7,3,2.6,2.6,4.5L56.2,66l4,1.8c1,0.5,1.8,1.3,2.2,2.4
		s0.2,2.2-0.3,3.2L50,95C49.3,96.3,47.9,97,46.5,97z"/>
	<polygon class="st25" points="55.6,50 43.3,72.7 50.5,75.8 45,96.6 59.3,71.2 52.3,68.1 	"/>
	<path class="st25" d="M67.4,74.7c-0.7-0.4-1.5-0.4-2.3-0.2c-0.8,0.2-1.4,0.8-1.8,1.5l-3.6,8c-0.2,0.4-0.2,0.8-0.2,1.2
		c0,0.8,0.3,1.6,0.9,2.1c0.6,0.6,1.3,0.9,2.1,0.9c1.2,0,2.3-0.7,2.7-1.8l3.6-8C69.3,76.9,68.7,75.3,67.4,74.7z"/>
	<path class="st25" d="M39.7,88.8h-2l1-1.7c0.3-0.4,0.4-0.9,0.3-1.4c-0.1-0.5-0.4-0.9-0.8-1.2c-0.8-0.6-2-0.4-2.6,0.5
		c-0.1,0.1-0.1,0.2-0.1,0.2l-1,1.7l-1-1.7c-0.5-0.9-1.6-1.2-2.5-0.7c-0.9,0.5-1.2,1.6-0.7,2.5l1,1.7h-2c-1,0-1.9,0.8-1.9,1.9
		c0,1,0.8,1.8,1.9,1.8h2l-1,1.7c-0.5,0.9-0.2,2,0.7,2.5c0.9,0.5,2,0.2,2.5-0.6l1-1.7l1,1.7c0.2,0.4,0.6,0.7,1.1,0.9
		c0.2,0,0.3,0.1,0.5,0.1c0.3,0,0.6-0.1,0.9-0.2c0.4-0.2,0.7-0.6,0.9-1.1c0.1-0.5,0.1-1-0.2-1.4l-1-1.7h2c1,0,1.9-0.8,1.9-1.8
		C41.5,89.6,40.7,88.8,39.7,88.8z"/>
</g>
<g id="s25__x28__x2B_03_x29_" class="st24">
	<path class="st26" d="M41.5,97c-0.5,0-1-0.1-1.5-0.3c-1.9-0.8-2.9-2.8-2.4-4.7l3.7-14.1l-3.9-1.7c-1-0.4-1.8-1.3-2.2-2.4
		c-0.4-1.1-0.3-2.2,0.3-3.2L46,51.1c0.9-1.7,3-2.5,4.8-1.9c1.9,0.7,3,2.6,2.6,4.5L51.2,66l4,1.8c1,0.5,1.8,1.3,2.2,2.4
		s0.2,2.2-0.3,3.2L45,95C44.3,96.3,42.9,97,41.5,97z"/>
	<polygon class="st25" points="54.3,71.2 47.3,68.1 50.6,50 38.3,72.7 45.5,75.8 40,96.7 	"/>
	<path class="st25" d="M22.4,74.7c-1.5-0.8-3.3-0.2-4.1,1.3l-3.6,8c-0.2,0.4-0.2,0.8-0.2,1.2c0,1.7,1.3,3,3,3c1.2,0,2.3-0.7,2.7-1.8
		l3.6-8C24.3,76.9,23.7,75.3,22.4,74.7z"/>
	<path class="st25" d="M33.4,83.7c-1.5-0.8-3.3-0.2-4.1,1.3l-3.6,8c-0.2,0.4-0.2,0.8-0.2,1.2c0,1.7,1.3,3,3,3c1.2,0,2.3-0.7,2.7-1.8
		l3.6-8C35.3,85.9,34.7,84.3,33.4,83.7z"/>
	<path class="st25" d="M59.4,75.7c-0.7-0.4-1.5-0.4-2.3-0.2c-0.8,0.2-1.4,0.8-1.8,1.5l-3.6,8c-0.2,0.4-0.2,0.8-0.2,1.2
		c0,0.8,0.3,1.6,0.9,2.1c0.6,0.6,1.3,0.9,2.1,0.9c1.2,0,2.3-0.7,2.7-1.8l3.6-8C61.3,77.9,60.7,76.3,59.4,75.7z"/>
	<path class="st25" d="M72.4,74.7c-0.7-0.4-1.5-0.4-2.3-0.2c-0.8,0.2-1.4,0.8-1.8,1.5l-3.6,8c-0.2,0.4-0.2,0.8-0.2,1.2
		c0,0.8,0.3,1.6,0.9,2.1c0.6,0.6,1.3,0.9,2.1,0.9c1.2,0,2.3-0.7,2.7-1.8l3.6-8C74.3,76.9,73.7,75.3,72.4,74.7z"/>
	<path class="st25" d="M86.4,83.7c-0.7-0.4-1.5-0.4-2.3-0.2c-0.8,0.2-1.4,0.8-1.8,1.5l-3.6,8c-0.2,0.4-0.2,0.8-0.2,1.2
		c0,0.8,0.3,1.6,0.9,2.1c0.6,0.6,1.3,0.9,2.1,0.9c1.2,0,2.3-0.7,2.7-1.8l3.6-8C88.3,85.9,87.7,84.3,86.4,83.7z"/>
</g>
<g id="s24__x28__x2B_03_x29_" class="st24">
	<path class="st26" d="M46.5,97c-0.5,0-1-0.1-1.5-0.3c-1.9-0.8-2.9-2.8-2.4-4.7l3.7-14.1l-3.9-1.7c-1-0.4-1.8-1.3-2.2-2.4
		c-0.4-1.1-0.3-2.2,0.3-3.2L51,51.1c0.9-1.7,3-2.5,4.8-1.9c1.9,0.7,3,2.6,2.6,4.5L56.2,66l4,1.8c1,0.5,1.8,1.3,2.2,2.4
		s0.2,2.2-0.3,3.2L50,95C49.3,96.3,47.9,97,46.5,97z"/>
	<polygon class="st25" points="55.6,50 43.3,72.7 50.5,75.8 45,96.6 59.3,71.2 52.3,68.1 	"/>
	<path class="st25" d="M37.4,83.7c-1.5-0.8-3.3-0.2-4.1,1.3l-3.6,8c-0.2,0.4-0.2,0.8-0.2,1.2c0,1.7,1.3,3,3,3c1.2,0,2.3-0.7,2.7-1.8
		l3.6-8C39.3,85.9,38.7,84.3,37.4,83.7z"/>
	<path class="st25" d="M67.4,74.7c-0.7-0.4-1.5-0.4-2.3-0.2c-0.8,0.2-1.4,0.8-1.8,1.5l-3.6,8c-0.2,0.4-0.2,0.8-0.2,1.2
		c0,0.8,0.3,1.6,0.9,2.1c0.6,0.6,1.3,0.9,2.1,0.9c1.2,0,2.3-0.7,2.7-1.8l3.6-8C69.3,76.9,68.7,75.3,67.4,74.7z"/>
</g>
<g id="s21__x28__x2B_03_x29_" class="st24">
	<path class="st26" d="M42.5,97c-0.5,0-1-0.1-1.5-0.3c-1.9-0.8-2.9-2.8-2.4-4.7l3.7-14.1l-3.9-1.7c-1-0.4-1.8-1.3-2.2-2.4
		c-0.4-1.1-0.3-2.2,0.3-3.2L47,51.1c0.9-1.7,3-2.5,4.8-1.9c1.9,0.7,3,2.6,2.6,4.5L52.2,66l4,1.8c1,0.5,1.8,1.3,2.2,2.4
		s0.2,2.2-0.3,3.2L46,95C45.3,96.3,43.9,97,42.5,97z"/>
	<polygon class="st25" points="55.3,71.2 48.3,68.1 51.6,50 39.3,72.7 46.5,75.8 41,96.7 	"/>
	<path class="st25" d="M61.7,88.8h-2l1-1.7c0.3-0.4,0.4-0.9,0.3-1.4c-0.1-0.5-0.4-0.9-0.8-1.2c-0.8-0.6-2-0.4-2.6,0.5
		c-0.1,0.1-0.1,0.2-0.1,0.2l-1,1.7l-1-1.7c-0.5-0.9-1.6-1.2-2.5-0.7c-0.9,0.5-1.2,1.6-0.7,2.5l1,1.7h-2c-1,0-1.8,0.8-1.8,1.9
		c0,1,0.8,1.8,1.8,1.8h2l-1,1.7c-0.5,0.9-0.2,2,0.7,2.5c0.9,0.5,2,0.2,2.5-0.6l1-1.7l1,1.7c0.3,0.6,1,0.9,1.6,0.9
		c0.3,0,0.6-0.1,0.9-0.2c0.9-0.5,1.2-1.6,0.7-2.5l-1-1.7h2c1,0,1.9-0.8,1.9-1.8c0-0.5-0.2-1-0.5-1.3C62.6,89,62.2,88.8,61.7,88.8z"
		/>
	<path class="st25" d="M35.7,79.8h-2l1-1.7c0.3-0.4,0.4-0.9,0.3-1.4c-0.1-0.5-0.4-0.9-0.8-1.2c-0.8-0.6-2-0.4-2.6,0.5
		c-0.1,0.1-0.1,0.2-0.1,0.2l-1,1.7l-1-1.7c-0.5-0.9-1.6-1.2-2.5-0.7c-0.9,0.5-1.2,1.6-0.7,2.5l1,1.7h-2c-1,0-1.9,0.8-1.9,1.9
		c0,1,0.8,1.8,1.9,1.8h2l-1,1.7c-0.5,0.9-0.2,2,0.7,2.5c0.9,0.5,2,0.2,2.5-0.6l1-1.7l1,1.7c0.3,0.6,1,0.9,1.6,0.9
		c0.3,0,0.6-0.1,0.9-0.2c0.9-0.5,1.2-1.6,0.7-2.5l-1-1.7h2c1,0,1.9-0.8,1.9-1.8C37.5,80.6,36.7,79.8,35.7,79.8z"/>
	<path class="st25" d="M77,80.3c-0.3-0.3-0.8-0.5-1.3-0.5h-2l1-1.7c0.3-0.4,0.4-0.9,0.3-1.4c-0.1-0.5-0.4-0.9-0.8-1.2
		c-0.8-0.6-2-0.4-2.6,0.5c-0.1,0.1-0.1,0.2-0.1,0.2l-1,1.7l-1-1.7c-0.5-0.9-1.6-1.2-2.5-0.7c-0.9,0.5-1.2,1.6-0.7,2.5l1,1.7h-2
		c-1,0-1.8,0.8-1.8,1.9c0,1,0.8,1.8,1.8,1.8h2l-1,1.7c-0.5,0.9-0.2,2,0.7,2.5c0.9,0.5,2,0.2,2.5-0.6l1-1.7l1,1.7
		c0.3,0.6,1,0.9,1.6,0.9c0.3,0,0.6-0.1,0.9-0.2c0.9-0.5,1.2-1.6,0.7-2.5l-1-1.7h2c1,0,1.9-0.8,1.9-1.8C77.5,81.1,77.3,80.7,77,80.3z
		"/>
</g>
<g id="_x32_0__x28__x2B_03_x29_" class="st24">
	<path class="st26" d="M42.5,97c-0.5,0-1-0.1-1.5-0.3c-1.9-0.8-2.9-2.8-2.4-4.7l3.7-14.1l-3.9-1.7c-1-0.4-1.8-1.3-2.2-2.4
		c-0.4-1.1-0.3-2.2,0.3-3.2L47,51.1c0.9-1.7,3-2.5,4.8-1.9c1.9,0.7,3,2.6,2.6,4.5L52.2,66l4,1.8c1,0.5,1.8,1.3,2.2,2.4
		s0.2,2.2-0.3,3.2L46,95C45.3,96.3,43.9,97,42.5,97z"/>
	<polygon class="st25" points="55.3,71.2 48.3,68.1 51.6,50 39.3,72.7 46.5,75.8 41,96.7 	"/>
	<path class="st25" d="M35.7,79.8h-2l1-1.7c0.3-0.4,0.4-0.9,0.3-1.4c-0.1-0.5-0.4-0.9-0.8-1.2c-0.8-0.6-2-0.4-2.6,0.5
		c-0.1,0.1-0.1,0.2-0.1,0.2l-1,1.7l-1-1.7c-0.5-0.9-1.6-1.2-2.5-0.7c-0.9,0.5-1.2,1.6-0.7,2.5l1,1.7h-2c-1,0-1.9,0.8-1.9,1.9
		c0,1,0.8,1.8,1.9,1.8h2l-1,1.7c-0.5,0.9-0.2,2,0.7,2.5c0.9,0.5,2,0.2,2.5-0.6l1-1.7l1,1.7c0.3,0.6,1,0.9,1.6,0.9
		c0.3,0,0.6-0.1,0.9-0.2c0.9-0.5,1.2-1.6,0.7-2.5l-1-1.7h2c1,0,1.9-0.8,1.9-1.8C37.5,80.6,36.7,79.8,35.7,79.8z"/>
	<path class="st25" d="M73.4,76.8c-0.7-0.4-1.5-0.4-2.3-0.2c-0.8,0.2-1.4,0.8-1.8,1.5l-3.6,8c-0.2,0.4-0.2,0.8-0.2,1.2
		c0,1.7,1.3,3,3,3c1.2,0,2.3-0.7,2.7-1.8l3.6-8C75.3,79,74.7,77.5,73.4,76.8z"/>
	<path class="st25" d="M59.4,82.8c-0.7-0.4-1.5-0.4-2.3-0.2c-0.8,0.2-1.4,0.8-1.8,1.5l-3.6,8c-0.2,0.4-0.2,0.8-0.2,1.2
		c0,1.7,1.3,3,3,3c1.2,0,2.3-0.7,2.7-1.8l3.6-8C61.3,85,60.7,83.5,59.4,82.8z"/>
</g>
<g id="s08__x28__x2B_03_x29_" class="st24">
	<path class="st25" d="M45,80.4c-0.3-0.3-0.8-0.5-1.3-0.5h-2l1-1.7c0.3-0.4,0.4-0.9,0.3-1.4c-0.1-0.5-0.4-0.9-0.8-1.2
		c-0.4-0.3-0.9-0.4-1.4-0.3c-0.5,0.1-0.9,0.4-1.2,0.8c-0.1,0.1-0.1,0.2-0.1,0.2l-1,1.7l-1-1.7c-0.5-0.9-1.6-1.2-2.5-0.7
		c-0.9,0.5-1.2,1.6-0.7,2.5l1,1.7h-2c-1,0-1.9,0.8-1.9,1.8c0,1,0.8,1.9,1.9,1.9h2l-1,1.7c-0.5,0.9-0.2,2,0.7,2.5
		c0.9,0.5,2,0.2,2.5-0.6l1-1.7l1,1.7c0.3,0.6,1,0.9,1.6,0.9c0.3,0,0.6-0.1,0.9-0.2c0.4-0.2,0.7-0.6,0.9-1.1s0.1-1-0.2-1.4l-1-1.7h2
		c1,0,1.9-0.8,1.9-1.8C45.6,81.3,45.4,80.8,45,80.4z"/>
	<path class="st25" d="M57.7,88.9h-2l1-1.7c0.3-0.4,0.4-0.9,0.3-1.4c-0.1-0.5-0.4-0.9-0.8-1.2c-0.8-0.6-2-0.4-2.6,0.5
		c-0.1,0.1-0.1,0.2-0.1,0.2l-1,1.7l-1-1.7c-0.5-0.9-1.6-1.2-2.5-0.7c-0.9,0.5-1.2,1.6-0.7,2.5l1,1.7h-2c-1,0-1.9,0.8-1.9,1.8
		c0,1,0.8,1.9,1.9,1.9h2l-1,1.7c-0.5,0.9-0.2,2,0.7,2.5c0.9,0.5,2,0.2,2.5-0.6l1-1.7l1,1.7c0.3,0.6,1,0.9,1.6,0.9
		c0.3,0,0.6-0.1,0.9-0.2c0.9-0.5,1.2-1.6,0.7-2.5l-1-1.7h2c1,0,1.9-0.8,1.9-1.8c0-0.5-0.2-1-0.5-1.3C58.7,89.1,58.2,88.9,57.7,88.9z
		"/>
	<path class="st25" d="M73,80.4c-0.3-0.3-0.8-0.5-1.3-0.5h-2l1-1.7c0.3-0.4,0.4-0.9,0.3-1.4c-0.1-0.5-0.4-0.9-0.8-1.2
		c-0.8-0.6-2-0.4-2.6,0.5c-0.1,0.1-0.1,0.2-0.1,0.2l-1,1.7l-1-1.7c-0.5-0.9-1.6-1.2-2.5-0.7c-0.9,0.5-1.2,1.6-0.7,2.5l1,1.7h-2
		c-1,0-1.8,0.8-1.8,1.8c0,1,0.8,1.9,1.8,1.9h2l-1,1.7c-0.5,0.9-0.2,2,0.7,2.5c0.9,0.5,2,0.2,2.5-0.6l1-1.7l1,1.7
		c0.3,0.6,1,0.9,1.6,0.9c0.3,0,0.6-0.1,0.9-0.2c0.9-0.5,1.2-1.6,0.7-2.5l-1-1.7h2c1,0,1.9-0.8,1.9-1.8C73.6,81.3,73.4,80.8,73,80.4z
		"/>
</g>
<g id="s07__x28__x2B_03_x29_" class="st24">
	<path class="st25" d="M69.4,76.8c-0.7-0.4-1.5-0.4-2.3-0.2c-0.8,0.2-1.4,0.8-1.8,1.5l-3.6,8c-0.2,0.4-0.2,0.8-0.2,1.2
		c0,1.7,1.3,3,3,3c1.2,0,2.3-0.7,2.7-1.8l3.6-8C71.3,79,70.7,77.5,69.4,76.8z"/>
	<path class="st25" d="M55.4,82.8c-0.7-0.4-1.5-0.4-2.3-0.2c-0.8,0.2-1.4,0.8-1.8,1.5l-3.6,8c-0.2,0.4-0.2,0.8-0.2,1.2
		c0,1.7,1.3,3,3,3c1.2,0,2.3-0.7,2.7-1.8l3.6-8C57.3,85,56.7,83.5,55.4,82.8z"/>
	<path class="st25" d="M43.7,79.9h-2l1-1.7c0.3-0.4,0.4-0.9,0.3-1.4c-0.1-0.5-0.4-0.9-0.8-1.2c-0.4-0.3-0.9-0.4-1.4-0.3
		c-0.5,0.1-0.9,0.4-1.2,0.8c-0.1,0.1-0.1,0.2-0.1,0.2l-1,1.7l-1-1.7c-0.5-0.9-1.6-1.2-2.5-0.7c-0.9,0.5-1.2,1.6-0.7,2.5l1,1.7h-2
		c-1,0-1.9,0.8-1.9,1.8c0,1,0.8,1.9,1.9,1.9h2l-1,1.7c-0.5,0.9-0.2,2,0.7,2.5c0.9,0.5,2,0.2,2.5-0.6l1-1.7l1,1.7
		c0.3,0.6,1,0.9,1.6,0.9c0.3,0,0.6-0.1,0.9-0.2c0.4-0.2,0.7-0.6,0.9-1.1s0.1-1-0.2-1.4l-1-1.7h2c1,0,1.9-0.8,1.9-1.8
		c0-0.5-0.2-1-0.5-1.3C44.7,80.1,44.2,79.9,43.7,79.9z"/>
</g>
<g id="s06__x28__x2B_03_x29_" class="st24">
	<path class="st26" d="M42.7,96.7c-0.5,0-1-0.1-1.5-0.3c-1.9-0.8-2.9-2.8-2.4-4.7l3.7-14.2l-3.9-1.7c-1-0.4-1.8-1.3-2.2-2.4
		c-0.4-1.1-0.3-2.2,0.3-3.2l10.5-19.5c0.9-1.7,3-2.5,4.8-1.9c1.9,0.7,3,2.6,2.6,4.5l-2.2,12.3l4,1.8c1,0.5,1.8,1.3,2.2,2.4
		s0.2,2.2-0.3,3.2L46.2,94.6C45.4,95.9,44.1,96.7,42.7,96.7z"/>
	<polygon class="st25" points="55.5,70.9 48.5,67.8 51.8,49.7 39.5,72.4 46.7,75.5 41.2,96.3 	"/>
	<path class="st25" d="M34.5,74.3c-1.5-0.8-3.3-0.2-4.1,1.3l-3.6,8c-0.2,0.4-0.2,0.8-0.2,1.2c0,0.8,0.3,1.6,0.9,2.1
		c0.6,0.6,1.3,0.9,2.1,0.9c1.2,0,2.3-0.7,2.7-1.8l3.6-8C36.5,76.6,35.9,75,34.5,74.3z"/>
	<path class="st25" d="M59.5,83.3c-1.5-0.8-3.3-0.2-4.1,1.3l-3.6,8c-0.2,0.4-0.2,0.8-0.2,1.2c0,0.8,0.3,1.6,0.9,2.1
		c0.6,0.6,1.3,0.9,2.1,0.9c1.2,0,2.3-0.7,2.7-1.8l3.6-8C61.5,85.6,60.9,84,59.5,83.3z"/>
	<path class="st25" d="M74.5,74.3c-1.5-0.8-3.3-0.2-4.1,1.3l-3.6,8c-0.2,0.4-0.2,0.8-0.2,1.2c0,0.8,0.3,1.6,0.9,2.1
		c0.6,0.6,1.3,0.9,2.1,0.9c1.2,0,2.3-0.7,2.7-1.8l3.6-8C76.5,76.6,75.9,75,74.5,74.3z"/>
</g>
<g id="s05__x28__x2B_03_x29_" class="st24">
	<path class="st25" d="M41.4,74.8c-0.7-0.4-1.5-0.4-2.3-0.2c-0.8,0.2-1.4,0.8-1.8,1.5l-3.6,8c-0.2,0.4-0.2,0.8-0.2,1.2
		c0,1.7,1.3,3,3,3c1.2,0,2.3-0.7,2.7-1.8l3.6-8C43.3,77,42.7,75.4,41.4,74.8z"/>
	<path class="st25" d="M54.4,83.8c-0.7-0.4-1.5-0.4-2.3-0.2c-0.8,0.2-1.4,0.8-1.8,1.5l-3.6,8c-0.2,0.4-0.2,0.8-0.2,1.2
		c0,1.7,1.3,3,3,3c1.2,0,2.3-0.7,2.7-1.8l3.6-8C56.3,86,55.7,84.5,54.4,83.8z"/>
	<path class="st25" d="M69.4,74.8c-0.7-0.4-1.5-0.4-2.3-0.2c-0.8,0.2-1.4,0.8-1.8,1.5l-3.6,8c-0.2,0.4-0.2,0.8-0.2,1.2
		c0,1.7,1.3,3,3,3c1.2,0,2.3-0.7,2.7-1.8l3.6-8C71.3,77,70.7,75.5,69.4,74.8z"/>
</g>
<g id="s02n" class="st24">
	<path class="st25" d="M40.2,60.2l0-0.2c0-3.8,1.5-7.3,4.1-9.9c2.3-2.3,5.4-3.8,8.6-4.2c2.1-2.4,5.2-3.9,8.3-4
		c1.4-1.8,3-3.3,4.9-4.5c-0.6-1.6-1.3-3.1-2.2-4.6C59.4,25,51.4,19.7,42.5,18.5l-1-0.1l0.5,0.9c2.5,4.3,3.8,9.1,3.8,14.1
		c0,15.5-12.6,28.1-28.1,28.1c-1.2,0-2.4-0.1-3.6-0.3l-1-0.1l0.5,0.9c3.9,6.7,10.2,11.5,17.7,13.5c2.5,0.7,5,1,7.6,1
		c4.1,0,8.1-0.9,11.8-2.6C44.7,72.2,40.2,66.7,40.2,60.2z"/>
	<path class="st25" d="M92.4,51.3C91,44,84.6,38.7,77.1,38.6c0,0,0,0,0,0c-5.7,0-10.9,3.1-13.7,8.1c-3.2-1-6.7,0.5-8.1,3.6
		c-0.3,0-0.5,0-0.8,0c-2.6,0-5.2,1.1-7,3c-1.8,1.8-2.8,4.2-2.8,6.8v0.1c0.1,5.4,4.5,9.7,9.8,9.7c0,0,0,0,0,0h35.1c0,0,0,0,0,0
		c2.5,0,4.9-1,6.7-2.8c1.8-1.8,2.8-4.2,2.8-6.7C99.2,56.2,96.4,52.5,92.4,51.3z"/>
</g>
<g id="s02m" class="st24">
	<path class="st25" d="M40.2,63.4c0.2-3.3,1.5-6.4,3.7-8.9c-4.9-1.5-9-4.8-11.6-9.3c-1.6-2.8-2.5-6-2.7-9.2h40.9
		c-0.1,1.2-0.2,2.3-0.5,3.4c2.2-0.8,4.6-1.3,7.1-1.3c0,0,0,0,0,0c2.1,0,4.1,0.3,6,0.9l6.8-3H98v-2H2v2h8.1l13.5,6L13.5,56.2
		l17.2-1.8l-1.8,17.3L40.2,63.4z"/>
	<path class="st25" d="M92.4,55.3C91,48,84.6,42.7,77.1,42.6c0,0,0,0,0,0c-5.7,0-10.9,3.1-13.7,8.1c-3.2-1-6.7,0.5-8.1,3.6
		c-0.3,0-0.5,0-0.8,0c-2.6,0-5.2,1.1-7,3c-1.8,1.8-2.8,4.2-2.8,6.8v0.1c0.1,5.4,4.5,9.7,9.8,9.7c0,0,0,0,0,0h35.1c0,0,0,0,0,0
		c2.5,0,4.9-1,6.7-2.8c1.8-1.8,2.8-4.2,2.8-6.7C99.2,60.2,96.4,56.5,92.4,55.3z"/>
</g>
<g id="s02d" class="st24">
	<path class="st25" d="M54.5,74.4C54.5,74.4,54.5,74.4,54.5,74.4c-4.3,0-8.2-1.9-10.8-4.9c-1.7,0-3.4-0.2-5.1-0.7
		c-5.3-1.4-9.7-4.8-12.4-9.5l-0.1-0.1c-5.6-9.8-2.2-22.3,7.5-27.9c9.8-5.6,22.3-2.3,28,7.5c0.3,0.5,0.6,1.1,0.8,1.6
		c3.5-3.7,8.3-5.9,13.4-6.2l4.6-6.3l-17.2,1.8l1.8-17.3l-14,10.2L44,6.8l-7.1,15.8L22.8,12.5l1.8,17.2L7.4,27.9l10.2,14L1.8,49
		l15.8,7L7.5,70.2l17.2-1.8l-1.8,17.3l14-10.2L44,91.2l7-15.8l14.1,10.1L64,74.4H54.5z"/>
	<path class="st25" d="M92.4,51.3C91,44,84.6,38.7,77.1,38.6c0,0,0,0,0,0c-5.7,0-10.9,3.1-13.7,8.1c-3.2-1-6.7,0.5-8.1,3.6
		c-0.3,0-0.5,0-0.8,0c-2.6,0-5.2,1.1-7,3c-1.8,1.8-2.8,4.2-2.8,6.8v0.1c0.1,5.4,4.5,9.7,9.8,9.7c0,0,0,0,0,0h35.1c0,0,0,0,0,0
		c2.5,0,4.9-1,6.7-2.8c1.8-1.8,2.8-4.2,2.8-6.7C99.2,56.2,96.4,52.5,92.4,51.3z"/>
</g>
<g id="s01n">
	<path d="M70.9,32.8C66.4,25,58.4,19.7,49.5,18.5l-1-0.1l0.5,0.9c2.5,4.3,3.8,9.1,3.8,14.1c0,15.5-12.6,28.1-28.1,28.1
		c-1.2,0-2.4-0.1-3.6-0.3l-1-0.1l0.5,0.9c3.9,6.7,10.2,11.5,17.7,13.5c2.5,0.7,5,1,7.6,1c5,0,10-1.3,14.5-3.9
		c6.7-3.9,11.5-10.2,13.5-17.7C75.9,47.4,74.8,39.5,70.9,32.8z"/>
</g>
<g id="s01m" class="st24">
	<path class="st25" d="M98,36v-2H2v2h8.1l13.5,6L13.5,56.2l17.2-1.8l-1.8,17.3l14-10.2L50,77.2l7-15.8l14.1,10.1l-1.8-17.2l17.3,1.7
		l-10.2-14l13.5-6H98z M60.3,52.8c-4.7,2.7-10.3,3.5-15.6,2S35,50,32.2,45.2c-1.6-2.8-2.5-6-2.7-9.2h40.9
		C70.1,42.9,66.3,49.3,60.3,52.8z"/>
</g>
<g id="s01d" class="st24">
	<path class="st25" d="M76.4,56.1L92.2,49l-15.8-7.1l10.1-14.1l-17.2,1.8l1.8-17.3l-14,10.2L50,6.8l-7.1,15.8L28.8,12.5l1.8,17.2
		l-17.3-1.8l10.2,14L7.8,49l15.8,7L13.5,70.2l17.2-1.8l-1.8,17.3l14-10.2L50,91.2l7-15.8l14.1,10.1l-1.8-17.2l17.3,1.7L76.4,56.1z
		 M69.8,54.3c-1.4,5.3-4.8,9.7-9.6,12.4s-10.3,3.5-15.6,2c-5.3-1.4-9.7-4.8-12.4-9.5l0-0.1c-5.6-9.8-2.2-22.3,7.5-27.9
		c9.8-5.6,22.3-2.3,28,7.5C70.5,43.5,71.2,49,69.8,54.3z"/>
</g>
</svg>
