<?xml version="1.0" encoding="utf-8"?>
<!-- Generator: Adobe Illustrator 24.2.1, SVG Export Plug-In . SVG Version: 6.00 Build 0)  -->
<svg version="1.1" id="Layer_1" xmlns="http://www.w3.org/2000/svg" xmlns:xlink="http://www.w3.org/1999/xlink" x="0px" y="0px"
	 viewBox="0 0 100 100" style="enable-background:new 0 0 100 100;" xml:space="preserve">
<path d="M49.9,94.6c-25.1,0-45.5-20.4-45.5-45.5C4.4,24,24.8,3.6,49.9,3.6C75,3.6,95.4,24,95.4,49.1C95.4,74.2,75,94.6,49.9,94.6z
	 M49.9,7.6C27,7.6,8.4,26.2,8.4,49.1S27,90.6,49.9,90.6S91.4,72,91.4,49.1S72.8,7.6,49.9,7.6z"/>
<path d="M77.1,76.1l-2.8-2.8c6.5-6.5,10.1-15.1,10.1-24.3c0-9.1-3.6-17.7-10.1-24.1C67.8,18.3,59.2,14.8,50,14.8c0,0,0,0-0.1,0
	c-8.5,0-16.4,3.1-22.7,8.7l20.9,20.9l-2.8,2.8L21.6,23.4L23,22c7.2-7.2,16.8-11.2,27-11.2c0,0,0,0,0.1,0c10.2,0,19.9,4,27.1,11.2
	c7.2,7.2,11.2,16.8,11.2,27C88.4,59.2,84.4,68.9,77.1,76.1z"/>
<path d="M50,56.3c-4,0-7.3-3.3-7.3-7.3c0-4,3.3-7.3,7.3-7.3c4,0,7.3,3.3,7.3,7.3C57.3,53,54,56.3,50,56.3z M50,45.7
	c-1.8,0-3.3,1.5-3.3,3.3s1.5,3.3,3.3,3.3s3.3-1.5,3.3-3.3S51.8,45.7,50,45.7z"/>
</svg>
