<?xml version="1.0" encoding="utf-8"?>
<!-- Generator: Adobe Illustrator 24.2.1, SVG Export Plug-In . SVG Version: 6.00 Build 0)  -->
<svg version="1.1" id="Layer_1" xmlns="http://www.w3.org/2000/svg" xmlns:xlink="http://www.w3.org/1999/xlink" x="0px" y="0px"
	 viewBox="0 0 100 100" style="enable-background:new 0 0 100 100;" xml:space="preserve">
<path d="M49.9,94.6c-25.1,0-45.5-20.4-45.5-45.5C4.4,24,24.8,3.6,49.9,3.6C75,3.6,95.4,24,95.4,49.1C95.4,74.2,75,94.6,49.9,94.6z
	 M49.9,7.6C27,7.6,8.4,26.2,8.4,49.1S27,90.6,49.9,90.6S91.4,72,91.4,49.1S72.8,7.6,49.9,7.6z"/>
<polygon points="34.4,72.4 14.1,64.1 22.4,43.7 26.1,45.3 19.3,61.9 36,68.8 "/>
<polygon points="85.9,51.1 65.6,42.7 74.1,22.3 77.7,23.9 70.8,40.5 87.5,47.5 "/>
<rect x="14.6" y="50.3" transform="matrix(0.9234 -0.3838 0.3838 0.9234 -16.8224 20.2989)" width="55.8" height="4"/>
</svg>
