<?xml version="1.0" encoding="utf-8"?>
<!-- Generator: Adobe Illustrator 24.2.1, SVG Export Plug-In . SVG Version: 6.00 Build 0)  -->
<svg version="1.1" id="Layer_1" xmlns="http://www.w3.org/2000/svg" xmlns:xlink="http://www.w3.org/1999/xlink" x="0px" y="0px"
	 viewBox="0 0 100 100" style="enable-background:new 0 0 100 100;" xml:space="preserve">
<g id="ese">
	<g>
		<path d="M49.9,94.6c-25.1,0-45.5-20.4-45.5-45.5C4.4,24,24.8,3.6,49.9,3.6C75,3.6,95.4,24,95.4,49.1C95.4,74.2,75,94.6,49.9,94.6z
			 M49.9,7.6C27,7.6,8.4,26.2,8.4,49.1S27,90.6,49.9,90.6S91.4,72,91.4,49.1S72.8,7.6,49.9,7.6z"/>
	</g>
	<g>
		<polygon points="22.5,54.7 14,34.3 34.3,25.9 35.9,29.5 19.2,36.5 26.1,53.1 		"/>
	</g>
	<g>
		<polygon points="74,76 65.6,55.6 85.9,47.2 87.5,51 70.8,57.8 77.6,74.4 		"/>
	</g>
	<g>
		<rect x="40.4" y="18.1" transform="matrix(0.3816 -0.9243 0.9243 0.3816 -16.3442 67.6714)" width="4" height="55.8"/>
	</g>
</g>
</svg>
