<?xml version="1.0" encoding="utf-8"?>
<!-- Generator: Adobe Illustrator 24.2.1, SVG Export Plug-In . SVG Version: 6.00 Build 0)  -->
<svg version="1.1" id="Layer_1" xmlns="http://www.w3.org/2000/svg" xmlns:xlink="http://www.w3.org/1999/xlink" x="0px" y="0px"
	 viewBox="0 0 100 100" style="enable-background:new 0 0 100 100;" xml:space="preserve">
<path d="M49.9,94.6c-25.1,0-45.5-20.4-45.5-45.5C4.4,24,24.8,3.6,49.9,3.6C75,3.6,95.4,24,95.4,49.1C95.4,74.2,75,94.6,49.9,94.6z
	 M49.9,7.6C27,7.6,8.4,26.2,8.4,49.1S27,90.6,49.9,90.6S91.4,72,91.4,49.1S72.8,7.6,49.9,7.6z"/>
<polygon points="44.5,76.6 22.5,76.6 22.5,54.6 26.5,54.6 26.5,72.6 44.5,72.6 "/>
<polygon points="84,37.2 62,37.2 62,15.2 66,15.2 66,33.2 84,33.2 "/>
<rect x="16.4" y="52.9" transform="matrix(0.708 -0.7063 0.7063 0.708 -25.8504 47.2846)" width="55.8" height="4"/>
</svg>
