<?xml version="1.0" encoding="utf-8"?>
<!-- Generator: Adobe Illustrator 24.2.1, SVG Export Plug-In . SVG Version: 6.00 Build 0)  -->
<svg version="1.1" id="Layer_1" xmlns="http://www.w3.org/2000/svg" xmlns:xlink="http://www.w3.org/1999/xlink" x="0px" y="0px"
	 viewBox="0 0 100 100" style="enable-background:new 0 0 100 100;" xml:space="preserve">
<path d="M49.9,94.6c-25.1,0-45.5-20.4-45.5-45.5C4.4,24,24.8,3.6,49.9,3.6C75,3.6,95.4,24,95.4,49.1C95.4,74.2,75,94.6,49.9,94.6z
	 M49.9,7.6C27,7.6,8.4,26.2,8.4,49.1S27,90.6,49.9,90.6S91.4,72,91.4,49.1S72.8,7.6,49.9,7.6z"/>
<polygon points="35.1,85 26.7,64.7 30.3,63.1 37.3,79.8 53.9,73 55.5,76.6 "/>
<polygon points="56.5,33.5 48.1,13.2 51.7,11.6 58.7,28.3 75.3,21.4 76.9,25 "/>
<rect x="19" y="54.7" transform="matrix(0.3838 -0.9234 0.9234 0.3838 -23.4124 78.2146)" width="55.8" height="4"/>
</svg>
