<?xml version="1.0" encoding="utf-8"?>
<!-- Generator: Adobe Illustrator 24.2.1, SVG Export Plug-In . SVG Version: 6.00 Build 0)  -->
<svg version="1.1" id="Layer_1" xmlns="http://www.w3.org/2000/svg" xmlns:xlink="http://www.w3.org/1999/xlink" x="0px" y="0px"
	 viewBox="0 0 100 100" style="enable-background:new 0 0 100 100;" xml:space="preserve">
<path d="M49.9,94.6c-25.1,0-45.5-20.4-45.5-45.5C4.4,24,24.8,3.6,49.9,3.6C75,3.6,95.4,24,95.4,49.1C95.4,74.2,75,94.6,49.9,94.6z
	 M49.9,7.6C27,7.6,8.4,26.2,8.4,49.1S27,90.6,49.9,90.6S91.4,72,91.4,49.1S72.8,7.6,49.9,7.6z"/>
<polygon points="64.9,85 44.5,76.5 46.1,72.9 62.7,79.8 69.7,63.1 73.3,64.7 "/>
<polygon points="43.5,33.5 23.1,25 24.7,21.4 41.3,28.3 48.3,11.5 51.9,13.1 "/>
<rect x="51.1" y="28.8" transform="matrix(0.9234 -0.3837 0.3837 0.9234 -17.673 24.712)" width="4" height="55.8"/>
</svg>
