<?xml version="1.0" encoding="utf-8"?>
<!-- Generator: Adobe Illustrator 24.2.1, SVG Export Plug-In . SVG Version: 6.00 Build 0)  -->
<svg version="1.1" id="Layer_1" xmlns="http://www.w3.org/2000/svg" xmlns:xlink="http://www.w3.org/1999/xlink" x="0px" y="0px"
	 viewBox="0 0 100 100" style="enable-background:new 0 0 100 100;" xml:space="preserve">
<path d="M49.9,94.6c-25.1,0-45.5-20.4-45.5-45.5C4.4,24,24.8,3.6,49.9,3.6C75,3.6,95.4,24,95.4,49.1C95.4,74.2,75,94.6,49.9,94.6z
	 M49.9,7.6C27,7.6,8.4,26.2,8.4,49.1S27,90.6,49.9,90.6S91.4,72,91.4,49.1S72.8,7.6,49.9,7.6z"/>
<polygon points="77.5,76.6 55.4,76.6 55.4,72.6 73.5,72.6 73.5,54.5 77.5,54.5 "/>
<polygon points="38,37.1 16,37.1 16,33.1 34,33.1 34,15.1 38,15.1 "/>
<rect x="53.8" y="26.9" transform="matrix(0.7071 -0.7071 0.7071 0.7071 -22.4559 55.4868)" width="4" height="55.9"/>
</svg>
