<?xml version="1.0" encoding="utf-8"?>
<!-- Generator: Adobe Illustrator 24.2.1, SVG Export Plug-In . SVG Version: 6.00 Build 0)  -->
<svg version="1.1" id="Layer_1" xmlns="http://www.w3.org/2000/svg" xmlns:xlink="http://www.w3.org/1999/xlink" x="0px" y="0px"
	 viewBox="0 0 100 100" style="enable-background:new 0 0 100 100;" xml:space="preserve">
<g id="precip">
	<path d="M40,94.6c-7.5,0-11.4-5.2-11.4-10.4c0-5.4,4.4-8.8,8.5-8.8v4c-2.2,0-4.5,1.8-4.5,4.8c0,3.1,2.3,6.4,7.4,6.4
		c6.2,0,7.9-5.6,7.9-8.5V36.4h4v45.7C51.9,90.3,45.9,94.6,40,94.6z"/>
	<path d="M66.7,52.5h-0.4c-1,0-1.8-0.7-2-1.7c-1.1-7.2-7.1-12.4-14.3-12.4s-13.3,5.3-14.3,12.4c-0.1,1-1,1.7-2,1.7h-0.6
		c-1,0-1.8-0.7-2-1.7C30,43.6,24,38.4,16.8,38.4c-4.5,0-8.9,2.2-11.6,5.8c-0.6,0.8-1.7,1-2.6,0.5s-1.2-1.6-0.8-2.5
		C10,22.9,28.9,10.4,49.9,10.4c21.3,0,40.4,12.8,48.6,32.5c0.4,0.9,0,2-0.9,2.5s-2,0.2-2.6-0.6c-2.7-4-7.2-6.4-12-6.4
		c-7.2,0-13.3,5.3-14.3,12.4C68.5,51.8,67.7,52.5,66.7,52.5z M16.8,34.4c7.3,0,13.6,4.1,16.6,10.3c3-6.2,9.4-10.3,16.6-10.3
		s13.4,4,16.5,10.1c3.1-6,9.4-10.1,16.5-10.1c2.5,0,5,0.5,7.2,1.5c-9-13.3-23.9-21.5-40.3-21.5c-16.3,0-31.2,8.2-40.1,21.4
		C12,34.9,14.4,34.4,16.8,34.4z"/>
	<path d="M52,14.5h-4.2c-1.1,0-2-0.9-2-2V8.2c0-2.3,1.8-4.1,4.1-4.1c1.2,0,2.3,0.5,3.1,1.3c0.7,0.8,1.1,1.8,1,2.8v4.2
		C54,13.6,53.1,14.5,52,14.5z M49.8,10.5H50V8.2V8.1c-0.1,0-0.2,0-0.2,0V10.5z"/>
</g>
</svg>
