<?xml version="1.0" encoding="utf-8"?>
<!-- Generator: Adobe Illustrator 24.2.1, SVG Export Plug-In . SVG Version: 6.00 Build 0)  -->
<svg version="1.1" id="Layer_1" xmlns="http://www.w3.org/2000/svg" xmlns:xlink="http://www.w3.org/1999/xlink" x="0px" y="0px"
	 viewBox="0 0 100 100" style="enable-background:new 0 0 100 100;" xml:space="preserve">
<path d="M49.9,94.6c-25.1,0-45.5-20.4-45.5-45.5C4.4,24,24.8,3.6,49.9,3.6C75,3.6,95.4,24,95.4,49.1C95.4,74.2,75,94.6,49.9,94.6z
	 M49.9,7.6C27,7.6,8.4,26.2,8.4,49.1S27,90.6,49.9,90.6S91.4,72,91.4,49.1S72.8,7.6,49.9,7.6z"/>
<polygon points="30.2,35.1 26.6,33.5 35,13.2 55.4,21.7 53.8,25.3 37.2,18.4 "/>
<polygon points="51.6,86.7 48,85.1 56.4,64.8 76.8,73.3 75.2,76.9 58.6,70 "/>
<rect x="44.8" y="13.7" transform="matrix(0.9237 -0.3831 0.3831 0.9237 -12.3661 21.1017)" width="4" height="55.9"/>
</svg>
