<?xml version="1.0" encoding="utf-8"?>
<!-- Generator: Adobe Illustrator 24.2.1, SVG Export Plug-In . SVG Version: 6.00 Build 0)  -->
<svg version="1.1" id="Layer_1" xmlns="http://www.w3.org/2000/svg" xmlns:xlink="http://www.w3.org/1999/xlink" x="0px" y="0px"
	 viewBox="0 0 100 100" style="enable-background:new 0 0 100 100;" xml:space="preserve">
<path d="M49.7,94.7c-11.8,0-21.4-9.6-21.4-21.4c0-6.9,3.5-13.5,9.1-17.5V16c0-6.8,5.5-12.3,12.3-12.3S62,9.2,62,16v39.8
	c5.7,4,9.1,10.4,9.1,17.5C71.1,85.1,61.5,94.7,49.7,94.7z M49.7,7.7c-4.6,0-8.3,3.7-8.3,8.3v42l-0.9,0.6c-5,3.2-8.2,8.8-8.2,14.7
	c0,9.6,7.8,17.4,17.4,17.4c9.6,0,17.4-7.8,17.4-17.4c0-6-3-11.5-8.2-14.7L58,58V16C58,11.4,54.3,7.7,49.7,7.7z"/>
<rect x="39.4" y="54.9" width="10.3" height="4"/>
<rect x="39.4" y="48.1" width="10.3" height="4"/>
<rect x="39.4" y="41.4" width="10.3" height="4"/>
<rect x="39.4" y="34.7" width="10.3" height="4"/>
<rect x="39.4" y="28" width="10.3" height="4"/>
<rect x="39.4" y="21.3" width="10.3" height="4"/>
</svg>
