<?xml version="1.0" encoding="utf-8"?>
<!-- Generator: Adobe Illustrator 24.2.1, SVG Export Plug-In . SVG Version: 6.00 Build 0)  -->
<svg version="1.1" id="Layer_1" xmlns="http://www.w3.org/2000/svg" xmlns:xlink="http://www.w3.org/1999/xlink" x="0px" y="0px"
	 viewBox="0 0 100 100" style="enable-background:new 0 0 100 100;" xml:space="preserve">
<path d="M79.1,97.4c-7.9,0-14.4-6.5-14.4-14.4h4c0,5.7,4.7,10.4,10.4,10.4c7.3,0,13.3-6,13.3-13.3c0-9.3-7.5-16.8-16.8-16.8H6.1v-4
	h69.5c11.5,0,20.8,9.3,20.8,20.8C96.4,89.6,88.6,97.4,79.1,97.4z M39.2,95.1c-5.2,0-9.5-4.3-9.5-9.5h4c0,3,2.5,5.5,5.5,5.5
	c3.9,0,7.1-3.2,7.1-7.1c0-5-4.1-9.1-9.1-9.1h-31v-4h31c7.2,0,13.1,5.9,13.1,13.1C50.3,90.1,45.3,95.1,39.2,95.1z M69.6,50.9H6.1v-4
	h63.5c12.6,0,22.8-10.2,22.8-22.8c0-10-8.1-18.1-18.1-18.1C66.4,6,60,12.4,60,20.3c0,6.2,5,11.2,11.2,11.2c4.9,0,8.8-3.9,8.8-8.8h4
	c0,7.1-5.7,12.8-12.8,12.8c-8.4,0-15.2-6.8-15.2-15.2C56,10.2,64.2,2,74.3,2c12.2,0,22.1,9.9,22.1,22.1
	C96.4,38.9,84.4,50.9,69.6,50.9z"/>
<path d="M79.1,97.4c-7.9,0-14.4-6.5-14.4-14.4h4c0,5.7,4.7,10.4,10.4,10.4c7.3,0,13.3-6,13.3-13.3c0-9.3-7.5-16.8-16.8-16.8H6.1v-4
	h69.5c11.5,0,20.8,9.3,20.8,20.8C96.4,89.6,88.6,97.4,79.1,97.4z M39.2,95.1c-5.2,0-9.5-4.3-9.5-9.5h4c0,3,2.5,5.5,5.5,5.5
	c3.9,0,7.1-3.2,7.1-7.1c0-5-4.1-9.1-9.1-9.1h-31v-4h31c7.2,0,13.1,5.9,13.1,13.1C50.3,90.1,45.3,95.1,39.2,95.1z M69.6,50.9H6.1v-4
	h63.5c12.6,0,22.8-10.2,22.8-22.8c0-10-8.1-18.1-18.1-18.1C66.4,6,60,12.4,60,20.3c0,6.2,5,11.2,11.2,11.2c4.9,0,8.8-3.9,8.8-8.8h4
	c0,7.1-5.7,12.8-12.8,12.8c-8.4,0-15.2-6.8-15.2-15.2C56,10.2,64.2,2,74.3,2c12.2,0,22.1,9.9,22.1,22.1
	C96.4,38.9,84.4,50.9,69.6,50.9z"/>
</svg>
