<?xml version="1.0" encoding="utf-8"?>
<!-- Generator: Adobe Illustrator 24.2.1, SVG Export Plug-In . SVG Version: 6.00 Build 0)  -->
<svg version="1.1" id="Layer_1" xmlns="http://www.w3.org/2000/svg" xmlns:xlink="http://www.w3.org/1999/xlink" x="0px" y="0px"
	 viewBox="0 0 100 100" style="enable-background:new 0 0 100 100;" xml:space="preserve">
<path d="M49.9,94.6c-25.1,0-45.5-20.4-45.5-45.5C4.4,24,24.8,3.6,49.9,3.6C75,3.6,95.4,24,95.4,49.1C95.4,74.2,75,94.6,49.9,94.6z
	 M49.9,7.6C27,7.6,8.4,26.2,8.4,49.1S27,90.6,49.9,90.6S91.4,72,91.4,49.1S72.8,7.6,49.9,7.6z"/>
<polygon points="65.6,72.3 64,68.7 80.7,61.8 73.8,45.2 77.4,43.6 85.9,64 "/>
<polygon points="14,51 12.4,47.4 29.1,40.4 22.2,23.8 26,22.2 34.3,42.6 "/>
<rect x="55.5" y="24.3" transform="matrix(0.3831 -0.9237 0.9237 0.3831 -12.746 85.3154)" width="4" height="55.9"/>
</svg>
