<?xml version="1.0" encoding="utf-8"?>
<!-- Generator: Adobe Illustrator 24.2.1, SVG Export Plug-In . SVG Version: 6.00 Build 0)  -->
<svg version="1.1" id="Layer_1" xmlns="http://www.w3.org/2000/svg" xmlns:xlink="http://www.w3.org/1999/xlink" x="0px" y="0px"
	 viewBox="0 0 100 100" style="enable-background:new 0 0 100 100;" xml:space="preserve">
<path d="M49.9,94.6c-25.1,0-45.5-20.4-45.5-45.5C4.4,24,24.8,3.6,49.9,3.6C75,3.6,95.4,24,95.4,49.1C95.4,74.2,75,94.6,49.9,94.6z
	 M49.9,7.6C27,7.6,8.4,26.2,8.4,49.1S27,90.6,49.9,90.6S91.4,72,91.4,49.1S72.8,7.6,49.9,7.6z"/>
<polygon points="77.4,54.6 73.8,53 80.6,36.4 63.9,29.4 65.5,25.8 85.8,34.2 "/>
<polygon points="25.8,75.9 22.2,74.3 29.1,57.7 12.4,50.9 14,47.1 34.3,55.5 "/>
<rect x="29.6" y="43.9" transform="matrix(0.9242 -0.382 0.382 0.9242 -13.1962 25.4318)" width="55.7" height="4"/>
</svg>
