<?xml version="1.0" encoding="utf-8"?>
<!-- Generator: Adobe Illustrator 24.2.1, SVG Export Plug-In . SVG Version: 6.00 Build 0)  -->
<svg version="1.1" xmlns="http://www.w3.org/2000/svg" xmlns:xlink="http://www.w3.org/1999/xlink" x="0px" y="0px"
	 viewBox="0 0 100 100" style="enable-background:new 0 0 100 100;" xml:space="preserve">
<style type="text/css">
	.st0{opacity:0.15;enable-background:new    ;}
	.st1{fill:#D5DBE1;}
	.st2{fill:#F1F1F1;}
	.st3{fill:#78BCBE;}
	.st4{fill:#B0D3D3;}
	.st5{opacity:0.3;fill:#FFFFFF;enable-background:new    ;}
	.st6{fill:#FFFFFF;}
	.st7{fill:#E04041;}
</style>
<g id="Layer_1">
	<path class="st0" d="M49,8.3c-10.9,0-21.2,4.3-28.9,12s-12,18-12,28.9s4.3,21.2,12,28.9s18,12,28.9,12s21.2-4.3,28.9-12
		s12-18,12-28.9s-4.3-21.2-12-28.9C70.2,12.5,59.9,8.3,49,8.3L49,8.3z"/>
	<path class="st1" d="M49,8.3c-10.9,0-21.2,4.3-28.9,12s-12,18-12,28.9s4.3,21.2,12,28.9s18,12,28.9,12s21.2-4.3,28.9-12
		s12-18,12-28.9s-4.3-21.2-12-28.9C70.2,12.5,59.9,8.3,49,8.3L49,8.3z"/>
	<path class="st2" d="M20.1,20.2c-7.7,7.7-12,18-12,28.9s4.3,21.2,12,28.9s18,12,28.9,12V8.3C38.1,8.3,27.8,12.5,20.1,20.2z"/>
	<ellipse class="st3" cx="49" cy="49.1" rx="33.9" ry="33.9"/>
	<path class="st4" d="M15.1,49.1C15.1,67.8,30.3,83,49,83V15.3C30.3,15.3,15.1,30.4,15.1,49.1z"/>
	<polygon class="st5" points="23.5,49.2 23.5,49.2 19.9,50.9 19.9,47.3 	"/>
	<path class="st6" d="M20.3,48l2.3,1.1l-2.3,1.1V48L20.3,48z M19.9,47.3v3.5l3.6-1.8L19.9,47.3L19.9,47.3z"/>
	<polygon class="st5" points="74.5,49.1 74.5,49.1 78.1,47.4 78.1,51 	"/>
	<path class="st6" d="M75.4,49.1l2.3-1.1v2.3L75.4,49.1L75.4,49.1z M74.5,49.1l3.6,1.8v-3.5L74.5,49.1L74.5,49.1z"/>
	<polygon class="st5" points="49,23.6 49,23.6 47.2,20.1 50.7,20.1 	"/>
	<path class="st6" d="M47.8,20.4l2.3,0L49,22.7L47.8,20.4L47.8,20.4z M47.2,20.1l1.8,3.5l1.8-3.6L47.2,20.1L47.2,20.1z"/>
	<polygon class="st5" points="26.9,62 26.9,62 24.7,65.2 22.9,62.1 	"/>
	<path class="st6" d="M23.6,62.5l2.5-0.2l-1.4,2.1L23.6,62.5L23.6,62.5z M22.9,62.1l1.8,3.1l2.2-3.3L22.9,62.1L22.9,62.1z"/>
	<polygon class="st5" points="71.1,36.4 71.1,36.4 73.3,33.1 75.1,36.2 	"/>
	<path class="st6" d="M71.8,35.9l1.4-2.1l1.1,2L71.8,35.9L71.8,35.9z M71.1,36.4l4-0.3L73.3,33L71.1,36.4L71.1,36.4z"/>
	<polygon class="st5" points="36.3,27 36.3,27 32.9,24.9 36,23.1 	"/>
	<path class="st6" d="M33.6,24.9l2-1.1l0.2,2.5L33.6,24.9L33.6,24.9z M32.9,24.9l3.4,2.1L36,23L32.9,24.9L32.9,24.9z"/>
	<polygon class="st5" points="71.1,62 71.1,62 75.1,62.1 73.3,65.2 	"/>
	<path class="st6" d="M71.8,62.4l2.5,0.2l-1.1,2L71.8,62.4L71.8,62.4z M71.1,62l2.2,3.3l1.8-3.1L71.1,62L71.1,62z"/>
	<polygon class="st5" points="61.7,27 61.7,27 62,23.1 65.1,24.9 	"/>
	<path class="st6" d="M62.2,26.3l0.2-2.5l2,1.1L62.2,26.3L62.2,26.3z M61.7,27l3.3-2.2L62,23L61.7,27L61.7,27z"/>
	<polygon class="st5" points="26.9,36.4 26.9,36.4 22.9,36.2 24.7,33.1 	"/>
	<path class="st6" d="M23.6,35.8l1.1-2l1.4,2.1L23.6,35.8L23.6,35.8z M22.9,36.2l4,0.2L24.7,33L22.9,36.2L22.9,36.2z"/>
</g>
<g id="Layer_2">
	<g>
		<path class="st6" d="M31.1,74.7c-3.1-2.2-5.8-4.8-7.9-8c-3.7-5.4-5.6-11.7-5.5-18.2c0.3-17.3,14.5-31.1,31.8-30.9
			c17.3,0.3,31.1,14.5,30.9,31.8c-0.1,6.6-2.2,12.8-6.1,18.1c-1.8,2.4-3.9,4.6-6.3,6.4l-0.5-0.6c2.3-1.8,4.4-3.9,6.1-6.3
			c3.8-5.1,5.8-11.2,5.9-17.6c0.2-16.9-13.3-30.8-30.1-31c-16.9-0.2-30.8,13.3-31,30.1c-0.1,6.4,1.8,12.6,5.4,17.8
			c2.1,3,4.7,5.7,7.7,7.8L31.1,74.7z"/>
	</g>
</g>
<g id="Layer_3">
	<path class="st6" d="M50.3,49.2c-0.4,0.3-1,0.3-1.3-0.1l0,0c-0.3-0.4-0.2-0.9,0.2-1.3l21.2-17.8c0.4-0.3,1-0.3,1.3,0.1l0,0
		c0.3,0.4,0.2,0.9-0.2,1.3L50.3,49.2z"/>
	<path class="st6" d="M53.2,48.1c0.6,2.4-0.9,4.7-3.2,5.3c-2.4,0.6-4.7-0.9-5.3-3.2c-0.6-2.4,0.9-4.7,3.2-5.3
		C50.3,44.3,52.7,45.7,53.2,48.1z"/>
</g>
<g id="Layer_3_copy">
	<path class="st7" d="M48.4,47.9c0.5,0.2,0.7,0.7,0.5,1.2l0,0c-0.2,0.4-0.7,0.6-1.2,0.4l-17.5-7.6c-0.5-0.2-0.7-0.7-0.5-1.2l0,0
		c0.2-0.4,0.7-0.6,1.2-0.4L48.4,47.9z"/>
	<path class="st7" d="M46.7,46.3c1.5-1.3,3.8-1.1,5.1,0.4c1.3,1.5,1.1,3.8-0.4,5.1c-1.5,1.3-3.8,1.1-5.1-0.4
		C44.9,49.9,45.1,47.6,46.7,46.3z"/>
</g>
</svg>
