<?xml version="1.0" encoding="utf-8"?>
<!-- Generator: Adobe Illustrator 24.2.1, SVG Export Plug-In . SVG Version: 6.00 Build 0)  -->
<svg version="1.1" id="Layer_1" xmlns="http://www.w3.org/2000/svg" xmlns:xlink="http://www.w3.org/1999/xlink" x="0px" y="0px"
	 viewBox="0 0 100 100" style="enable-background:new 0 0 100 100;" xml:space="preserve">
<style type="text/css">
	.st0{fill:url(#SVGID_1_);}
	.st1{fill:#FFD348;}
	.st2{fill:url(#SVGID_2_);}
	.st3{opacity:0.15;}
	.st4{fill:#D5DBE1;}
	.st5{fill:#F1F1F1;}
	.st6{fill:#78BCBE;}
	.st7{fill:#B0D3D3;}
	.st8{opacity:0.3;fill:#FFFFFF;}
	.st9{fill:#FFFFFF;}
	.st10{opacity:0.5;}
	.st11{fill:#416075;}
	.st12{fill:#0A3656;}
	.st13{fill:#A34C4F;}
	.st14{fill:#ED5849;}
</style>
<symbol  id="sun" viewBox="-41 -41 82 82">
	<radialGradient id="SVGID_1_" cx="0" cy="0" r="41" gradientUnits="userSpaceOnUse">
		<stop  offset="0.54" style="stop-color:#D6B849"/>
		<stop  offset="0.67" style="stop-color:#FFCE47"/>
		<stop  offset="1" style="stop-color:#FFDB73"/>
	</radialGradient>
	<path class="st0" d="M25.6,6.9L41,0L25.6-6.9l9.8-13.7l-16.7,1.8l1.7-16.7L6.9-25.6L0-41l-6.9,15.4l-13.7-9.8l1.8,16.7l-16.7-1.7
		l9.9,13.6L-41,0l15.4,6.8l-9.8,13.7l16.7-1.8l-1.7,16.7l13.6-9.9L0,41l6.8-15.4l13.7,9.8l-1.7-16.7l16.8,1.7L25.6,6.9z"/>
	<path class="st1" d="M-21.7,12.5c6.9,12,22.2,16,34.2,9.1s16-22.2,9.1-34.2c-6.9-12-22.2-16-34.1-9.1
		C-24.5-14.8-28.6,0.5-21.7,12.5C-21.7,12.5-21.7,12.5-21.7,12.5z"/>
	
		<linearGradient id="SVGID_2_" gradientUnits="userSpaceOnUse" x1="7468.8638" y1="-8525.1064" x2="7469.8638" y2="-8524.1064" gradientTransform="matrix(42.007 0 0 42.007 -313765.75 358093.2188)">
		<stop  offset="0" style="stop-color:#FFAF22"/>
		<stop  offset="1" style="stop-color:#F09900"/>
	</linearGradient>
	<path class="st2" d="M-18.3,10.5c5.8,10,18.6,13.5,28.7,7.7s13.5-18.6,7.7-28.7c-5.8-10-18.6-13.5-28.7-7.7
		C-20.6-12.4-24.1,0.4-18.3,10.5C-18.3,10.5-18.3,10.5-18.3,10.5z"/>
</symbol>
<g>
	<g>
		<g>
			<path class="st3" d="M49,8.3c-10.9,0-21.2,4.3-28.9,12c-7.7,7.7-12,18-12,28.9c0,10.9,4.3,21.2,12,28.9c7.7,7.7,18,12,28.9,12
				c10.9,0,21.2-4.3,28.9-12c7.7-7.7,12-18,12-28.9c0-10.9-4.3-21.2-12-28.9C70.2,12.5,59.9,8.3,49,8.3L49,8.3z"/>
		</g>
		<g>
			<g>
				<path class="st4" d="M49,8.3c-10.9,0-21.2,4.3-28.9,12c-7.7,7.7-12,18-12,28.9c0,10.9,4.3,21.2,12,28.9c7.7,7.7,18,12,28.9,12
					c10.9,0,21.2-4.3,28.9-12c7.7-7.7,12-18,12-28.9c0-10.9-4.3-21.2-12-28.9C70.2,12.5,59.9,8.3,49,8.3L49,8.3z"/>
				<path class="st5" d="M20.1,20.2c-7.7,7.7-12,18-12,28.9c0,10.9,4.3,21.2,12,28.9c7.7,7.7,18,12,28.9,12V8.3
					C38.1,8.3,27.8,12.5,20.1,20.2z"/>
			</g>
			<g>
				
					<ellipse transform="matrix(7.401855e-02 -0.9973 0.9973 7.401855e-02 -3.6263 94.363)" class="st6" cx="49" cy="49.1" rx="33.9" ry="33.9"/>
				<path class="st7" d="M15.1,49.1C15.1,67.8,30.3,83,49,83V15.3C30.3,15.3,15.1,30.4,15.1,49.1z"/>
			</g>
			<g>
				<g>
					<g>
						<polygon class="st8" points="28.8,29 28.8,29 25.1,27.7 27.6,25.2 						"/>
						<path class="st9" d="M27.4,25.9l0.8,2.4l-2.4-0.8L27.4,25.9L27.4,25.9z M27.6,25.2l-2.5,2.5l3.8,1.3L27.6,25.2L27.6,25.2z"/>
					</g>
					<g>
						<polygon class="st8" points="28.8,69.3 28.8,69.3 27.6,73.1 25.1,70.6 						"/>
						<path class="st9" d="M28.2,69.9l-0.8,2.4l-1.6-1.6L28.2,69.9L28.2,69.9z M28.8,69.3l-3.8,1.3l2.5,2.5L28.8,69.3L28.8,69.3z"/>
					</g>
					<g>
						<polygon class="st8" points="69.2,69.3 69.2,69.3 72.9,70.6 70.4,73.1 						"/>
						<path class="st9" d="M69.8,69.9l2.4,0.8l-1.6,1.6L69.8,69.9L69.8,69.9z M69.2,69.3l1.3,3.8l2.5-2.5L69.2,69.3L69.2,69.3z"/>
					</g>
					<g>
						<polygon class="st8" points="69.2,29 69.2,29 70.4,25.2 72.9,27.7 						"/>
						<path class="st9" d="M70.6,25.9l1.6,1.6l-2.4,0.8L70.6,25.9L70.6,25.9z M70.4,25.2L69.2,29l3.8-1.3L70.4,25.2L70.4,25.2z"/>
					</g>
				</g>
				<g>
					<g>
						<g>
							<g>
								<g class="st3">
									<polygon class="st9" points="53.4,44.7 49,24.2 49,49.1 									"/>
									<polygon class="st9" points="44.6,44.7 24,49.1 49,49.1 									"/>
									<polygon class="st9" points="49,49.1 53.4,53.5 74,49.1 									"/>
									<polygon class="st9" points="44.6,53.5 49,74.1 49,49.1 									"/>
								</g>
								<g class="st10">
									<path class="st9" d="M49.2,26.1l4,18.6l-4,4V26.1L49.2,26.1z M49,24.2v25l4.4-4.4L49,24.2L49,24.2z"/>
									<path class="st9" d="M44.5,45l4,4H26L44.5,45L44.5,45z M44.6,44.7L24,49.1h25L44.6,44.7L44.6,44.7z"/>
									<path class="st9" d="M72,49.3l-18.6,4l-4-4H72L72,49.3z M74,49.1H49l4.4,4.4L74,49.1L74,49.1z"/>
									<path class="st9" d="M48.8,49.6v22.5l-4-18.6L48.8,49.6L48.8,49.6z M49,49.1l-4.4,4.4L49,74.1V49.1L49,49.1z"/>
								</g>
							</g>
							<g>
								<g class="st10">
									<polygon class="st9" points="74,49.1 53.4,44.7 49,49.1 									"/>
									<polygon class="st9" points="49,24.2 44.6,44.7 49,49.1 									"/>
									<polygon class="st9" points="49,74.1 53.4,53.5 49,49.1 									"/>
									<polygon class="st9" points="24,49.1 44.6,53.5 49,49.1 									"/>
								</g>
								<g>
									<path class="st9" d="M53.5,45l18.6,4H49.5L53.5,45L53.5,45z M53.4,44.7L49,49.1h25L53.4,44.7L53.4,44.7z"/>
									<path class="st9" d="M48.8,26.1v22.5l-4-4L48.8,26.1L48.8,26.1z M49,24.2l-4.4,20.6l4.4,4.4V24.2L49,24.2z"/>
									<path class="st9" d="M49.2,49.6l4,4l-4,18.6V49.6L49.2,49.6z M49,49.1v25l4.4-20.6L49,49.1L49,49.1z"/>
									<path class="st9" d="M48.5,49.3l-4,4l-18.6-4H48.5L48.5,49.3z M49,49.1H24l20.6,4.4L49,49.1L49,49.1z"/>
								</g>
							</g>
						</g>
						<g>
							<g>
								<g class="st3">
									<polygon class="st9" points="53.9,49.1 62.9,35.3 49,49.1 									"/>
									<polygon class="st9" points="49,44.2 35.1,35.3 49,49.1 									"/>
									<polygon class="st9" points="49,49.1 49,54 62.9,63 									"/>
									<polygon class="st9" points="44.1,49.1 35.1,63 49,49.1 									"/>
								</g>
								<g class="st10">
									<path class="st9" d="M61.6,36.8l-7.9,12.1h-4.3L61.6,36.8L61.6,36.8z M62.9,35.3L49,49.1h4.9L62.9,35.3L62.9,35.3z"/>
									<path class="st9" d="M36.6,36.5l12.1,7.9v4.3L36.6,36.5L36.6,36.5z M35.1,35.3L49,49.1v-4.9L35.1,35.3L35.1,35.3z"/>
									<path class="st9" d="M49.2,49.6l12.1,12.1l-12.1-7.9V49.6L49.2,49.6z M49,49.1V54l13.9,9L49,49.1L49,49.1z"/>
									<path class="st9" d="M48.5,49.3L36.4,61.5l7.9-12.1H48.5L48.5,49.3z M49,49.1h-4.9l-9,13.9L49,49.1L49,49.1z"/>
								</g>
							</g>
							<g>
								<g class="st10">
									<polygon class="st9" points="62.9,63 53.9,49.1 49,49.1 									"/>
									<polygon class="st9" points="62.9,35.3 49,44.2 49,49.1 									"/>
									<polygon class="st9" points="35.1,63 49,54 49,49.1 									"/>
									<polygon class="st9" points="35.1,35.3 44.1,49.1 49,49.1 									"/>
								</g>
								<g>
									<path class="st9" d="M53.8,49.3l7.9,12.1L49.5,49.3H53.8L53.8,49.3z M53.9,49.1H49L62.9,63L53.9,49.1L53.9,49.1z"/>
									<path class="st9" d="M61.4,36.5L49.2,48.6v-4.3L61.4,36.5L61.4,36.5z M62.9,35.3l-13.9,9v4.9L62.9,35.3L62.9,35.3z"/>
									<path class="st9" d="M48.8,49.6v4.3l-12.1,7.9L48.8,49.6L48.8,49.6z M49,49.1L35.1,63L49,54V49.1L49,49.1z"/>
									<path class="st9" d="M36.4,36.8l12.1,12.1h-4.3L36.4,36.8L36.4,36.8z M35.1,35.3l9,13.9H49L35.1,35.3L35.1,35.3z"/>
								</g>
							</g>
						</g>
					</g>
					<path class="st9" d="M43.7,49.1c0-3,2.4-5.3,5.3-5.3c3,0,5.3,2.4,5.3,5.3c0,3-2.4,5.3-5.3,5.3C46,54.5,43.7,52.1,43.7,49.1z"/>
					<g>
						<g>
							<polygon class="st11" points="52.1,47.4 49,49.1 65,76.9 							"/>
							<polygon class="st12" points="65,76.9 49,49.1 45.9,50.9 							"/>
						</g>
						<g>
							<polygon class="st13" points="45.9,50.9 49,49.1 33,21.3 							"/>
							<polygon class="st14" points="33,21.3 49,49.1 52.1,47.4 							"/>
						</g>
					</g>
				</g>
				<g>
					<path class="st9" d="M21.7,47.4h1.1v0.1c-0.1,0.1-0.2,0.1-0.3,0.3c-0.1,0.1-0.2,0.3-0.3,0.5l-0.9,2.5h-0.1l-0.9-2.6l-0.9,2.6
						h-0.1l-0.9-2.6c-0.1-0.2-0.1-0.4-0.2-0.5c0-0.1-0.1-0.1-0.1-0.2c-0.1,0-0.1-0.1-0.2-0.1v-0.1h1.4v0.1c0,0,0,0,0,0c0,0,0,0,0,0
						c-0.2,0-0.3,0.1-0.3,0.2c0,0.1,0,0.2,0.1,0.3l0.6,1.9l0.7-1.9c0-0.1-0.1-0.2-0.1-0.3c0-0.1-0.1-0.1-0.1-0.1c0,0-0.1,0-0.1,0
						c0,0-0.1,0-0.2,0v-0.1h1.5v0.1c-0.1,0-0.2,0-0.3,0c-0.1,0-0.1,0.1-0.1,0.1c0,0.1,0,0.2,0.1,0.4l0.6,1.8l0.5-1.5
						c0-0.1,0.1-0.2,0.1-0.3c0-0.1,0-0.2,0-0.2c0-0.1,0-0.3-0.1-0.3c-0.1-0.1-0.2-0.1-0.3-0.1V47.4z M18.3,48l0.9,2.7c0,0,0,0,0-0.1
						c0,0,0,0,0-0.1c0,0,0-0.1,0-0.1c0-0.1,0-0.1,0-0.2L18.5,48c-0.1-0.2-0.1-0.3-0.1-0.3c0-0.1-0.1-0.1-0.1-0.1c0,0-0.1,0-0.2,0
						c0.1,0,0.1,0.1,0.1,0.2C18.3,47.8,18.3,47.9,18.3,48z M20.3,48l1,2.7c0-0.1,0.1-0.2,0.1-0.2c0,0,0-0.1,0-0.2l-0.8-2.4
						c0-0.1-0.1-0.2-0.1-0.2c0,0-0.1-0.1-0.1-0.1c0,0-0.1,0-0.2,0C20.1,47.6,20.2,47.8,20.3,48z M22.5,47.5H22
						c0.1,0,0.1,0.1,0.2,0.2c0,0.1,0,0.1,0.1,0.2c0-0.1,0.1-0.2,0.1-0.2C22.4,47.6,22.4,47.6,22.5,47.5z"/>
					<path class="st9" d="M49.6,18.8v-0.1h1.3v0.1c-0.1,0-0.2,0-0.3,0.1c-0.1,0-0.1,0.1-0.2,0.2c0,0.1-0.1,0.2-0.1,0.3l0,2.8h-0.1
						l-2.5-2.9l0,1.9c0,0.1,0,0.2,0,0.3c0,0.1,0,0.2,0.1,0.2c0,0.1,0.1,0.1,0.2,0.1c0.1,0,0.2,0.1,0.3,0.1v0.1h-1.3V22
						c0.2,0,0.3-0.1,0.4-0.1c0.1-0.1,0.1-0.2,0.1-0.3c0-0.1,0-0.3,0-0.4l0-2c-0.1-0.1-0.2-0.2-0.3-0.2c-0.1-0.1-0.2-0.1-0.3-0.1h0
						v-0.1h1l2.2,2.5l0-1.7c0-0.1,0-0.2,0-0.3c0-0.1-0.1-0.2-0.1-0.2c0,0-0.1-0.1-0.2-0.1C49.8,18.8,49.7,18.8,49.6,18.8z
						 M50.1,21.6l-2.2-2.5c0-0.1-0.1-0.1-0.2-0.2c-0.1,0-0.1-0.1-0.3-0.1h-0.1c0.1,0,0.2,0.1,0.2,0.1c0,0,0.1,0.1,0.2,0.2l2.5,2.9
						c0,0,0-0.1,0-0.1c0,0,0-0.1,0-0.1c0,0,0,0,0-0.1C50.2,21.7,50.1,21.7,50.1,21.6z M47.5,22H48c-0.1-0.1-0.1-0.1-0.1-0.2
						c0,0-0.1-0.1-0.1-0.2c0,0.1-0.1,0.1-0.1,0.2C47.6,21.9,47.5,21.9,47.5,22z M50.5,18.8h-0.5c0.1,0,0.1,0.1,0.2,0.1
						c0.1,0,0.1,0.1,0.1,0.2C50.3,19,50.4,18.9,50.5,18.8z"/>
					<path class="st9" d="M77.2,49.2v1.1c0,0.1,0,0.2,0,0.3c0,0.1,0,0.1,0.1,0.1c0,0,0.1,0.1,0.2,0.1c0.1,0,0.2,0,0.3,0
						c0.2,0,0.3,0,0.5-0.1c0.1-0.1,0.3-0.1,0.4-0.2c0.1-0.1,0.3-0.2,0.4-0.4h0.2L79,50.8h-3v-0.1c0.1,0,0.3,0,0.3,0
						c0.1,0,0.1-0.1,0.2-0.1c0-0.1,0-0.1,0-0.2V48c0-0.1,0-0.2,0-0.2c0-0.1-0.1-0.1-0.1-0.1c-0.1,0-0.2,0-0.3,0v-0.1h2.8l0.3,0.8H79
						c-0.1-0.1-0.2-0.2-0.3-0.3c-0.1-0.1-0.3-0.2-0.4-0.2c-0.2-0.1-0.3-0.1-0.5-0.1c-0.1,0-0.3,0-0.3,0c-0.1,0-0.1,0.1-0.1,0.1
						c0,0.1,0,0.1,0,0.2v1h0.5c0.4,0,0.6-0.2,0.6-0.6h0.2v1.3h-0.1c0-0.2-0.1-0.3-0.2-0.4c-0.1-0.1-0.2-0.1-0.4-0.1H77.2z M76.7,48
						v2.3c0,0.1,0,0.2,0,0.3c0,0.1-0.1,0.1-0.1,0.1c0.1,0,0.2,0,0.3-0.1c0-0.1,0.1-0.2,0.1-0.3v-2.3c0-0.1,0-0.2-0.1-0.3
						c0,0-0.1-0.1-0.2-0.1c0.1,0,0.1,0.1,0.1,0.1C76.7,47.8,76.7,47.9,76.7,48z M78.3,49.3v-0.5c-0.1,0.1-0.2,0.2-0.3,0.2
						c0.1,0,0.2,0.1,0.2,0.1C78.2,49.2,78.3,49.2,78.3,49.3z M78.7,47.6h-0.4c0.1,0,0.2,0.1,0.3,0.1c0.1,0.1,0.2,0.1,0.3,0.2
						L78.7,47.6z M78.8,50.7l0.2-0.4c-0.1,0.1-0.2,0.2-0.3,0.2c-0.1,0.1-0.2,0.1-0.3,0.2H78.8z"/>
					<path class="st9" d="M47.8,78.3H48c0.1,0.3,0.2,0.5,0.3,0.6c0.1,0.2,0.3,0.3,0.4,0.4c0.1,0.1,0.3,0.1,0.5,0.1
						c0.2,0,0.4-0.1,0.5-0.2c0.1-0.1,0.2-0.3,0.2-0.5c0-0.2,0-0.3-0.1-0.4c-0.1-0.1-0.2-0.2-0.3-0.2c-0.1,0-0.3-0.1-0.5-0.1
						c-0.2,0-0.4-0.1-0.5-0.1c-0.1,0-0.3-0.1-0.4-0.2c-0.1-0.1-0.2-0.2-0.2-0.3c-0.1-0.1-0.1-0.2-0.1-0.4c0-0.1,0-0.3,0.1-0.4
						c0-0.1,0.1-0.2,0.2-0.3c0.1-0.1,0.2-0.2,0.3-0.2c0.1-0.1,0.2-0.1,0.4-0.1c0.1,0,0.2,0,0.4,0c0.2,0,0.3,0,0.3,0
						c0.1,0,0.2,0,0.2-0.1h0.2l0.1,1h-0.2c-0.2-0.3-0.3-0.5-0.5-0.7c-0.2-0.2-0.4-0.2-0.6-0.2c-0.1,0-0.2,0-0.3,0.1
						c-0.1,0.1-0.2,0.1-0.2,0.2c-0.1,0.1-0.1,0.2-0.1,0.3c0,0.2,0.1,0.3,0.2,0.4c0.1,0.1,0.3,0.1,0.5,0.2c0.2,0,0.4,0.1,0.6,0.1
						c0.2,0,0.3,0.1,0.4,0.1c0.2,0.1,0.3,0.2,0.4,0.4c0.1,0.2,0.2,0.3,0.2,0.5c0,0.2,0,0.4-0.1,0.5c-0.1,0.2-0.2,0.3-0.4,0.4
						c-0.2,0.1-0.4,0.2-0.6,0.2c-0.1,0-0.2,0-0.3,0c-0.1,0-0.2-0.1-0.3-0.1c-0.1-0.1-0.3-0.1-0.3-0.1c-0.1,0-0.2,0-0.3,0.1h-0.1
						V78.3z M47.9,76.8c0,0.1,0,0.2,0,0.3c0,0.1,0,0.2,0,0.3c0,0.1,0.1,0.2,0.1,0.2c0.1,0.1,0.1,0.1,0.2,0.2
						c0.1,0.1,0.2,0.1,0.3,0.1c0.1,0,0.3,0.1,0.5,0.1c0.2,0,0.4,0.1,0.5,0.1c0.2,0.1,0.3,0.1,0.4,0.3c0.1,0.1,0.1,0.3,0.1,0.4
						c0,0.1,0,0.2-0.1,0.4C50,79,50,78.8,50,78.6c0-0.2,0-0.3-0.1-0.4c-0.1-0.1-0.2-0.2-0.4-0.2c-0.1-0.1-0.3-0.1-0.6-0.1
						c-0.2,0-0.4-0.1-0.4-0.1c-0.2-0.1-0.4-0.2-0.5-0.3c-0.1-0.1-0.2-0.3-0.2-0.5C47.9,76.9,47.9,76.9,47.9,76.8
						C47.9,76.8,47.9,76.8,47.9,76.8z M47.9,78.8v0.6c0-0.1,0.1-0.1,0.1-0.1c0,0,0.1,0,0.2,0c-0.1-0.1-0.1-0.1-0.1-0.1
						c0,0-0.1-0.1-0.1-0.1C48,78.9,47.9,78.9,47.9,78.8z M49.7,76.8l-0.1-0.5c-0.1,0-0.1,0-0.2,0c-0.1,0-0.1,0-0.2,0
						c0.1,0,0.1,0.1,0.2,0.1c0,0,0.1,0.1,0.2,0.2C49.6,76.7,49.7,76.7,49.7,76.8z"/>
				</g>
			</g>
		</g>
	</g>
</g>
</svg>
