<?xml version="1.0" encoding="utf-8"?>
<!-- Generator: Adobe Illustrator 24.2.1, SVG Export Plug-In . SVG Version: 6.00 Build 0)  -->
<svg version="1.1" xmlns="http://www.w3.org/2000/svg" xmlns:xlink="http://www.w3.org/1999/xlink" x="0px" y="0px"
	 viewBox="0 0 100 100" style="enable-background:new 0 0 100 100;" xml:space="preserve">
<style type="text/css">
	.st0{stroke:#000000;stroke-width:10;stroke-linejoin:round;}
	.st1{fill:#999999;}
	.st2{fill:#DDDDDD;}
	.st3{fill:#B2B2B2;}
	.st4{fill:#FFDD15;stroke:#000000;stroke-width:8;stroke-linejoin:round;}
	.st5{fill:url(#SVGID_1_);}
	.st6{fill:#0062BF;}
	.st7{fill:#FFFFFF;filter:url(#Adobe_OpacityMaskFilter);}
	.st8{mask:url(#lightning_37_51_1_1_4_1_);}
	.st9{fill:#FFFFFF;filter:url(#Adobe_OpacityMaskFilter_1_);}
	.st10{mask:url(#lightning_37_51_1_1_4_4_);}
	.st11{fill:#FFFFFF;filter:url(#Adobe_OpacityMaskFilter_2_);}
	.st12{mask:url(#lightning_37_51_1_1_4_5_);}
	.st13{fill:#FFFFFF;filter:url(#Adobe_OpacityMaskFilter_3_);}
	.st14{mask:url(#lightning_37_51_1_1_4_6_);}
	.st15{fill:#FFFFFF;filter:url(#Adobe_OpacityMaskFilter_4_);}
	.st16{mask:url(#lightning_37_51_1_1_4_7_);}
	.st17{fill:#47C0E3;}
	.st18{fill:url(#SVGID_80_);}
	.st19{fill:#FFD348;}
	.st20{fill:url(#SVGID_81_);}
	.st21{fill:#FFFFFF;filter:url(#Adobe_OpacityMaskFilter_5_);}
	.st22{mask:url(#sunWinterMask_1_);}
	.st23{fill:#333333;}
</style>
<symbol  id="cloud" viewBox="-47.5 -29 95 58.1">
	<path class="st0" d="M8.2-24c-9,0-17.2,5-21.3,13c-5.1-2-10.8,0.5-12.8,5.6c-0.6-0.1-1.1-0.1-1.7-0.1c-4,0-7.9,1.6-10.7,4.5
		c-2.7,2.7-4.2,6.4-4.2,10.2v0.2c0.1,8.2,6.7,14.7,14.9,14.7h55.7c7.9,0,14.3-6.3,14.4-14.2c0-6.5-4.4-12.3-10.7-13.9
		C29.8-15.6,19.9-24,8.2-24z"/>
	
		<image style="overflow:visible;enable-background:new    ;" width="86" height="36" xlink:href="5C1F071EB1956515.png"  transform="matrix(0.9884 0 0 0.9884 -42.4814 -11.3208)">
	</image>
</symbol>
<symbol  id="cloud_10" viewBox="-47.5 -29 95 58.1">
	<path class="st0" d="M8.2-24c-9,0-17.2,5-21.3,13c-5.1-2-10.8,0.5-12.8,5.6c-0.6-0.1-1.1-0.1-1.7-0.1c-4,0-7.9,1.6-10.7,4.5
		c-2.7,2.7-4.2,6.4-4.2,10.2v0.2c0.1,8.2,6.7,14.7,14.9,14.7h55.7c7.9,0,14.3-6.3,14.4-14.2c0-6.5-4.4-12.3-10.7-13.9
		C29.8-15.6,19.9-24,8.2-24z"/>
	
		<image style="overflow:visible;enable-background:new    ;" width="86" height="36" xlink:href="5C1F071EB1956517.png"  transform="matrix(0.9884 0 0 0.9884 -42.4814 -11.3208)">
	</image>
</symbol>
<symbol  id="cloud_11" viewBox="-47.5 -29 95 58.1">
	<path class="st0" d="M8.2-24c-9,0-17.2,5-21.3,13c-5.1-2-10.8,0.5-12.8,5.6c-0.6-0.1-1.1-0.1-1.7-0.1c-4,0-7.9,1.6-10.7,4.5
		c-2.7,2.7-4.2,6.4-4.2,10.2v0.2c0.1,8.2,6.7,14.7,14.9,14.7h55.7c7.9,0,14.3-6.3,14.4-14.2c0-6.5-4.4-12.3-10.7-13.9
		C29.8-15.6,19.9-24,8.2-24z"/>
	
		<image style="overflow:visible;enable-background:new    ;" width="86" height="36" xlink:href="5C1F071EB1956512.png"  transform="matrix(0.9884 0 0 0.9884 -42.4814 -11.3208)">
	</image>
</symbol>
<symbol  id="cloud_12" viewBox="-42.5 -24.1 85 48.3">
	<path class="st1" d="M8.2-24.1c-9,0-17.2,5-21.3,13c-5.1-2-10.8,0.5-12.8,5.6c-0.6-0.1-1.1-0.1-1.7-0.1c-4,0-7.9,1.6-10.7,4.5
		C-41,1.6-42.5,5.2-42.5,9v0.2c0.1,8.2,6.7,14.7,14.9,14.7h55.7c7.9,0,14.3-6.3,14.4-14.2c0-6.5-4.4-12.3-10.7-13.9
		C29.8-15.7,19.9-24.1,8.2-24.1z"/>
	
		<image style="overflow:visible;enable-background:new    ;" width="86" height="36" xlink:href="5C1F071EB1956513.png"  transform="matrix(0.9884 0 0 0.9884 -42.5 -11.436)">
	</image>
</symbol>
<symbol  id="cloud_13" viewBox="-42.5 -24.1 85 48.3">
	<path class="st1" d="M8.2-24.1c-9,0-17.2,5-21.3,13c-5.1-2-10.8,0.5-12.8,5.6c-0.6-0.1-1.1-0.1-1.7-0.1c-4,0-7.9,1.6-10.7,4.5
		C-41,1.6-42.5,5.2-42.5,9v0.2c0.1,8.2,6.7,14.7,14.9,14.7h55.7c7.9,0,14.3-6.3,14.4-14.2c0-6.5-4.4-12.3-10.7-13.9
		C29.8-15.7,19.9-24.1,8.2-24.1z"/>
	
		<image style="overflow:visible;enable-background:new    ;" width="86" height="36" xlink:href="5C1F071EB195651D.png"  transform="matrix(0.9884 0 0 0.9884 -42.5 -11.436)">
	</image>
</symbol>
<symbol  id="cloud_14" viewBox="-42.5 -24.1 85 48.3">
	<path class="st2" d="M8.2-24.1c-9,0-17.2,5-21.3,13c-5.1-2-10.8,0.5-12.8,5.6c-0.6-0.1-1.1-0.1-1.7-0.1c-4,0-7.9,1.6-10.7,4.5
		C-41,1.6-42.5,5.2-42.5,9v0.2c0.1,8.2,6.7,14.7,14.9,14.7h55.7c7.9,0,14.3-6.3,14.4-14.2c0-6.5-4.4-12.3-10.7-13.9
		C29.8-15.7,19.9-24.1,8.2-24.1z"/>
	
		<image style="overflow:visible;enable-background:new    ;" width="86" height="36" xlink:href="5C1F071EB195651F.png"  transform="matrix(0.9884 0 0 0.9884 -42.5 -11.436)">
	</image>
</symbol>
<symbol  id="cloud_15" viewBox="-42.5 -24.1 85 48.3">
	<path class="st3" d="M8.2-24.1c-9,0-17.2,5-21.3,13c-5.1-2-10.8,0.5-12.8,5.6c-0.6-0.1-1.1-0.1-1.7-0.1c-4,0-7.9,1.6-10.7,4.5
		C-41,1.6-42.5,5.2-42.5,9v0.2c0.1,8.2,6.7,14.7,14.9,14.7h55.7c7.9,0,14.3-6.3,14.4-14.2c0-6.5-4.4-12.3-10.7-13.9
		C29.8-15.7,19.9-24.1,8.2-24.1z"/>
	
		<image style="overflow:visible;enable-background:new    ;" width="86" height="36" xlink:href="5C1F071EB1956510.png"  transform="matrix(0.9884 0 0 0.9884 -42.5 -11.436)">
	</image>
</symbol>
<symbol  id="cloud_16" viewBox="-42.5 -24.1 85 48.3">
	<path class="st2" d="M8.2-24.1c-9,0-17.2,5-21.3,13c-5.1-2-10.8,0.5-12.8,5.6c-0.6-0.1-1.1-0.1-1.7-0.1c-4,0-7.9,1.6-10.7,4.5
		C-41,1.6-42.5,5.2-42.5,9v0.2c0.1,8.2,6.7,14.7,14.9,14.7h55.7c7.9,0,14.3-6.3,14.4-14.2c0-6.5-4.4-12.3-10.7-13.9
		C29.8-15.7,19.9-24.1,8.2-24.1z"/>
	
		<image style="overflow:visible;enable-background:new    ;" width="86" height="36" xlink:href="5C1F071EB1956511.png"  transform="matrix(0.9884 0 0 0.9884 -42.5 -11.436)">
	</image>
</symbol>
<symbol  id="cloud_17" viewBox="-47.5 -29 95 58.1">
	<path class="st0" d="M8.2-24c-9,0-17.2,5-21.3,13c-5.1-2-10.8,0.5-12.8,5.6c-0.6-0.1-1.1-0.1-1.7-0.1c-4,0-7.9,1.6-10.7,4.5
		c-2.7,2.7-4.2,6.4-4.2,10.2v0.2c0.1,8.2,6.7,14.7,14.9,14.7h55.7c7.9,0,14.3-6.3,14.4-14.2c0-6.5-4.4-12.3-10.7-13.9
		C29.8-15.6,19.9-24,8.2-24z"/>
	
		<image style="overflow:visible;enable-background:new    ;" width="86" height="36" xlink:href="5C1F071EB1956516.png"  transform="matrix(0.9884 0 0 0.9884 -42.4814 -11.3208)">
	</image>
</symbol>
<symbol  id="cloud_18" viewBox="-47.5 -29 95 58.1">
	<path class="st0" d="M8.2-24c-9,0-17.2,5-21.3,13c-5.1-2-10.8,0.5-12.8,5.6c-0.6-0.1-1.1-0.1-1.7-0.1c-4,0-7.9,1.6-10.7,4.5
		c-2.7,2.7-4.2,6.4-4.2,10.2v0.2c0.1,8.2,6.7,14.7,14.9,14.7h55.7c7.9,0,14.3-6.3,14.4-14.2c0-6.5-4.4-12.3-10.7-13.9
		C29.8-15.6,19.9-24,8.2-24z"/>
	
		<image style="overflow:visible;enable-background:new    ;" width="86" height="36" xlink:href="507C076FAA979C1E.png"  transform="matrix(0.9884 0 0 0.9884 -42.4814 -11.3208)">
	</image>
</symbol>
<symbol  id="cloud_19" viewBox="-47.5 -29 95 58.1">
	<path class="st0" d="M8.2-24c-9,0-17.2,5-21.3,13c-5.1-2-10.8,0.5-12.8,5.6c-0.6-0.1-1.1-0.1-1.7-0.1c-4,0-7.9,1.6-10.7,4.5
		c-2.7,2.7-4.2,6.4-4.2,10.2v0.2c0.1,8.2,6.7,14.7,14.9,14.7h55.7c7.9,0,14.3-6.3,14.4-14.2c0-6.5-4.4-12.3-10.7-13.9
		C29.8-15.6,19.9-24,8.2-24z"/>
	
		<image style="overflow:visible;enable-background:new    ;" width="86" height="36" xlink:href="507C076FAA979C19.png"  transform="matrix(0.9884 0 0 0.9884 -42.4814 -11.3208)">
	</image>
</symbol>
<symbol  id="cloud_2" viewBox="-47.5 -29 95 58.1">
	<path class="st0" d="M8.2-24c-9,0-17.2,5-21.3,13c-5.1-2-10.8,0.5-12.8,5.6c-0.6-0.1-1.1-0.1-1.7-0.1c-4,0-7.9,1.6-10.7,4.5
		c-2.7,2.7-4.2,6.4-4.2,10.2v0.2c0.1,8.2,6.7,14.7,14.9,14.7h55.7c7.9,0,14.3-6.3,14.4-14.2c0-6.5-4.4-12.3-10.7-13.9
		C29.8-15.6,19.9-24,8.2-24z"/>
	
		<image style="overflow:visible;enable-background:new    ;" width="86" height="36" xlink:href="507C076FAA979C1A.png"  transform="matrix(0.9884 0 0 0.9884 -42.4814 -11.3208)">
	</image>
</symbol>
<symbol  id="cloud_20" viewBox="-47.5 -29 95 58.1">
	<path class="st0" d="M8.2-24c-9,0-17.2,5-21.3,13c-5.1-2-10.8,0.5-12.8,5.6c-0.6-0.1-1.1-0.1-1.7-0.1c-4,0-7.9,1.6-10.7,4.5
		c-2.7,2.7-4.2,6.4-4.2,10.2v0.2c0.1,8.2,6.7,14.7,14.9,14.7h55.7c7.9,0,14.3-6.3,14.4-14.2c0-6.5-4.4-12.3-10.7-13.9
		C29.8-15.6,19.9-24,8.2-24z"/>
	
		<image style="overflow:visible;enable-background:new    ;" width="86" height="36" xlink:href="507C076FAA979C18.png"  transform="matrix(0.9884 0 0 0.9884 -42.4814 -11.3208)">
	</image>
</symbol>
<symbol  id="cloud_21" viewBox="-47.5 -29 95 58.1">
	<path class="st0" d="M8.2-24c-9,0-17.2,5-21.3,13c-5.1-2-10.8,0.5-12.8,5.6c-0.6-0.1-1.1-0.1-1.7-0.1c-4,0-7.9,1.6-10.7,4.5
		c-2.7,2.7-4.2,6.4-4.2,10.2v0.2c0.1,8.2,6.7,14.7,14.9,14.7h55.7c7.9,0,14.3-6.3,14.4-14.2c0-6.5-4.4-12.3-10.7-13.9
		C29.8-15.6,19.9-24,8.2-24z"/>
	
		<image style="overflow:visible;enable-background:new    ;" width="86" height="36" xlink:href="507C076FAA979C16.png"  transform="matrix(0.9884 0 0 0.9884 -42.4814 -11.3208)">
	</image>
</symbol>
<symbol  id="cloud_22" viewBox="-47.5 -29 95 58.1">
	<path class="st0" d="M8.2-24c-9,0-17.2,5-21.3,13c-5.1-2-10.8,0.5-12.8,5.6c-0.6-0.1-1.1-0.1-1.7-0.1c-4,0-7.9,1.6-10.7,4.5
		c-2.7,2.7-4.2,6.4-4.2,10.2v0.2c0.1,8.2,6.7,14.7,14.9,14.7h55.7c7.9,0,14.3-6.3,14.4-14.2c0-6.5-4.4-12.3-10.7-13.9
		C29.8-15.6,19.9-24,8.2-24z"/>
	
		<image style="overflow:visible;enable-background:new    ;" width="86" height="36" xlink:href="507C076FAA979C09.png"  transform="matrix(0.9884 0 0 0.9884 -42.4814 -11.3208)">
	</image>
</symbol>
<symbol  id="cloud_23" viewBox="-47.5 -29 95 58.1">
	<path class="st0" d="M8.2-24c-9,0-17.2,5-21.3,13c-5.1-2-10.8,0.5-12.8,5.6c-0.6-0.1-1.1-0.1-1.7-0.1c-4,0-7.9,1.6-10.7,4.5
		c-2.7,2.7-4.2,6.4-4.2,10.2v0.2c0.1,8.2,6.7,14.7,14.9,14.7h55.7c7.9,0,14.3-6.3,14.4-14.2c0-6.5-4.4-12.3-10.7-13.9
		C29.8-15.6,19.9-24,8.2-24z"/>
	
		<image style="overflow:visible;enable-background:new    ;" width="86" height="36" xlink:href="507C076FAA979C0A.png"  transform="matrix(0.9884 0 0 0.9884 -42.4814 -11.3208)">
	</image>
</symbol>
<symbol  id="cloud_24" viewBox="-47.5 -29 95 58.1">
	<path class="st0" d="M8.2-24c-9,0-17.2,5-21.3,13c-5.1-2-10.8,0.5-12.8,5.6c-0.6-0.1-1.1-0.1-1.7-0.1c-4,0-7.9,1.6-10.7,4.5
		c-2.7,2.7-4.2,6.4-4.2,10.2v0.2c0.1,8.2,6.7,14.7,14.9,14.7h55.7c7.9,0,14.3-6.3,14.4-14.2c0-6.5-4.4-12.3-10.7-13.9
		C29.8-15.6,19.9-24,8.2-24z"/>
	
		<image style="overflow:visible;enable-background:new    ;" width="86" height="36" xlink:href="507C076FAA979C08.png"  transform="matrix(0.9884 0 0 0.9884 -42.4814 -11.3208)">
	</image>
</symbol>
<symbol  id="cloud_25" viewBox="-47.5 -29 95 58.1">
	<path class="st0" d="M8.2-24c-9,0-17.2,5-21.3,13c-5.1-2-10.8,0.5-12.8,5.6c-0.6-0.1-1.1-0.1-1.7-0.1c-4,0-7.9,1.6-10.7,4.5
		c-2.7,2.7-4.2,6.4-4.2,10.2v0.2c0.1,8.2,6.7,14.7,14.9,14.7h55.7c7.9,0,14.3-6.3,14.4-14.2c0-6.5-4.4-12.3-10.7-13.9
		C29.8-15.6,19.9-24,8.2-24z"/>
	
		<image style="overflow:visible;enable-background:new    ;" width="86" height="36" xlink:href="507C076FAA979C0E.png"  transform="matrix(0.9884 0 0 0.9884 -42.4814 -11.3208)">
	</image>
</symbol>
<symbol  id="cloud_26" viewBox="-47.5 -29 95 58.1">
	<path class="st0" d="M8.2-24c-9,0-17.2,5-21.3,13c-5.1-2-10.8,0.5-12.8,5.6c-0.6-0.1-1.1-0.1-1.7-0.1c-4,0-7.9,1.6-10.7,4.5
		c-2.7,2.7-4.2,6.4-4.2,10.2v0.2c0.1,8.2,6.7,14.7,14.9,14.7h55.7c7.9,0,14.3-6.3,14.4-14.2c0-6.5-4.4-12.3-10.7-13.9
		C29.8-15.6,19.9-24,8.2-24z"/>
	
		<image style="overflow:visible;enable-background:new    ;" width="86" height="36" xlink:href="507C076FAA979C0B.png"  transform="matrix(0.9884 0 0 0.9884 -42.4814 -11.3208)">
	</image>
</symbol>
<symbol  id="cloud_3" viewBox="-47.5 -29 95 58.1">
	<path class="st0" d="M8.2-24c-9,0-17.2,5-21.3,13c-5.1-2-10.8,0.5-12.8,5.6c-0.6-0.1-1.1-0.1-1.7-0.1c-4,0-7.9,1.6-10.7,4.5
		c-2.7,2.7-4.2,6.4-4.2,10.2v0.2c0.1,8.2,6.7,14.7,14.9,14.7h55.7c7.9,0,14.3-6.3,14.4-14.2c0-6.5-4.4-12.3-10.7-13.9
		C29.8-15.6,19.9-24,8.2-24z"/>
	
		<image style="overflow:visible;enable-background:new    ;" width="86" height="36" xlink:href="507C076FAA979C2D.png"  transform="matrix(0.9884 0 0 0.9884 -42.4814 -11.3208)">
	</image>
</symbol>
<symbol  id="cloud_4" viewBox="-47.5 -29 95 58.1">
	<path class="st0" d="M8.2-24c-9,0-17.2,5-21.3,13c-5.1-2-10.8,0.5-12.8,5.6c-0.6-0.1-1.1-0.1-1.7-0.1c-4,0-7.9,1.6-10.7,4.5
		c-2.7,2.7-4.2,6.4-4.2,10.2v0.2c0.1,8.2,6.7,14.7,14.9,14.7h55.7c7.9,0,14.3-6.3,14.4-14.2c0-6.5-4.4-12.3-10.7-13.9
		C29.8-15.6,19.9-24,8.2-24z"/>
	
		<image style="overflow:visible;enable-background:new    ;" width="86" height="36" xlink:href="507C076FAA979C2F.png"  transform="matrix(0.9884 0 0 0.9884 -42.4814 -11.3208)">
	</image>
</symbol>
<symbol  id="cloud_5" viewBox="-47.5 -29 95 58.1">
	<path class="st0" d="M8.2-24c-9,0-17.2,5-21.3,13c-5.1-2-10.8,0.5-12.8,5.6c-0.6-0.1-1.1-0.1-1.7-0.1c-4,0-7.9,1.6-10.7,4.5
		c-2.7,2.7-4.2,6.4-4.2,10.2v0.2c0.1,8.2,6.7,14.7,14.9,14.7h55.7c7.9,0,14.3-6.3,14.4-14.2c0-6.5-4.4-12.3-10.7-13.9
		C29.8-15.6,19.9-24,8.2-24z"/>
	
		<image style="overflow:visible;enable-background:new    ;" width="86" height="36" xlink:href="507C076FAA979C2C.png"  transform="matrix(0.9884 0 0 0.9884 -42.4814 -11.3208)">
	</image>
</symbol>
<symbol  id="cloud_6" viewBox="-47.5 -29 95 58.1">
	<path class="st0" d="M8.2-24c-9,0-17.2,5-21.3,13c-5.1-2-10.8,0.5-12.8,5.6c-0.6-0.1-1.1-0.1-1.7-0.1c-4,0-7.9,1.6-10.7,4.5
		c-2.7,2.7-4.2,6.4-4.2,10.2v0.2c0.1,8.2,6.7,14.7,14.9,14.7h55.7c7.9,0,14.3-6.3,14.4-14.2c0-6.5-4.4-12.3-10.7-13.9
		C29.8-15.6,19.9-24,8.2-24z"/>
	
		<image style="overflow:visible;enable-background:new    ;" width="86" height="36" xlink:href="507C076FAA979C2B.png"  transform="matrix(0.9884 0 0 0.9884 -42.4814 -11.3208)">
	</image>
</symbol>
<symbol  id="cloud_7" viewBox="-42.5 -24.1 85 48.3">
	<path class="st2" d="M8.2-24.1c-9,0-17.2,5-21.3,13c-5.1-2-10.8,0.5-12.8,5.6c-0.6-0.1-1.1-0.1-1.7-0.1c-4,0-7.9,1.6-10.7,4.5
		C-41,1.6-42.5,5.2-42.5,9v0.2c0.1,8.2,6.7,14.7,14.9,14.7h55.7c7.9,0,14.3-6.3,14.4-14.2c0-6.5-4.4-12.3-10.7-13.9
		C29.8-15.7,19.9-24.1,8.2-24.1z"/>
	
		<image style="overflow:visible;enable-background:new    ;" width="86" height="36" xlink:href="507C076FAA979C25.png"  transform="matrix(0.9884 0 0 0.9884 -42.5 -11.436)">
	</image>
</symbol>
<symbol  id="cloud_8" viewBox="-47.5 -29 95 58.1">
	<path class="st0" d="M8.2-24c-9,0-17.2,5-21.3,13c-5.1-2-10.8,0.5-12.8,5.6c-0.6-0.1-1.1-0.1-1.7-0.1c-4,0-7.9,1.6-10.7,4.5
		c-2.7,2.7-4.2,6.4-4.2,10.2v0.2c0.1,8.2,6.7,14.7,14.9,14.7h55.7c7.9,0,14.3-6.3,14.4-14.2c0-6.5-4.4-12.3-10.7-13.9
		C29.8-15.6,19.9-24,8.2-24z"/>
	
		<image style="overflow:visible;enable-background:new    ;" width="86" height="36" xlink:href="507C076FAA979C27.png"  transform="matrix(0.9884 0 0 0.9884 -42.4814 -11.3208)">
	</image>
</symbol>
<symbol  id="cloud_9" viewBox="-47.5 -29 95 58.1">
	<path class="st0" d="M8.2-24c-9,0-17.2,5-21.3,13c-5.1-2-10.8,0.5-12.8,5.6c-0.6-0.1-1.1-0.1-1.7-0.1c-4,0-7.9,1.6-10.7,4.5
		c-2.7,2.7-4.2,6.4-4.2,10.2v0.2c0.1,8.2,6.7,14.7,14.9,14.7h55.7c7.9,0,14.3-6.3,14.4-14.2c0-6.5-4.4-12.3-10.7-13.9
		C29.8-15.6,19.9-24,8.2-24z"/>
	
		<image style="overflow:visible;enable-background:new    ;" width="86" height="36" xlink:href="507C076FAA979C24.png"  transform="matrix(0.9884 0 0 0.9884 -42.4814 -11.3208)">
	</image>
</symbol>
<symbol  id="fog" viewBox="-45 -9.5 90 19">
	<g>
		<path class="st1" d="M43.7-6.5h-74.4C-31.4-6.5-32-7.2-32-8s0.6-1.5,1.3-1.5h74.4C44.4-9.5,45-8.8,45-8S44.4-6.5,43.7-6.5z"/>
		<path class="st1" d="M30.7,1.5h-74.4C-44.4,1.5-45,0.8-45,0s0.6-1.5,1.3-1.5h74.4C31.4-1.5,32-0.8,32,0S31.4,1.5,30.7,1.5z"/>
		<path class="st1" d="M41.7,9.5h-74.4C-33.4,9.5-34,8.8-34,8s0.6-1.5,1.3-1.5h74.4C42.4,6.5,43,7.2,43,8S42.4,9.5,41.7,9.5z"/>
	</g>
</symbol>
<symbol  id="lightning" viewBox="-11.3 -24 22.6 48">
	<polygon class="st4" points="7.3,-1.6 0.4,-4.6 3.2,-20 -7.3,-0.5 -0.2,2.5 -4.8,20 	"/>
</symbol>
<symbol  id="moon" viewBox="-26.7 -28.5 53.3 56.9">
	
		<linearGradient id="SVGID_1_" gradientUnits="userSpaceOnUse" x1="7508.1753" y1="-8578.4385" x2="7509.1753" y2="-8578.9385" gradientTransform="matrix(53.3472 0 0 56.9472 -400560.75 488531.3438)">
		<stop  offset="0" style="stop-color:#686E73"/>
		<stop  offset="1" style="stop-color:#6A7075"/>
	</linearGradient>
	<path class="st5" d="M1.8-28.5c2.5,4.3,3.9,9.3,3.9,14.3C5.6,1.6-7.2,14.5-23,14.5c-1.2,0-2.5-0.1-3.7-0.3
		c7.9,13.7,25.4,18.3,39.1,10.4S30.7-0.8,22.8-14.4C18.4-22.1,10.6-27.3,1.8-28.5z"/>
</symbol>
<symbol  id="raindrop" viewBox="-4.2 -6.4 8.5 12.8">
	<path class="st6" d="M-1.7,6.4c-1.4,0-2.5-1.1-2.5-2.5c0-0.3,0.1-0.7,0.2-1l3.5-8c0.6-1.2,2.1-1.7,3.4-1.1C4-5.6,4.5-4.2,4.1-3.1
		l-3.6,8C0.1,5.8-0.8,6.4-1.7,6.4z"/>
</symbol>
<symbol  id="s04" viewBox="-50 -50 100 100">
	<g>
		<defs>
			<rect id="SVGID_2_" x="-50" y="-50" width="100" height="100"/>
		</defs>
		<clipPath id="SVGID_3_">
			<use xlink:href="#SVGID_2_"  style="overflow:visible;"/>
		</clipPath>
		<g style="clip-path:url(#SVGID_3_);">
			
				<use xlink:href="#cloud_4"  width="95" height="58.1" x="-47.5" y="-29" transform="matrix(1 0 0 1 -2.5186 -20.9699)" style="overflow:visible;"/>
		</g>
	</g>
</symbol>
<symbol  id="s04_2" viewBox="-50 -50 100 100">
	<g>
		<defs>
			<rect id="SVGID_4_" x="-50" y="-50" width="100" height="100"/>
		</defs>
		<clipPath id="SVGID_5_">
			<use xlink:href="#SVGID_4_"  style="overflow:visible;"/>
		</clipPath>
		<g style="clip-path:url(#SVGID_5_);">
			
				<use xlink:href="#cloud_5"  width="95" height="58.1" x="-47.5" y="-29" transform="matrix(1 0 0 1 -2.5186 -20.9699)" style="overflow:visible;"/>
		</g>
	</g>
</symbol>
<symbol  id="s04_3" viewBox="-50 -50 100 100">
	<g>
		<defs>
			<rect id="SVGID_6_" x="-50" y="-50" width="100" height="100"/>
		</defs>
		<clipPath id="SVGID_7_">
			<use xlink:href="#SVGID_6_"  style="overflow:visible;"/>
		</clipPath>
		<g style="clip-path:url(#SVGID_7_);">
			
				<use xlink:href="#cloud_6"  width="95" height="58.1" x="-47.5" y="-29" transform="matrix(1 0 0 1 -2.5186 -20.9699)" style="overflow:visible;"/>
		</g>
	</g>
</symbol>
<symbol  id="s09" viewBox="-50 -50 100 100">
	<g>
		<defs>
			<rect id="SVGID_8_" x="-50" y="-50" width="100" height="100"/>
		</defs>
		<clipPath id="SVGID_9_">
			<use xlink:href="#SVGID_8_"  style="overflow:visible;"/>
		</clipPath>
		<g style="clip-path:url(#SVGID_9_);">
			
				<use xlink:href="#cloud_8"  width="95" height="58.1" x="-47.5" y="-29" transform="matrix(1 0 0 1 -2.5186 -20.9699)" style="overflow:visible;"/>
		</g>
	</g>
	
		<use xlink:href="#raindrop"  width="8.5" height="12.8" x="-4.2" y="-6.4" transform="matrix(1 0 0 1 -16.7616 16.2279)" style="overflow:visible;"/>
	
		<use xlink:href="#raindrop"  width="8.5" height="12.8" x="-4.2" y="-6.4" transform="matrix(1 0 0 1 -3.7616 25.2279)" style="overflow:visible;"/>
	
		<use xlink:href="#raindrop"  width="8.5" height="12.8" x="-4.2" y="-6.4" transform="matrix(1 0 0 1 11.2384 16.2279)" style="overflow:visible;"/>
</symbol>
<symbol  id="s10_2" viewBox="-50 -50 100 100">
	<g>
		<defs>
			<rect id="SVGID_10_" x="-50" y="-50" width="100" height="100"/>
		</defs>
		<clipPath id="SVGID_11_">
			<use xlink:href="#SVGID_10_"  style="overflow:visible;"/>
		</clipPath>
		<g style="clip-path:url(#SVGID_11_);">
			
				<use xlink:href="#cloud_22"  width="95" height="58.1" x="-47.5" y="-29" transform="matrix(1 0 0 1 -2.5186 -20.9699)" style="overflow:visible;"/>
		</g>
	</g>
	
		<use xlink:href="#raindrop"  width="8.5" height="12.8" x="-4.2" y="-6.4" transform="matrix(1 0 0 1 -30.7616 16.2279)" style="overflow:visible;"/>
	
		<use xlink:href="#raindrop"  width="8.5" height="12.8" x="-4.2" y="-6.4" transform="matrix(1 0 0 1 -16.7616 25.2279)" style="overflow:visible;"/>
	
		<use xlink:href="#raindrop"  width="8.5" height="12.8" x="-4.2" y="-6.4" transform="matrix(1 0 0 1 -1.7616 17.2279)" style="overflow:visible;"/>
	
		<use xlink:href="#raindrop"  width="8.5" height="12.8" x="-4.2" y="-6.4" transform="matrix(1 0 0 1 11.2384 16.2279)" style="overflow:visible;"/>
	
		<use xlink:href="#raindrop"  width="8.5" height="12.8" x="-4.2" y="-6.4" transform="matrix(1 0 0 1 25.2384 25.2279)" style="overflow:visible;"/>
</symbol>
<symbol  id="s12" viewBox="-63.5 -80.5 127 161">
	<g>
		<defs>
			<rect id="SVGID_12_" x="-63.5" y="-80.5" width="100" height="100"/>
		</defs>
		<clipPath id="SVGID_13_">
			<use xlink:href="#SVGID_12_"  style="overflow:visible;"/>
		</clipPath>
		<g style="clip-path:url(#SVGID_13_);">
			
				<use xlink:href="#cloud_10"  width="95" height="58.1" x="-47.5" y="-29" transform="matrix(1 0 0 1 -16.0186 -51.4699)" style="overflow:visible;"/>
		</g>
	</g>
	<g>
		<defs>
			<rect id="SVGID_14_" x="-36.5" y="-19.5" width="100" height="100"/>
		</defs>
		<clipPath id="SVGID_15_">
			<use xlink:href="#SVGID_14_"  style="overflow:visible;"/>
		</clipPath>
		<g style="clip-path:url(#SVGID_15_);">
			
				<use xlink:href="#snowflake"  width="13" height="11.8" x="-6.5" y="-5.9" transform="matrix(1 0 0 1 -29.9847 -13.9016)" style="overflow:visible;"/>
		</g>
	</g>
	
		<use xlink:href="#raindrop"  width="8.5" height="12.8" x="-4.2" y="-6.4" transform="matrix(1 0 0 1 -16.2616 -6.2721)" style="overflow:visible;"/>
	
		<use xlink:href="#raindrop"  width="8.5" height="12.8" x="-4.2" y="-6.4" transform="matrix(1 0 0 1 -2.2616 -12.2721)" style="overflow:visible;"/>
</symbol>
<symbol  id="s13" viewBox="-77.5 -85 155 170">
	<g>
		<defs>
			<rect id="SVGID_16_" x="-77.5" y="-85" width="100" height="100"/>
		</defs>
		<clipPath id="SVGID_17_">
			<use xlink:href="#SVGID_16_"  style="overflow:visible;"/>
		</clipPath>
		<g style="clip-path:url(#SVGID_17_);">
			
				<use xlink:href="#cloud_11"  width="95" height="58.1" x="-47.5" y="-29" transform="matrix(1 0 0 1 -30.0186 -55.9699)" style="overflow:visible;"/>
		</g>
	</g>
	<g>
		<defs>
			<rect id="SVGID_18_" x="-50.5" y="-24" width="100" height="100"/>
		</defs>
		<clipPath id="SVGID_19_">
			<use xlink:href="#SVGID_18_"  style="overflow:visible;"/>
		</clipPath>
		<g style="clip-path:url(#SVGID_19_);">
			
				<use xlink:href="#snowflake"  width="13" height="11.8" x="-6.5" y="-5.9" transform="matrix(1 0 0 1 -43.9847 -18.4016)" style="overflow:visible;"/>
		</g>
	</g>
	<g>
		<defs>
			<rect id="SVGID_20_" x="-36.5" y="-15" width="100" height="100"/>
		</defs>
		<clipPath id="SVGID_21_">
			<use xlink:href="#SVGID_20_"  style="overflow:visible;"/>
		</clipPath>
		<g style="clip-path:url(#SVGID_21_);">
			
				<use xlink:href="#snowflake"  width="13" height="11.8" x="-6.5" y="-5.9" transform="matrix(1 0 0 1 -29.9847 -9.4016)" style="overflow:visible;"/>
		</g>
	</g>
	<g>
		<defs>
			<rect id="SVGID_22_" x="-22.5" y="-24" width="100" height="100"/>
		</defs>
		<clipPath id="SVGID_23_">
			<use xlink:href="#SVGID_22_"  style="overflow:visible;"/>
		</clipPath>
		<g style="clip-path:url(#SVGID_23_);">
			
				<use xlink:href="#snowflake"  width="13" height="11.8" x="-6.5" y="-5.9" transform="matrix(1 0 0 1 -15.9847 -18.4016)" style="overflow:visible;"/>
		</g>
	</g>
</symbol>
<symbol  id="s22" viewBox="-50 -50 100 100">
	<defs>
		<filter id="Adobe_OpacityMaskFilter" filterUnits="userSpaceOnUse" x="-50" y="-50" width="100" height="100">
			<feColorMatrix  type="matrix" values="1 0 0 0 0  0 1 0 0 0  0 0 1 0 0  0 0 0 1 0"/>
		</filter>
	</defs>
	<mask maskUnits="userSpaceOnUse" x="-50" y="-50" width="100" height="100" id="lightning_37_51_1_1_4_1_">
		<rect x="-53" y="912" class="st7" width="100" height="100"/>
		
			<use xlink:href="#lightning"  width="22.6" height="48" x="-11.3" y="-24" transform="matrix(1 0 0 -1 -3.7 936)" style="overflow:visible;"/>
	</mask>
	<g class="st8">
		<g>
			<defs>
				<rect id="SVGID_24_" x="-50" y="-50" width="100" height="100"/>
			</defs>
			<clipPath id="SVGID_25_">
				<use xlink:href="#SVGID_24_"  style="overflow:visible;"/>
			</clipPath>
			<g style="clip-path:url(#SVGID_25_);">
				
					<use xlink:href="#cloud_9"  width="95" height="58.1" x="-47.5" y="-29" transform="matrix(1 0 0 1 -2.5186 -20.9699)" style="overflow:visible;"/>
			</g>
		</g>
	</g>
	
		<use xlink:href="#lightning"  width="22.6" height="48" x="-11.3" y="-24" transform="matrix(1 0 0 1 -3.7 8)" style="overflow:visible;"/>
	
		<use xlink:href="#raindrop"  width="8.5" height="12.8" x="-4.2" y="-6.4" transform="matrix(1 0 0 1 -19.7616 16.2279)" style="overflow:visible;"/>
	
		<use xlink:href="#raindrop"  width="8.5" height="12.8" x="-4.2" y="-6.4" transform="matrix(1 0 0 1 1.2384 25.2279)" style="overflow:visible;"/>
	
		<use xlink:href="#raindrop"  width="8.5" height="12.8" x="-4.2" y="-6.4" transform="matrix(1 0 0 1 16.2384 16.2279)" style="overflow:visible;"/>
</symbol>
<symbol  id="s30" viewBox="-50 -50 100 100">
	<defs>
		<filter id="Adobe_OpacityMaskFilter_1_" filterUnits="userSpaceOnUse" x="-50" y="-50" width="100" height="100">
			<feColorMatrix  type="matrix" values="1 0 0 0 0  0 1 0 0 0  0 0 1 0 0  0 0 0 1 0"/>
		</filter>
	</defs>
	<mask maskUnits="userSpaceOnUse" x="-50" y="-50" width="100" height="100" id="lightning_37_51_1_1_4_4_">
		<rect x="-53" y="912" class="st9" width="100" height="100"/>
		
			<use xlink:href="#lightning"  width="22.6" height="48" x="-11.3" y="-24" transform="matrix(1 0 0 -1 -3.7 936)" style="overflow:visible;"/>
	</mask>
	<g class="st10">
		<g>
			<defs>
				<rect id="SVGID_26_" x="-50" y="-50" width="100" height="100"/>
			</defs>
			<clipPath id="SVGID_27_">
				<use xlink:href="#SVGID_26_"  style="overflow:visible;"/>
			</clipPath>
			<g style="clip-path:url(#SVGID_27_);">
				
					<use xlink:href="#cloud_17"  width="95" height="58.1" x="-47.5" y="-29" transform="matrix(1 0 0 1 -2.5186 -20.9699)" style="overflow:visible;"/>
			</g>
		</g>
	</g>
	
		<use xlink:href="#lightning"  width="22.6" height="48" x="-11.3" y="-24" transform="matrix(1 0 0 1 -3.7 8)" style="overflow:visible;"/>
	
		<use xlink:href="#raindrop"  width="8.5" height="12.8" x="-4.2" y="-6.4" transform="matrix(1 0 0 1 -20.7616 25.2279)" style="overflow:visible;"/>
	
		<use xlink:href="#raindrop"  width="8.5" height="12.8" x="-4.2" y="-6.4" transform="matrix(1 0 0 1 9.2384 16.2279)" style="overflow:visible;"/>
</symbol>
<symbol  id="s31" viewBox="-61.5 -85 123 170">
	<defs>
		<filter id="Adobe_OpacityMaskFilter_2_" filterUnits="userSpaceOnUse" x="-61.5" y="-15" width="100" height="100">
			<feColorMatrix  type="matrix" values="1 0 0 0 0  0 1 0 0 0  0 0 1 0 0  0 0 0 1 0"/>
		</filter>
	</defs>
	<mask maskUnits="userSpaceOnUse" x="-61.5" y="-15" width="100" height="100" id="lightning_37_51_1_1_4_5_">
		<rect x="-64.5" y="877" class="st11" width="100" height="100"/>
		
			<use xlink:href="#lightning"  width="22.6" height="48" x="-11.3" y="-24" transform="matrix(1 0 0 -1 -15.2 901)" style="overflow:visible;"/>
	</mask>
	<g class="st12">
		<g>
			<defs>
				<rect id="SVGID_28_" x="-61.5" y="-85" width="100" height="100"/>
			</defs>
			<clipPath id="SVGID_29_">
				<use xlink:href="#SVGID_28_"  style="overflow:visible;"/>
			</clipPath>
			<g style="clip-path:url(#SVGID_29_);">
				
					<use xlink:href="#cloud_18"  width="95" height="58.1" x="-47.5" y="-29" transform="matrix(1 0 0 1 -14.0186 -55.9699)" style="overflow:visible;"/>
			</g>
		</g>
	</g>
	
		<use xlink:href="#lightning"  width="22.6" height="48" x="-11.3" y="-24" transform="matrix(1 0 0 1 -15.2 -27)" style="overflow:visible;"/>
	<g>
		<defs>
			<rect id="SVGID_30_" x="-38.5" y="-15" width="100" height="100"/>
		</defs>
		<clipPath id="SVGID_31_">
			<use xlink:href="#SVGID_30_"  style="overflow:visible;"/>
		</clipPath>
		<g style="clip-path:url(#SVGID_31_);">
			
				<use xlink:href="#snowflake"  width="13" height="11.8" x="-6.5" y="-5.9" transform="matrix(1 0 0 1 -31.9847 -9.4016)" style="overflow:visible;"/>
		</g>
	</g>
	
		<use xlink:href="#raindrop"  width="8.5" height="12.8" x="-4.2" y="-6.4" transform="matrix(1 0 0 1 -2.2616 -17.7721)" style="overflow:visible;"/>
</symbol>
<symbol  id="s32" viewBox="-81.5 -85 163 170">
	<defs>
		<filter id="Adobe_OpacityMaskFilter_3_" filterUnits="userSpaceOnUse" x="-81.5" y="-15" width="100" height="100">
			<feColorMatrix  type="matrix" values="1 0 0 0 0  0 1 0 0 0  0 0 1 0 0  0 0 0 1 0"/>
		</filter>
	</defs>
	<mask maskUnits="userSpaceOnUse" x="-81.5" y="-15" width="100" height="100" id="lightning_37_51_1_1_4_6_">
		<rect x="-84.5" y="877" class="st13" width="100" height="100"/>
		
			<use xlink:href="#lightning"  width="22.6" height="48" x="-11.3" y="-24" transform="matrix(1 0 0 -1 -35.2 901)" style="overflow:visible;"/>
	</mask>
	<g class="st14">
		<g>
			<defs>
				<rect id="SVGID_32_" x="-81.5" y="-85" width="100" height="100"/>
			</defs>
			<clipPath id="SVGID_33_">
				<use xlink:href="#SVGID_32_"  style="overflow:visible;"/>
			</clipPath>
			<g style="clip-path:url(#SVGID_33_);">
				
					<use xlink:href="#cloud_19"  width="95" height="58.1" x="-47.5" y="-29" transform="matrix(1 0 0 1 -34.0186 -55.9699)" style="overflow:visible;"/>
			</g>
		</g>
	</g>
	
		<use xlink:href="#lightning"  width="22.6" height="48" x="-11.3" y="-24" transform="matrix(1 0 0 1 -35.2 -27)" style="overflow:visible;"/>
	<g>
		<defs>
			<rect id="SVGID_34_" x="-69.5" y="-24" width="100" height="100"/>
		</defs>
		<clipPath id="SVGID_35_">
			<use xlink:href="#SVGID_34_"  style="overflow:visible;"/>
		</clipPath>
		<g style="clip-path:url(#SVGID_35_);">
			
				<use xlink:href="#snowflake"  width="13" height="11.8" x="-6.5" y="-5.9" transform="matrix(1 0 0 1 -62.9847 -18.4016)" style="overflow:visible;"/>
		</g>
	</g>
	
		<use xlink:href="#raindrop"  width="8.5" height="12.8" x="-4.2" y="-6.4" transform="matrix(1 0 0 1 -50.2616 -10.7721)" style="overflow:visible;"/>
	
		<use xlink:href="#raindrop"  width="8.5" height="12.8" x="-4.2" y="-6.4" transform="matrix(1 0 0 1 -25.2616 -16.7721)" style="overflow:visible;"/>
	<g>
		<defs>
			<rect id="SVGID_36_" x="-18.5" y="-15" width="100" height="100"/>
		</defs>
		<clipPath id="SVGID_37_">
			<use xlink:href="#SVGID_36_"  style="overflow:visible;"/>
		</clipPath>
		<g style="clip-path:url(#SVGID_37_);">
			
				<use xlink:href="#snowflake"  width="13" height="11.8" x="-6.5" y="-5.9" transform="matrix(1 0 0 1 -11.9847 -9.4016)" style="overflow:visible;"/>
		</g>
	</g>
	
		<use xlink:href="#raindrop"  width="8.5" height="12.8" x="-4.2" y="-6.4" transform="matrix(1 0 0 1 1.7384 -16.7721)" style="overflow:visible;"/>
</symbol>
<symbol  id="s34" viewBox="-90 -85 180 170">
	<defs>
		<filter id="Adobe_OpacityMaskFilter_4_" filterUnits="userSpaceOnUse" x="-90" y="-15" width="100" height="100">
			<feColorMatrix  type="matrix" values="1 0 0 0 0  0 1 0 0 0  0 0 1 0 0  0 0 0 1 0"/>
		</filter>
	</defs>
	<mask maskUnits="userSpaceOnUse" x="-90" y="-15" width="100" height="100" id="lightning_37_51_1_1_4_7_">
		<rect x="-93" y="877" class="st15" width="100" height="100"/>
		
			<use xlink:href="#lightning"  width="22.6" height="48" x="-11.3" y="-24" transform="matrix(1 0 0 -1 -43.7 901)" style="overflow:visible;"/>
	</mask>
	<g class="st16">
		<g>
			<defs>
				<rect id="SVGID_38_" x="-90" y="-85" width="100" height="100"/>
			</defs>
			<clipPath id="SVGID_39_">
				<use xlink:href="#SVGID_38_"  style="overflow:visible;"/>
			</clipPath>
			<g style="clip-path:url(#SVGID_39_);">
				
					<use xlink:href="#cloud_20"  width="95" height="58.1" x="-47.5" y="-29" transform="matrix(1 0 0 1 -42.5186 -55.9699)" style="overflow:visible;"/>
			</g>
		</g>
	</g>
	
		<use xlink:href="#lightning"  width="22.6" height="48" x="-11.3" y="-24" transform="matrix(1 0 0 1 -43.7 -27)" style="overflow:visible;"/>
	<g>
		<defs>
			<rect id="SVGID_40_" x="-80" y="-24" width="100" height="100"/>
		</defs>
		<clipPath id="SVGID_41_">
			<use xlink:href="#SVGID_40_"  style="overflow:visible;"/>
		</clipPath>
		<g style="clip-path:url(#SVGID_41_);">
			
				<use xlink:href="#snowflake"  width="13" height="11.8" x="-6.5" y="-5.9" transform="matrix(1 0 0 1 -73.4847 -18.4016)" style="overflow:visible;"/>
		</g>
	</g>
	<g>
		<defs>
			<rect id="SVGID_42_" x="-66" y="-15" width="100" height="100"/>
		</defs>
		<clipPath id="SVGID_43_">
			<use xlink:href="#SVGID_42_"  style="overflow:visible;"/>
		</clipPath>
		<g style="clip-path:url(#SVGID_43_);">
			
				<use xlink:href="#snowflake"  width="13" height="11.8" x="-6.5" y="-5.9" transform="matrix(1 0 0 1 -59.4847 -9.4016)" style="overflow:visible;"/>
		</g>
	</g>
	<g>
		<defs>
			<rect id="SVGID_44_" x="-38" y="-24" width="100" height="100"/>
		</defs>
		<clipPath id="SVGID_45_">
			<use xlink:href="#SVGID_44_"  style="overflow:visible;"/>
		</clipPath>
		<g style="clip-path:url(#SVGID_45_);">
			
				<use xlink:href="#snowflake"  width="13" height="11.8" x="-6.5" y="-5.9" transform="matrix(1 0 0 1 -31.4847 -18.4016)" style="overflow:visible;"/>
		</g>
	</g>
	<g>
		<defs>
			<rect id="SVGID_46_" x="-24" y="-15" width="100" height="100"/>
		</defs>
		<clipPath id="SVGID_47_">
			<use xlink:href="#SVGID_46_"  style="overflow:visible;"/>
		</clipPath>
		<g style="clip-path:url(#SVGID_47_);">
			
				<use xlink:href="#snowflake"  width="13" height="11.8" x="-6.5" y="-5.9" transform="matrix(1 0 0 1 -17.4847 -9.4016)" style="overflow:visible;"/>
		</g>
	</g>
	<g>
		<defs>
			<rect id="SVGID_48_" x="-10" y="-24" width="100" height="100"/>
		</defs>
		<clipPath id="SVGID_49_">
			<use xlink:href="#SVGID_48_"  style="overflow:visible;"/>
		</clipPath>
		<g style="clip-path:url(#SVGID_49_);">
			
				<use xlink:href="#snowflake"  width="13" height="11.8" x="-6.5" y="-5.9" transform="matrix(1 0 0 1 -3.4847 -18.4016)" style="overflow:visible;"/>
		</g>
	</g>
</symbol>
<symbol  id="s46" viewBox="-50 -50 100 100">
	<g>
		<defs>
			<rect id="SVGID_50_" x="-50" y="-50" width="100" height="100"/>
		</defs>
		<clipPath id="SVGID_51_">
			<use xlink:href="#SVGID_50_"  style="overflow:visible;"/>
		</clipPath>
		<g style="clip-path:url(#SVGID_51_);">
			
				<use xlink:href="#cloud_21"  width="95" height="58.1" x="-47.5" y="-29" transform="matrix(1 0 0 1 -2.5186 -20.9699)" style="overflow:visible;"/>
		</g>
	</g>
	
		<use xlink:href="#raindrop"  width="8.5" height="12.8" x="-4.2" y="-6.4" transform="matrix(1 0 0 1 -16.7616 25.2279)" style="overflow:visible;"/>
	
		<use xlink:href="#raindrop"  width="8.5" height="12.8" x="-4.2" y="-6.4" transform="matrix(1 0 0 1 7.2384 16.2279)" style="overflow:visible;"/>
</symbol>
<symbol  id="s47" viewBox="-63 -85 126 170">
	<g>
		<defs>
			<rect id="SVGID_52_" x="-63" y="-85" width="100" height="100"/>
		</defs>
		<clipPath id="SVGID_53_">
			<use xlink:href="#SVGID_52_"  style="overflow:visible;"/>
		</clipPath>
		<g style="clip-path:url(#SVGID_53_);">
			
				<use xlink:href="#cloud_23"  width="95" height="58.1" x="-47.5" y="-29" transform="matrix(1 0 0 1 -15.5186 -55.9699)" style="overflow:visible;"/>
		</g>
	</g>
	<g>
		<defs>
			<rect id="SVGID_54_" x="-37" y="-15" width="100" height="100"/>
		</defs>
		<clipPath id="SVGID_55_">
			<use xlink:href="#SVGID_54_"  style="overflow:visible;"/>
		</clipPath>
		<g style="clip-path:url(#SVGID_55_);">
			
				<use xlink:href="#snowflake"  width="13" height="11.8" x="-6.5" y="-5.9" transform="matrix(1 0 0 1 -30.4847 -9.4016)" style="overflow:visible;"/>
		</g>
	</g>
	
		<use xlink:href="#raindrop"  width="8.5" height="12.8" x="-4.2" y="-6.4" transform="matrix(1 0 0 1 -1.7616 -17.7721)" style="overflow:visible;"/>
</symbol>
<symbol  id="s48" viewBox="-77.5 -85 155 170">
	<g>
		<defs>
			<rect id="SVGID_56_" x="-77.5" y="-85" width="100" height="100"/>
		</defs>
		<clipPath id="SVGID_57_">
			<use xlink:href="#SVGID_56_"  style="overflow:visible;"/>
		</clipPath>
		<g style="clip-path:url(#SVGID_57_);">
			
				<use xlink:href="#cloud_24"  width="95" height="58.1" x="-47.5" y="-29" transform="matrix(1 0 0 1 -30.0186 -55.9699)" style="overflow:visible;"/>
		</g>
	</g>
	<g>
		<defs>
			<rect id="SVGID_58_" x="-65.5" y="-24" width="100" height="100"/>
		</defs>
		<clipPath id="SVGID_59_">
			<use xlink:href="#SVGID_58_"  style="overflow:visible;"/>
		</clipPath>
		<g style="clip-path:url(#SVGID_59_);">
			
				<use xlink:href="#snowflake"  width="13" height="11.8" x="-6.5" y="-5.9" transform="matrix(1 0 0 1 -58.9847 -18.4016)" style="overflow:visible;"/>
		</g>
	</g>
	
		<use xlink:href="#raindrop"  width="8.5" height="12.8" x="-4.2" y="-6.4" transform="matrix(1 0 0 1 -44.2616 -10.7721)" style="overflow:visible;"/>
	
		<use xlink:href="#raindrop"  width="8.5" height="12.8" x="-4.2" y="-6.4" transform="matrix(1 0 0 1 -29.2616 -16.7721)" style="overflow:visible;"/>
	<g>
		<defs>
			<rect id="SVGID_60_" x="-22.5" y="-15" width="100" height="100"/>
		</defs>
		<clipPath id="SVGID_61_">
			<use xlink:href="#SVGID_60_"  style="overflow:visible;"/>
		</clipPath>
		<g style="clip-path:url(#SVGID_61_);">
			
				<use xlink:href="#snowflake"  width="13" height="11.8" x="-6.5" y="-5.9" transform="matrix(1 0 0 1 -15.9847 -9.4016)" style="overflow:visible;"/>
		</g>
	</g>
	
		<use xlink:href="#raindrop"  width="8.5" height="12.8" x="-4.2" y="-6.4" transform="matrix(1 0 0 1 -2.2616 -16.7721)" style="overflow:visible;"/>
</symbol>
<symbol  id="s49" viewBox="-77.5 -85 155 170">
	<g>
		<defs>
			<rect id="SVGID_62_" x="-77.5" y="-85" width="100" height="100"/>
		</defs>
		<clipPath id="SVGID_63_">
			<use xlink:href="#SVGID_62_"  style="overflow:visible;"/>
		</clipPath>
		<g style="clip-path:url(#SVGID_63_);">
			
				<use xlink:href="#cloud_25"  width="95" height="58.1" x="-47.5" y="-29" transform="matrix(1 0 0 1 -30.0186 -55.9699)" style="overflow:visible;"/>
		</g>
	</g>
	<g>
		<defs>
			<rect id="SVGID_64_" x="-51.5" y="-15" width="100" height="100"/>
		</defs>
		<clipPath id="SVGID_65_">
			<use xlink:href="#SVGID_64_"  style="overflow:visible;"/>
		</clipPath>
		<g style="clip-path:url(#SVGID_65_);">
			
				<use xlink:href="#snowflake"  width="13" height="11.8" x="-6.5" y="-5.9" transform="matrix(1 0 0 1 -44.9847 -9.4016)" style="overflow:visible;"/>
		</g>
	</g>
	<g>
		<defs>
			<rect id="SVGID_66_" x="-22.5" y="-24" width="100" height="100"/>
		</defs>
		<clipPath id="SVGID_67_">
			<use xlink:href="#SVGID_66_"  style="overflow:visible;"/>
		</clipPath>
		<g style="clip-path:url(#SVGID_67_);">
			
				<use xlink:href="#snowflake"  width="13" height="11.8" x="-6.5" y="-5.9" transform="matrix(1 0 0 1 -15.9847 -18.4016)" style="overflow:visible;"/>
		</g>
	</g>
</symbol>
<symbol  id="s50" viewBox="-84.5 -85 169 170">
	<g>
		<defs>
			<rect id="SVGID_68_" x="-84.5" y="-85" width="100" height="100"/>
		</defs>
		<clipPath id="SVGID_69_">
			<use xlink:href="#SVGID_68_"  style="overflow:visible;"/>
		</clipPath>
		<g style="clip-path:url(#SVGID_69_);">
			
				<use xlink:href="#cloud_26"  width="95" height="58.1" x="-47.5" y="-29" transform="matrix(1 0 0 1 -37.0186 -55.9699)" style="overflow:visible;"/>
		</g>
	</g>
	<g>
		<defs>
			<rect id="SVGID_70_" x="-72.5" y="-24" width="100" height="100"/>
		</defs>
		<clipPath id="SVGID_71_">
			<use xlink:href="#SVGID_70_"  style="overflow:visible;"/>
		</clipPath>
		<g style="clip-path:url(#SVGID_71_);">
			
				<use xlink:href="#snowflake"  width="13" height="11.8" x="-6.5" y="-5.9" transform="matrix(1 0 0 1 -65.9847 -18.4016)" style="overflow:visible;"/>
		</g>
	</g>
	<g>
		<defs>
			<rect id="SVGID_72_" x="-58.5" y="-15" width="100" height="100"/>
		</defs>
		<clipPath id="SVGID_73_">
			<use xlink:href="#SVGID_72_"  style="overflow:visible;"/>
		</clipPath>
		<g style="clip-path:url(#SVGID_73_);">
			
				<use xlink:href="#snowflake"  width="13" height="11.8" x="-6.5" y="-5.9" transform="matrix(1 0 0 1 -51.9847 -9.4016)" style="overflow:visible;"/>
		</g>
	</g>
	<g>
		<defs>
			<rect id="SVGID_74_" x="-43.5" y="-24" width="100" height="100"/>
		</defs>
		<clipPath id="SVGID_75_">
			<use xlink:href="#SVGID_74_"  style="overflow:visible;"/>
		</clipPath>
		<g style="clip-path:url(#SVGID_75_);">
			
				<use xlink:href="#snowflake"  width="13" height="11.8" x="-6.5" y="-5.9" transform="matrix(1 0 0 1 -36.9847 -18.4016)" style="overflow:visible;"/>
		</g>
	</g>
	<g>
		<defs>
			<rect id="SVGID_76_" x="-29.5" y="-15" width="100" height="100"/>
		</defs>
		<clipPath id="SVGID_77_">
			<use xlink:href="#SVGID_76_"  style="overflow:visible;"/>
		</clipPath>
		<g style="clip-path:url(#SVGID_77_);">
			
				<use xlink:href="#snowflake"  width="13" height="11.8" x="-6.5" y="-5.9" transform="matrix(1 0 0 1 -22.9847 -9.4016)" style="overflow:visible;"/>
		</g>
	</g>
	<g>
		<defs>
			<rect id="SVGID_78_" x="-15.5" y="-24" width="100" height="100"/>
		</defs>
		<clipPath id="SVGID_79_">
			<use xlink:href="#SVGID_78_"  style="overflow:visible;"/>
		</clipPath>
		<g style="clip-path:url(#SVGID_79_);">
			
				<use xlink:href="#snowflake"  width="13" height="11.8" x="-6.5" y="-5.9" transform="matrix(1 0 0 1 -8.9847 -18.4016)" style="overflow:visible;"/>
		</g>
	</g>
</symbol>
<symbol  id="snowflake" viewBox="-6.5 -5.9 13 11.8">
	<path class="st17" d="M5.2-1.3H2.3l1.4-2.5C4.2-4.4,4-5.2,3.4-5.7C2.8-6.1,1.9-5.9,1.5-5.3c0,0.1-0.1,0.1-0.1,0.2L0-2.7l-1.4-2.5
		C-1.8-5.8-2.6-6-3.3-5.6c-0.6,0.4-0.9,1.2-0.5,1.8l1.4,2.5h-2.8c-0.7,0-1.3,0.6-1.3,1.3s0.6,1.4,1.3,1.4h2.8l-1.4,2.4
		c-0.4,0.6-0.2,1.5,0.5,1.8C-2.6,6-1.8,5.8-1.4,5.2L0,2.7l1.4,2.5c0.4,0.6,1.2,0.9,1.8,0.5c0.6-0.4,0.9-1.2,0.5-1.8l0,0L2.3,1.4h2.8
		c0.7,0,1.4-0.6,1.4-1.3S5.9-1.3,5.2-1.3C5.2-1.3,5.2-1.3,5.2-1.3z"/>
</symbol>
<symbol  id="sun" viewBox="-41 -41 82 82">
	<radialGradient id="SVGID_80_" cx="0" cy="0" r="41" gradientUnits="userSpaceOnUse">
		<stop  offset="0.54" style="stop-color:#D6B849"/>
		<stop  offset="0.67" style="stop-color:#FFCE47"/>
		<stop  offset="1" style="stop-color:#FFDB73"/>
	</radialGradient>
	<path class="st18" d="M25.6,6.9L41,0L25.6-6.9l9.8-13.7l-16.7,1.8l1.7-16.7L6.9-25.6L0-41l-6.9,15.4l-13.7-9.8l1.8,16.7l-16.7-1.7
		l9.9,13.6L-41,0l15.4,6.8l-9.8,13.7l16.7-1.8l-1.7,16.7l13.6-9.9L0,41l6.8-15.4l13.7,9.8l-1.7-16.7l16.8,1.7L25.6,6.9z"/>
	<path class="st19" d="M-21.7,12.5c6.9,12,22.2,16,34.2,9.1s16-22.2,9.1-34.2c-6.9-12-22.2-16-34.1-9.1
		C-24.5-14.8-28.6,0.5-21.7,12.5C-21.7,12.5-21.7,12.5-21.7,12.5z"/>
	
		<linearGradient id="SVGID_81_" gradientUnits="userSpaceOnUse" x1="7468.8638" y1="-8525.1064" x2="7469.8638" y2="-8524.1064" gradientTransform="matrix(42.007 0 0 42.007 -313765.75 358093.2188)">
		<stop  offset="0" style="stop-color:#FFAF22"/>
		<stop  offset="1" style="stop-color:#F09900"/>
	</linearGradient>
	<path class="st20" d="M-18.3,10.5c5.8,10,18.6,13.5,28.7,7.7s13.5-18.6,7.7-28.7c-5.8-10-18.6-13.5-28.7-7.7
		C-20.6-12.4-24.1,0.4-18.3,10.5C-18.3,10.5-18.3,10.5-18.3,10.5z"/>
</symbol>
<symbol  id="sunWinter" viewBox="-45 -41 90 82">
	<defs>
		<filter id="Adobe_OpacityMaskFilter_5_" filterUnits="userSpaceOnUse" x="-41" y="-41" width="82" height="82">
			<feColorMatrix  type="matrix" values="1 0 0 0 0  0 1 0 0 0  0 0 1 0 0  0 0 0 1 0"/>
		</filter>
	</defs>
	<mask maskUnits="userSpaceOnUse" x="-41" y="-41" width="82" height="82" id="sunWinterMask_1_">
		<rect x="-45" y="979" class="st21" width="100" height="100"/>
	</mask>
	<g class="st22">
		<use xlink:href="#sun"  width="82" height="82" x="-41" y="-41" style="overflow:visible;"/>
	</g>
	<path class="st23" d="M43.3,1.7h-86.6c-0.8,0.1-1.6-0.5-1.7-1.4c0.1-0.8,0.9-1.4,1.7-1.4h86.6c0.8-0.1,1.6,0.5,1.7,1.4
		C44.9,1.2,44.1,1.8,43.3,1.7z"/>
</symbol>
<g id="s03d">
	<path d="M19.3,36.6c-3-6.4-0.6-14.1,5.6-17.7c6.4-3.7,14.6-1.6,18.5,4.6c0.5-0.4,1-0.8,1.6-1.2c-4.5-7-13.8-9.3-21-5.1
		c-7.1,4.1-9.8,12.9-6.4,20.1C18.1,37.1,18.7,36.8,19.3,36.6z"/>
	<path d="M8.3,46.1c0.4-0.7,0.9-1.5,1.3-2.2L9,44l6.3-8.8l-9.8-4.4l9.8-4.4L9,17.7l10.7,1.1L18.6,8.1l8.8,6.3l4.4-9.8l4.4,9.9
		l8.7-6.3l-1.1,10.7l10.7-1.1L54.3,18c0.9-0.2,1.9-0.4,2.9-0.6l1.5-2.1L46,16.6l1.3-12.7L37,11.3L31.7-0.3l-5.2,11.7L16.1,3.9
		l1.3,12.7L4.7,15.3l7.5,10.3L0.5,30.9l11.7,5.2L4.8,46.5L8.3,46.1z"/>
	<path d="M80.7,71.1C80.6,71.1,80.6,71.1,80.7,71.1H24.9c0,0,0,0-0.1,0c-8.6,0-15.7-7-15.8-15.7v-0.2c0-4.1,1.6-8,4.5-10.9
		c3-3,7.1-4.8,11.3-4.8c0.4,0,0.8,0,1.1,0c2.3-4.8,7.8-7.2,12.9-5.7C43.3,25.9,51.6,21,60.7,21c0,0,0,0,0,0c12,0,22.1,8.4,24.4,20.1
		c6.4,2,10.9,7.9,10.8,14.7c0,4.1-1.6,7.9-4.5,10.8C88.5,69.5,84.7,71.1,80.7,71.1z M80.6,69.1c3.6,0,6.9-1.3,9.4-3.8
		c2.5-2.5,3.9-5.8,3.9-9.4c0-6.1-4.1-11.4-10-12.9l-0.6-0.2l-0.1-0.6C81.4,31,71.9,23,60.7,23c0,0,0,0,0,0
		c-8.7,0-16.5,4.8-20.4,12.5l-0.4,0.8L39,36c-4.5-1.8-9.7,0.5-11.5,5l-0.3,0.7l-0.8-0.1c-0.5-0.1-1.1-0.1-1.6-0.1
		c-3.7,0-7.3,1.5-9.9,4.2c-2.5,2.5-3.9,5.9-3.9,9.5v0.2c0.1,7.5,6.3,13.7,13.8,13.7c0,0,0,0,0,0H80.6z"/>
</g>
<g id="s41__x28__x2B_03_x29_">
	<path d="M24.8,86.2l3.5-8c0.4-1.2-0.1-2.5-1.2-3.1c-1.2-0.6-2.7-0.2-3.4,1.1l-3.5,8c-0.1,0.3-0.2,0.6-0.2,1c0,1.4,1.1,2.5,2.5,2.5
		C23.5,87.6,24.4,87.1,24.8,86.2z"/>
	<path d="M38.8,95.2l3.5-8c0.4-1.2-0.1-2.5-1.2-3.1c-1.2-0.6-2.7-0.2-3.4,1.1l-3.5,8c-0.1,0.3-0.2,0.6-0.2,1c0,1.4,1.1,2.5,2.5,2.5
		C37.5,96.6,38.4,96.1,38.8,95.2z"/>
	<path d="M53.8,87.2l3.5-8c0.4-1.2-0.1-2.5-1.2-3.1c-1.2-0.6-2.7-0.2-3.4,1.1l-3.5,8c-0.1,0.3-0.2,0.6-0.2,1c0,1.4,1.1,2.5,2.5,2.5
		C52.5,88.6,53.4,88.1,53.8,87.2z"/>
	<path d="M66.8,86.2l3.6-8c0.4-1.2-0.1-2.5-1.2-3.1c-1.2-0.6-2.7-0.2-3.4,1.1l-3.5,8c-0.1,0.3-0.2,0.6-0.2,1c0,1.4,1.1,2.5,2.5,2.5
		C65.5,87.6,66.4,87.1,66.8,86.2z"/>
	<path d="M80.8,95.2l3.6-8c0.4-1.2-0.1-2.5-1.2-3.1c-1.2-0.6-2.7-0.2-3.4,1.1l-3.5,8c-0.1,0.3-0.2,0.6-0.2,1c0,1.4,1.1,2.5,2.5,2.5
		C79.5,96.6,80.4,96.1,80.8,95.2z"/>
</g>
</svg>
