<?xml version="1.0" encoding="utf-8"?>
<!-- Generator: Adobe Illustrator 24.2.1, SVG Export Plug-In . SVG Version: 6.00 Build 0)  -->
<svg version="1.1" id="Layer_1" xmlns="http://www.w3.org/2000/svg" xmlns:xlink="http://www.w3.org/1999/xlink" x="0px" y="0px"
	 viewBox="0 0 100 100" style="enable-background:new 0 0 100 100;" xml:space="preserve">
<g>
	<path d="M49.9,93.6c-24.5,0-44.5-20-44.5-44.5s20-44.5,44.5-44.5s44.5,20,44.5,44.5S74.4,93.6,49.9,93.6z M49.9,6.6
		C26.5,6.6,7.4,25.7,7.4,49.1c0,23.4,19.1,42.5,42.5,42.5c23.4,0,42.5-19.1,42.5-42.5C92.4,25.7,73.3,6.6,49.9,6.6z"/>
</g>
<g>
	<path d="M76.4,75.4L75,74c6.7-6.7,10.4-15.6,10.4-25c0-9.4-3.7-18.2-10.4-24.8c-6.7-6.7-15.6-10.4-25-10.4c0,0,0,0-0.1,0
		c-9.1,0-17.6,3.4-24.1,9.7L47.4,45L46,46.4l-23-23l0.7-0.7c7-7,16.3-10.9,26.3-10.9c10,0,19.4,3.9,26.5,10.9
		c7,7,10.9,16.3,10.9,26.3C87.4,58.9,83.5,68.3,76.4,75.4z"/>
</g>
<g>
	<path d="M50,55.3c-3.5,0-6.3-2.8-6.3-6.3s2.8-6.3,6.3-6.3s6.3,2.8,6.3,6.3S53.5,55.3,50,55.3z M50,44.7c-2.4,0-4.3,1.9-4.3,4.3
		s1.9,4.3,4.3,4.3s4.3-1.9,4.3-4.3S52.4,44.7,50,44.7z"/>
</g>
</svg>
