<?xml version="1.0" encoding="utf-8"?>
<!-- Generator: Adobe Illustrator 24.2.1, SVG Export Plug-In . SVG Version: 6.00 Build 0)  -->
<svg version="1.1" id="Layer_1" xmlns="http://www.w3.org/2000/svg" xmlns:xlink="http://www.w3.org/1999/xlink" x="0px" y="0px"
	 viewBox="0 0 100 100" style="enable-background:new 0 0 100 100;" xml:space="preserve">
<path d="M49.9,93.6c-24.5,0-44.5-20-44.5-44.5s20-44.5,44.5-44.5s44.5,20,44.5,44.5S74.4,93.6,49.9,93.6z M49.9,6.6
	C26.5,6.6,7.4,25.7,7.4,49.1c0,23.4,19.1,42.5,42.5,42.5c23.4,0,42.5-19.1,42.5-42.5C92.4,25.7,73.3,6.6,49.9,6.6z"/>
<polygon points="23.4,54.3 15.3,34.9 34.7,26.8 35.5,28.6 17.9,35.9 25.2,53.5 "/>
<polygon points="74.9,75.6 66.9,56.2 86.3,48.2 87.1,50 69.5,57.2 76.7,74.8 "/>
<rect x="41.4" y="18.1" transform="matrix(0.3816 -0.9243 0.9243 0.3816 -16.3445 67.6706)" width="2" height="55.8"/>
</svg>
