<?xml version="1.0" encoding="utf-8"?>
<!-- Generator: Adobe Illustrator 24.2.1, SVG Export Plug-In . SVG Version: 6.00 Build 0)  -->
<svg version="1.1" id="Layer_1" xmlns="http://www.w3.org/2000/svg" xmlns:xlink="http://www.w3.org/1999/xlink" x="0px" y="0px"
	 viewBox="0 0 100 100" style="enable-background:new 0 0 100 100;" xml:space="preserve">
<path d="M49.9,93.6c-24.5,0-44.5-20-44.5-44.5s20-44.5,44.5-44.5s44.5,20,44.5,44.5S74.4,93.6,49.9,93.6z M49.9,6.6
	C26.5,6.6,7.4,25.7,7.4,49.1c0,23.4,19.1,42.5,42.5,42.5c23.4,0,42.5-19.1,42.5-42.5C92.4,25.7,73.3,6.6,49.9,6.6z"/>
<polygon points="50,86.6 35.1,71.7 36.5,70.3 50,83.8 63.5,70.3 64.9,71.7 "/>
<polygon points="50,30.8 35.1,15.9 36.5,14.5 50,28 63.5,14.5 64.9,15.9 "/>
<rect x="49" y="29.4" width="2" height="55.8"/>
</svg>
