<?xml version="1.0" encoding="utf-8"?>
<!-- Generator: Adobe Illustrator 24.2.1, SVG Export Plug-In . SVG Version: 6.00 Build 0)  -->
<svg version="1.1" id="Layer_1" xmlns="http://www.w3.org/2000/svg" xmlns:xlink="http://www.w3.org/1999/xlink" x="0px" y="0px"
	 viewBox="0 0 100 100" style="enable-background:new 0 0 100 100;" xml:space="preserve">
<path d="M49.9,93.6c-24.5,0-44.5-20-44.5-44.5s20-44.5,44.5-44.5s44.5,20,44.5,44.5S74.4,93.6,49.9,93.6z M49.9,6.6
	C26.5,6.6,7.4,25.7,7.4,49.1c0,23.4,19.1,42.5,42.5,42.5c23.4,0,42.5-19.1,42.5-42.5C92.4,25.7,73.3,6.6,49.9,6.6z"/>
<polygon points="44.5,75.6 23.5,75.6 23.5,54.6 25.5,54.6 25.5,73.6 44.5,73.6 "/>
<polygon points="84,36.2 63,36.2 63,15.2 65,15.2 65,34.2 84,34.2 "/>
<rect x="16.4" y="53.9" transform="matrix(0.7081 -0.7061 0.7061 0.7081 -25.8491 47.2725)" width="55.8" height="2"/>
</svg>
