<?xml version="1.0" encoding="utf-8"?>
<!-- Generator: Adobe Illustrator 24.2.1, SVG Export Plug-In . SVG Version: 6.00 Build 0)  -->
<svg version="1.1" id="Layer_1" xmlns="http://www.w3.org/2000/svg" xmlns:xlink="http://www.w3.org/1999/xlink" x="0px" y="0px"
	 viewBox="0 0 100 100" style="enable-background:new 0 0 100 100;" xml:space="preserve">
<path d="M49.9,93.6c-24.5,0-44.5-20-44.5-44.5s20-44.5,44.5-44.5s44.5,20,44.5,44.5S74.4,93.6,49.9,93.6z M49.9,6.6
	C26.5,6.6,7.4,25.7,7.4,49.1c0,23.4,19.1,42.5,42.5,42.5c23.4,0,42.5-19.1,42.5-42.5C92.4,25.7,73.3,6.6,49.9,6.6z"/>
<polygon points="35.7,83.7 27.6,64.3 29.4,63.5 36.7,81.1 54.3,73.9 55.1,75.7 "/>
<polygon points="57.1,32.2 49,12.8 50.8,12 58.1,29.6 75.7,22.3 76.5,24.1 "/>
<rect x="19" y="55.6" transform="matrix(0.3838 -0.9234 0.9234 0.3838 -23.4124 78.2146)" width="55.8" height="2"/>
</svg>
