<?xml version="1.0" encoding="utf-8"?>
<!-- Generator: Adobe Illustrator 24.2.1, SVG Export Plug-In . SVG Version: 6.00 Build 0)  -->
<svg version="1.1" id="Layer_1" xmlns="http://www.w3.org/2000/svg" xmlns:xlink="http://www.w3.org/1999/xlink" x="0px" y="0px"
	 viewBox="0 0 100 100" style="enable-background:new 0 0 100 100;" xml:space="preserve">
<path d="M49.9,93.6c-24.5,0-44.5-20-44.5-44.5s20-44.5,44.5-44.5s44.5,20,44.5,44.5S74.4,93.6,49.9,93.6z M49.9,6.6
	C26.5,6.6,7.4,25.7,7.4,49.1c0,23.4,19.1,42.5,42.5,42.5c23.4,0,42.5-19.1,42.5-42.5C92.4,25.7,73.3,6.6,49.9,6.6z"/>
<polygon points="64.3,83.7 44.9,75.6 45.7,73.8 63.3,81.1 70.6,63.5 72.4,64.3 "/>
<polygon points="42.9,32.2 23.5,24.1 24.3,22.3 41.9,29.6 49.2,11.9 51,12.7 "/>
<rect x="52.1" y="28.8" transform="matrix(0.9235 -0.3837 0.3837 0.9235 -17.6727 24.7115)" width="2" height="55.8"/>
</svg>
