<?xml version="1.0" encoding="utf-8"?>
<!-- Generator: Adobe Illustrator 24.2.1, SVG Export Plug-In . SVG Version: 6.00 Build 0)  -->
<svg version="1.1" id="Layer_1" xmlns="http://www.w3.org/2000/svg" xmlns:xlink="http://www.w3.org/1999/xlink" x="0px" y="0px"
	 viewBox="0 0 100 100" style="enable-background:new 0 0 100 100;" xml:space="preserve">
<path d="M40,93.6c-6.8,0-10.4-4.7-10.4-9.4c0-4.8,3.9-7.8,7.5-7.8v2c-2.6,0-5.5,2.2-5.5,5.8c0,3.6,2.6,7.4,8.4,7.4
	c6.5,0,8.9-5.7,8.9-9.5V36.4h2v45.7C50.9,87.8,47.2,93.6,40,93.6z"/>
<path d="M66.7,51.5h-0.4c-0.5,0-0.9-0.4-1-0.9C64.2,43,57.7,37.4,50,37.4c-7.7,0-14.3,5.7-15.3,13.2c-0.1,0.5-0.5,0.9-1,0.9h-0.6
	c-0.5,0-0.9-0.4-1-0.9C31,43,24.5,37.4,16.8,37.4c-4.9,0-9.5,2.3-12.4,6.2c-0.3,0.4-0.9,0.5-1.3,0.3c-0.4-0.3-0.6-0.8-0.4-1.3
	c8.1-19,26.6-31.2,47.2-31.2c20.9,0,39.6,12.5,47.7,31.9c0.2,0.5,0,1-0.4,1.3c-0.5,0.2-1,0.1-1.3-0.3c-2.9-4.3-7.7-6.9-12.9-6.9
	c-7.7,0-14.3,5.7-15.3,13.2C67.6,51.1,67.2,51.5,66.7,51.5z M16.8,35.4c7.7,0,14.3,4.9,16.6,12c2.3-7,9-12,16.6-12
	c7.6,0,14.1,4.8,16.5,11.7c2.4-6.9,9-11.7,16.5-11.7c3.7,0,7.2,1.2,10.1,3.2c-8.8-15.5-25.2-25.2-43.2-25.2
	c-17.9,0-34.2,9.7-42.9,25C9.8,36.5,13.3,35.4,16.8,35.4z"/>
<path d="M52,13.5h-4.2c-0.6,0-1-0.4-1-1V8.2c0-1.7,1.4-3.1,3.1-3.1c0.9,0,1.8,0.4,2.4,1c0.5,0.6,0.8,1.4,0.7,2.2l0,4.2
	C53,13.1,52.6,13.5,52,13.5z M48.8,11.5H51V8.2c0-0.3-0.1-0.6-0.2-0.7c-0.2-0.2-0.5-0.4-0.9-0.4c-0.6,0-1.1,0.5-1.1,1.1V11.5z"/>
</svg>
