<?xml version="1.0" encoding="utf-8"?>
<!-- Generator: Adobe Illustrator 24.2.1, SVG Export Plug-In . SVG Version: 6.00 Build 0)  -->
<svg version="1.1" id="Layer_1" xmlns="http://www.w3.org/2000/svg" xmlns:xlink="http://www.w3.org/1999/xlink" x="0px" y="0px"
	 viewBox="0 0 100 100" style="enable-background:new 0 0 100 100;" xml:space="preserve">
<path d="M49.9,93.6c-24.5,0-44.5-20-44.5-44.5s20-44.5,44.5-44.5s44.5,20,44.5,44.5S74.4,93.6,49.9,93.6z M49.9,6.6
	C26.5,6.6,7.4,25.7,7.4,49.1c0,23.4,19.1,42.5,42.5,42.5c23.4,0,42.5-19.1,42.5-42.5C92.4,25.7,73.3,6.6,49.9,6.6z"/>
<polygon points="25.4,43.7 23.4,43.7 23.4,22.7 44.5,22.7 44.5,24.7 25.4,24.7 "/>
<polygon points="64.9,83.2 62.9,83.2 62.9,62.1 83.9,62.1 83.9,64.1 64.9,64.1 "/>
<rect x="43.2" y="15.5" transform="matrix(0.7062 -0.708 0.708 0.7062 -17.7564 44.0097)" width="2" height="55.8"/>
</svg>
