<?xml version="1.0" encoding="utf-8"?>
<!-- Generator: Adobe Illustrator 24.2.1, SVG Export Plug-In . SVG Version: 6.00 Build 0)  -->
<svg version="1.1" id="Layer_1" xmlns="http://www.w3.org/2000/svg" xmlns:xlink="http://www.w3.org/1999/xlink" x="0px" y="0px"
	 viewBox="0 0 100 100" style="enable-background:new 0 0 100 100;" xml:space="preserve">
<path d="M49.9,93.6c-24.5,0-44.5-20-44.5-44.5s20-44.5,44.5-44.5s44.5,20,44.5,44.5S74.4,93.6,49.9,93.6z M49.9,6.6
	C26.5,6.6,7.4,25.7,7.4,49.1c0,23.4,19.1,42.5,42.5,42.5c23.4,0,42.5-19.1,42.5-42.5C92.4,25.7,73.3,6.6,49.9,6.6z"/>
<polygon points="29.3,34.7 27.5,33.9 35.6,14.5 55,22.6 54.2,24.4 36.6,17.1 "/>
<polygon points="50.7,86.3 48.9,85.5 57,66.1 76.4,74.2 75.6,76 58,68.7 "/>
<rect x="45.8" y="13.7" transform="matrix(0.9237 -0.3831 0.3831 0.9237 -12.3662 21.1021)" width="2" height="55.9"/>
</svg>
