<?xml version="1.0" encoding="utf-8"?>
<!-- Generator: Adobe Illustrator 24.2.1, SVG Export Plug-In . SVG Version: 6.00 Build 0)  -->
<svg version="1.1" id="Layer_1" xmlns="http://www.w3.org/2000/svg" xmlns:xlink="http://www.w3.org/1999/xlink" x="0px" y="0px"
	 viewBox="0 0 100 100" style="enable-background:new 0 0 100 100;" xml:space="preserve">
<path d="M49.9,93.6c-24.5,0-44.5-20-44.5-44.5s20-44.5,44.5-44.5s44.5,20,44.5,44.5S74.4,93.6,49.9,93.6z M49.9,6.6
	C26.5,6.6,7.4,25.7,7.4,49.1c0,23.4,19.1,42.5,42.5,42.5c23.4,0,42.5-19.1,42.5-42.5C92.4,25.7,73.3,6.6,49.9,6.6z"/>
<polygon points="76.4,43.6 74.4,43.6 74.4,24.6 55.4,24.6 55.4,22.6 76.4,22.6 "/>
<polygon points="36.9,83.1 34.9,83.1 34.9,64.1 15.9,64.1 15.9,62.1 36.9,62.1 "/>
<rect x="27.7" y="42.3" transform="matrix(0.7071 -0.7071 0.7071 0.7071 -14.3534 52.0475)" width="55.9" height="2"/>
</svg>
