<?xml version="1.0" encoding="utf-8"?>
<!-- Generator: Adobe Illustrator 24.2.1, SVG Export Plug-In . SVG Version: 6.00 Build 0)  -->
<svg version="1.1" id="Layer_1" xmlns="http://www.w3.org/2000/svg" xmlns:xlink="http://www.w3.org/1999/xlink" x="0px" y="0px"
	 viewBox="0 0 100 100" style="enable-background:new 0 0 100 100;" xml:space="preserve">
<path d="M49.7,93.7c-11.2,0-20.4-9.2-20.4-20.4c0-6.7,3.5-13.2,9.1-16.9V16c0-6.2,5.1-11.3,11.3-11.3C55.9,4.7,61,9.8,61,16v40.4
	c5.7,3.7,9.1,10,9.1,16.9C70.1,84.5,60.9,93.7,49.7,93.7z M49.7,6.7c-5.1,0-9.3,4.2-9.3,9.3v41.5l-0.5,0.3
	c-5.3,3.4-8.6,9.3-8.6,15.6c0,10.1,8.3,18.4,18.4,18.4c10.1,0,18.4-8.3,18.4-18.4c0-6.4-3.2-12.2-8.6-15.5L59,57.5V16
	C59,10.9,54.8,6.7,49.7,6.7z"/>
<rect x="39.4" y="55.9" width="10.3" height="2"/>
<rect x="39.4" y="49.1" width="10.3" height="2"/>
<rect x="39.4" y="42.4" width="10.3" height="2"/>
<rect x="39.4" y="35.7" width="10.3" height="2"/>
<rect x="39.4" y="29" width="10.3" height="2"/>
<rect x="39.4" y="22.3" width="10.3" height="2"/>
</svg>
