<?xml version="1.0" encoding="utf-8"?>
<!-- Generator: Adobe Illustrator 24.2.1, SVG Export Plug-In . SVG Version: 6.00 Build 0)  -->
<svg version="1.1" id="Layer_1" xmlns="http://www.w3.org/2000/svg" xmlns:xlink="http://www.w3.org/1999/xlink" x="0px" y="0px"
	 viewBox="0 0 100 100" style="enable-background:new 0 0 100 100;" xml:space="preserve">
<path d="M79.1,96.4c-7.4,0-13.4-6-13.4-13.4h2c0,6.3,5.1,11.4,11.4,11.4c7.9,0,14.3-6.4,14.3-14.3c0-9.8-8-17.8-17.8-17.8H6.1v-2
	h69.5c10.9,0,19.8,8.9,19.8,19.8C95.4,89.1,88.1,96.4,79.1,96.4z M39.2,94.1c-4.7,0-8.5-3.8-8.5-8.5h2c0,3.5,3,6.5,6.5,6.5
	c4.5,0,8.1-3.6,8.1-8.1c0-5.6-4.5-10.1-10.1-10.1h-31v-2h31c6.7,0,12.1,5.4,12.1,12.1C49.3,89.6,44.8,94.1,39.2,94.1z M69.6,49.9
	H6.1v-2h63.5c13.1,0,23.8-10.7,23.8-23.8C93.4,13.6,84.8,5,74.3,5C65.9,5,59,11.9,59,20.3c0,6.7,5.5,12.2,12.2,12.2
	c5.4,0,9.8-4.4,9.8-9.8h2c0,6.5-5.3,11.8-11.8,11.8c-7.8,0-14.2-6.4-14.2-14.2C57,10.8,64.8,3,74.3,3c11.6,0,21.1,9.5,21.1,21.1
	C95.4,38.3,83.8,49.9,69.6,49.9z"/>
<path d="M79.1,96.4c-7.4,0-13.4-6-13.4-13.4h2c0,6.3,5.1,11.4,11.4,11.4c7.9,0,14.3-6.4,14.3-14.3c0-9.8-8-17.8-17.8-17.8H6.1v-2
	h69.5c10.9,0,19.8,8.9,19.8,19.8C95.4,89.1,88.1,96.4,79.1,96.4z M39.2,94.1c-4.7,0-8.5-3.8-8.5-8.5h2c0,3.5,3,6.5,6.5,6.5
	c4.5,0,8.1-3.6,8.1-8.1c0-5.6-4.5-10.1-10.1-10.1h-31v-2h31c6.7,0,12.1,5.4,12.1,12.1C49.3,89.6,44.8,94.1,39.2,94.1z M69.6,49.9
	H6.1v-2h63.5c13.1,0,23.8-10.7,23.8-23.8C93.4,13.6,84.8,5,74.3,5C65.9,5,59,11.9,59,20.3c0,6.7,5.5,12.2,12.2,12.2
	c5.4,0,9.8-4.4,9.8-9.8h2c0,6.5-5.3,11.8-11.8,11.8c-7.8,0-14.2-6.4-14.2-14.2C57,10.8,64.8,3,74.3,3c11.6,0,21.1,9.5,21.1,21.1
	C95.4,38.3,83.8,49.9,69.6,49.9z"/>
</svg>
