<?xml version="1.0" encoding="utf-8"?>
<!-- Generator: Adobe Illustrator 24.2.1, SVG Export Plug-In . SVG Version: 6.00 Build 0)  -->
<svg version="1.1" id="Layer_1" xmlns="http://www.w3.org/2000/svg" xmlns:xlink="http://www.w3.org/1999/xlink" x="0px" y="0px"
	 viewBox="0 0 100 100" style="enable-background:new 0 0 100 100;" xml:space="preserve">
<path d="M49.9,93.6c-24.5,0-44.5-20-44.5-44.5s20-44.5,44.5-44.5s44.5,20,44.5,44.5S74.4,93.6,49.9,93.6z M49.9,6.6
	C26.5,6.6,7.4,25.7,7.4,49.1c0,23.4,19.1,42.5,42.5,42.5c23.4,0,42.5-19.1,42.5-42.5C92.4,25.7,73.3,6.6,49.9,6.6z"/>
<polygon points="65.2,71.4 64.4,69.6 82,62.4 74.7,44.8 76.5,44 84.6,63.4 "/>
<polygon points="13.6,50.1 12.8,48.3 30.4,41 23.2,23.4 25,22.6 33,42 "/>
<rect x="56.5" y="24.3" transform="matrix(0.3831 -0.9237 0.9237 0.3831 -12.7457 85.3158)" width="2" height="55.9"/>
</svg>
