<?xml version="1.0" encoding="utf-8"?>
<!-- Generator: Adobe Illustrator 24.2.1, SVG Export Plug-In . SVG Version: 6.00 Build 0)  -->
<svg version="1.1" id="s03d" xmlns="http://www.w3.org/2000/svg" xmlns:xlink="http://www.w3.org/1999/xlink" x="0px" y="0px"
	 viewBox="0 0 100 100" style="enable-background:new 0 0 100 100;" xml:space="preserve">
<path d="M21.3,38c-2.7-5.5-0.8-12.2,4.6-15.3c5.5-3.2,12.6-1.3,15.9,4.2c0.7-0.7,1.5-1.4,2.3-2c-4.2-6.5-12.8-8.7-19.6-4.8
	c-6.6,3.8-9.1,12-6,18.8C19.4,38.6,20.3,38.3,21.3,38z"/>
<path d="M8,48.6c0.7-1.4,1.5-2.7,2.5-3.9L16,37l-9.4-4.2l9.4-4.2l-6-8.3l10.2,1l-1.1-10.2l8.4,6l4.2-9.4l4.2,9.4l8.3-6l-1,10.2
	l9.7-1c1.6-0.5,3.3-0.9,5-1.1l1.9-2.6L46.6,18l1.3-13.2l-10.8,7.8L31.7,0.4l-5.4,12.1L15.5,4.8L16.9,18L3.6,16.7l7.8,10.8l-12.2,5.4
	l12.2,5.4L3.7,49.1L8,48.6z"/>
<path d="M80.7,73.6C80.6,73.6,80.6,73.6,80.7,73.6H24.9c0,0,0,0-0.1,0c-8.9,0-16.2-7.2-16.3-16.2v-0.2c0-4.2,1.7-8.2,4.6-11.2
	c3.1-3.2,7.3-5,11.8-4.9c0.3,0,0.5,0,0.8,0c2.4-4.7,7.9-7.1,13-5.8c4.5-7.9,12.9-12.7,22-12.7l0,0c12.1,0,22.4,8.5,24.9,20.2
	c6.5,2.1,10.9,8.2,10.9,15.1c0,4.2-1.7,8.2-4.7,11.1C88.8,71.9,84.9,73.6,80.7,73.6z M80.6,70.6L80.6,70.6c3.5,0,6.7-1.3,9.1-3.7
	c2.4-2.4,3.8-5.6,3.8-9c0-5.9-3.9-11-9.6-12.5L83,45.2l-0.2-1C81,33.4,71.7,25.5,60.7,25.5l0,0c-8.5,0-16.1,4.7-20,12.2l-0.6,1.2
	l-1.3-0.5c-4.3-1.7-9.1,0.5-10.8,4.7l-0.4,1.1l-1.1-0.1C25.9,44,25.3,44,24.8,44c-3.6,0-7.1,1.5-9.6,4c-2.4,2.5-3.8,5.7-3.8,9.1v0.2
	c0.1,7.3,6,13.2,13.3,13.2l0,0L80.6,70.6L80.6,70.6z"/>
</svg>
