<?xml version="1.0" encoding="utf-8"?>
<!-- Generator: Adobe Illustrator 24.2.1, SVG Export Plug-In . SVG Version: 6.00 Build 0)  -->
<svg version="1.1" id="Layer_1" xmlns="http://www.w3.org/2000/svg" xmlns:xlink="http://www.w3.org/1999/xlink" x="0px" y="0px"
	 viewBox="0 0 100 100" style="enable-background:new 0 0 100 100;" xml:space="preserve">
<path d="M49.9,94.1c-24.8,0-45-20.2-45-45s20.2-45,45-45s45,20.2,45,45S74.7,94.1,49.9,94.1z M49.9,7.1c-23.2,0-42,18.8-42,42
	s18.8,42,42,42s42-18.8,42-42S73.1,7.1,49.9,7.1z"/>
<polygon points="34.6,72 14.7,63.8 22.9,43.9 25.7,45.1 18.7,62.2 35.8,69.2 "/>
<polygon points="86.1,50.7 66.2,42.4 74.5,22.5 77.3,23.7 70.2,40.8 87.3,47.9 "/>
<rect x="14.6" y="50.8" transform="matrix(0.9234 -0.3839 0.3839 0.9234 -16.8244 20.3026)" width="55.8" height="3"/>
</svg>
