<?xml version="1.0" encoding="utf-8"?>
<!-- Generator: Adobe Illustrator 24.2.1, SVG Export Plug-In . SVG Version: 6.00 Build 0)  -->
<svg version="1.1" id="Layer_1" xmlns="http://www.w3.org/2000/svg" xmlns:xlink="http://www.w3.org/1999/xlink" x="0px" y="0px"
	 viewBox="0 0 100 100" style="enable-background:new 0 0 100 100;" xml:space="preserve">
<path d="M49.9,94.1c-24.8,0-45-20.2-45-45s20.2-45,45-45s45,20.2,45,45S74.7,94.1,49.9,94.1z M49.9,7.1c-23.2,0-42,18.8-42,42
	s18.8,42,42,42s42-18.8,42-42S73.1,7.1,49.9,7.1z"/>
<polygon points="22.9,54.5 14.6,34.6 34.5,26.3 35.7,29.1 18.6,36.2 25.7,53.3 "/>
<polygon points="74.4,75.8 66.2,55.9 86.1,47.7 87.3,50.5 70.2,57.5 77.2,74.6 "/>
<rect x="40.9" y="18.1" transform="matrix(0.3816 -0.9243 0.9243 0.3816 -16.3442 67.6712)" width="3" height="55.8"/>
</svg>
