<?xml version="1.0" encoding="utf-8"?>
<!-- Generator: Adobe Illustrator 24.2.1, SVG Export Plug-In . SVG Version: 6.00 Build 0)  -->
<svg version="1.1" id="Layer_1" xmlns="http://www.w3.org/2000/svg" xmlns:xlink="http://www.w3.org/1999/xlink" x="0px" y="0px"
	 viewBox="0 0 100 100" style="enable-background:new 0 0 100 100;" xml:space="preserve">
<path d="M49.9,94.1c-24.8,0-45-20.2-45-45s20.2-45,45-45s45,20.2,45,45S74.7,94.1,49.9,94.1z M49.9,7.1c-23.2,0-42,18.8-42,42
	s18.8,42,42,42s42-18.8,42-42S73.1,7.1,49.9,7.1z"/>
<polygon points="44.5,76.1 23,76.1 23,54.6 26,54.6 26,73.1 44.5,73.1 "/>
<polygon points="84,36.7 62.5,36.7 62.5,15.2 65.5,15.2 65.5,33.7 84,33.7 "/>
<rect x="16.4" y="53.4" transform="matrix(0.7079 -0.7063 0.7063 0.7079 -25.8509 47.2886)" width="55.8" height="3"/>
</svg>
