<?xml version="1.0" encoding="utf-8"?>
<!-- Generator: Adobe Illustrator 24.2.1, SVG Export Plug-In . SVG Version: 6.00 Build 0)  -->
<svg version="1.1" id="Layer_1" xmlns="http://www.w3.org/2000/svg" xmlns:xlink="http://www.w3.org/1999/xlink" x="0px" y="0px"
	 viewBox="0 0 100 100" style="enable-background:new 0 0 100 100;" xml:space="preserve">
<path d="M49.9,94.1c-24.8,0-45-20.2-45-45s20.2-45,45-45s45,20.2,45,45S74.7,94.1,49.9,94.1z M49.9,7.1c-23.2,0-42,18.8-42,42
	s18.8,42,42,42s42-18.8,42-42S73.1,7.1,49.9,7.1z"/>
<polygon points="35.4,84.4 27.1,64.5 29.9,63.3 37,80.4 54.1,73.4 55.3,76.2 "/>
<polygon points="56.8,32.9 48.5,13 51.3,11.8 58.4,28.9 75.5,21.8 76.7,24.6 "/>
<rect x="19" y="55.2" transform="matrix(0.3835 -0.9235 0.9235 0.3835 -23.4045 78.2401)" width="55.8" height="3"/>
</svg>
