<?xml version="1.0" encoding="utf-8"?>
<!-- Generator: Adobe Illustrator 24.2.1, SVG Export Plug-In . SVG Version: 6.00 Build 0)  -->
<svg version="1.1" id="Layer_1" xmlns="http://www.w3.org/2000/svg" xmlns:xlink="http://www.w3.org/1999/xlink" x="0px" y="0px"
	 viewBox="0 0 100 100" style="enable-background:new 0 0 100 100;" xml:space="preserve">
<path d="M49.9,94.1c-24.8,0-45-20.2-45-45s20.2-45,45-45s45,20.2,45,45S74.7,94.1,49.9,94.1z M49.9,7.1c-23.2,0-42,18.8-42,42
	s18.8,42,42,42s42-18.8,42-42S73.1,7.1,49.9,7.1z"/>
<polygon points="64.6,84.4 44.7,76.1 45.9,73.3 63,80.4 70.1,63.3 72.9,64.5 "/>
<polygon points="43.2,32.9 23.3,24.6 24.5,21.8 41.6,28.9 48.7,11.7 51.5,12.9 "/>
<rect x="51.6" y="28.8" transform="matrix(0.9234 -0.3837 0.3837 0.9234 -17.6733 24.7128)" width="3" height="55.8"/>
</svg>
