<?xml version="1.0" encoding="utf-8"?>
<!-- Generator: Adobe Illustrator 24.2.1, SVG Export Plug-In . SVG Version: 6.00 Build 0)  -->
<svg version="1.1" id="Layer_1" xmlns="http://www.w3.org/2000/svg" xmlns:xlink="http://www.w3.org/1999/xlink" x="0px" y="0px"
	 viewBox="0 0 100 100" style="enable-background:new 0 0 100 100;" xml:space="preserve">
<path d="M49.9,94.1c-24.8,0-45-20.2-45-45s20.2-45,45-45s45,20.2,45,45S74.7,94.1,49.9,94.1z M49.9,7.1c-23.2,0-42,18.8-42,42
	s18.8,42,42,42s42-18.8,42-42S73.1,7.1,49.9,7.1z"/>
<polygon points="77,76.1 55.4,76.1 55.4,73.1 74,73.1 74,54.5 77,54.5 "/>
<polygon points="37.5,36.6 16,36.6 16,33.6 34.5,33.6 34.5,15.1 37.5,15.1 "/>
<rect x="54.3" y="26.9" transform="matrix(0.7071 -0.7071 0.7071 0.7071 -22.4559 55.4868)" width="3" height="55.9"/>
</svg>
