<?xml version="1.0" encoding="utf-8"?>
<!-- Generator: Adobe Illustrator 24.2.1, SVG Export Plug-In . SVG Version: 6.00 Build 0)  -->
<svg version="1.1" id="Layer_1" xmlns="http://www.w3.org/2000/svg" xmlns:xlink="http://www.w3.org/1999/xlink" x="0px" y="0px"
	 viewBox="0 0 100 100" style="enable-background:new 0 0 100 100;" xml:space="preserve">
<path d="M40,94.1c-7.2,0-10.9-5-10.9-9.9c0-5.1,4.2-8.3,8-8.3v3c-2.4,0-5,2-5,5.3c0,3.3,2.5,6.9,7.9,6.9c6.6,0,8.4-5.9,8.4-9V36.4h3
	v45.7C51.4,88.1,47.5,94.1,40,94.1z"/>
<path d="M66.7,52h-0.4c-0.7,0-1.4-0.5-1.5-1.3c-1.1-7.4-7.3-12.8-14.8-12.8c-7.4,0-13.8,5.5-14.8,12.8c-0.1,0.7-0.7,1.3-1.5,1.3
	h-0.6c-0.7,0-1.4-0.5-1.5-1.3c-1.1-7.4-7.3-12.8-14.8-12.8c-4.7,0-9.2,2.2-12,6c-0.5,0.6-1.3,0.8-2,0.4c-0.7-0.4-0.9-1.2-0.6-1.9
	c8.2-19.1,26.9-31.5,47.7-31.5c21.1,0,40,12.6,48.2,32.2c0.3,0.7,0,1.5-0.7,1.9c-0.7,0.4-1.5,0.2-2-0.5c-2.8-4.2-7.5-6.6-12.5-6.6
	c-7.4,0-13.8,5.5-14.8,12.8C68.1,51.4,67.4,52,66.7,52z M16.8,34.9c7.4,0,13.9,4.5,16.6,11.1c2.7-6.5,9.2-11.1,16.6-11.1
	c7.4,0,13.7,4.3,16.5,10.8c2.8-6.4,9.2-10.8,16.5-10.8c3.1,0,6,0.8,8.6,2.2c-8.9-14.3-24.6-23.2-41.7-23.2
	c-17.1,0-32.7,8.9-41.5,23.1C11,35.6,13.9,34.9,16.8,34.9z"/>
<path d="M52,14h-4.2c-0.8,0-1.5-0.7-1.5-1.5V8.2c0-2,1.6-3.6,3.6-3.6c1,0,2,0.4,2.7,1.2c0.6,0.7,0.9,1.6,0.9,2.5v4.2
	C53.5,13.3,52.8,14,52,14z M49.3,11h1.2V8.2c0,0,0-0.1,0-0.1c0-0.1,0-0.2-0.1-0.3c-0.1-0.1-0.3-0.2-0.5-0.2c-0.4,0-0.6,0.2-0.6,0.6
	V11z"/>
</svg>
