<?xml version="1.0" encoding="utf-8"?>
<!-- Generator: Adobe Illustrator 24.2.1, SVG Export Plug-In . SVG Version: 6.00 Build 0)  -->
<svg version="1.1" id="Layer_1" xmlns="http://www.w3.org/2000/svg" xmlns:xlink="http://www.w3.org/1999/xlink" x="0px" y="0px"
	 viewBox="0 0 100 100" style="enable-background:new 0 0 100 100;" xml:space="preserve">
<path d="M49.9,94.1c-24.8,0-45-20.2-45-45s20.2-45,45-45s45,20.2,45,45S74.7,94.1,49.9,94.1z M49.9,7.1c-23.2,0-42,18.8-42,42
	s18.8,42,42,42s42-18.8,42-42S73.1,7.1,49.9,7.1z"/>
<polygon points="25.9,43.7 22.9,43.7 22.9,22.2 44.5,22.2 44.5,25.2 25.9,25.2 "/>
<polygon points="65.4,83.2 62.4,83.2 62.4,61.6 83.9,61.6 83.9,64.6 65.4,64.6 "/>
<rect x="42.6" y="15.5" transform="matrix(0.7062 -0.708 0.708 0.7062 -17.7564 44.0089)" width="3" height="55.8"/>
</svg>
