<?xml version="1.0" encoding="utf-8"?>
<!-- Generator: Adobe Illustrator 24.2.1, SVG Export Plug-In . SVG Version: 6.00 Build 0)  -->
<svg version="1.1" id="Layer_1" xmlns="http://www.w3.org/2000/svg" xmlns:xlink="http://www.w3.org/1999/xlink" x="0px" y="0px"
	 viewBox="0 0 100 100" style="enable-background:new 0 0 100 100;" xml:space="preserve">
<path d="M49.9,94.1c-24.8,0-45-20.2-45-45s20.2-45,45-45s45,20.2,45,45S74.7,94.1,49.9,94.1z M49.9,7.1c-23.2,0-42,18.8-42,42
	s18.8,42,42,42s42-18.8,42-42S73.1,7.1,49.9,7.1z"/>
<polygon points="29.8,34.9 27,33.7 35.3,13.8 55.2,22.1 54,24.9 36.9,17.8 "/>
<polygon points="51.2,86.5 48.4,85.3 56.7,65.4 76.6,73.7 75.4,76.5 58.3,69.4 "/>
<rect x="45.3" y="13.7" transform="matrix(0.9237 -0.3831 0.3831 0.9237 -12.3662 21.1021)" width="3" height="55.9"/>
</svg>
