<?xml version="1.0" encoding="utf-8"?>
<!-- Generator: Adobe Illustrator 24.2.1, SVG Export Plug-In . SVG Version: 6.00 Build 0)  -->
<svg version="1.1" id="Layer_1" xmlns="http://www.w3.org/2000/svg" xmlns:xlink="http://www.w3.org/1999/xlink" x="0px" y="0px"
	 viewBox="0 0 100 100" style="enable-background:new 0 0 100 100;" xml:space="preserve">
<path d="M49.9,94.1c-24.8,0-45-20.2-45-45s20.2-45,45-45s45,20.2,45,45S74.7,94.1,49.9,94.1z M49.9,7.1c-23.2,0-42,18.8-42,42
	s18.8,42,42,42s42-18.8,42-42S73.1,7.1,49.9,7.1z"/>
<polygon points="70,34.9 62.9,17.8 45.8,24.9 44.6,22.1 64.5,13.8 72.8,33.7 "/>
<polygon points="48.6,86.5 41.5,69.3 24.4,76.4 23.2,73.6 43.1,65.3 51.4,85.3 "/>
<rect x="25.1" y="40.1" transform="matrix(0.3835 -0.9235 0.9235 0.3835 -5.6978 74.5642)" width="55.8" height="3"/>
</svg>
