<?xml version="1.0" encoding="utf-8"?>
<!-- Generator: Adobe Illustrator 24.2.1, SVG Export Plug-In . SVG Version: 6.00 Build 0)  -->
<svg version="1.1" id="Layer_1" xmlns="http://www.w3.org/2000/svg" xmlns:xlink="http://www.w3.org/1999/xlink" x="0px" y="0px"
	 viewBox="0 0 100 100" style="enable-background:new 0 0 100 100;" xml:space="preserve">
<path d="M49.9,94.1c-24.8,0-45-20.2-45-45s20.2-45,45-45s45,20.2,45,45S74.7,94.1,49.9,94.1z M49.9,7.1c-23.2,0-42,18.8-42,42
	s18.8,42,42,42s42-18.8,42-42S73.1,7.1,49.9,7.1z"/>
<polygon points="76.9,43.6 73.9,43.6 73.9,25.1 55.4,25.1 55.4,22.1 76.9,22.1 "/>
<polygon points="37.4,83.1 34.4,83.1 34.4,64.6 15.9,64.6 15.9,61.6 37.4,61.6 "/>
<rect x="27.7" y="41.9" transform="matrix(0.7071 -0.7071 0.7071 0.7071 -14.3534 52.0475)" width="55.9" height="3"/>
</svg>
