<?xml version="1.0" encoding="utf-8"?>
<!-- Generator: Adobe Illustrator 24.2.1, SVG Export Plug-In . SVG Version: 6.00 Build 0)  -->
<svg version="1.1" id="Layer_1" xmlns="http://www.w3.org/2000/svg" xmlns:xlink="http://www.w3.org/1999/xlink" x="0px" y="0px"
	 viewBox="0 0 100 100" style="enable-background:new 0 0 100 100;" xml:space="preserve">
<path d="M49.7,94.2c-11.5,0-20.9-9.4-20.9-20.9c0-6.8,3.5-13.3,9.1-17.2V16c0-6.5,5.3-11.8,11.8-11.8S61.5,9.5,61.5,16v40.1
	c5.7,3.9,9.1,10.2,9.1,17.2C70.6,84.8,61.2,94.2,49.7,94.2z M49.7,7.2c-4.9,0-8.8,3.9-8.8,8.8v41.7l-0.7,0.4
	c-5.2,3.3-8.4,9.1-8.4,15.1c0,9.9,8,17.9,17.9,17.9s17.9-8,17.9-17.9c0-6.2-3.1-11.9-8.4-15.1l-0.7-0.4V16
	C58.5,11.1,54.6,7.2,49.7,7.2z"/>
<rect x="39.4" y="55.4" width="10.3" height="3"/>
<rect x="39.4" y="48.6" width="10.3" height="3"/>
<rect x="39.4" y="41.9" width="10.3" height="3"/>
<rect x="39.4" y="35.2" width="10.3" height="3"/>
<rect x="39.4" y="28.5" width="10.3" height="3"/>
<rect x="39.4" y="21.8" width="10.3" height="3"/>
</svg>
