<?xml version="1.0" encoding="utf-8"?>
<!-- Generator: Adobe Illustrator 24.2.1, SVG Export Plug-In . SVG Version: 6.00 Build 0)  -->
<svg version="1.1" id="Layer_1" xmlns="http://www.w3.org/2000/svg" xmlns:xlink="http://www.w3.org/1999/xlink" x="0px" y="0px"
	 viewBox="0 0 100 100" style="enable-background:new 0 0 100 100;" xml:space="preserve">
<path d="M49.9,94.1c-24.8,0-45-20.2-45-45s20.2-45,45-45s45,20.2,45,45S74.7,94.1,49.9,94.1z M49.9,7.1c-23.2,0-42,18.8-42,42
	s18.8,42,42,42s42-18.8,42-42S73.1,7.1,49.9,7.1z"/>
<polygon points="72.9,64.3 70.7,62.1 83.9,49.1 70.7,36 72.9,33.8 88.1,49.1 "/>
<polygon points="17.1,64.3 14.9,62.1 28.1,49.1 14.9,36 17.1,33.8 32.3,49.1 "/>
<rect x="30.2" y="47.6" width="55.8" height="3"/>
</svg>
