<?xml version="1.0" encoding="utf-8"?>
<!-- Generator: Adobe Illustrator 24.2.1, SVG Export Plug-In . SVG Version: 6.00 Build 0)  -->
<svg version="1.1" id="Layer_1" xmlns="http://www.w3.org/2000/svg" xmlns:xlink="http://www.w3.org/1999/xlink" x="0px" y="0px"
	 viewBox="0 0 100 100" style="enable-background:new 0 0 100 100;" xml:space="preserve">
<path d="M79.1,96.9c-7.7,0-13.9-6.2-13.9-13.9h3c0,6,4.9,10.9,10.9,10.9c7.6,0,13.8-6.2,13.8-13.8c0-9.5-7.8-17.3-17.3-17.3H6.1v-3
	h69.5c11.2,0,20.3,9.1,20.3,20.3C95.9,89.4,88.4,96.9,79.1,96.9z M39.2,94.6c-5,0-9-4-9-9h3c0,3.3,2.7,6,6,6c4.2,0,7.6-3.4,7.6-7.6
	c0-5.3-4.3-9.6-9.6-9.6h-31v-3h31c6.9,0,12.6,5.7,12.6,12.6C49.8,89.8,45,94.6,39.2,94.6z M69.6,50.4H6.1v-3h63.5
	c12.8,0,23.3-10.5,23.3-23.3c0-10.3-8.3-18.6-18.6-18.6c-8.2,0-14.8,6.6-14.8,14.8c0,6.5,5.2,11.7,11.7,11.7c5.2,0,9.3-4.1,9.3-9.3
	h3C83.5,29.5,78,35,71.2,35c-8.1,0-14.7-6.6-14.7-14.7c0-9.8,8-17.8,17.8-17.8c11.9,0,21.6,9.7,21.6,21.6
	C95.9,38.6,84.1,50.4,69.6,50.4z"/>
<path d="M79.1,96.9c-7.7,0-13.9-6.2-13.9-13.9h3c0,6,4.9,10.9,10.9,10.9c7.6,0,13.8-6.2,13.8-13.8c0-9.5-7.8-17.3-17.3-17.3H6.1v-3
	h69.5c11.2,0,20.3,9.1,20.3,20.3C95.9,89.4,88.4,96.9,79.1,96.9z M39.2,94.6c-5,0-9-4-9-9h3c0,3.3,2.7,6,6,6c4.2,0,7.6-3.4,7.6-7.6
	c0-5.3-4.3-9.6-9.6-9.6h-31v-3h31c6.9,0,12.6,5.7,12.6,12.6C49.8,89.8,45,94.6,39.2,94.6z M69.6,50.4H6.1v-3h63.5
	c12.8,0,23.3-10.5,23.3-23.3c0-10.3-8.3-18.6-18.6-18.6c-8.2,0-14.8,6.6-14.8,14.8c0,6.5,5.2,11.7,11.7,11.7c5.2,0,9.3-4.1,9.3-9.3
	h3C83.5,29.5,78,35,71.2,35c-8.1,0-14.7-6.6-14.7-14.7c0-9.8,8-17.8,17.8-17.8c11.9,0,21.6,9.7,21.6,21.6
	C95.9,38.6,84.1,50.4,69.6,50.4z"/>
</svg>
