<?xml version="1.0" encoding="utf-8"?>
<!-- Generator: Adobe Illustrator 24.2.1, SVG Export Plug-In . SVG Version: 6.00 Build 0)  -->
<svg version="1.1" id="Layer_1" xmlns="http://www.w3.org/2000/svg" xmlns:xlink="http://www.w3.org/1999/xlink" x="0px" y="0px"
	 viewBox="0 0 100 100" style="enable-background:new 0 0 100 100;" xml:space="preserve">
<path d="M49.9,94.1c-24.8,0-45-20.2-45-45s20.2-45,45-45s45,20.2,45,45S74.7,94.1,49.9,94.1z M49.9,7.1c-23.2,0-42,18.8-42,42
	s18.8,42,42,42s42-18.8,42-42S73.1,7.1,49.9,7.1z"/>
<polygon points="65.4,71.9 64.2,69.1 81.3,62.1 74.2,45 77,43.8 85.3,63.7 "/>
<polygon points="13.8,50.6 12.6,47.8 29.7,40.7 22.7,23.6 25.5,22.4 33.7,42.3 "/>
<rect x="56" y="24.3" transform="matrix(0.3831 -0.9237 0.9237 0.3831 -12.7457 85.3158)" width="3" height="55.9"/>
</svg>
