<?xml version="1.0" encoding="utf-8"?>
<!-- Generator: Adobe Illustrator 24.2.1, SVG Export Plug-In . SVG Version: 6.00 Build 0)  -->
<svg version="1.1" id="Layer_1" xmlns="http://www.w3.org/2000/svg" xmlns:xlink="http://www.w3.org/1999/xlink" x="0px" y="0px"
	 viewBox="0 0 100 100" style="enable-background:new 0 0 100 100;" xml:space="preserve">
<path d="M49.9,94.1c-24.8,0-45-20.2-45-45s20.2-45,45-45s45,20.2,45,45S74.7,94.1,49.9,94.1z M49.9,7.1c-23.2,0-42,18.8-42,42
	s18.8,42,42,42s42-18.8,42-42S73.1,7.1,49.9,7.1z"/>
<polygon points="77,54.4 74.2,53.2 81.2,36.1 64.1,29 65.3,26.2 85.2,34.5 "/>
<polygon points="25.4,75.7 22.6,74.5 29.7,57.4 12.6,50.4 13.8,47.6 33.7,55.8 "/>
<rect x="29.6" y="44.4" transform="matrix(0.9241 -0.3823 0.3823 0.9241 -13.2016 25.4503)" width="55.7" height="3"/>
</svg>
