<?xml version="1.0" encoding="utf-8"?>
<!-- Generator: Adobe Illustrator 24.2.1, SVG Export Plug-In . SVG Version: 6.00 Build 0)  -->
<svg version="1.1" id="Layer_1" xmlns="http://www.w3.org/2000/svg" xmlns:xlink="http://www.w3.org/1999/xlink" x="0px" y="0px"
	 viewBox="0 0 100 100" style="enable-background:new 0 0 100 100;" xml:space="preserve">
<g id="s01d">
	<g id="sun">
		<path d="M50,91.2l-7.1-15.8l-14,10.2l1.8-17.3l-17.2,1.8L23.6,56L7.8,49l15.8-7.1l-10.2-14l17.3,1.8l-1.8-17.2L43,22.6l7-15.8
			l7.1,15.8l14-10.2l-1.8,17.3l17.2-1.8l-10.1,14L92.2,49l-15.8,7.1l10.2,14l-17.3-1.7l1.8,17.2L57,75.4L50,91.2z M43.3,73.9
			L50,88.8l6.6-14.9l13.3,9.6l-1.7-16.2l16.2,1.6l-9.6-13.2l15-6.7l-14.9-6.7L84.4,29l-16.2,1.7l1.6-16.2l-13.2,9.6L50,9.2
			l-6.7,14.9L30,14.6l1.7,16.2l-16.2-1.6l9.6,13.2L10.2,49l14.9,6.6l-9.5,13.3l16.2-1.7l-1.6,16.2L43.3,73.9z"/>
		<path d="M50,70.5c-1.9,0-3.7-0.2-5.6-0.7c-5.5-1.5-10.2-5-13-10v-0.1c-5.9-10.3-2.4-23.4,7.9-29.4c10.3-5.9,23.4-2.4,29.4,7.9
			c2.9,5,3.6,10.8,2.1,16.3s-5,10.2-10,13.1C57.4,69.5,53.8,70.5,50,70.5z M32.2,59.2L32.2,59.2c2.8,4.8,7.2,8.2,12.5,9.6
			s10.8,0.7,15.6-2s8.1-7.2,9.6-12.4c1.4-5.3,0.7-10.8-2-15.6c-5.7-9.8-18.2-13.2-28-7.5C30,36.9,26.6,49.4,32.2,59.2z"/>
	</g>
</g>
</svg>
