<?xml version="1.0" encoding="utf-8"?>
<!-- Generator: Adobe Illustrator 24.2.1, SVG Export Plug-In . SVG Version: 6.00 Build 0)  -->
<svg version="1.1" id="Layer_1" xmlns="http://www.w3.org/2000/svg" xmlns:xlink="http://www.w3.org/1999/xlink" x="0px" y="0px"
	 viewBox="0 0 100 100" style="enable-background:new 0 0 100 100;" xml:space="preserve">
<g id="s01m">
	<path d="M50,77.2l-7.1-15.8l-14,10.2l1.8-17.3l-17.2,1.8L23.6,42L6.7,34.5h86.6L76.4,42l10.2,14l-17.3-1.7l1.8,17.2L57,61.4
		L50,77.2z M43.3,59.9L50,74.8l6.6-14.9l13.3,9.6l-1.7-16.2l16.2,1.6l-9.6-13.2l13.7-6.1H11.4l13.7,6.1L15.6,55l16.2-1.7l-1.6,16.2
		L43.3,59.9z"/>
	<path d="M50,56.5c-1.9,0-3.7-0.2-5.6-0.7c-5.5-1.5-10.2-5-13.1-10c-1.9-3.2-2.9-7-2.9-10.7v-0.5h43v0.5c0,7.7-4.1,14.8-10.7,18.6
		C57.4,55.5,53.8,56.5,50,56.5z M29.5,35.5c0.1,3.4,1,6.8,2.7,9.7c2.7,4.7,7.2,8.1,12.5,9.6c5.3,1.4,10.8,0.7,15.6-2
		c6.1-3.6,10-10.1,10.2-17.2h-41V35.5z"/>
	<rect x="2" y="34.5" width="96" height="1"/>
</g>
</svg>
