<?xml version="1.0" encoding="utf-8"?>
<!-- Generator: Adobe Illustrator 24.2.1, SVG Export Plug-In . SVG Version: 6.00 Build 0)  -->
<svg version="1.1" id="Layer_1" xmlns="http://www.w3.org/2000/svg" xmlns:xlink="http://www.w3.org/1999/xlink" x="0px" y="0px"
	 viewBox="0 0 100 100" style="enable-background:new 0 0 100 100;" xml:space="preserve">
<g id="s01n">
	<g id="moon">
		<path d="M45.8,76.5c-2.5,0-5.1-0.3-7.6-1c-7.5-2-13.8-6.8-17.7-13.5l-0.4-1l1,0.1c1.2,0.2,2.4,0.3,3.6,0.3
			c15.5,0,28.1-12.6,28.1-28.1c0-4.9-1.3-9.8-3.8-14.1l-0.5-0.9l1,0.1c8.9,1.2,16.9,6.5,21.4,14.3l0,0c3.9,6.7,4.9,14.6,2.9,22.1
			S67,68.6,60.3,72.5C55.8,75.1,50.8,76.5,45.8,76.5z M22,62.3c3.8,6,9.6,10.4,16.5,12.2c7.2,1.9,14.8,0.9,21.3-2.8
			c6.5-3.8,11.1-9.8,13.1-17.1c1.9-7.2,0.9-14.8-2.8-21.3l0,0C65.9,26.1,58.6,21,50.4,19.6c2.3,4.2,3.4,8.9,3.4,13.7
			c0,16.1-13.1,29.1-29.1,29.1C23.8,62.4,22.9,62.4,22,62.3z"/>
	</g>
</g>
</svg>
