<?xml version="1.0" encoding="utf-8"?>
<!-- Generator: Adobe Illustrator 24.0.3, SVG Export Plug-In . SVG Version: 6.00 Build 0)  -->
<svg version="1.1" id="Layer_1" xmlns="http://www.w3.org/2000/svg" xmlns:xlink="http://www.w3.org/1999/xlink" x="0px" y="0px"
	 viewBox="0 0 100 100" style="enable-background:new 0 0 100 100;" xml:space="preserve">
<g id="s02d">
	<path d="M43.8,69.5c-1.7,0-3.4-0.2-5.1-0.7c-5.3-1.5-9.7-4.8-12.5-9.6c-5.7-9.7-2.3-22.3,7.7-27.9c9.8-5.7,22.3-2.3,28,7.5
		c0.3,0.5,0.5,1,0.7,1.5c0.2-0.3,0.5-0.5,0.7-0.7c-0.2-0.4-0.4-0.9-0.7-1.3c-6-10.3-19.1-13.8-29.4-7.9c-10.3,6-13.8,19.1-7.9,29.4
		v0.1c2.8,5,7.5,8.5,13,10c1.9,0.5,3.7,0.7,5.6,0.7c0.2,0,0.5,0,0.7,0C44.4,70.2,44.1,69.8,43.8,69.5z"/>
	<path d="M62.9,74.4l1,9.1l-13.3-9.6L44,88.8l-6.7-14.9l-13.1,9.5l1.6-16.2L9.6,68.9l9.5-13.3L4.2,49l14.9-6.6L9.5,29.2l16.2,1.6
		L24,14.6l13.3,9.5L44,9.2l6.6,14.9l13.2-9.6l-1.6,16.2L78.4,29l-3.8,5.3c0.4-0.1,0.9-0.1,1.4-0.1l4.5-6.2l-17.2,1.8l1.8-17.3
		l-14,10.2L44,6.8l-7,15.8L22.9,12.5l1.8,17.2L7.4,27.9l10.2,14L1.8,49l15.8,7L7.5,70.2l17.2-1.9l-1.8,17.3l14-10.2L44,91.2l7-15.8
		l14.1,10.2l-1.2-11.2C63.9,74.4,62.9,74.4,62.9,74.4z"/>
	<path d="M89.7,69.9C89.7,69.9,89.6,69.9,89.7,69.9H54.5l0,0c-5.4,0-9.8-4.4-9.8-9.7V60c0-2.5,1-4.9,2.8-6.8c1.8-1.9,4.4-3,7-3
		c0.3,0,0.5,0,0.8,0c1.4-3.1,4.9-4.6,8.1-3.6c2.7-5,7.9-8.1,13.7-8.1l0,0c7.5,0,13.9,5.3,15.3,12.7c4,1.2,6.8,4.9,6.8,9.2
		c0,2.5-1,4.9-2.8,6.7C94.6,69,92.2,69.9,89.7,69.9z M89.6,68.9c2.3,0,4.4-0.9,6-2.5s2.5-3.7,2.5-6c0-3.9-2.6-7.3-6.4-8.3L91.4,52
		l-0.1-0.3c-1.2-7-7.2-12.1-14.4-12.1l0,0c-5.5,0-10.5,3-13,7.9V48l-0.4-0.2c-2.9-1.1-6.2,0.3-7.4,3.2L56,51.4h-0.4
		c-0.3,0-0.7-0.1-1.1-0.1c-2.4,0-4.7,1-6.3,2.7c-1.6,1.6-2.5,3.8-2.5,6.1v0.1c0,4.8,4,8.7,8.8,8.7l0,0H89.6z"/>
</g>
</svg>
