<?xml version="1.0" encoding="utf-8"?>
<!-- Generator: Adobe Illustrator 24.0.3, SVG Export Plug-In . SVG Version: 6.00 Build 0)  -->
<svg version="1.1" id="Layer_1" xmlns="http://www.w3.org/2000/svg" xmlns:xlink="http://www.w3.org/1999/xlink" x="0px" y="0px"
	 viewBox="0 0 100 100" style="enable-background:new 0 0 100 100;" xml:space="preserve">
<g id="s02m">
	<rect x="2" y="34.5" width="96" height="1"/>
	<path d="M40.2,63.3c0-0.4,0.1-0.9,0.1-1.3l-10.1,7.4l1.6-16.2L15.6,55l9.5-13.3l-13.7-6.1h77.1l-6.8,3c0.5,0.1,1,0.2,1.4,0.4
		l10.2-4.5H6.7L23.6,42L13.5,56.1l17.2-1.8l-1.8,17.3L40.2,63.3z"/>
	<path d="M43.9,54.5c-4.9-1.6-9.1-4.9-11.7-9.3c-1.7-2.9-2.6-6.2-2.7-9.6h41c0,1.3-0.2,2.5-0.5,3.8c0.3-0.1,0.7-0.2,1-0.3
		c0.2-1.3,0.4-2.6,0.4-3.9v-0.5h-43v0.5c0,3.7,1,7.5,2.9,10.7c2.7,4.6,6.9,7.9,11.9,9.6C43.4,55.1,43.6,54.8,43.9,54.5z"/>
	<path d="M89.7,73.9C89.7,73.9,89.6,73.9,89.7,73.9H54.5l0,0c-5.4,0-9.8-4.4-9.8-9.7V64c0-2.5,1-4.9,2.8-6.8c1.8-1.9,4.4-3,7-3
		c0.3,0,0.5,0,0.8,0c1.4-3.1,4.9-4.6,8.1-3.6c2.7-5,7.9-8.1,13.7-8.1l0,0c7.5,0,13.9,5.3,15.3,12.7c4,1.2,6.8,4.9,6.8,9.2
		c0,2.5-1,4.9-2.8,6.7C94.6,73,92.2,73.9,89.7,73.9z M89.6,72.9C89.6,72.9,89.7,72.9,89.6,72.9c2.3,0,4.4-0.9,6-2.5s2.5-3.7,2.5-6
		c0-3.9-2.6-7.3-6.4-8.3L91.4,56l-0.1-0.3c-1.2-7-7.2-12.1-14.4-12.1l0,0c-5.5,0-10.5,3-13,7.9V52l-0.4-0.2
		c-2.9-1.1-6.2,0.3-7.4,3.2L56,55.4h-0.4c-0.3,0-0.7-0.1-1.1-0.1c-2.4,0-4.7,1-6.3,2.7c-1.6,1.6-2.5,3.8-2.5,6.1v0.1
		c0,4.8,4,8.7,8.8,8.7l0,0H89.6z"/>
</g>
</svg>
