<?xml version="1.0" encoding="utf-8"?>
<!-- Generator: Adobe Illustrator 24.2.1, SVG Export Plug-In . SVG Version: 6.00 Build 0)  -->
<svg version="1.1" id="Layer_1" xmlns="http://www.w3.org/2000/svg" xmlns:xlink="http://www.w3.org/1999/xlink" x="0px" y="0px"
	 viewBox="0 0 100 100" style="enable-background:new 0 0 100 100;" xml:space="preserve">
<g id="s03d">
	<path d="M18.7,36.5c-2.8-6.5-0.4-14.3,5.9-18c6.4-3.7,14.6-1.8,18.8,4.2c0.3-0.2,0.5-0.4,0.8-0.6c-4.5-6.4-13.2-8.4-20.1-4.5
		c-6.7,3.9-9.4,12.2-6.4,19.2C18.1,36.7,18.4,36.6,18.7,36.5z"/>
	<path d="M13,35.9l-7.2,10l1.7-0.2c0.2-0.4,0.4-0.7,0.6-1.1H7.9l6.6-9.2L4.2,30.9l10.3-4.6l-6.6-9.1l11.2,1.1L18,7l9.2,6.6l4.6-10.3
		l4.6,10.3L45.5,7l-1.1,11.2L55.6,17l-0.3,0.4c0.5-0.1,0.9-0.2,1.4-0.2l1-1.5L45.5,17l1.2-12.2L36.8,12l-5-11.2l-5,11.2l-10-7.2
		L18,17.1L5.8,15.9l7.2,9.9l-11.2,5L13,35.9z"/>
	<path d="M80.7,70.6C80.6,70.6,80.6,70.6,80.7,70.6H24.9c-8.4,0-15.3-6.8-15.4-15.2v-0.2c0-4,1.6-7.7,4.3-10.5
		c2.9-2.9,6.9-4.6,11-4.6c0.5,0,1,0,1.4,0.1c2.2-4.9,7.8-7.4,12.9-5.6c4.3-8,12.5-12.9,21.6-12.9l0,0c11.8,0,21.9,8.4,24,20
		c6.4,1.8,10.8,7.6,10.8,14.3c0,4-1.6,7.7-4.4,10.4C88.3,69,84.6,70.6,80.7,70.6z M24.9,69.6h55.7c0,0,0,0,0.1,0
		c3.7,0,7.1-1.4,9.7-4s4.1-6.1,4.1-9.7c0-6.3-4.2-11.8-10.3-13.4l-0.3-0.1L83.8,42c-1.9-11.3-11.6-19.5-23.1-19.5l0,0
		c-8.9,0-16.8,4.9-20.9,12.8l-0.2,0.4l-0.4-0.2C34.4,33.7,29,36,27.1,40.8L27,41.2h-0.4C26,41,25.4,41,24.8,41
		c-3.8,0-7.6,1.6-10.3,4.3c-2.6,2.6-4,6.1-4.1,9.8v0.2C10.6,63.2,17,69.6,24.9,69.6C24.8,69.6,24.9,69.6,24.9,69.6z"/>
</g>
</svg>
