<?xml version="1.0" encoding="utf-8"?>
<!-- Generator: Adobe Illustrator 24.2.1, SVG Export Plug-In . SVG Version: 6.00 Build 0)  -->
<svg version="1.1" id="Layer_1" xmlns="http://www.w3.org/2000/svg" xmlns:xlink="http://www.w3.org/1999/xlink" x="0px" y="0px"
	 viewBox="0 0 100 100" style="enable-background:new 0 0 100 100;" xml:space="preserve">
<g id="s03n">
	<path d="M9.8,42.5c0.2-0.3,0.4-0.5,0.7-0.7c-2.1-1.4-4-3.3-5.4-5.6c0.6,0,1.1,0.1,1.7,0.1c11.6,0,21-9.4,21-21
		c0-3.4-0.8-6.7-2.3-9.6c5.7,1,10.8,4.6,13.8,9.7c1.6,2.8,2.4,5.8,2.6,8.8c0.3-0.3,0.6-0.5,1-0.8c-0.3-3-1.2-5.8-2.7-8.5
		c-3.3-5.6-9-9.5-15.5-10.3l-1-0.1L24,5.2c1.8,3,2.7,6.5,2.7,10c0,11-9,20-20,20c-0.9,0-1.7-0.1-2.6-0.2l-1-0.1l0.5,0.9
		C5.2,38.5,7.3,40.8,9.8,42.5z"/>
	<path d="M80.7,70.6C80.6,70.6,80.6,70.6,80.7,70.6H24.9c-8.4,0-15.3-6.8-15.4-15.2v-0.2c0-4,1.6-7.7,4.3-10.5
		c2.9-2.9,6.9-4.6,11-4.6c0.5,0,1,0,1.4,0.1c2.2-4.9,7.8-7.4,12.9-5.6c4.3-8,12.5-12.9,21.6-12.9l0,0c11.8,0,21.9,8.4,24,20
		c6.4,1.8,10.8,7.6,10.8,14.3c0,4-1.6,7.7-4.4,10.4C88.3,69,84.6,70.6,80.7,70.6z M24.9,69.6h55.7c0,0,0,0,0.1,0
		c3.7,0,7.1-1.4,9.7-4s4.1-6.1,4.1-9.7c0-6.3-4.2-11.8-10.3-13.4l-0.3-0.1L83.8,42c-1.9-11.3-11.6-19.5-23.1-19.5l0,0
		c-8.9,0-16.8,4.9-20.9,12.8l-0.2,0.4l-0.4-0.2C34.4,33.7,29,36,27.1,40.8L27,41.2h-0.4C26,41,25.4,41,24.8,41
		c-3.8,0-7.6,1.6-10.3,4.3c-2.6,2.6-4,6.1-4.1,9.8v0.2C10.6,63.2,17,69.6,24.9,69.6C24.8,69.6,24.9,69.6,24.9,69.6z"/>
</g>
</svg>
