<?xml version="1.0" encoding="utf-8"?>
<!-- Generator: Adobe Illustrator 24.2.1, SVG Export Plug-In . SVG Version: 6.00 Build 0)  -->
<svg version="1.1" id="Layer_1" xmlns="http://www.w3.org/2000/svg" xmlns:xlink="http://www.w3.org/1999/xlink" x="0px" y="0px"
	 viewBox="0 0 100 100" style="enable-background:new 0 0 100 100;" xml:space="preserve">
<g id="s03m">
	<path d="M50.6,18.8H0.7v1h47.5C49,19.4,49.8,19.1,50.6,18.8z"/>
	<path d="M21.2,26.9c1.4,2.4,3.3,4.3,5.5,5.5c0.3-0.2,0.6-0.4,0.9-0.6c-2.3-1.2-4.2-3-5.6-5.4c-1.2-2-1.8-4.3-1.9-6.6h28
		c0.5-0.2,0.9-0.4,1.4-0.6v-0.4H19.2v0.5C19.2,22,19.9,24.6,21.2,26.9z"/>
	<path d="M8.4,34.3L20.7,33l-0.3,3c0.3-0.1,0.7-0.1,1-0.2l0.4-3.9l-11.2,1.2l6.6-9.2L8,19.8h40.2c0.8-0.4,1.6-0.7,2.4-1H3.3
		l12.3,5.5L8.4,34.3z"/>
	<path d="M80.7,70.6C80.6,70.6,80.6,70.6,80.7,70.6H24.9c-8.4,0-15.3-6.8-15.4-15.2v-0.2c0-4,1.6-7.7,4.3-10.5
		c2.9-2.9,6.9-4.6,11-4.6c0.5,0,1,0,1.4,0.1c2.2-4.9,7.8-7.4,12.9-5.6c4.3-8,12.5-12.9,21.6-12.9l0,0c11.8,0,21.9,8.4,24,20
		c6.4,1.8,10.8,7.6,10.8,14.3c0,4-1.6,7.7-4.4,10.4C88.3,69,84.6,70.6,80.7,70.6z M24.9,69.6h55.7c0,0,0,0,0.1,0
		c3.7,0,7.1-1.4,9.7-4s4.1-6.1,4.1-9.7c0-6.3-4.2-11.8-10.3-13.4l-0.3-0.1L83.8,42c-1.9-11.3-11.6-19.5-23.1-19.5l0,0
		c-8.9,0-16.8,4.9-20.9,12.8l-0.2,0.4l-0.4-0.2C34.4,33.7,29,36,27.1,40.8L27,41.2h-0.4C26,41,25.4,41,24.8,41
		c-3.8,0-7.6,1.6-10.3,4.3c-2.6,2.6-4,6.1-4.1,9.8v0.2C10.6,63.2,17,69.6,24.9,69.6C24.8,69.6,24.9,69.6,24.9,69.6z"/>
</g>
<g id="s07__x28__x2B_03_x29_">
	<path d="M64.5,90.3c-1.7,0-3-1.4-3-3c0-0.4,0.1-0.8,0.2-1.2l3.6-8c0.4-0.7,1-1.3,1.8-1.5s1.6-0.2,2.3,0.2c1.3,0.7,1.9,2.3,1.4,3.7
		l-3.6,8C66.8,89.6,65.7,90.3,64.5,90.3z M68,77.4c-0.2,0-0.4,0-0.6,0.1c-0.5,0.2-0.9,0.5-1.2,1l-3.5,8c-0.1,0.2-0.2,0.5-0.2,0.8
		c0,1.1,0.9,2,2,2c0.8,0,1.5-0.5,1.8-1.2l0,0l3.5-8c0.3-0.9-0.1-2-1-2.4C68.7,77.5,68.3,77.4,68,77.4z"/>
	<path d="M50.5,96.3c-1.7,0-3-1.4-3-3c0-0.4,0.1-0.8,0.2-1.2l3.6-8c0.4-0.7,1-1.3,1.8-1.5s1.6-0.2,2.3,0.2c1.3,0.7,1.9,2.3,1.4,3.7
		l-3.6,8C52.8,95.6,51.7,96.3,50.5,96.3z M54,83.4c-0.2,0-0.4,0-0.6,0.1c-0.5,0.2-0.9,0.5-1.2,1l-3.5,8c-0.1,0.2-0.2,0.5-0.2,0.8
		c0,1.1,0.9,2,2,2c0.8,0,1.5-0.5,1.8-1.2l0,0l3.5-8c0.3-0.9-0.1-2-1-2.4C54.7,83.5,54.3,83.4,54,83.4z"/>
	<path d="M41.1,88.1c-0.6,0-1.3-0.3-1.6-0.9l-1-1.7l-1,1.7C37,88,35.9,88.3,35,87.8s-1.2-1.6-0.7-2.5l1-1.7h-2c-1,0-1.9-0.8-1.9-1.9
		c0-1,0.8-1.8,1.9-1.8h2l-1-1.7c-0.5-0.9-0.2-2,0.7-2.5s2-0.2,2.5,0.7l1,1.7l1-1.7c0,0,0.1-0.1,0.1-0.2c0.3-0.4,0.7-0.7,1.2-0.8
		c0.5-0.1,1,0,1.4,0.3s0.7,0.7,0.8,1.2s0,1-0.3,1.4l-1,1.7h2c0.5,0,1,0.2,1.3,0.5s0.5,0.8,0.5,1.3c0,1-0.8,1.8-1.9,1.8h-2l1,1.7
		c0.2,0.4,0.3,0.9,0.2,1.4s-0.4,0.9-0.9,1.1C41.8,88,41.5,88.1,41.1,88.1z M38.6,83.4l1.9,3.2c0.2,0.4,0.8,0.5,1.2,0.3
		c0.2-0.1,0.3-0.3,0.4-0.5s0-0.4-0.1-0.6l-2-3.2h3.7c0.5,0,0.9-0.4,0.9-0.8c0-0.2-0.1-0.4-0.2-0.6C44.2,81,44,81,43.8,81H40l1.9-3.2
		c0.1-0.2,0.2-0.4,0.2-0.7c0-0.2-0.2-0.4-0.4-0.5s-0.4-0.2-0.6-0.1c-0.2,0-0.4,0.2-0.5,0.4c0,0,0,0.1-0.1,0.1l-1.9,3l-1.8-3.2
		c-0.2-0.4-0.8-0.5-1.2-0.3s-0.5,0.7-0.3,1.1l1.8,3.2h-3.7c-0.5,0-0.9,0.4-0.9,0.8s0.4,0.9,0.9,0.9h3.7l-1.9,3.2
		c-0.2,0.4-0.1,0.9,0.3,1.2c0.4,0.2,0.9,0.1,1.2-0.3L38.6,83.4z"/>
</g>
</svg>
