<?xml version="1.0" encoding="utf-8"?>
<!-- Generator: Adobe Illustrator 24.2.1, SVG Export Plug-In . SVG Version: 6.00 Build 0)  -->
<svg version="1.1" id="Layer_1" xmlns="http://www.w3.org/2000/svg" xmlns:xlink="http://www.w3.org/1999/xlink" x="0px" y="0px"
	 viewBox="0 0 100 100" style="enable-background:new 0 0 100 100;" xml:space="preserve">
<g id="s04">
	<path d="M80.7,70.6C80.6,70.6,80.6,70.6,80.7,70.6H24.9c-8.4,0-15.3-6.8-15.4-15.2v-0.2c0-4,1.6-7.7,4.3-10.5
		c2.9-2.9,6.9-4.6,11-4.6c0.5,0,1,0,1.4,0.1c2.2-4.9,7.8-7.4,12.9-5.6c4.3-8,12.5-12.9,21.6-12.9l0,0c11.8,0,21.9,8.4,24,20
		c6.4,1.8,10.8,7.6,10.8,14.3c0,4-1.6,7.7-4.4,10.4C88.3,69,84.6,70.6,80.7,70.6z M24.9,69.6h55.7c0,0,0,0,0.1,0
		c3.7,0,7.1-1.4,9.7-4s4.1-6.1,4.1-9.7c0-6.3-4.2-11.8-10.3-13.4l-0.3-0.1L83.8,42c-1.9-11.3-11.6-19.5-23.1-19.5l0,0
		c-8.9,0-16.8,4.9-20.9,12.8l-0.2,0.4l-0.4-0.2C34.4,33.7,29,36,27.1,40.8L27,41.2h-0.4C26,41,25.4,41,24.8,41
		c-3.8,0-7.6,1.6-10.3,4.3c-2.6,2.6-4,6.1-4.1,9.8v0.2C10.6,63.2,17,69.6,24.9,69.6C24.8,69.6,24.9,69.6,24.9,69.6z"/>
</g>
<g id="s10__x28__x2B_04_x29_">
	<path d="M17.5,88.1c-1.7,0-3-1.4-3-3c0-0.4,0.1-0.8,0.2-1.2l3.6-8c0.8-1.5,2.6-2.1,4.1-1.3c1.3,0.7,1.9,2.3,1.4,3.7l-3.6,8
		C19.8,87.4,18.7,88.1,17.5,88.1z M21,75.3c-0.7,0-1.4,0.4-1.8,1.1l-3.5,8c-0.1,0.2-0.2,0.5-0.2,0.8c0,0.5,0.2,1,0.6,1.4
		s0.9,0.6,1.4,0.6c0.8,0,1.5-0.5,1.8-1.2l0,0l3.5-8c0.3-0.9-0.1-2-1-2.4C21.6,75.4,21.3,75.3,21,75.3z"/>
	<path d="M31.5,97.1c-1.7,0-3-1.4-3-3c0-0.4,0.1-0.8,0.2-1.2l3.6-8c0.8-1.5,2.6-2.1,4.1-1.3c1.3,0.7,1.9,2.3,1.4,3.7l-3.6,8
		C33.8,96.4,32.7,97.1,31.5,97.1z M35,84.3c-0.7,0-1.4,0.4-1.8,1.1l-3.5,8c-0.1,0.2-0.2,0.5-0.2,0.8c0,0.5,0.2,1,0.6,1.4
		s0.9,0.6,1.4,0.6c0.8,0,1.5-0.5,1.8-1.2l0,0l3.5-8c0.3-0.9-0.1-2-1-2.4C35.6,84.4,35.3,84.3,35,84.3z"/>
	<path d="M46.5,89.1c-1.7,0-3-1.4-3-3c0-0.4,0.1-0.8,0.2-1.2l3.6-8c0.8-1.5,2.6-2.1,4.1-1.3c1.3,0.7,1.9,2.3,1.4,3.7l-3.6,8
		C48.8,88.4,47.7,89.1,46.5,89.1z M50,76.3c-0.7,0-1.4,0.4-1.8,1.1l-3.5,8c-0.1,0.2-0.2,0.5-0.2,0.8c0,0.5,0.2,1,0.6,1.4
		c0.4,0.4,0.9,0.6,1.4,0.6c0.8,0,1.5-0.5,1.8-1.2l0,0l3.6-8c0.3-0.9-0.1-2-1-2.4C50.6,76.4,50.3,76.3,50,76.3z"/>
	<path d="M59.5,88.1c-0.8,0-1.6-0.3-2.1-0.9c-0.6-0.6-0.9-1.3-0.9-2.1c0-0.4,0.1-0.8,0.2-1.2l3.6-8c0.4-0.7,1-1.3,1.8-1.5
		s1.6-0.2,2.3,0.2c1.3,0.7,1.9,2.3,1.4,3.7l-3.6,8C61.8,87.4,60.7,88.1,59.5,88.1z M63,75.3c-0.2,0-0.4,0-0.6,0.1
		c-0.5,0.2-0.9,0.5-1.2,1l-3.5,8c-0.1,0.2-0.2,0.5-0.2,0.8c0,0.5,0.2,1,0.6,1.4s0.9,0.6,1.4,0.6c0.8,0,1.5-0.5,1.8-1.2l0,0l3.5-8
		c0.3-0.9-0.1-2-1-2.4C63.6,75.4,63.3,75.3,63,75.3z"/>
	<path d="M73.5,97.1c-0.8,0-1.6-0.3-2.1-0.9c-0.6-0.6-0.9-1.3-0.9-2.1c0-0.4,0.1-0.8,0.2-1.2l3.6-8c0.4-0.7,1-1.3,1.8-1.5
		s1.6-0.2,2.3,0.2c1.3,0.7,1.9,2.3,1.4,3.7l-3.6,8C75.8,96.4,74.7,97.1,73.5,97.1z M77,84.3c-0.2,0-0.4,0-0.6,0.1
		c-0.5,0.2-0.9,0.5-1.2,1l-3.5,8c-0.1,0.2-0.2,0.5-0.2,0.8c0,0.5,0.2,1,0.6,1.4s0.9,0.6,1.4,0.6c0.8,0,1.5-0.5,1.8-1.2l0,0l3.5-8
		c0.3-0.9-0.1-2-1-2.4C77.6,84.4,77.3,84.3,77,84.3z"/>
</g>
</svg>
