<?xml version="1.0" encoding="utf-8"?>
<!-- Generator: Adobe Illustrator 24.2.1, SVG Export Plug-In . SVG Version: 6.00 Build 0)  -->
<svg version="1.1" id="Layer_1" xmlns="http://www.w3.org/2000/svg" xmlns:xlink="http://www.w3.org/1999/xlink" x="0px" y="0px"
	 viewBox="0 0 100 100" style="enable-background:new 0 0 100 100;" xml:space="preserve">
<g id="s04">
	<path d="M80.7,70.6C80.6,70.6,80.6,70.6,80.7,70.6H24.9c-8.4,0-15.3-6.8-15.4-15.2v-0.2c0-4,1.6-7.7,4.3-10.5
		c2.9-2.9,6.9-4.6,11-4.6c0.5,0,1,0,1.4,0.1c2.2-4.9,7.8-7.4,12.9-5.6c4.3-8,12.5-12.9,21.6-12.9l0,0c11.8,0,21.9,8.4,24,20
		c6.4,1.8,10.8,7.6,10.8,14.3c0,4-1.6,7.7-4.4,10.4C88.3,69,84.6,70.6,80.7,70.6z M24.9,69.6h55.7c0,0,0,0,0.1,0
		c3.7,0,7.1-1.4,9.7-4s4.1-6.1,4.1-9.7c0-6.3-4.2-11.8-10.3-13.4l-0.3-0.1L83.8,42c-1.9-11.3-11.6-19.5-23.1-19.5l0,0
		c-8.9,0-16.8,4.9-20.9,12.8l-0.2,0.4l-0.4-0.2C34.4,33.7,29,36,27.1,40.8L27,41.2h-0.4C26,41,25.4,41,24.8,41
		c-3.8,0-7.6,1.6-10.3,4.3c-2.6,2.6-4,6.1-4.1,9.8v0.2C10.6,63.2,17,69.6,24.9,69.6C24.8,69.6,24.9,69.6,24.9,69.6z"/>
</g>
<g id="s13__x28__x2B_04_x29_">
	<path d="M36.1,88.1c-0.6,0-1.3-0.3-1.6-0.9l-1-1.7l-1,1.7C32,88,30.9,88.3,30,87.8s-1.2-1.6-0.7-2.5l1-1.7h-2c-1,0-1.9-0.8-1.9-1.9
		c0-1,0.8-1.8,1.9-1.8h2l-1-1.7c-0.5-0.9-0.2-2,0.7-2.5c0.9-0.5,2-0.2,2.5,0.7l1,1.7l1-1.7c0,0,0.1-0.1,0.1-0.2
		c0.3-0.4,0.7-0.7,1.2-0.8c0.5-0.1,1,0,1.4,0.3s0.7,0.7,0.8,1.2s0,1-0.3,1.4l-1,1.7h2c0.5,0,1,0.2,1.3,0.5s0.5,0.8,0.5,1.3
		c0,1-0.8,1.8-1.9,1.8h-2l1,1.7c0.2,0.4,0.3,0.9,0.2,1.4s-0.4,0.9-0.9,1.1C36.8,88,36.5,88.1,36.1,88.1z M33.6,83.4l1.9,3.2
		c0.2,0.4,0.8,0.5,1.2,0.3c0.2-0.1,0.3-0.3,0.4-0.5s0-0.4-0.1-0.6l-2-3.2h3.7c0.5,0,0.9-0.4,0.9-0.8c0-0.2-0.1-0.4-0.2-0.6
		C39.2,81,39,81,38.8,81H35l1.9-3.2c0.1-0.2,0.2-0.4,0.2-0.7c0-0.2-0.2-0.4-0.4-0.5s-0.4-0.2-0.6-0.1c-0.2,0-0.4,0.2-0.5,0.4
		c0,0,0,0.1-0.1,0.1l-1.9,3l-1.8-3.2c-0.2-0.4-0.8-0.5-1.2-0.3c-0.4,0.2-0.5,0.7-0.3,1.1l1.8,3.2h-3.7c-0.5,0-0.9,0.4-0.9,0.8
		s0.4,0.9,0.9,0.9h3.7l-1.9,3.2c-0.2,0.4-0.1,0.9,0.3,1.2c0.4,0.2,0.9,0.1,1.2-0.3L33.6,83.4z"/>
	<path d="M50.1,97.1c-0.6,0-1.3-0.3-1.6-0.9l-1-1.7l-1,1.7C46,97,44.9,97.3,44,96.8s-1.2-1.6-0.7-2.5l1-1.7h-2c-1,0-1.9-0.8-1.9-1.9
		c0-1,0.8-1.8,1.9-1.8h2l-1-1.7c-0.5-0.9-0.2-2,0.7-2.5s2-0.2,2.5,0.7l1,1.7l1-1.7c0,0,0.1-0.1,0.1-0.2c0.3-0.4,0.7-0.7,1.2-0.8
		c0.5-0.1,1,0,1.4,0.3c0.8,0.6,1.1,1.7,0.5,2.6l-1,1.7h2c0.5,0,1,0.2,1.3,0.5s0.5,0.8,0.5,1.3c0,1-0.8,1.8-1.9,1.8h-2l1,1.7
		c0.5,0.9,0.2,2-0.7,2.5C50.8,97,50.5,97.1,50.1,97.1z M47.6,92.4l1.9,3.2c0.2,0.4,0.8,0.5,1.2,0.3s0.5-0.8,0.3-1.2l-2-3.1h3.7
		c0.5,0,0.9-0.4,0.9-0.8c0-0.2-0.1-0.4-0.2-0.6S53,90,52.8,90H49l1.9-3.2c0.3-0.4,0.2-0.9-0.2-1.2c-0.2-0.1-0.4-0.2-0.6-0.1
		c-0.2,0-0.4,0.2-0.5,0.4c0,0,0,0.1-0.1,0.1l-1.9,3l-1.8-3.2c-0.2-0.4-0.8-0.5-1.2-0.3s-0.5,0.7-0.3,1.1l1.8,3.2h-3.7
		c-0.5,0-0.9,0.4-0.9,0.8s0.4,0.9,0.9,0.9h3.7l-1.9,3.2c-0.2,0.4-0.1,0.9,0.3,1.2c0.4,0.2,0.9,0.1,1.2-0.3L47.6,92.4z"/>
	<path d="M64.1,88.1c-0.6,0-1.3-0.3-1.6-0.9l-1-1.7l-1,1.7C60,88,58.9,88.3,58,87.8s-1.2-1.6-0.7-2.5l1-1.7h-2c-1,0-1.8-0.8-1.8-1.9
		c0-1,0.8-1.8,1.8-1.8h2l-1-1.7c-0.5-0.9-0.2-2,0.7-2.5s2-0.2,2.5,0.7l1,1.7l1-1.7c0,0,0.1-0.1,0.1-0.2c0.6-0.8,1.7-1.1,2.6-0.5
		c0.4,0.3,0.7,0.7,0.8,1.2c0.1,0.5,0,1-0.3,1.4l-1,1.7h2c0.5,0,1,0.2,1.3,0.5s0.5,0.8,0.5,1.3c0,1-0.8,1.8-1.9,1.8h-2l1,1.7
		c0.5,0.9,0.2,2-0.7,2.5C64.8,88,64.5,88.1,64.1,88.1z M61.6,83.4l1.9,3.2c0.2,0.4,0.8,0.5,1.2,0.3s0.5-0.8,0.3-1.2l-2-3.1h3.7
		c0.5,0,0.9-0.4,0.9-0.8c0-0.2-0.1-0.4-0.2-0.6S67,81,66.8,81H63l1.9-3.2c0.1-0.2,0.2-0.4,0.2-0.7c0-0.2-0.2-0.4-0.4-0.5
		c-0.2-0.1-0.4-0.2-0.6-0.1c-0.2,0-0.4,0.2-0.5,0.4c0,0,0,0.1-0.1,0.1l-1.9,3l-1.8-3.2c-0.2-0.4-0.8-0.5-1.2-0.3s-0.5,0.7-0.3,1.1
		l1.8,3.2h-3.7c-0.5,0-0.8,0.4-0.8,0.8s0.4,0.9,0.8,0.9h3.7l-1.9,3.2c-0.2,0.4-0.1,0.9,0.3,1.2c0.4,0.2,0.9,0.1,1.2-0.3L61.6,83.4z"
		/>
</g>
</svg>
