<?xml version="1.0" encoding="utf-8"?>
<!-- Generator: Adobe Illustrator 24.2.1, SVG Export Plug-In . SVG Version: 6.00 Build 0)  -->
<svg version="1.1" id="Layer_1" xmlns="http://www.w3.org/2000/svg" xmlns:xlink="http://www.w3.org/1999/xlink" x="0px" y="0px"
	 viewBox="0 0 100 100" style="enable-background:new 0 0 100 100;" xml:space="preserve">
<g id="s03d">
	<path d="M18.7,36.5c-2.8-6.5-0.4-14.3,5.9-18c6.4-3.7,14.6-1.8,18.8,4.2c0.3-0.2,0.5-0.4,0.8-0.6c-4.5-6.4-13.2-8.4-20.1-4.5
		c-6.7,3.9-9.4,12.2-6.4,19.2C18.1,36.7,18.4,36.6,18.7,36.5z"/>
	<path d="M13,35.9l-7.2,10l1.7-0.2c0.2-0.4,0.4-0.7,0.6-1.1H7.9l6.6-9.2L4.2,30.9l10.3-4.6l-6.6-9.1l11.2,1.1L18,7l9.2,6.6l4.6-10.3
		l4.6,10.3L45.5,7l-1.1,11.2L55.6,17l-0.3,0.4c0.5-0.1,0.9-0.2,1.4-0.2l1-1.5L45.5,17l1.2-12.2L36.8,12l-5-11.2l-5,11.2l-10-7.2
		L18,17.1L5.8,15.9l7.2,9.9l-11.2,5L13,35.9z"/>
</g>
<g id="s21__x28__x2B_03_x29_">
	<path d="M84.7,41.7c-2.1-11.6-12.2-20-24-20c-9.1,0-17.3,4.9-21.6,12.9c-5.1-1.8-10.7,0.7-12.9,5.6c-0.4-0.1-0.9-0.1-1.4-0.1
		c-4.1,0-8.1,1.7-11,4.6c-2.7,2.8-4.3,6.5-4.3,10.5v0.2c0.1,8.4,7,15.2,15.4,15.2h11.6l0.5-1H24.9c-7.9,0-14.3-6.4-14.5-14.3v-0.2
		c0.1-3.7,1.5-7.2,4.1-9.8C17.2,42.6,21,41,24.8,41c0.6,0,1.2,0,1.8,0.2H27l0.1-0.4c1.9-4.8,7.3-7.1,12.1-5.3l0.4,0.2l0.2-0.4
		c4.1-7.9,12-12.8,20.9-12.8c11.5,0,21.2,8.2,23.1,19.5l0.1,0.4l0.3,0.1c6.1,1.6,10.3,7.1,10.3,13.4c0,3.6-1.5,7.1-4.1,9.7
		c-2.6,2.6-6,4-9.7,4c-0.1,0-0.1,0-0.1,0H58.1c0.1,0.2,0.2,0.4,0.3,0.6c0,0.1,0.1,0.3,0.1,0.4h22.1c0,0,0,0,0.1,0
		c3.9,0,7.6-1.6,10.4-4.2c2.8-2.7,4.4-6.4,4.4-10.4C95.5,49.3,91.1,43.5,84.7,41.7z"/>
	<path d="M41,96.7l5.5-20.8l-7.2-3.1L51.6,50l-3.3,18.1l7,3.1L41,96.7z M40.7,72.2l7,3L44,89.4l9.9-17.7l-6.7-3L49.5,56L40.7,72.2z"
		/>
	<path d="M59.1,97c-0.6,0-1.3-0.3-1.6-0.9l-1-1.7l-1,1.7c-0.6,0.9-1.7,1.1-2.5,0.6c-0.9-0.5-1.2-1.6-0.7-2.5l1-1.7h-2
		c-1,0-1.8-0.8-1.8-1.8s0.8-1.9,1.8-1.9h2l-1-1.7c-0.5-0.9-0.2-2,0.7-2.5s2-0.2,2.5,0.7l1,1.7l1-1.7c0,0,0.1-0.1,0.1-0.2
		c0.6-0.8,1.7-1.1,2.6-0.5c0.4,0.3,0.7,0.7,0.8,1.2s0,1-0.3,1.4l-1,1.7h2c0.5,0,1,0.2,1.3,0.5c0.3,0.4,0.5,0.8,0.5,1.3
		c0,1-0.8,1.8-1.9,1.8h-2l1,1.7c0.5,0.9,0.2,2-0.7,2.5C59.7,96.9,59.4,97,59.1,97z M56.5,92.3l1.9,3.2c0.2,0.4,0.8,0.5,1.2,0.3
		s0.5-0.8,0.3-1.2L58,91.5h3.7c0.5,0,0.9-0.4,0.9-0.8c0-0.2-0.1-0.4-0.2-0.6c-0.2-0.2-0.4-0.2-0.6-0.2H58l1.9-3.2
		c0.1-0.2,0.2-0.4,0.2-0.7s-0.2-0.4-0.4-0.5c-0.4-0.3-0.9-0.2-1.2,0.2c0,0,0,0.1-0.1,0.1L56.5,89l-1.8-3.2c-0.2-0.4-0.7-0.5-1.2-0.3
		c-0.4,0.2-0.5,0.7-0.3,1.1l1.8,3.2h-3.7c-0.5,0-0.8,0.4-0.8,0.9s0.4,0.8,0.8,0.8H55l-1.9,3.2c-0.2,0.4-0.1,0.9,0.3,1.2
		c0.4,0.2,0.9,0.1,1.2-0.3L56.5,92.3z"/>
	<path d="M33.1,88c-0.6,0-1.3-0.3-1.6-0.9l-1-1.7l-1,1.7c-0.6,0.9-1.7,1.1-2.5,0.6c-0.9-0.5-1.2-1.6-0.7-2.5l1-1.7h-2
		c-1,0-1.9-0.8-1.9-1.8s0.8-1.9,1.9-1.9h2l-1-1.7c-0.5-0.9-0.2-2,0.7-2.5c0.9-0.5,2-0.2,2.5,0.7l1,1.7l1-1.7c0,0,0.1-0.1,0.1-0.2
		c0.6-0.8,1.7-1.1,2.6-0.5c0.4,0.3,0.7,0.7,0.8,1.2s0,1-0.3,1.4l-1,1.7h2c1,0,1.8,0.8,1.8,1.9c0,1-0.8,1.8-1.9,1.8h-2l1,1.7
		c0.5,0.9,0.2,2-0.7,2.5C33.7,87.9,33.4,88,33.1,88z M30.5,83.3l1.9,3.2c0.2,0.4,0.8,0.5,1.2,0.3s0.5-0.8,0.3-1.2L32,82.5h3.7
		c0.5,0,0.9-0.4,0.9-0.8c0-0.5-0.4-0.9-0.8-0.9H32l1.9-3.2c0.1-0.2,0.2-0.4,0.2-0.7c0-0.2-0.2-0.4-0.4-0.5s-0.4-0.2-0.6-0.1
		c-0.2,0-0.4,0.2-0.5,0.4c0,0,0,0.1-0.1,0.1L30.6,80l-1.8-3.2c-0.2-0.4-0.8-0.5-1.2-0.3c-0.4,0.2-0.5,0.7-0.3,1.1l1.8,3.2h-3.7
		c-0.5,0-0.9,0.4-0.9,0.9s0.4,0.8,0.9,0.8H29l-1.9,3.2c-0.2,0.4-0.1,0.9,0.3,1.2c0.4,0.2,0.9,0.1,1.2-0.3L30.5,83.3z"/>
	<path d="M73.1,88c-0.6,0-1.3-0.3-1.6-0.9l-1-1.7l-1,1.7c-0.6,0.9-1.7,1.1-2.5,0.6c-0.9-0.5-1.2-1.6-0.7-2.5l1-1.7h-2
		c-1,0-1.8-0.8-1.8-1.8s0.8-1.9,1.8-1.9h2l-1-1.7c-0.5-0.9-0.2-2,0.7-2.5c0.9-0.5,2-0.2,2.5,0.7l1,1.7l1-1.7c0,0,0.1-0.1,0.1-0.2
		c0.6-0.8,1.7-1.1,2.6-0.5c0.4,0.3,0.7,0.7,0.8,1.2c0.1,0.5,0,1-0.3,1.4l-1,1.7h2c0.5,0,1,0.2,1.3,0.5c0.3,0.4,0.5,0.8,0.5,1.3
		c0,1-0.8,1.8-1.9,1.8h-2l1,1.7c0.5,0.9,0.2,2-0.7,2.5C73.7,87.9,73.4,88,73.1,88z M70.5,83.3l1.9,3.2c0.2,0.4,0.8,0.5,1.2,0.3
		c0.4-0.2,0.5-0.8,0.3-1.2L72,82.5h3.7c0.5,0,0.9-0.4,0.9-0.8c0-0.2-0.1-0.4-0.2-0.6c-0.2-0.2-0.4-0.2-0.6-0.2H72l1.9-3.2
		c0.1-0.2,0.2-0.4,0.2-0.7s-0.2-0.4-0.4-0.5c-0.4-0.3-0.9-0.2-1.2,0.2c0,0,0,0.1-0.1,0.1L70.5,80l-1.8-3.2c-0.2-0.4-0.7-0.5-1.2-0.3
		c-0.4,0.2-0.5,0.7-0.3,1.1l1.8,3.2h-3.7c-0.5,0-0.8,0.4-0.8,0.9s0.4,0.8,0.8,0.8H69l-1.9,3.2c-0.2,0.4-0.1,0.9,0.3,1.2
		c0.4,0.2,0.9,0.1,1.2-0.3L70.5,83.3z"/>
</g>
</svg>
