<?xml version="1.0" encoding="utf-8"?>
<!-- Generator: Adobe Illustrator 24.2.1, SVG Export Plug-In . SVG Version: 6.00 Build 0)  -->
<svg version="1.1" id="Layer_1" xmlns="http://www.w3.org/2000/svg" xmlns:xlink="http://www.w3.org/1999/xlink" x="0px" y="0px"
	 viewBox="0 0 100 100" style="enable-background:new 0 0 100 100;" xml:space="preserve">
<g id="s03m">
	<path d="M50.6,18.8H0.7v1h47.5C49,19.4,49.8,19.1,50.6,18.8z"/>
	<path d="M21.2,26.9c1.4,2.4,3.3,4.3,5.5,5.5c0.3-0.2,0.6-0.4,0.9-0.6c-2.3-1.2-4.2-3-5.6-5.4c-1.2-2-1.8-4.3-1.9-6.6h28
		c0.5-0.2,0.9-0.4,1.4-0.6v-0.4H19.2v0.5C19.2,22,19.9,24.6,21.2,26.9z"/>
	<path d="M8.4,34.3L20.7,33l-0.3,3c0.3-0.1,0.7-0.1,1-0.2l0.4-3.9l-11.2,1.2l6.6-9.2L8,19.8h40.2c0.8-0.4,1.6-0.7,2.4-1H3.3
		l12.3,5.5L8.4,34.3z"/>
</g>
<g id="s24__x28__x2B_03_x29_">
	<path d="M84.7,41.7c-2.1-11.6-12.2-20-24-20c-9.1,0-17.3,4.9-21.6,12.9c-5.1-1.8-10.7,0.7-12.9,5.6c-0.4-0.1-0.9-0.1-1.4-0.1
		c-4.1,0-8.1,1.7-11,4.6c-2.7,2.8-4.3,6.5-4.3,10.5v0.2c0.1,8.4,7,15.2,15.4,15.2h15.6l0.5-1H24.9c-7.9,0-14.3-6.4-14.5-14.3v-0.2
		c0.1-3.7,1.5-7.2,4.1-9.8C17.2,42.6,21,41,24.8,41c0.6,0,1.2,0,1.8,0.2H27l0.1-0.4c1.9-4.8,7.3-7.1,12.1-5.3l0.4,0.2l0.2-0.4
		c4.1-7.9,12-12.8,20.9-12.8c11.5,0,21.2,8.2,23.1,19.5l0.1,0.4l0.3,0.1c6.1,1.6,10.3,7.1,10.3,13.4c0,3.6-1.5,7.1-4.1,9.7
		c-2.6,2.6-6,4-9.7,4c-0.1,0-0.1,0-0.1,0H62.1c0.1,0.2,0.2,0.4,0.3,0.6c0,0.1,0.1,0.3,0.1,0.4h18.1c0,0,0,0,0.1,0
		c3.9,0,7.6-1.6,10.4-4.2c2.8-2.7,4.4-6.4,4.4-10.4C95.5,49.3,91.1,43.5,84.7,41.7z"/>
	<path d="M45,96.6l5.5-20.8l-7.2-3.1L55.6,50l-3.3,18.1l7,3.1L45,96.6z M44.7,72.2l7,3L48,89.4l9.9-17.7l-6.7-3L53.5,56L44.7,72.2z"
		/>
	<path d="M32.5,97.1c-1.7,0-3-1.4-3-3c0-0.4,0.1-0.8,0.2-1.2l3.6-8c0.8-1.5,2.6-2.1,4.1-1.3c1.3,0.7,1.9,2.3,1.4,3.7l-3.6,8
		C34.8,96.4,33.7,97.1,32.5,97.1z M36,84.3c-0.7,0-1.4,0.4-1.8,1.1l-3.5,8c-0.1,0.2-0.2,0.5-0.2,0.8c0,0.5,0.2,1,0.6,1.4
		s0.9,0.6,1.4,0.6c0.8,0,1.5-0.5,1.8-1.2l0,0l3.5-8c0.3-0.9-0.1-2-1-2.4C36.6,84.4,36.3,84.3,36,84.3z"/>
	<path d="M62.5,88.1c-0.8,0-1.6-0.3-2.1-0.9c-0.6-0.6-0.9-1.3-0.9-2.1c0-0.4,0.1-0.8,0.2-1.2l3.6-8c0.4-0.7,1-1.3,1.8-1.5
		c0.8-0.2,1.6-0.2,2.3,0.2c1.3,0.7,1.9,2.3,1.4,3.7l-3.6,8C64.8,87.4,63.7,88.1,62.5,88.1z M66,75.3c-0.2,0-0.4,0-0.6,0.1
		c-0.5,0.2-0.9,0.5-1.2,1l-3.5,8c-0.1,0.2-0.2,0.5-0.2,0.8c0,0.5,0.2,1,0.6,1.4s0.9,0.6,1.4,0.6c0.8,0,1.5-0.5,1.8-1.2l0,0l3.5-8
		c0.3-0.9-0.1-2-1-2.4C66.6,75.4,66.3,75.3,66,75.3z"/>
</g>
</svg>
