<?xml version="1.0" encoding="utf-8"?>
<!-- Generator: Adobe Illustrator 24.2.1, SVG Export Plug-In . SVG Version: 6.00 Build 0)  -->
<svg version="1.1" id="Layer_1" xmlns="http://www.w3.org/2000/svg" xmlns:xlink="http://www.w3.org/1999/xlink" x="0px" y="0px"
	 viewBox="0 0 100 100" style="enable-background:new 0 0 100 100;" xml:space="preserve">
<g id="s33__x28__x2B_04_x29_">
	<path d="M84.7,41.7c-2.1-11.6-12.2-20-24-20c-9.1,0-17.3,4.9-21.6,12.9c-5.1-1.8-10.7,0.7-12.9,5.6c-0.4-0.1-0.9-0.1-1.4-0.1
		c-4.1,0-8.1,1.7-11,4.6c-2.7,2.8-4.3,6.5-4.3,10.5v0.2c0.1,8.4,7,15.2,15.4,15.2h15.6l0.5-1H24.9c-7.9,0-14.3-6.4-14.5-14.3v-0.2
		c0.1-3.7,1.5-7.2,4.1-9.8C17.2,42.6,21,41,24.8,41c0.6,0,1.2,0,1.8,0.2H27l0.1-0.4c1.9-4.8,7.3-7.1,12.1-5.3l0.4,0.2l0.2-0.4
		c4.1-7.9,12-12.8,20.9-12.8c11.5,0,21.2,8.2,23.1,19.5l0.1,0.4l0.3,0.1c6.1,1.6,10.3,7.1,10.3,13.4c0,3.6-1.5,7.1-4.1,9.7
		c-2.6,2.6-6,4-9.7,4c-0.1,0-0.1,0-0.1,0H62.1c0.1,0.2,0.2,0.4,0.3,0.6c0,0.1,0.1,0.3,0.1,0.4h18.1c0,0,0,0,0.1,0
		c3.9,0,7.6-1.6,10.4-4.2c2.8-2.7,4.4-6.4,4.4-10.4C95.5,49.3,91.1,43.5,84.7,41.7z"/>
	<path d="M45,96.6l5.5-20.8l-7.2-3.1L55.6,50l-3.3,18.1l7,3.1L45,96.6z M44.7,72.2l7,3L48,89.4l9.9-17.7l-6.7-3L53.5,56L44.7,72.2z"
		/>
	<path d="M37.1,97c-0.2,0-0.3,0-0.5-0.1c-0.5-0.1-0.9-0.4-1.1-0.9l-1-1.7l-1,1.7c-0.6,0.9-1.7,1.1-2.5,0.6c-0.9-0.5-1.2-1.6-0.7-2.5
		l1-1.7h-2c-1,0-1.9-0.8-1.9-1.8s0.8-1.9,1.9-1.9h2l-1-1.7c-0.5-0.9-0.2-2,0.7-2.5c0.9-0.5,2-0.2,2.5,0.7l1,1.7l1-1.7
		c0,0,0.1-0.1,0.1-0.2c0.6-0.8,1.7-1.1,2.6-0.5c0.4,0.3,0.7,0.7,0.8,1.2s0,1-0.3,1.4l-1,1.7h2c1,0,1.8,0.8,1.8,1.9
		c0,1-0.8,1.8-1.9,1.8h-2l1,1.7c0.2,0.4,0.3,0.9,0.2,1.4s-0.4,0.9-0.9,1.1C37.7,96.9,37.4,97,37.1,97z M34.5,92.3l1.9,3.2
		c0.1,0.2,0.3,0.3,0.5,0.4s0.4,0,0.6-0.1c0.2-0.1,0.3-0.3,0.4-0.5c0.1-0.2,0-0.4-0.1-0.6L36,91.5h3.7c0.5,0,0.9-0.4,0.9-0.8
		c0-0.5-0.4-0.8-0.9-0.9H36l1.9-3.2c0.1-0.2,0.2-0.4,0.2-0.7c0-0.2-0.2-0.4-0.4-0.5s-0.4-0.2-0.6-0.1c-0.2,0-0.4,0.2-0.5,0.4
		c0,0,0,0.1-0.1,0.1L34.6,89l-1.8-3.2c-0.2-0.4-0.8-0.5-1.2-0.3c-0.4,0.2-0.5,0.7-0.3,1.1l1.8,3.2h-3.7c-0.5,0-0.9,0.4-0.9,0.9
		s0.4,0.8,0.9,0.8H33l-1.9,3.2c-0.2,0.4-0.1,0.9,0.3,1.2c0.4,0.2,0.9,0.1,1.2-0.3L34.5,92.3z"/>
	<path d="M67.8,87.7c-0.2,0-0.3,0-0.5-0.1c-0.5-0.1-0.9-0.4-1.1-0.9l-1-1.7l-1,1.7c-0.6,0.9-1.7,1.1-2.5,0.6
		c-0.9-0.5-1.2-1.6-0.7-2.5l1-1.7h-2c-1,0-1.9-0.8-1.9-1.8s0.8-1.9,1.9-1.9h2l-1-1.7c-0.5-0.9-0.2-2,0.7-2.5s2-0.2,2.5,0.7l1,1.7
		l1-1.7c0,0,0.1-0.1,0.1-0.2c0.3-0.4,0.7-0.7,1.2-0.8c0.5-0.1,1,0,1.4,0.3c0.8,0.6,1.1,1.7,0.5,2.6l-1,1.7h2c1,0,1.8,0.8,1.8,1.9
		c0,0.5-0.2,1-0.5,1.3s-0.8,0.5-1.3,0.5l0,0h-2l1,1.7c0.2,0.4,0.3,0.9,0.2,1.4c-0.1,0.5-0.4,0.9-0.9,1.1
		C68.5,87.6,68.1,87.7,67.8,87.7z M65.2,83l1.9,3.2c0.1,0.2,0.3,0.3,0.5,0.4s0.4,0,0.6-0.1s0.3-0.3,0.4-0.5s0-0.4-0.1-0.6l-1.8-3.2
		h3.7l0,0c0.2,0,0.4-0.1,0.6-0.2c0.2-0.2,0.2-0.4,0.2-0.6c0-0.5-0.4-0.8-0.9-0.8h-3.7l1.9-3.2c0.3-0.4,0.2-0.9-0.2-1.2
		c-0.4-0.3-0.9-0.2-1.2,0.2c0,0,0,0.1-0.1,0.1l-1.9,3.2l-1.8-3.2c-0.2-0.4-0.7-0.5-1.2-0.3c-0.4,0.2-0.5,0.7-0.3,1.1l1.8,3.2h-3.7
		c-0.5,0-0.9,0.4-0.9,0.9s0.4,0.8,0.9,0.8h3.7l-1.9,3.2c-0.2,0.4-0.1,0.9,0.3,1.2c0.4,0.2,0.9,0.1,1.2-0.3L65.2,83z"/>
</g>
</svg>
