<?xml version="1.0" encoding="utf-8"?>
<!-- Generator: Adobe Illustrator 24.2.1, SVG Export Plug-In . SVG Version: 6.00 Build 0)  -->
<svg version="1.1" id="Layer_1" xmlns="http://www.w3.org/2000/svg" xmlns:xlink="http://www.w3.org/1999/xlink" x="0px" y="0px"
	 viewBox="0 0 100 100" style="enable-background:new 0 0 100 100;" xml:space="preserve">
<g id="s03n">
	<path d="M9.8,42.5c0.2-0.3,0.4-0.5,0.7-0.7c-2.1-1.4-4-3.3-5.4-5.6c0.6,0,1.1,0.1,1.7,0.1c11.6,0,21-9.4,21-21
		c0-3.4-0.8-6.7-2.3-9.6c5.7,1,10.8,4.6,13.8,9.7c1.6,2.8,2.4,5.8,2.6,8.8c0.3-0.3,0.6-0.5,1-0.8c-0.3-3-1.2-5.8-2.7-8.5
		c-3.3-5.6-9-9.5-15.5-10.3l-1-0.1L24,5.2c1.8,3,2.7,6.5,2.7,10c0,11-9,20-20,20c-0.9,0-1.7-0.1-2.6-0.2l-1-0.1l0.5,0.9
		C5.2,38.5,7.3,40.8,9.8,42.5z"/>
	<path d="M80.7,70.6C80.6,70.6,80.6,70.6,80.7,70.6H24.9c-8.4,0-15.3-6.8-15.4-15.2v-0.2c0-4,1.6-7.7,4.3-10.5
		c2.9-2.9,6.9-4.6,11-4.6c0.5,0,1,0,1.4,0.1c2.2-4.9,7.8-7.4,12.9-5.6c4.3-8,12.5-12.9,21.6-12.9l0,0c11.8,0,21.9,8.4,24,20
		c6.4,1.8,10.8,7.6,10.8,14.3c0,4-1.6,7.7-4.4,10.4C88.3,69,84.6,70.6,80.7,70.6z M24.9,69.6h55.7c0,0,0,0,0.1,0
		c3.7,0,7.1-1.4,9.7-4s4.1-6.1,4.1-9.7c0-6.3-4.2-11.8-10.3-13.4l-0.3-0.1L83.8,42c-1.9-11.3-11.6-19.5-23.1-19.5l0,0
		c-8.9,0-16.8,4.9-20.9,12.8l-0.2,0.4l-0.4-0.2C34.4,33.7,29,36,27.1,40.8L27,41.2h-0.4C26,41,25.4,41,24.8,41
		c-3.8,0-7.6,1.6-10.3,4.3c-2.6,2.6-4,6.1-4.1,9.8v0.2C10.6,63.2,17,69.6,24.9,69.6C24.8,69.6,24.9,69.6,24.9,69.6z"/>
</g>
<g id="s43__x28__x2B_03_x29_">
	<path d="M26.1,88c-0.2,0-0.3,0-0.5-0.1c-0.5-0.1-0.9-0.4-1.1-0.9l-1-1.7l-1,1.7c-0.6,0.9-1.7,1.1-2.5,0.6c-0.9-0.5-1.2-1.6-0.7-2.5
		l1-1.7h-2c-1,0-1.9-0.8-1.9-1.8s0.8-1.9,1.9-1.9h2l-1-1.7c-0.5-0.9-0.2-2,0.7-2.5c0.9-0.5,2-0.2,2.5,0.7l1,1.7l1-1.7
		c0,0,0.1-0.1,0.1-0.2c0.6-0.8,1.7-1.1,2.6-0.5c0.4,0.3,0.7,0.7,0.8,1.2c0.1,0.5,0,1-0.3,1.4l-1,1.7h2c1,0,1.8,0.8,1.8,1.9
		c0,1-0.8,1.8-1.9,1.8h-2l1,1.7c0.2,0.4,0.3,0.9,0.2,1.4c-0.1,0.5-0.4,0.9-0.9,1.1C26.7,87.9,26.4,88,26.1,88z M23.5,83.3l1.9,3.2
		c0.1,0.2,0.3,0.3,0.5,0.4s0.4,0,0.6-0.1s0.3-0.3,0.4-0.5s0-0.4-0.1-0.6L25,82.5h3.7c0.5,0,0.9-0.4,0.9-0.8c0-0.5-0.4-0.8-0.9-0.9
		H25l1.9-3.2c0.1-0.2,0.2-0.4,0.2-0.7c0-0.2-0.2-0.4-0.4-0.5c-0.2-0.1-0.4-0.2-0.6-0.1c-0.2,0-0.4,0.2-0.5,0.4c0,0,0,0.1-0.1,0.1
		L23.6,80l-1.8-3.2c-0.2-0.4-0.8-0.5-1.2-0.3c-0.4,0.2-0.5,0.7-0.3,1.1l1.8,3.2h-3.7c-0.5,0-0.9,0.4-0.9,0.9s0.4,0.8,0.9,0.8H22
		l-1.9,3.2c-0.2,0.4-0.1,0.9,0.3,1.2c0.4,0.2,0.9,0.1,1.2-0.3L23.5,83.3z"/>
	<path d="M36.5,96.1c-1.7,0-3-1.4-3-3c0-0.4,0.1-0.8,0.2-1.2l3.6-8c0.8-1.5,2.6-2.1,4.1-1.3c1.3,0.7,1.9,2.3,1.4,3.7l-3.6,8
		C38.8,95.4,37.7,96.1,36.5,96.1z M40,83.3c-0.7,0-1.4,0.4-1.8,1.1l-3.5,8c-0.1,0.2-0.2,0.5-0.2,0.8c0,0.5,0.2,1,0.6,1.4
		c0.4,0.4,0.9,0.6,1.4,0.6c0.8,0,1.5-0.5,1.8-1.2l0,0l3.5-8c0.3-0.9-0.1-2-1-2.4C40.6,83.4,40.3,83.3,40,83.3z"/>
	<path d="M51.5,90.1c-1.7,0-3-1.4-3-3c0-0.4,0.1-0.8,0.2-1.2l3.6-8c0.4-0.7,1-1.3,1.8-1.5s1.6-0.2,2.3,0.2c1.3,0.7,1.9,2.3,1.4,3.7
		l-3.6,8C53.8,89.4,52.7,90.1,51.5,90.1z M55,77.3c-0.2,0-0.4,0-0.6,0.1c-0.5,0.2-0.9,0.5-1.2,1l-3.5,8c-0.1,0.2-0.2,0.5-0.2,0.8
		c0,0.5,0.2,1,0.6,1.4c0.4,0.4,0.9,0.6,1.4,0.6c0.8,0,1.5-0.5,1.8-1.2l0,0l3.5-8c0.3-0.9-0.1-2-1-2.4C55.6,77.4,55.3,77.3,55,77.3z"
		/>
	<path d="M69.1,97c-0.6,0-1.3-0.3-1.6-0.9l-1-1.7l-1,1.7c-0.6,0.9-1.7,1.1-2.5,0.6c-0.9-0.5-1.2-1.6-0.7-2.5l1-1.7h-2
		c-1,0-1.8-0.8-1.8-1.8s0.8-1.9,1.8-1.9h2l-1-1.7c-0.5-0.9-0.2-2,0.7-2.5s2-0.2,2.5,0.7l1,1.7l1-1.7c0,0,0.1-0.1,0.1-0.2
		c0.6-0.8,1.7-1.1,2.6-0.5c0.4,0.3,0.7,0.7,0.8,1.2c0.1,0.5,0,1-0.3,1.4l-1,1.7h2c0.5,0,1,0.2,1.3,0.5s0.5,0.8,0.5,1.3
		c0,1-0.8,1.8-1.9,1.8h-2l1,1.7c0.2,0.4,0.3,0.9,0.2,1.4s-0.4,0.9-0.9,1.1C69.7,96.9,69.4,97,69.1,97z M66.5,92.3l1.9,3.2
		c0.1,0.2,0.3,0.3,0.5,0.4s0.4,0,0.6-0.1c0.4-0.2,0.5-0.8,0.3-1.2L68,91.5h3.7c0.5,0,0.9-0.4,0.9-0.8c0-0.2-0.1-0.4-0.2-0.6
		c-0.2-0.2-0.4-0.2-0.6-0.2H68l1.9-3.2c0.1-0.2,0.2-0.4,0.2-0.7s-0.2-0.4-0.4-0.5c-0.4-0.3-0.9-0.2-1.2,0.2c0,0,0,0.1-0.1,0.1
		L66.5,89l-1.8-3.2c-0.2-0.4-0.7-0.5-1.2-0.3c-0.4,0.2-0.5,0.7-0.3,1.1l1.8,3.2h-3.7c-0.5,0-0.8,0.4-0.8,0.9s0.4,0.8,0.8,0.8H65
		l-1.9,3.2c-0.2,0.4-0.1,0.9,0.3,1.2c0.4,0.2,0.9,0.1,1.2-0.3L66.5,92.3z"/>
	<path d="M78.5,90.1c-0.8,0-1.6-0.3-2.1-0.9c-0.6-0.6-0.9-1.3-0.9-2.1c0-0.4,0.1-0.8,0.2-1.2l3.6-8c0.4-0.7,1-1.3,1.8-1.5
		s1.6-0.2,2.3,0.2c1.3,0.7,1.9,2.3,1.4,3.7l-3.6,8C80.8,89.4,79.7,90.1,78.5,90.1z M82,77.3c-0.2,0-0.4,0-0.6,0.1
		c-0.5,0.2-0.9,0.5-1.2,1l-3.5,8c-0.1,0.2-0.2,0.5-0.2,0.8c0,0.5,0.2,1,0.6,1.4s0.9,0.6,1.4,0.6c0.8,0,1.5-0.5,1.8-1.2l0,0l3.5-8
		c0.3-0.9-0.1-2-1-2.4C82.6,77.4,82.3,77.3,82,77.3z"/>
</g>
</svg>
