<?xml version="1.0" encoding="utf-8"?>
<!-- Generator: Adobe Illustrator 24.2.1, SVG Export Plug-In . SVG Version: 6.00 Build 0)  -->
<svg version="1.1" id="Layer_1" xmlns="http://www.w3.org/2000/svg" xmlns:xlink="http://www.w3.org/1999/xlink" x="0px" y="0px"
	 viewBox="0 0 100 100" style="enable-background:new 0 0 100 100;" xml:space="preserve">
<g id="baro">
	<g>
		<path d="M49.9,93.1c-24.3,0-44-19.7-44-44c0-24.3,19.7-44,44-44c24.3,0,44,19.7,44,44C93.9,73.4,74.2,93.1,49.9,93.1z M49.9,6.1
			c-23.7,0-43,19.3-43,43s19.3,43,43,43s43-19.3,43-43S73.6,6.1,49.9,6.1z"/>
	</g>
	<g>
		<path d="M76.1,75.1l-0.7-0.7c6.8-6.8,10.5-15.8,10.5-25.4c0-9.5-3.7-18.5-10.5-25.2C68.6,17,59.5,13.3,49.9,13.2
			c-9.4,0-18.2,3.6-24.8,10.2l21.9,21.9l-0.7,0.7L23.7,23.4L24,23c6.9-6.9,16.1-10.8,25.9-10.8c0,0,0,0,0.1,0
			c9.8,0,19.1,3.8,26,10.8c6.9,6.9,10.8,16.1,10.8,25.9C86.9,58.8,83,68.1,76.1,75.1z"/>
	</g>
	<g>
		<path d="M50,54.8c-3.2,0-5.8-2.6-5.8-5.8s2.6-5.8,5.8-5.8s5.8,2.6,5.8,5.8S53.2,54.8,50,54.8z M50,44.2c-2.6,0-4.8,2.2-4.8,4.8
			s2.2,4.8,4.8,4.8s4.8-2.2,4.8-4.8S52.6,44.2,50,44.2z"/>
	</g>
</g>
</svg>
