<?xml version="1.0" encoding="utf-8"?>
<!-- Generator: Adobe Illustrator 24.2.1, SVG Export Plug-In . SVG Version: 6.00 Build 0)  -->
<svg version="1.1" id="Layer_1" xmlns="http://www.w3.org/2000/svg" xmlns:xlink="http://www.w3.org/1999/xlink" x="0px" y="0px"
	 viewBox="0 0 100 100" style="enable-background:new 0 0 100 100;" xml:space="preserve">
<path d="M49.9,93.1c-24.3,0-44-19.7-44-44c0-24.3,19.7-44,44-44c24.3,0,44,19.7,44,44C93.9,73.4,74.2,93.1,49.9,93.1z M49.9,6.1
	c-23.7,0-43,19.3-43,43s19.3,43,43,43s43-19.3,43-43S73.6,6.1,49.9,6.1z"/>
<polygon points="35,71.1 16,63.3 23.8,44.3 24.8,44.7 17.4,62.7 35.4,70.1 "/>
<polygon points="86.5,49.8 67.5,41.9 75.4,22.9 76.4,23.3 68.9,41.3 86.9,48.8 "/>
<rect x="14.6" y="51.8" transform="matrix(0.9235 -0.3836 0.3836 0.9235 -16.8164 20.2878)" width="55.8" height="1"/>
</svg>
