<?xml version="1.0" encoding="utf-8"?>
<!-- Generator: Adobe Illustrator 24.2.1, SVG Export Plug-In . SVG Version: 6.00 Build 0)  -->
<svg version="1.1" id="Layer_1" xmlns="http://www.w3.org/2000/svg" xmlns:xlink="http://www.w3.org/1999/xlink" x="0px" y="0px"
	 viewBox="0 0 100 100" style="enable-background:new 0 0 100 100;" xml:space="preserve">
<path d="M49.9,93.1c-24.3,0-44-19.7-44-44c0-24.3,19.7-44,44-44c24.3,0,44,19.7,44,44C93.9,73.4,74.2,93.1,49.9,93.1z M49.9,6.1
	c-23.7,0-43,19.3-43,43s19.3,43,43,43s43-19.3,43-43S73.6,6.1,49.9,6.1z"/>
<polygon points="23.8,54.1 15.9,35.1 34.9,27.2 35.3,28.2 17.3,35.7 24.8,53.7 "/>
<polygon points="75.3,75.4 67.5,56.4 86.5,48.6 86.9,49.6 68.9,57 76.3,75 "/>
<rect x="41.9" y="18.1" transform="matrix(0.3816 -0.9243 0.9243 0.3816 -16.344 67.6719)" width="1" height="55.8"/>
</svg>
