<?xml version="1.0" encoding="utf-8"?>
<!-- Generator: Adobe Illustrator 24.2.1, SVG Export Plug-In . SVG Version: 6.00 Build 0)  -->
<svg version="1.1" id="Layer_1" xmlns="http://www.w3.org/2000/svg" xmlns:xlink="http://www.w3.org/1999/xlink" x="0px" y="0px"
	 viewBox="0 0 100 100" style="enable-background:new 0 0 100 100;" xml:space="preserve">
<path d="M49.9,93.1c-24.3,0-44-19.7-44-44c0-24.3,19.7-44,44-44c24.3,0,44,19.7,44,44C93.9,73.4,74.2,93.1,49.9,93.1z M49.9,6.1
	c-23.7,0-43,19.3-43,43s19.3,43,43,43s43-19.3,43-43S73.6,6.1,49.9,6.1z"/>
<polygon points="44.5,75.1 24,75.1 24,54.6 25,54.6 25,74.1 44.5,74.1 "/>
<polygon points="84,35.7 63.5,35.7 63.5,15.2 64.5,15.2 64.5,34.7 84,34.7 "/>
<rect x="16.4" y="54.4" transform="matrix(0.7081 -0.7061 0.7061 0.7081 -25.8489 47.2724)" width="55.8" height="1"/>
</svg>
