<?xml version="1.0" encoding="utf-8"?>
<!-- Generator: Adobe Illustrator 24.2.1, SVG Export Plug-In . SVG Version: 6.00 Build 0)  -->
<svg version="1.1" id="Layer_1" xmlns="http://www.w3.org/2000/svg" xmlns:xlink="http://www.w3.org/1999/xlink" x="0px" y="0px"
	 viewBox="0 0 100 100" style="enable-background:new 0 0 100 100;" xml:space="preserve">
<path d="M49.9,93.1c-24.3,0-44-19.7-44-44c0-24.3,19.7-44,44-44c24.3,0,44,19.7,44,44C93.9,73.4,74.2,93.1,49.9,93.1z M49.9,6.1
	c-23.7,0-43,19.3-43,43s19.3,43,43,43s43-19.3,43-43S73.6,6.1,49.9,6.1z"/>
<polygon points="64.1,83.1 45.1,75.2 45.5,74.2 63.5,81.7 71,63.7 72,64.1 "/>
<polygon points="42.7,31.6 23.7,23.7 24.1,22.7 42.1,30.2 49.6,12.1 50.6,12.5 "/>
<rect x="52.6" y="28.8" transform="matrix(0.9234 -0.3837 0.3837 0.9234 -17.6731 24.7123)" width="1" height="55.8"/>
</svg>
