<?xml version="1.0" encoding="utf-8"?>
<!-- Generator: Adobe Illustrator 24.2.1, SVG Export Plug-In . SVG Version: 6.00 Build 0)  -->
<svg version="1.1" id="Layer_1" xmlns="http://www.w3.org/2000/svg" xmlns:xlink="http://www.w3.org/1999/xlink" x="0px" y="0px"
	 viewBox="0 0 100 100" style="enable-background:new 0 0 100 100;" xml:space="preserve">
<path d="M49.9,93.1c-24.3,0-44-19.7-44-44c0-24.3,19.7-44,44-44c24.3,0,44,19.7,44,44C93.9,73.4,74.2,93.1,49.9,93.1z M49.9,6.1
	c-23.7,0-43,19.3-43,43s19.3,43,43,43s43-19.3,43-43S73.6,6.1,49.9,6.1z"/>
<polygon points="76,75.1 55.4,75.1 55.4,74.1 75,74.1 75,54.5 76,54.5 "/>
<polygon points="36.5,35.6 16,35.6 16,34.6 35.5,34.6 35.5,15.1 36.5,15.1 "/>
<rect x="55.3" y="26.9" transform="matrix(0.7071 -0.7071 0.7071 0.7071 -22.4559 55.4868)" width="1" height="55.9"/>
</svg>
