<?xml version="1.0" encoding="utf-8"?>
<!-- Generator: Adobe Illustrator 24.2.1, SVG Export Plug-In . SVG Version: 6.00 Build 0)  -->
<svg version="1.1" id="Layer_1" xmlns="http://www.w3.org/2000/svg" xmlns:xlink="http://www.w3.org/1999/xlink" x="0px" y="0px"
	 viewBox="0 0 100 100" style="enable-background:new 0 0 100 100;" xml:space="preserve">
<style type="text/css">
	.st0{display:none;}
</style>
<g id="precip">
	<g>
		<path class="st0" d="M95,37.5c-4.2-6.8-8.9-12.1-14.6-16.2c-7.9-5.8-17.1-9-27.4-9.6V7.9c0-1.7-1.4-3.1-3.1-3.1
			c-1.7,0-3.1,1.4-3.1,3.1v3.8c-10.3,0.5-19.6,3.7-27.4,9.6C13.8,25.5,9,30.8,4.8,37.5c-0.9,1.4-1.1,2.4-0.7,3.1
			c0.3,0.5,0.8,0.8,1.3,0.8c0.6,0,1.4-0.3,2.2-0.9c2.7-2,5.9-3,9.2-3c5.7,0,10.9,3.1,13.6,8.1c0.8,1.5,1.8,2.3,2.9,2.3
			s2.1-0.8,2.9-2.3c2.5-4.7,7.2-7.7,12.5-8v44.5c0,5.3-4.3,9.6-9.6,9.6c-4.1,0-7.5-3.4-7.5-7.5c0-3.2,2.6-5.8,5.8-5.8
			c0.6,0,1.1-0.5,1.1-1.1s-0.5-1.1-1.1-1.1c-4.4,0-7.9,3.6-7.9,7.9c0,5.3,4.3,9.6,9.6,9.6c6.5,0,11.8-5.3,11.8-11.8V37.4
			c5.2,0.4,10,3.4,12.5,8c0.8,1.5,1.8,2.3,2.9,2.3s2.1-0.8,2.9-2.3c2.7-5,7.9-8.1,13.6-8.1c3.3,0,6.5,1.1,9.2,3
			c0.8,0.6,1.6,0.9,2.2,0.9s1.1-0.3,1.3-0.8C96.1,39.9,95.9,38.9,95,37.5z M49,7.9C49,7.4,49.4,7,49.9,7s0.9,0.4,0.9,0.9v3.7
			c-0.3,0-0.6,0-0.9,0c-0.3,0-0.6,0-0.9,0V7.9z M83,35.2c-6.5,0-12.4,3.5-15.5,9.2c-0.5,1-0.9,1.2-1,1.2s-0.5-0.2-1-1.2
			c-3.1-5.7-9-9.2-15.5-9.2s-12.4,3.5-15.5,9.2c-0.5,1-0.9,1.2-1,1.2s-0.5-0.2-1-1.2c-3.1-5.7-9-9.2-15.5-9.2
			c-3.6,0-7.1,1.1-10.1,3.2C17,22,31.5,13.7,49.9,13.7S82.8,22,93,38.3C90.1,36.3,86.6,35.2,83,35.2z"/>
	</g>
	<path d="M40,93.1c-6.5,0-9.9-4.5-9.9-8.9c0-4.5,3.6-7.3,7-7.3v1c-2.9,0-6,2.4-6,6.3c0,3.8,2.8,7.9,8.9,7.9c6.9,0,9.4-6,9.4-10V36.4
		h1v45.7C50.4,86.5,47.6,93.1,40,93.1z"/>
	<path d="M66.7,51h-0.4c-0.2,0-0.5-0.2-0.5-0.4C64.6,42.7,58,36.9,50,36.9c-7.9,0-14.7,5.9-15.8,13.7c0,0.2-0.2,0.4-0.5,0.4h-0.6
		c-0.2,0-0.5-0.2-0.5-0.4c-1.2-7.9-7.8-13.7-15.8-13.7c-5,0-9.8,2.4-12.8,6.4c-0.2,0.2-0.4,0.3-0.6,0.1C3.1,43.3,3,43,3.1,42.8
		c8-18.8,26.4-30.9,46.8-30.9c20.7,0,39.2,12.4,47.3,31.6c0.1,0.2,0,0.5-0.2,0.6c-0.2,0.1-0.5,0.1-0.7-0.2c-3-4.4-8-7.1-13.3-7.1
		c-7.9,0-14.7,5.9-15.8,13.7C67.2,50.8,67,51,66.7,51z M16.8,35.9c8.1,0,14.9,5.6,16.6,13.4C35,41.6,41.9,35.9,50,35.9
		c7.9,0,14.6,5.4,16.5,13c1.8-7.5,8.6-13,16.5-13c4.4,0,8.6,1.7,11.7,4.7C86.2,23.7,69,12.9,49.9,12.9c-18.9,0-36,10.6-44.5,27.4
		C8.5,37.5,12.6,35.9,16.8,35.9z"/>
	<path d="M52,13h-4.2c-0.3,0-0.5-0.2-0.5-0.5V8.2c0-1.5,1.1-2.6,2.6-2.6c0.8,0,1.5,0.3,2,0.8c0.5,0.5,0.7,1.1,0.6,1.8l0,4.3
		C52.5,12.8,52.3,13,52,13z M48.3,12h3.2V8.2c0-0.5-0.2-0.9-0.4-1.1c-0.3-0.3-0.8-0.5-1.2-0.5c-0.9,0-1.6,0.7-1.6,1.6V12z"/>
</g>
</svg>
