<?xml version="1.0" encoding="utf-8"?>
<!-- Generator: Adobe Illustrator 24.2.1, SVG Export Plug-In . SVG Version: 6.00 Build 0)  -->
<svg version="1.1" id="Layer_1" xmlns="http://www.w3.org/2000/svg" xmlns:xlink="http://www.w3.org/1999/xlink" x="0px" y="0px"
	 viewBox="0 0 100 100" style="enable-background:new 0 0 100 100;" xml:space="preserve">
<path d="M49.9,93.1c-24.3,0-44-19.7-44-44c0-24.3,19.7-44,44-44c24.3,0,44,19.7,44,44C93.9,73.4,74.2,93.1,49.9,93.1z M49.9,6.1
	c-23.7,0-43,19.3-43,43s19.3,43,43,43s43-19.3,43-43S73.6,6.1,49.9,6.1z"/>
<polygon points="24.9,43.7 23.9,43.7 23.9,23.2 44.5,23.2 44.5,24.2 24.9,24.2 "/>
<polygon points="64.4,83.2 63.4,83.2 63.4,62.6 83.9,62.6 83.9,63.6 64.4,63.6 "/>
<rect x="43.7" y="15.5" transform="matrix(0.7062 -0.708 0.708 0.7062 -17.7562 44.0096)" width="1" height="55.8"/>
</svg>
