<?xml version="1.0" encoding="utf-8"?>
<!-- Generator: Adobe Illustrator 24.2.1, SVG Export Plug-In . SVG Version: 6.00 Build 0)  -->
<svg version="1.1" id="Layer_1" xmlns="http://www.w3.org/2000/svg" xmlns:xlink="http://www.w3.org/1999/xlink" x="0px" y="0px"
	 viewBox="0 0 100 100" style="enable-background:new 0 0 100 100;" xml:space="preserve">
<path d="M49.9,93.1c-24.3,0-44-19.7-44-44c0-24.3,19.7-44,44-44c24.3,0,44,19.7,44,44C93.9,73.4,74.2,93.1,49.9,93.1z M49.9,6.1
	c-23.7,0-43,19.3-43,43s19.3,43,43,43s43-19.3,43-43S73.6,6.1,49.9,6.1z"/>
<polygon points="28.9,34.5 27.9,34.1 35.8,15.1 54.8,23 54.4,24 36.4,16.5 "/>
<polygon points="50.3,86.1 49.3,85.7 57.2,66.7 76.2,74.6 75.8,75.6 57.8,68.1 "/>
<rect x="46.3" y="13.7" transform="matrix(0.9237 -0.3831 0.3831 0.9237 -12.3661 21.1019)" width="1" height="55.9"/>
</svg>
