<?xml version="1.0" encoding="utf-8"?>
<!-- Generator: Adobe Illustrator 24.2.1, SVG Export Plug-In . SVG Version: 6.00 Build 0)  -->
<svg version="1.1" id="Layer_1" xmlns="http://www.w3.org/2000/svg" xmlns:xlink="http://www.w3.org/1999/xlink" x="0px" y="0px"
	 viewBox="0 0 100 100" style="enable-background:new 0 0 100 100;" xml:space="preserve">
<path d="M49.9,93.1c-24.3,0-44-19.7-44-44c0-24.3,19.7-44,44-44c24.3,0,44,19.7,44,44C93.9,73.4,74.2,93.1,49.9,93.1z M49.9,6.1
	c-23.7,0-43,19.3-43,43s19.3,43,43,43s43-19.3,43-43S73.6,6.1,49.9,6.1z"/>
<polygon points="70.9,34.5 63.4,16.5 45.4,24 45,23 64,15.1 71.9,34.1 "/>
<polygon points="49.5,86.1 42,68 24,75.5 23.6,74.5 42.6,66.6 50.5,85.7 "/>
<rect x="25.1" y="41" transform="matrix(0.3828 -0.9238 0.9238 0.3828 -5.6738 74.6068)" width="55.8" height="1"/>
</svg>
