<?xml version="1.0" encoding="utf-8"?>
<!-- Generator: Adobe Illustrator 24.2.1, SVG Export Plug-In . SVG Version: 6.00 Build 0)  -->
<svg version="1.1" id="Layer_1" xmlns="http://www.w3.org/2000/svg" xmlns:xlink="http://www.w3.org/1999/xlink" x="0px" y="0px"
	 viewBox="0 0 100 100" style="enable-background:new 0 0 100 100;" xml:space="preserve">
<path d="M49.7,93.2c-11,0-19.9-8.9-19.9-19.9c0-6.7,3.5-13,9.1-16.7V16c0-6,4.8-10.8,10.8-10.8S60.5,10,60.5,16v40.6
	c5.7,3.6,9.1,9.8,9.1,16.7C69.6,84.3,60.7,93.2,49.7,93.2z M49.7,6.2c-5.4,0-9.8,4.4-9.8,9.8v41.2l-0.2,0.1c-5.5,3.4-8.9,9.6-8.9,16
	c0,10.4,8.5,18.9,18.9,18.9c10.4,0,18.9-8.5,18.9-18.9c0-6.6-3.3-12.5-8.9-16l-0.2-0.1V16C59.5,10.6,55.1,6.2,49.7,6.2z"/>
<rect x="39.4" y="56.4" width="10.3" height="1"/>
<rect x="39.4" y="49.6" width="10.3" height="1"/>
<rect x="39.4" y="42.9" width="10.3" height="1"/>
<rect x="39.4" y="36.2" width="10.3" height="1"/>
<rect x="39.4" y="29.5" width="10.3" height="1"/>
<rect x="39.4" y="22.8" width="10.3" height="1"/>
</svg>
