<?xml version="1.0" encoding="utf-8"?>
<!-- Generator: Adobe Illustrator 24.2.1, SVG Export Plug-In . SVG Version: 6.00 Build 0)  -->
<svg version="1.1" id="Layer_1" xmlns="http://www.w3.org/2000/svg" xmlns:xlink="http://www.w3.org/1999/xlink" x="0px" y="0px"
	 viewBox="0 0 100 100" style="enable-background:new 0 0 100 100;" xml:space="preserve">
<path d="M79.1,95.9c-7.1,0-12.9-5.8-12.9-12.9h1c0,6.6,5.3,11.9,11.9,11.9c8.2,0,14.8-6.6,14.8-14.8c0-10.1-8.2-18.3-18.3-18.3H6.1
	v-1h69.5c10.6,0,19.3,8.7,19.3,19.3C94.9,88.8,87.8,95.9,79.1,95.9z M39.2,93.6c-4.4,0-8-3.6-8-8h1c0,3.8,3.2,7,7,7
	c4.7,0,8.6-3.9,8.6-8.6c0-5.8-4.8-10.6-10.6-10.6h-31v-1h31c6.4,0,11.6,5.2,11.6,11.6C48.8,89.3,44.5,93.6,39.2,93.6z M69.6,49.4
	H6.1v-1h63.5c13.4,0,24.3-10.9,24.3-24.3c0-10.8-8.8-19.6-19.6-19.6c-8.7,0-15.8,7.1-15.8,15.8c0,7,5.7,12.7,12.7,12.7
	c5.7,0,10.3-4.6,10.3-10.3h1c0,6.2-5.1,11.3-11.3,11.3c-7.6,0-13.7-6.1-13.7-13.7C57.5,11,65,3.5,74.3,3.5
	c11.4,0,20.6,9.2,20.6,20.6C94.9,38.1,83.6,49.4,69.6,49.4z"/>
<path d="M79.1,95.9c-7.1,0-12.9-5.8-12.9-12.9h1c0,6.6,5.3,11.9,11.9,11.9c8.2,0,14.8-6.6,14.8-14.8c0-10.1-8.2-18.3-18.3-18.3H6.1
	v-1h69.5c10.6,0,19.3,8.7,19.3,19.3C94.9,88.8,87.8,95.9,79.1,95.9z M39.2,93.6c-4.4,0-8-3.6-8-8h1c0,3.8,3.2,7,7,7
	c4.7,0,8.6-3.9,8.6-8.6c0-5.8-4.8-10.6-10.6-10.6h-31v-1h31c6.4,0,11.6,5.2,11.6,11.6C48.8,89.3,44.5,93.6,39.2,93.6z M69.6,49.4
	H6.1v-1h63.5c13.4,0,24.3-10.9,24.3-24.3c0-10.8-8.8-19.6-19.6-19.6c-8.7,0-15.8,7.1-15.8,15.8c0,7,5.7,12.7,12.7,12.7
	c5.7,0,10.3-4.6,10.3-10.3h1c0,6.2-5.1,11.3-11.3,11.3c-7.6,0-13.7-6.1-13.7-13.7C57.5,11,65,3.5,74.3,3.5
	c11.4,0,20.6,9.2,20.6,20.6C94.9,38.1,83.6,49.4,69.6,49.4z"/>
</svg>
