<?xml version="1.0" encoding="utf-8"?>
<!-- Generator: Adobe Illustrator 24.2.1, SVG Export Plug-In . SVG Version: 6.00 Build 0)  -->
<svg version="1.1" id="Layer_1" xmlns="http://www.w3.org/2000/svg" xmlns:xlink="http://www.w3.org/1999/xlink" x="0px" y="0px"
	 viewBox="0 0 100 100" style="enable-background:new 0 0 100 100;" xml:space="preserve">
<path d="M49.9,93.1c-24.3,0-44-19.7-44-44c0-24.3,19.7-44,44-44c24.3,0,44,19.7,44,44C93.9,73.4,74.2,93.1,49.9,93.1z M49.9,6.1
	c-23.7,0-43,19.3-43,43s19.3,43,43,43s43-19.3,43-43S73.6,6.1,49.9,6.1z"/>
<polygon points="65,71 64.6,70 82.6,62.6 75.1,44.6 76.1,44.2 84,63.2 "/>
<polygon points="13.4,49.7 13,48.7 31,41.2 23.6,23.2 24.6,22.8 32.4,41.8 "/>
<rect x="57" y="24.3" transform="matrix(0.3831 -0.9237 0.9237 0.3831 -12.7459 85.3156)" width="1" height="55.9"/>
</svg>
