<?xml version="1.0" encoding="utf-8"?>
<!-- Generator: Adobe Illustrator 24.2.1, SVG Export Plug-In . SVG Version: 6.00 Build 0)  -->
<svg version="1.1" id="Layer_1" xmlns="http://www.w3.org/2000/svg" xmlns:xlink="http://www.w3.org/1999/xlink" x="0px" y="0px"
	 viewBox="0 0 100 100" style="enable-background:new 0 0 100 100;" xml:space="preserve">
<path d="M49.9,93.1c-24.3,0-44-19.7-44-44c0-24.3,19.7-44,44-44c24.3,0,44,19.7,44,44C93.9,73.4,74.2,93.1,49.9,93.1z M49.9,6.1
	c-23.7,0-43,19.3-43,43s19.3,43,43,43s43-19.3,43-43S73.6,6.1,49.9,6.1z"/>
<polygon points="76.1,54 75.1,53.6 82.5,35.6 64.5,28.1 64.9,27.1 83.9,35 "/>
<polygon points="24.5,75.3 23.5,74.9 31,56.9 13,49.5 13.4,48.5 32.4,56.3 "/>
<rect x="29.6" y="45.4" transform="matrix(0.9242 -0.382 0.382 0.9242 -13.1954 25.429)" width="55.7" height="1"/>
</svg>
